<svg width="485" height="424" viewBox="0 0 485 424" fill="none" xmlns="http://www.w3.org/2000/svg">
<ellipse cx="242.394" cy="211.535" rx="212.685" ry="211.426" fill="#FFDBDB" fill-opacity="0.3"/>
<mask id="mask0_46822_12409" style="mask-type:alpha" maskUnits="userSpaceOnUse" x="27" y="0" width="425" height="424">
<ellipse cx="239.158" cy="211.607" rx="212.158" ry="211.607" fill="#DBDCE0"/>
</mask>
<g mask="url(#mask0_46822_12409)">
<g filter="url(#filter0_d_46822_12409)">
<path d="M356.52 511.618H122.355C116.08 511.618 111 506.538 111 500.263L111 118.355C111 112.08 116.08 107 122.355 107L356.52 107C362.795 107 367.874 112.08 367.874 118.355L367.874 500.23C367.908 506.538 362.795 511.618 356.52 511.618Z" fill="#40196D" stroke="#DBDCE0" stroke-opacity="0.5" stroke-width="1.61192"/>
<path d="M355.128 146.349C355.162 144.123 354.73 141.167 353.899 138.244C353.135 135.62 352.139 133.095 350.744 130.737C350.212 129.873 349.315 129.774 348.651 129.94C347.754 130.172 347.19 131.268 347.555 132.132C347.787 132.697 348.053 133.228 348.319 133.76C350.113 137.38 351.242 141.167 351.441 145.22C351.707 150.036 351.076 154.72 349.116 159.138C348.651 160.201 348.086 161.23 347.621 162.326C347.123 163.423 347.821 164.652 348.983 164.784C349.548 164.851 350.079 164.784 350.412 164.253C350.711 163.821 351.009 163.423 351.242 162.958C353.866 158.041 355.261 152.793 355.128 146.349ZM347.655 146.914C347.555 145.95 347.522 144.954 347.389 143.991C346.957 140.503 345.761 137.248 344.034 134.225C343.635 133.527 343.004 133.328 342.273 133.394C341.31 133.494 340.38 134.524 340.878 135.653C341.078 136.118 341.277 136.583 341.476 137.015C342.705 139.44 343.502 141.964 343.835 144.688C344.233 148.043 343.934 151.332 342.772 154.52C342.24 155.949 341.543 157.344 340.945 158.772C340.812 159.071 340.679 159.403 340.712 159.702C340.779 160.466 341.21 160.998 341.908 161.263C342.639 161.529 343.237 161.297 343.702 160.732C344.034 160.333 344.366 159.868 344.599 159.403C346.658 155.484 347.655 151.332 347.655 146.914ZM339.981 147.512C340.081 144.09 339.217 141.034 337.59 138.211C337.424 137.879 337.191 137.58 336.925 137.347C336.427 136.849 335.431 136.716 334.899 137.048C334.036 137.58 333.77 138.244 334.102 139.108C334.301 139.672 334.6 140.237 334.866 140.769C336.693 144.588 336.959 148.475 335.464 152.428C335.099 153.391 334.633 154.321 334.202 155.284C334.069 155.583 333.936 155.916 333.969 156.181C334.036 156.912 334.501 157.444 335.165 157.709C335.829 157.975 336.527 157.809 336.992 157.277C337.191 157.045 337.39 156.746 337.557 156.48C339.184 153.657 340.114 150.667 339.981 147.512ZM329.219 147.279C329.319 148.707 328.953 150.003 328.189 151.199C327.99 151.498 327.824 151.83 327.691 152.162C327.425 152.893 327.691 153.657 328.389 154.188C328.953 154.62 329.717 154.62 330.282 154.155C330.681 153.823 331.046 153.457 331.312 153.026C332.973 150.335 333.338 147.445 332.541 144.389C332.175 142.994 331.544 141.699 330.581 140.636C329.983 139.971 329.153 139.938 328.422 140.403C327.658 140.935 327.392 141.798 327.791 142.595C327.924 142.861 328.056 143.16 328.223 143.393C328.953 144.589 329.286 145.884 329.219 147.279Z" fill="#CACACA"/>
<path d="M355.131 146.349C355.263 152.793 353.868 158.042 351.244 162.991C351.012 163.456 350.713 163.855 350.414 164.286C350.082 164.785 349.55 164.884 348.985 164.818C347.79 164.652 347.125 163.423 347.623 162.36C348.122 161.297 348.653 160.267 349.118 159.171C351.078 154.72 351.709 150.069 351.443 145.253C351.211 141.2 350.082 137.414 348.321 133.793C348.055 133.262 347.823 132.697 347.557 132.165C347.192 131.302 347.756 130.206 348.653 129.973C349.318 129.807 350.214 129.907 350.746 130.77C352.141 133.129 353.137 135.653 353.901 138.277C354.765 141.167 355.164 144.124 355.131 146.349Z" fill="#CACACA"/>
<path d="M347.656 146.913C347.656 151.298 346.692 155.483 344.666 159.37C344.433 159.835 344.101 160.3 343.769 160.698C343.304 161.263 342.673 161.496 341.975 161.23C341.245 160.964 340.846 160.4 340.78 159.669C340.746 159.37 340.879 159.038 341.012 158.739C341.61 157.31 342.308 155.948 342.839 154.487C343.968 151.298 344.267 148.043 343.902 144.655C343.57 141.931 342.773 139.406 341.544 136.981C341.311 136.55 341.145 136.051 340.946 135.62C340.447 134.523 341.377 133.46 342.341 133.361C343.105 133.294 343.703 133.494 344.101 134.191C345.862 137.247 347.058 140.469 347.456 143.957C347.489 144.954 347.556 145.95 347.656 146.913Z" fill="#CACACA"/>
<path d="M339.982 147.511C340.115 150.634 339.184 153.656 337.59 156.48C337.424 156.779 337.258 157.044 337.025 157.277C336.56 157.808 335.863 158.008 335.198 157.709C334.501 157.443 334.069 156.912 334.003 156.181C333.969 155.882 334.135 155.55 334.235 155.284C334.634 154.321 335.132 153.391 335.497 152.427C336.992 148.474 336.726 144.588 334.899 140.768C334.634 140.203 334.368 139.672 334.135 139.107C333.803 138.21 334.069 137.579 334.933 137.048C335.497 136.716 336.461 136.815 336.959 137.347C337.225 137.612 337.424 137.911 337.623 138.21C339.218 141.067 340.081 144.09 339.982 147.511Z" fill="#CACACA"/>
<path d="M329.221 147.28C329.321 145.885 328.955 144.589 328.191 143.426C328.025 143.161 327.892 142.895 327.76 142.629C327.394 141.832 327.627 140.968 328.391 140.437C329.121 139.939 329.952 140.005 330.55 140.669C331.546 141.732 332.144 143.028 332.51 144.423C333.34 147.479 332.941 150.369 331.281 153.059C331.015 153.491 330.649 153.89 330.251 154.189C329.653 154.654 328.922 154.654 328.357 154.222C327.66 153.691 327.394 152.893 327.66 152.196C327.793 151.864 327.959 151.531 328.158 151.232C328.955 150.003 329.287 148.708 329.221 147.28Z" fill="#CACACA"/>
<g opacity="0.13">
<mask id="mask1_46822_12409" style="mask-type:alpha" maskUnits="userSpaceOnUse" x="111" y="194" width="257" height="87">
<path d="M167.569 279.079H149.203L126.92 251.515V279.079H111.125V194.08H126.92V245.079L147.979 218.366H166.835L142.224 248.358L167.569 279.079Z" fill="#DFE3FF"/>
<path d="M208.569 218.366H224.364V279.079H208.569V272.279C204.733 277.945 198.651 280.779 190.326 280.779C183.632 280.779 178.082 278.553 173.674 274.1C169.348 269.648 167.185 263.496 167.185 255.644V218.366H182.979V253.701C182.979 257.748 184.081 260.865 186.285 263.051C188.489 265.155 191.428 266.208 195.101 266.208C199.182 266.208 202.447 264.953 204.896 262.443C207.345 259.934 208.569 256.17 208.569 251.151V218.366Z" fill="#DFE3FF"/>
<path d="M280.336 194.08L296.131 194.08V279.079H280.336V271.915C275.684 277.824 269.072 280.779 260.501 280.779C252.257 280.779 245.196 277.703 239.319 271.55C233.524 265.317 230.626 257.708 230.626 248.722C230.626 239.737 233.524 232.168 239.319 226.016C245.196 219.782 252.257 216.666 260.501 216.666C269.072 216.666 275.684 219.62 280.336 225.53V194.08ZM251.196 261.108C254.461 264.265 258.542 265.843 263.44 265.843C268.337 265.843 272.378 264.265 275.561 261.108C278.745 257.87 280.336 253.741 280.336 248.722C280.336 243.703 278.745 239.615 275.561 236.458C272.378 233.22 268.337 231.601 263.44 231.601C258.542 231.601 254.461 233.22 251.196 236.458C248.012 239.615 246.421 243.703 246.421 248.722C246.421 253.741 248.012 257.87 251.196 261.108Z" fill="#DFE3FF"/>
<path d="M352.205 218.366H368V279.079H352.205V271.915C347.471 277.824 340.818 280.779 332.247 280.779C324.085 280.779 317.065 277.703 311.188 271.55C305.393 265.317 302.495 257.708 302.495 248.722C302.495 239.737 305.393 232.168 311.188 226.016C317.065 219.782 324.085 216.666 332.247 216.666C340.818 216.666 347.471 219.62 352.205 225.53V218.366ZM323.065 261.108C326.248 264.265 330.288 265.843 335.186 265.843C340.083 265.843 344.124 264.265 347.307 261.108C350.572 257.87 352.205 253.741 352.205 248.722C352.205 243.703 350.572 239.615 347.307 236.458C344.124 233.22 340.083 231.601 335.186 231.601C330.288 231.601 326.248 233.22 323.065 236.458C319.881 239.615 318.289 243.703 318.289 248.722C318.289 253.741 319.881 257.87 323.065 261.108Z" fill="#DFE3FF"/>
</mask>
<g mask="url(#mask1_46822_12409)">
<rect x="76.8701" y="177.692" width="291.044" height="111.47" fill="#DFE3FF"/>
</g>
</g>
<g clip-path="url(#clip0_46822_12409)">
<path d="M191.331 127.989V145.277H186.321V142.752C185.775 143.662 185.06 144.356 184.174 144.833C183.287 145.311 182.288 145.55 181.174 145.55C179.016 145.55 177.403 144.947 176.335 143.741C175.267 142.536 174.733 140.716 174.733 138.282V127.989H179.879V138.384C179.879 140.477 180.777 141.523 182.572 141.523C183.64 141.523 184.503 141.159 185.162 140.432C185.821 139.704 186.15 138.748 186.15 137.565V127.989H191.331ZM210.961 120.107V145.277H205.883V142.718C205.361 143.605 204.622 144.299 203.668 144.799C202.714 145.3 201.635 145.55 200.43 145.55C198.953 145.55 197.636 145.174 196.477 144.412C195.318 143.65 194.421 142.581 193.773 141.205C193.126 139.829 192.808 138.259 192.808 136.485C192.808 134.711 193.126 133.152 193.773 131.799C194.421 130.445 195.318 129.399 196.466 128.66C197.613 127.92 198.931 127.556 200.43 127.556C201.589 127.556 202.646 127.807 203.6 128.284C204.554 128.773 205.293 129.445 205.815 130.309V120.107H210.961ZM204.861 140.318C205.543 139.442 205.883 138.191 205.883 136.553C205.883 134.938 205.543 133.698 204.85 132.823C204.157 131.947 203.191 131.515 201.941 131.515C200.669 131.515 199.681 131.947 198.976 132.811C198.272 133.676 197.92 134.904 197.92 136.496C197.92 138.134 198.272 139.397 198.976 140.295C199.681 141.194 200.669 141.637 201.941 141.637C203.214 141.626 204.179 141.194 204.861 140.318ZM230.604 127.989V145.277H225.525V142.718C225.003 143.605 224.264 144.299 223.31 144.799C222.356 145.3 221.277 145.55 220.072 145.55C218.573 145.55 217.255 145.186 216.108 144.458C214.96 143.73 214.063 142.695 213.415 141.341C212.768 139.988 212.45 138.43 212.45 136.655C212.45 134.881 212.768 133.3 213.415 131.913C214.063 130.525 214.96 129.456 216.119 128.694C217.278 127.932 218.596 127.556 220.072 127.556C221.277 127.556 222.356 127.818 223.31 128.341C224.264 128.864 225.003 129.57 225.525 130.457V127.989H230.604ZM224.503 140.329C225.185 139.465 225.525 138.214 225.525 136.576C225.525 134.938 225.185 133.687 224.503 132.811C223.821 131.935 222.844 131.503 221.572 131.503C220.3 131.503 219.311 131.958 218.607 132.868C217.903 133.778 217.55 135.04 217.55 136.655C217.55 138.271 217.891 139.499 218.584 140.352C219.277 141.205 220.266 141.626 221.561 141.626C222.844 141.626 223.821 141.194 224.503 140.329ZM173.699 145.527H167.315L160.453 137.691V145.527H155.25V120.107H160.453V135.541L167.008 128.046H173.256L165.838 136.439L173.699 145.527Z" fill="#CACACA"/>
<path d="M140.971 145.527L130.985 134.017L136.438 145.527H132.655L127.088 133.789L129.406 145.527H127.077L124.759 133.767V145.527H123.851V120.107H124.759V132.788L127.111 120.107H129.429L127.066 132.845L132.746 120.107H136.483L130.837 132.8L141.096 120.107H146.969L136.347 133.232L147.014 145.527H140.971Z" fill="#CACACA"/>
<path d="M234.91 145.254C236.466 145.254 237.728 143.991 237.728 142.433C237.728 140.876 236.466 139.613 234.91 139.613C233.354 139.613 232.093 140.876 232.093 142.433C232.093 143.991 233.354 145.254 234.91 145.254Z" fill="#CACACA"/>
</g>
</g>
<g opacity="0.7">
<path opacity="0.7" d="M284.341 157.871L284.341 126.365C284.341 124.719 283.02 123.377 281.414 123.377H262.226C260.6 123.377 259.299 124.739 259.299 126.365L259.299 157.871C259.299 159.518 260.62 160.859 262.226 160.859H281.414C283.02 160.859 284.341 159.518 284.341 157.871Z" fill="#ECC581"/>
<path opacity="0.7" d="M284.21 126.379L284.21 157.885C284.21 159.451 282.95 160.711 281.446 160.711L262.258 160.711C260.753 160.711 259.493 159.451 259.493 157.885L259.493 126.379C259.493 124.834 260.733 123.554 262.258 123.554L281.446 123.554C282.95 123.534 284.21 124.794 284.21 126.379Z" stroke="#C08329" stroke-opacity="0.3" stroke-width="0.360166"/>
</g>
<path d="M277.334 127.331C279.773 127.331 281.745 129.344 281.745 131.824L281.745 136.316H284.103L284.103 126.234C284.103 124.709 282.883 123.469 281.399 123.469H275.932L275.932 127.27H277.334L277.334 127.331Z" fill="#ECC581"/>
<path d="M277.342 127.153L276.082 127.153L276.082 123.657L281.387 123.657C282.79 123.657 283.948 124.836 283.948 126.259L283.948 136.178L281.916 136.178L281.916 131.828C281.916 129.308 279.964 127.255 277.505 127.174L277.505 127.153L277.342 127.153V127.153Z" stroke="#C08329" stroke-opacity="0.3" stroke-width="0.360166"/>
<path d="M266.301 156.735C263.862 156.735 261.89 154.723 261.89 152.243L261.89 147.751H259.532L259.532 157.833C259.532 159.357 260.752 160.597 262.236 160.597H267.703L267.703 156.796H266.301L266.301 156.735Z" fill="#ECC581"/>
<path d="M266.299 156.915L267.559 156.915L267.559 160.411L262.254 160.411C260.851 160.411 259.692 159.232 259.692 157.809L259.692 147.89L261.745 147.89L261.745 152.24C261.745 154.76 263.697 156.813 266.156 156.895L266.156 156.915L266.299 156.915Z" stroke="#C08329" stroke-opacity="0.3" stroke-width="0.360166"/>
<path d="M261.89 131.86C261.89 129.38 263.862 127.368 266.301 127.368L267.703 127.368L267.704 123.567L262.236 123.567C260.752 123.567 259.532 124.807 259.532 126.331L259.532 136.413L261.89 136.413L261.89 131.86Z" fill="#ECC581"/>
<path d="M266.297 127.201C263.777 127.201 261.724 129.295 261.724 131.856L261.724 136.226L259.671 136.226L259.671 126.307C259.671 124.864 260.83 123.705 262.232 123.705L267.537 123.705L267.537 127.201L266.297 127.201Z" stroke="#C08329" stroke-opacity="0.3" stroke-width="0.360166"/>
<path d="M281.74 152.219C281.74 154.699 279.768 156.711 277.329 156.711L275.927 156.711L275.927 160.512L281.395 160.512C282.878 160.512 284.098 159.272 284.098 157.748L284.098 147.666L281.74 147.666L281.74 152.219Z" fill="#ECC581"/>
<path d="M277.338 156.85C279.858 156.85 281.911 154.757 281.911 152.195L281.911 147.825L283.964 147.825L283.964 157.745C283.964 159.188 282.805 160.346 281.403 160.346L276.098 160.346L276.098 156.85L277.338 156.85V156.85Z" stroke="#C08329" stroke-opacity="0.3" stroke-width="0.360166"/>
<path d="M267.923 136.336L275.708 136.336L275.708 127.412L275.708 123.489L267.923 123.489L267.923 127.412L267.923 136.336Z" fill="#ECC581"/>
<path d="M275.571 127.436L275.571 136.197L268.091 136.197L268.091 127.436L268.091 123.676L275.571 123.676L275.571 127.436Z" stroke="#C08329" stroke-opacity="0.3" stroke-width="0.360166"/>
<path d="M275.738 147.712L267.953 147.712L267.953 156.595L267.953 160.538L275.738 160.538L275.738 156.595L275.738 147.712Z" fill="#ECC581"/>
<path d="M268.085 156.595L268.085 147.854L275.565 147.854L275.565 156.595L275.565 160.396L268.085 160.396L268.085 156.595Z" stroke="#C08329" stroke-opacity="0.3" stroke-width="0.360166"/>
<path d="M259.526 136.566L259.526 147.502L261.884 147.502L267.657 142.034L261.884 136.566L259.526 136.566Z" fill="#ECC581"/>
<path d="M261.831 147.348L259.696 147.348L259.696 136.717L261.831 136.717L267.441 142.022L261.831 147.348Z" stroke="#C08329" stroke-opacity="0.3" stroke-width="0.360166"/>
<path d="M275.991 142.047L281.764 147.515L284.122 147.515L284.122 136.579L281.764 136.579L275.991 142.047Z" fill="#ECC581"/>
<path d="M283.962 147.343L281.828 147.343L276.218 142.037L281.828 136.732L283.962 136.732L283.962 147.343Z" stroke="#C08329" stroke-opacity="0.3" stroke-width="0.360166"/>
<path d="M281.543 131.859C281.543 129.522 279.653 127.591 277.356 127.591L275.953 127.591L275.953 136.473C275.953 136.534 275.892 136.575 275.851 136.575L267.843 136.575C267.782 136.575 267.741 136.514 267.741 136.473L267.741 127.591L266.339 127.591C264.042 127.591 262.151 129.522 262.151 131.859L262.151 136.494L267.944 141.962C268.005 142.023 268.005 142.104 267.944 142.124L262.151 147.592L262.151 152.226C262.151 154.564 264.042 156.495 266.339 156.495L267.741 156.495L267.741 147.612C267.741 147.551 267.802 147.511 267.843 147.511L275.851 147.511C275.912 147.511 275.953 147.572 275.953 147.612L275.953 156.495L277.356 156.495C279.653 156.495 281.543 154.564 281.543 152.226L281.543 147.592L275.75 142.124C275.729 142.104 275.729 142.063 275.729 142.043C275.729 142.023 275.729 141.982 275.75 141.962L281.543 136.494L281.543 131.859Z" fill="#ECC581"/>
<path d="M277.337 156.342L276.077 156.342L276.077 147.601C276.077 147.52 276.036 147.459 275.995 147.418C275.955 147.378 275.894 147.337 275.812 147.337L267.804 147.337C267.723 147.337 267.662 147.378 267.621 147.418C267.58 147.459 267.54 147.52 267.54 147.601L267.54 156.342L266.279 156.342C264.064 156.342 262.234 154.472 262.234 152.215L262.234 147.642L267.966 142.235C268.048 142.194 268.068 142.113 268.068 142.032C268.068 141.95 268.027 141.889 267.987 141.828L262.234 136.401L262.234 131.828C262.234 129.572 264.064 127.702 266.279 127.702L267.54 127.702L267.54 136.442C267.54 136.523 267.58 136.584 267.621 136.625C267.662 136.666 267.723 136.706 267.804 136.706L275.812 136.706C275.894 136.706 275.955 136.666 275.995 136.625C276.036 136.584 276.077 136.523 276.077 136.442L276.077 127.702L277.337 127.702C279.553 127.702 281.382 129.572 281.382 131.828L281.382 136.401L275.63 141.828C275.569 141.91 275.569 141.991 275.569 142.011C275.569 142.052 275.569 142.133 275.63 142.194L281.382 147.622L281.382 152.195C281.382 154.472 279.553 156.342 277.337 156.342Z" stroke="#C08329" stroke-opacity="0.3" stroke-width="0.360166"/>
<g filter="url(#filter1_d_46822_12409)">
<circle cx="363.5" cy="254.5" r="64.5" fill="white"/>
<circle cx="363.5" cy="254.5" r="64" stroke="#F7685B"/>
</g>
<path d="M385.582 267.7L385.718 267.836L385.817 267.67C388.193 263.688 389.448 259.137 389.45 254.5V254.5C389.442 249.929 388.228 245.442 385.929 241.491C383.63 237.541 380.329 234.267 376.359 232.003C372.388 229.738 367.891 228.562 363.32 228.593C358.75 228.625 354.268 229.863 350.33 232.183L350.163 232.281L350.3 232.418L385.582 267.7ZM337.55 254.5L337.55 254.5C337.557 259.071 338.772 263.559 341.071 267.509C343.37 271.459 346.671 274.733 350.641 276.998C354.611 279.262 359.109 280.438 363.679 280.407C368.25 280.375 372.731 279.137 376.669 276.817L376.836 276.719L376.699 276.582L341.418 241.3L341.282 241.164L341.183 241.33C338.807 245.312 337.552 249.863 337.55 254.5ZM342.083 222.447C348.422 218.211 355.875 215.95 363.5 215.95C373.724 215.95 383.529 220.012 390.759 227.241C397.988 234.471 402.05 244.276 402.05 254.5C402.05 262.125 399.789 269.578 395.553 275.917C391.317 282.257 385.296 287.198 378.252 290.116C371.208 293.033 363.457 293.797 355.979 292.309C348.501 290.822 341.632 287.15 336.241 281.759C330.85 276.368 327.178 269.499 325.691 262.021C324.203 254.543 324.967 246.792 327.884 239.748C330.802 232.704 335.743 226.683 342.083 222.447Z" fill="#F7685B" stroke="white" stroke-width="0.3"/>
</g>
<g filter="url(#filter2_d_46822_12409)">
<path fill-rule="evenodd" clip-rule="evenodd" d="M25 37H460V112H25V37Z" fill="white"/>
</g>
<path d="M145.198 75.8159C146.057 76.0614 146.719 76.4977 147.182 77.125C147.646 77.7386 147.878 78.4886 147.878 79.375C147.878 80.1795 147.666 80.8818 147.244 81.4818C146.821 82.0818 146.214 82.5454 145.423 82.8727C144.646 83.2 143.725 83.3636 142.662 83.3636H135.4V68.8H142.478C144.005 68.8 145.219 69.1409 146.119 69.8227C147.019 70.5045 147.469 71.425 147.469 72.5841C147.469 73.3341 147.271 73.9954 146.875 74.5682C146.48 75.1409 145.921 75.5568 145.198 75.8159ZM139.144 74.5068H141.823C142.532 74.5068 143.05 74.3977 143.378 74.1795C143.705 73.9614 143.869 73.6136 143.869 73.1364C143.869 72.6454 143.698 72.2841 143.357 72.0523C143.03 71.8204 142.519 71.7045 141.823 71.7045H139.144V74.5068ZM142.212 80.4591C142.948 80.4591 143.473 80.3432 143.787 80.1114C144.114 79.8795 144.278 79.4909 144.278 78.9454C144.278 78.3864 144.121 77.9909 143.807 77.7591C143.494 77.5273 142.962 77.4114 142.212 77.4114H139.144V80.4591H142.212Z" fill="#40196D"/>
<path d="M149.558 83.3636V68.3091H153.26V83.3636H149.558Z" fill="#40196D"/>
<path d="M160.707 83.5273C159.548 83.5273 158.539 83.3091 157.68 82.8727C156.821 82.4364 156.159 81.8091 155.696 80.9909C155.232 80.1727 155 79.2114 155 78.1068C155 77.0023 155.232 76.0409 155.696 75.2227C156.159 74.4045 156.821 73.7773 157.68 73.3409C158.539 72.9045 159.548 72.6864 160.707 72.6864C161.852 72.6864 162.848 72.9114 163.693 73.3614C164.552 73.7977 165.214 74.425 165.677 75.2432C166.141 76.0477 166.373 77.0023 166.373 78.1068C166.373 79.2114 166.141 80.1727 165.677 80.9909C165.214 81.7954 164.552 82.4227 163.693 82.8727C162.848 83.3091 161.852 83.5273 160.707 83.5273ZM160.707 80.7659C162.043 80.7659 162.712 79.8795 162.712 78.1068C162.712 77.2068 162.541 76.5454 162.2 76.1227C161.873 75.6864 161.375 75.4682 160.707 75.4682C160.025 75.4682 159.514 75.6864 159.173 76.1227C158.832 76.5454 158.662 77.2068 158.662 78.1068C158.662 79.0204 158.832 79.6954 159.173 80.1318C159.514 80.5545 160.025 80.7659 160.707 80.7659Z" fill="#40196D"/>
<path d="M173.269 83.5273C171.51 83.5273 170.133 83.05 169.138 82.0954C168.142 81.1409 167.644 79.8386 167.644 78.1886C167.644 77.0977 167.883 76.1364 168.36 75.3045C168.851 74.4727 169.533 73.8318 170.406 73.3818C171.279 72.9182 172.288 72.6864 173.433 72.6864C174.197 72.6864 174.947 72.8023 175.683 73.0341C176.419 73.2523 177.006 73.5523 177.442 73.9341L176.501 76.4909C176.133 76.1909 175.704 75.9523 175.213 75.775C174.722 75.5977 174.251 75.5091 173.801 75.5091C173.038 75.5091 172.451 75.7273 172.042 76.1636C171.633 76.6 171.429 77.2477 171.429 78.1068C171.429 78.9795 171.633 79.6409 172.042 80.0909C172.451 80.5273 173.044 80.7454 173.822 80.7454C174.272 80.7454 174.735 80.6568 175.213 80.4795C175.704 80.3023 176.133 80.0636 176.501 79.7636L177.442 82.2795C176.992 82.675 176.392 82.9818 175.642 83.2C174.906 83.4182 174.115 83.5273 173.269 83.5273Z" fill="#40196D"/>
<path d="M190.362 83.3636H185.883L182.344 78.8841V83.3636H178.642V68.3091H182.344V77.3091L185.821 72.9932H190.199L186.108 77.9636L190.362 83.3636Z" fill="#40196D"/>
<path d="M204.081 83.5477C202.567 83.5477 201.245 83.2409 200.113 82.6273C198.995 82 198.129 81.1204 197.515 79.9886C196.915 78.8568 196.615 77.5477 196.615 76.0614C196.615 74.5886 196.915 73.2932 197.515 72.175C198.129 71.0432 198.995 70.1704 200.113 69.5568C201.245 68.9295 202.567 68.6159 204.081 68.6159C205.036 68.6159 205.956 68.7591 206.842 69.0454C207.742 69.3318 208.465 69.7204 209.011 70.2114L207.845 72.9318C206.658 72.0727 205.431 71.6432 204.163 71.6432C202.99 71.6432 202.09 72.0182 201.463 72.7682C200.836 73.5045 200.522 74.6023 200.522 76.0614C200.522 77.5341 200.836 78.6454 201.463 79.3954C202.09 80.1454 202.99 80.5204 204.163 80.5204C205.431 80.5204 206.658 80.0909 207.845 79.2318L209.011 81.9523C208.465 82.4432 207.742 82.8318 206.842 83.1182C205.956 83.4045 205.036 83.5477 204.081 83.5477Z" fill="#40196D"/>
<path d="M221.545 72.9727V83.3636H217.904V81.9523C217.604 82.4432 217.168 82.8318 216.595 83.1182C216.022 83.3909 215.395 83.5273 214.713 83.5273C213.827 83.5273 213.036 83.3091 212.341 82.8727C211.645 82.4364 211.1 81.8159 210.704 81.0114C210.322 80.1932 210.132 79.2523 210.132 78.1886C210.132 77.1114 210.329 76.1568 210.725 75.325C211.12 74.4932 211.666 73.8454 212.361 73.3818C213.057 72.9182 213.841 72.6864 214.713 72.6864C215.395 72.6864 216.016 72.8364 216.575 73.1364C217.147 73.4227 217.591 73.8114 217.904 74.3023V72.9727H221.545ZM215.859 80.7659C216.513 80.7659 217.018 80.5409 217.372 80.0909C217.727 79.6409 217.904 78.9932 217.904 78.1477C217.904 77.2886 217.727 76.6341 217.372 76.1841C217.018 75.7204 216.513 75.4886 215.859 75.4886C215.218 75.4886 214.713 75.7273 214.345 76.2045C213.977 76.6682 213.793 77.3295 213.793 78.1886C213.793 79.0204 213.97 79.6614 214.325 80.1114C214.679 80.5477 215.191 80.7659 215.859 80.7659Z" fill="#40196D"/>
<path d="M230.312 72.7273C230.816 72.7273 231.205 72.8023 231.477 72.9523V76.3273C230.891 76.0545 230.325 75.9182 229.78 75.9182C228.225 75.9182 227.448 76.6614 227.448 78.1477V83.3636H223.746V75.9591C223.746 74.8409 223.691 73.8454 223.582 72.9727H227.059L227.284 74.7114C227.53 74.0704 227.925 73.5795 228.471 73.2386C229.016 72.8977 229.63 72.7273 230.312 72.7273Z" fill="#40196D"/>
<path d="M243.278 68.3091V83.3636H239.637V81.9523C239.337 82.4432 238.901 82.8318 238.328 83.1182C237.755 83.3909 237.128 83.5273 236.446 83.5273C235.56 83.5273 234.769 83.3023 234.074 82.8523C233.378 82.3886 232.833 81.7477 232.437 80.9295C232.055 80.0977 231.865 79.1432 231.865 78.0659C231.865 77.0023 232.055 76.0614 232.437 75.2432C232.833 74.425 233.378 73.7977 234.074 73.3614C234.769 72.9114 235.56 72.6864 236.446 72.6864C237.101 72.6864 237.701 72.8227 238.246 73.0954C238.805 73.3682 239.249 73.7364 239.576 74.2V68.3091H243.278ZM237.592 80.7659C238.246 80.7659 238.751 80.5409 239.105 80.0909C239.46 79.6273 239.637 78.9659 239.637 78.1068C239.637 77.275 239.453 76.6341 239.085 76.1841C238.73 75.7204 238.233 75.4886 237.592 75.4886C236.924 75.4886 236.412 75.7136 236.058 76.1636C235.703 76.6 235.526 77.2341 235.526 78.0659C235.526 78.925 235.703 79.5932 236.058 80.0704C236.426 80.5341 236.937 80.7659 237.592 80.7659Z" fill="#40196D"/>
<path d="M382.228 93.7102C392.339 93.7102 400.536 85.5261 400.536 75.4305C400.536 65.335 392.339 57.1509 382.228 57.1509C372.116 57.1509 363.919 65.335 363.919 75.4305C363.919 85.5261 372.116 93.7102 382.228 93.7102Z" fill="white"/>
<path d="M410.873 52H380.946C368.123 52 357.728 62.3789 357.728 75.1818C357.728 87.9848 368.123 98.3636 380.946 98.3636H410.873C423.696 98.3636 434.091 87.9848 434.091 75.1818C434.091 62.3789 423.696 52 410.873 52Z" fill="#F7685B"/>
<path d="M409.582 93.2115C419.556 93.2115 427.641 85.139 427.641 75.1812C427.641 65.2233 419.556 57.1509 409.582 57.1509C399.609 57.1509 391.523 65.2233 391.523 75.1812C391.523 85.139 399.609 93.2115 409.582 93.2115Z" fill="white"/>
<g filter="url(#filter3_d_46822_12409)">
<rect x="62.4541" y="55" width="34.8952" height="40" rx="4" fill="white"/>
<path d="M79.9016 66.1112C78.1435 66.1112 76.425 66.6325 74.9632 67.6093C73.5014 68.586 72.3621 69.9742 71.6893 71.5985C71.0165 73.2227 70.8405 75.01 71.1835 76.7342C71.5265 78.4585 72.3731 80.0424 73.6162 81.2855C74.8593 82.5286 76.4432 83.3752 78.1675 83.7182C79.8917 84.0612 81.679 83.8851 83.3032 83.2124C84.9274 82.5396 86.3157 81.4003 87.2924 79.9385C88.2691 78.4767 88.7905 76.7582 88.7905 75.0001C88.7905 72.6426 87.854 70.3817 86.187 68.7147C84.52 67.0477 82.2591 66.1112 79.9016 66.1112ZM85.8275 75.0001C85.8271 76.059 85.5404 77.0981 84.9979 78.0075L76.8942 69.9038C77.7935 69.3741 78.8168 69.0913 79.8606 69.0841C80.9043 69.0769 81.9314 69.3454 82.838 69.8626C83.7446 70.3798 84.4985 71.1273 85.0235 72.0294C85.5484 72.9316 85.8258 73.9563 85.8275 75.0001ZM73.9757 75.0001C73.9761 73.9412 74.2627 72.9021 74.8053 71.9927L82.909 80.0964C82.0096 80.6261 80.9863 80.9089 79.9426 80.9161C78.8989 80.9233 77.8718 80.6548 76.9652 80.1376C76.0586 79.6204 75.3047 78.8729 74.7797 77.9708C74.2548 77.0686 73.9774 76.0438 73.9757 75.0001Z" fill="#F7685B"/>
</g>
<defs>
<filter id="filter0_d_46822_12409" x="110.194" y="106.194" width="310.068" height="449.751" filterUnits="userSpaceOnUse" color-interpolation-filters="sRGB">
<feFlood flood-opacity="0" result="BackgroundImageFix"/>
<feColorMatrix in="SourceAlpha" type="matrix" values="0 0 0 0 0 0 0 0 0 0 0 0 0 0 0 0 0 0 127 0" result="hardAlpha"/>
<feOffset dx="32.2383" dy="24.1788"/>
<feGaussianBlur stdDeviation="9.6715"/>
<feComposite in2="hardAlpha" operator="out"/>
<feColorMatrix type="matrix" values="0 0 0 0 0.25098 0 0 0 0 0.0980392 0 0 0 0 0.427451 0 0 0 0.1 0"/>
<feBlend mode="normal" in2="BackgroundImageFix" result="effect1_dropShadow_46822_12409"/>
<feBlend mode="normal" in="SourceGraphic" in2="effect1_dropShadow_46822_12409" result="shape"/>
</filter>
<filter id="filter1_d_46822_12409" x="274" y="185" width="179" height="179" filterUnits="userSpaceOnUse" color-interpolation-filters="sRGB">
<feFlood flood-opacity="0" result="BackgroundImageFix"/>
<feColorMatrix in="SourceAlpha" type="matrix" values="0 0 0 0 0 0 0 0 0 0 0 0 0 0 0 0 0 0 127 0" result="hardAlpha"/>
<feOffset dy="20"/>
<feGaussianBlur stdDeviation="12.5"/>
<feColorMatrix type="matrix" values="0 0 0 0 0.968627 0 0 0 0 0.407843 0 0 0 0 0.356863 0 0 0 0.3 0"/>
<feBlend mode="normal" in2="BackgroundImageFix" result="effect1_dropShadow_46822_12409"/>
<feBlend mode="normal" in="SourceGraphic" in2="effect1_dropShadow_46822_12409" result="shape"/>
</filter>
<filter id="filter2_d_46822_12409" x="0" y="12" width="485" height="125" filterUnits="userSpaceOnUse" color-interpolation-filters="sRGB">
<feFlood flood-opacity="0" result="BackgroundImageFix"/>
<feColorMatrix in="SourceAlpha" type="matrix" values="0 0 0 0 0 0 0 0 0 0 0 0 0 0 0 0 0 0 127 0" result="hardAlpha"/>
<feOffset/>
<feGaussianBlur stdDeviation="12.5"/>
<feColorMatrix type="matrix" values="0 0 0 0 0 0 0 0 0 0 0 0 0 0 0 0 0 0 0.06 0"/>
<feBlend mode="normal" in2="BackgroundImageFix" result="effect1_dropShadow_46822_12409"/>
<feBlend mode="normal" in="SourceGraphic" in2="effect1_dropShadow_46822_12409" result="shape"/>
</filter>
<filter id="filter3_d_46822_12409" x="52.4541" y="45" width="54.8955" height="60" filterUnits="userSpaceOnUse" color-interpolation-filters="sRGB">
<feFlood flood-opacity="0" result="BackgroundImageFix"/>
<feColorMatrix in="SourceAlpha" type="matrix" values="0 0 0 0 0 0 0 0 0 0 0 0 0 0 0 0 0 0 127 0" result="hardAlpha"/>
<feOffset/>
<feGaussianBlur stdDeviation="5"/>
<feColorMatrix type="matrix" values="0 0 0 0 0 0 0 0 0 0 0 0 0 0 0 0 0 0 0.06 0"/>
<feBlend mode="normal" in2="BackgroundImageFix" result="effect1_dropShadow_46822_12409"/>
<feBlend mode="normal" in="SourceGraphic" in2="effect1_dropShadow_46822_12409" result="shape"/>
</filter>
<clipPath id="clip0_46822_12409">
<rect width="113.851" height="25.4431" fill="white" transform="translate(123.851 120.107)"/>
</clipPath>
</defs>
</svg>
