<svg width="41" height="40" viewBox="0 0 41 40" fill="none" xmlns="http://www.w3.org/2000/svg">
<circle cx="20.5" cy="20" r="20" fill="#DBF8FF"/>
<rect x="16.2148" y="12.8555" width="8.57143" height="14.2857" fill="#DBF8FF"/>
<rect x="16.9277" y="15" width="6.42857" height="8.57143" fill="white"/>
<path d="M16.4269 11.4277C15.9134 11.4277 15.5 11.8787 15.5 12.4389V28.2737C15.5 28.8339 15.9134 29.2849 16.4269 29.2849H24.1643C24.6778 29.2849 25.0912 28.8339 25.0912 28.2737V12.4389C25.0912 11.8787 24.6778 11.4277 24.1643 11.4277H16.4269ZM16.3472 13.1018H24.244V26.6691H16.3472V13.1018ZM21.7495 16.7639V20.9492H22.5387V16.7639H21.7495ZM20.5171 17.8102V20.9492H21.3063V17.8102H20.5171ZM19.2848 18.8565V20.9492H20.074V18.8565H19.2848ZM18.0525 19.9028V20.9492H18.8417V19.9028H18.0525ZM20.2956 27.262C20.6488 27.262 21.0047 27.5743 21.0047 27.9595C21.0047 28.3448 20.6488 28.6571 20.2956 28.6571C19.9425 28.6571 19.5865 28.3448 19.5865 27.9595C19.5865 27.5743 19.9425 27.262 20.2956 27.262Z" fill="#1DCBEF"/>
</svg>
