<svg width="448" height="461" viewBox="0 0 448 461" fill="none" xmlns="http://www.w3.org/2000/svg">
<g filter="url(#filter0_d_56813_38342)">
<path d="M276.797 352.124L137.174 391.324C133.433 392.375 129.554 390.196 128.503 386.455L64.5705 158.739C63.52 154.998 65.6985 151.118 69.44 150.068L209.063 110.868C212.804 109.818 216.683 111.996 217.734 115.737L281.661 343.433C282.737 347.189 280.538 351.074 276.797 352.124Z" fill="#F4E6FF"/>
<path d="M276.797 352.124L137.174 391.324C133.433 392.375 129.554 390.196 128.503 386.455L64.5705 158.739C63.52 154.998 65.6985 151.118 69.44 150.068L209.063 110.868C212.804 109.818 216.683 111.996 217.734 115.737L281.661 343.433C282.737 347.189 280.538 351.074 276.797 352.124Z" stroke="#DBDCE0" stroke-opacity="0.5" stroke-width="0.998344"/>
</g>
<g opacity="0.4">
<mask id="mask0_56813_38342" style="mask-type:alpha" maskUnits="userSpaceOnUse" x="77" y="172" width="168" height="83">
<path d="M125.208 245.103L114.258 248.178L96.3564 235.473L100.971 251.908L91.553 254.552L77.324 203.871L86.7416 201.227L95.279 231.636L103.364 212.182L114.607 209.025L104.953 231.028L125.208 245.103Z" fill="white"/>
<path d="M139.491 202.039L148.909 199.395L159.072 235.595L149.655 238.24L148.516 234.185C147.177 238.206 144.026 240.913 139.062 242.307C135.071 243.428 131.388 243.029 128.015 241.113C124.69 239.182 122.37 235.876 121.056 231.194L114.815 208.967L124.233 206.323L130.148 227.391C130.826 229.805 132.005 231.479 133.685 232.413C135.351 233.299 137.279 233.435 139.469 232.82C141.903 232.136 143.64 230.842 144.68 228.935C145.72 227.029 145.82 224.58 144.979 221.587L139.491 202.039Z" fill="white"/>
<path d="M178.217 175.545L187.635 172.901L201.864 223.581L192.446 226.225L191.247 221.954C189.462 226.256 186.015 229.125 180.904 230.56C175.989 231.94 171.264 231.287 166.729 228.603C162.23 225.857 159.229 221.804 157.725 216.447C156.22 211.089 156.681 206.091 159.107 201.452C161.568 196.752 165.256 193.712 170.171 192.332C175.282 190.897 179.719 191.552 183.482 194.297L178.217 175.545ZM172.063 220.388C174.538 221.724 177.236 221.982 180.156 221.162C183.076 220.342 185.221 218.725 186.591 216.309C187.947 213.846 188.205 211.118 187.365 208.125C186.524 205.133 184.891 202.962 182.464 201.612C180.024 200.214 177.344 199.925 174.424 200.745C171.504 201.565 169.341 203.214 167.936 205.691C166.567 208.106 166.302 210.81 167.142 213.803C167.982 216.795 169.623 218.99 172.063 220.388Z" fill="white"/>
<path d="M225.135 177.994L234.553 175.35L244.716 211.55L235.299 214.194L234.099 209.923C232.266 214.239 228.794 217.114 223.683 218.549C218.816 219.915 214.116 219.256 209.582 216.572C205.083 213.825 202.081 209.773 200.577 204.416C199.073 199.058 199.533 194.06 201.959 189.421C204.42 184.721 208.084 181.688 212.951 180.321C218.061 178.886 222.522 179.534 226.334 182.265L225.135 177.994ZM214.915 208.357C217.342 209.707 220.015 209.972 222.935 209.152C225.855 208.332 228 206.714 229.37 204.299C230.775 201.822 231.057 199.087 230.217 196.094C229.377 193.102 227.719 190.937 225.244 189.601C222.803 188.204 220.123 187.915 217.203 188.735C214.283 189.554 212.145 191.196 210.789 193.66C209.419 196.075 209.154 198.779 209.994 201.772C210.835 204.764 212.475 206.959 214.915 208.357Z" fill="white"/>
</mask>
<g mask="url(#mask0_56813_38342)">
<rect x="54.155" y="199.834" width="180.247" height="69.0346" transform="rotate(-15.6825 54.155 199.834)" fill="white"/>
</g>
</g>
<path d="M88.9281 159.712L92.8605 158.608L88.4014 169.264L97.9117 175.999L93.7839 177.157L84.1379 170.841L88.9281 159.712Z" fill="#8369A0"/>
<path d="M83.2133 161.316L85.9612 160.545L84.3168 170.79L90.6607 178.034L87.6783 178.872L81.7423 171.429L83.2133 161.316Z" fill="#8369A0"/>
<path d="M79.3545 162.4L80.9179 161.961L81.7648 171.423L85.8128 179.395L84.2494 179.834L80.2404 171.851L79.3545 162.4Z" fill="#8369A0"/>
<path d="M77.1121 163.029L77.9885 162.783L82.8834 180.218L82.007 180.464L77.1121 163.029Z" fill="#8369A0"/>
<circle cx="99.6744" cy="173.48" r="2.02968" transform="rotate(-15.6825 99.6744 173.48)" fill="#8369A0"/>
<path d="M262.79 334.314C261.086 334.823 259.407 335.324 257.728 335.826C257.641 336.625 257.555 337.423 257.468 338.222C256.09 338.633 254.736 339.038 253.358 339.45C253.37 339.394 253.383 339.339 253.37 339.291C253.787 336.669 254.178 334.053 254.595 331.431C254.968 329.053 255.322 326.707 255.695 324.329C255.775 323.712 256.082 323.234 256.646 322.911C256.808 322.811 256.984 322.759 257.134 322.714C258.187 322.399 259.239 322.085 260.292 321.771C260.342 321.756 260.367 321.748 260.417 321.733C262.742 326.241 265.067 330.749 267.417 335.249C266.214 335.609 265.011 335.968 263.783 336.335C263.494 335.649 263.155 334.977 262.79 334.314ZM261.351 331.524C261.351 331.524 261.345 331.5 261.339 331.476C260.465 329.806 259.623 328.151 258.75 326.481C258.75 326.481 258.75 326.481 258.725 326.488C258.521 328.481 258.291 330.481 258.093 332.498C258.225 332.484 261.232 331.586 261.351 331.524Z" fill="#8369A0"/>
<path d="M231.679 345.344C230.307 345.754 228.936 346.163 227.564 346.573C227.526 346.533 227.52 346.509 227.483 346.469C225.657 343.326 223.838 340.206 222.013 337.063C221.769 336.649 221.525 336.235 221.281 335.821C221.019 335.336 220.601 335.076 220.045 335.012C219.372 334.905 218.717 334.87 218.018 334.874C217.369 334.863 216.733 334.899 216.072 334.943C216.022 334.958 215.991 334.941 215.941 334.956C215.904 334.814 215.922 334.68 215.909 334.53C215.959 334.516 216.009 334.501 216.059 334.486C218.204 333.845 220.324 333.212 222.468 332.572C222.743 332.49 223.023 332.432 223.304 332.476C223.972 332.559 224.44 332.906 224.746 333.455C225.146 334.257 225.547 335.06 225.953 335.886C226.435 336.895 226.941 337.896 227.423 338.905C227.786 339.668 228.167 340.399 228.53 341.162C228.542 341.209 228.58 341.249 228.592 341.297L228.617 341.289C228.617 341.289 228.611 341.265 228.636 341.258C228.636 341.258 228.63 341.234 228.648 341.203C229.143 337.572 229.618 333.972 230.112 330.341C230.112 330.341 230.112 330.341 230.131 330.31C231.478 329.908 232.825 329.506 234.221 329.089C233.361 334.494 232.508 339.923 231.679 345.344Z" fill="#8369A0"/>
<path d="M242.493 341.943C242.46 340.79 242.415 339.692 242.357 338.546C242.413 338.555 242.47 338.564 242.552 338.565C243.062 338.646 243.59 338.695 244.125 338.664C245.044 338.648 245.975 338.474 246.875 338.179C247.321 338.02 247.73 337.82 248.082 337.509C248.258 337.353 248.428 337.173 248.566 336.976C248.88 336.417 248.747 335.811 248.224 335.476C248.029 335.353 247.79 335.27 247.55 335.186C247.135 335.052 246.707 334.973 246.26 334.925C245.725 334.852 245.184 334.756 244.655 334.603C244.158 334.467 243.673 334.276 243.226 334.022C242.646 333.678 242.18 333.249 241.883 332.639C241.663 332.214 241.568 331.752 241.523 331.274C241.414 329.937 241.891 328.76 242.808 327.711C243.393 327.045 244.116 326.494 244.902 326.078C245.663 325.67 246.474 325.35 247.285 325.134C248.424 324.819 249.588 324.704 250.765 324.741C250.79 324.733 250.822 324.75 250.847 324.742C250.847 324.742 250.872 324.735 250.878 324.759C250.917 325.832 250.957 326.906 251.002 328.004C250.945 327.995 250.92 328.003 250.895 328.01C250.083 327.917 249.253 327.958 248.447 328.095C247.881 328.212 247.321 328.354 246.793 328.615C246.478 328.76 246.202 328.946 245.969 329.197C245.8 329.377 245.661 329.573 245.618 329.819C245.524 330.183 245.606 330.494 245.908 330.714C246.041 330.804 246.173 330.893 246.349 330.944C246.62 331.044 246.884 331.12 247.174 331.189C247.633 331.284 248.086 331.356 248.546 331.451C249.062 331.556 249.578 331.66 250.057 331.827C250.441 331.945 250.812 332.119 251.14 332.331C251.914 332.797 252.419 333.474 252.646 334.336C253.121 336.133 252.594 337.738 251.224 339.129C250.621 339.723 249.929 340.188 249.194 340.588C248.382 341.011 247.514 341.322 246.621 341.537C245.476 341.828 244.325 341.99 243.154 341.978C242.909 341.974 242.714 341.955 242.493 341.943Z" fill="#8369A0"/>
<path d="M239.602 327.503C239.806 332.724 239.998 337.897 240.17 343.102C238.847 343.495 237.524 343.889 236.176 344.289C235.978 339.092 235.78 333.895 235.608 328.691C236.956 328.29 238.279 327.896 239.602 327.503Z" fill="#8369A0"/>
<path d="M155.458 140.675L156.666 140.336L158.045 145.248L157.097 145.515L154.109 143.346L154.892 146.134L153.697 146.469L152.318 141.557L153.253 141.294L156.237 143.449L155.458 140.675Z" fill="#8369A0"/>
<path d="M162.63 143.961L161.915 143.068L159.758 143.673L159.613 144.808L158.329 145.168L159.223 139.618L160.233 139.334L163.892 143.607L162.63 143.961ZM159.901 142.583L161.225 142.212L160.127 140.845L159.901 142.583Z" fill="#8369A0"/>
<path d="M164.169 143.529L162.79 138.617L164.073 138.256L165.453 143.169L164.169 143.529Z" fill="#8369A0"/>
<path d="M170.554 141.736L169.196 142.118L168.109 140.659C167.984 140.495 167.788 140.451 167.519 140.527L167.055 140.657L167.592 142.568L166.329 142.922L164.95 138.01L167.209 137.376C167.796 137.211 168.274 137.216 168.642 137.39C169.009 137.56 169.259 137.882 169.392 138.356C169.485 138.687 169.477 139 169.367 139.293C169.262 139.581 169.064 139.82 168.774 140.011C168.918 140 169.059 140.03 169.196 140.1C169.334 140.171 169.459 140.282 169.57 140.435L170.554 141.736ZM167.576 139.469C167.849 139.392 168.035 139.295 168.135 139.178C168.233 139.056 168.257 138.905 168.207 138.726C168.154 138.537 168.054 138.419 167.908 138.371C167.767 138.321 167.557 138.335 167.279 138.413L166.474 138.639L166.77 139.695L167.576 139.469Z" fill="#8369A0"/>
<path d="M174.835 140.534L174.12 139.641L171.963 140.247L171.818 141.381L170.535 141.742L171.428 136.191L172.439 135.908L176.098 140.18L174.835 140.534ZM172.106 139.157L173.431 138.785L172.333 137.419L172.106 139.157Z" fill="#8369A0"/>
<path d="M180.531 133.636L181.821 133.273L180.989 138.807L179.972 139.092L176.381 134.801L177.712 134.427L180.037 137.332L180.531 133.636Z" fill="#8369A0"/>
<path d="M183.48 138.107L182.101 133.195L183.384 132.835L184.763 137.747L183.48 138.107Z" fill="#8369A0"/>
<path d="M189.865 136.315L188.507 136.696L187.42 135.237C187.295 135.074 187.099 135.029 186.83 135.105L186.366 135.235L186.903 137.146L185.64 137.501L184.261 132.589L186.52 131.954C187.107 131.789 187.585 131.794 187.953 131.969C188.32 132.139 188.569 132.461 188.702 132.934C188.795 133.265 188.787 133.578 188.678 133.871C188.573 134.159 188.375 134.398 188.085 134.589C188.229 134.578 188.37 134.608 188.507 134.679C188.645 134.749 188.77 134.861 188.881 135.013L189.865 136.315ZM186.887 134.047C187.16 133.97 187.346 133.873 187.446 133.756C187.544 133.634 187.568 133.484 187.518 133.304C187.465 133.116 187.365 132.997 187.219 132.949C187.077 132.899 186.868 132.913 186.59 132.991L185.785 133.218L186.081 134.273L186.887 134.047Z" fill="#8369A0"/>
<path d="M191.471 135.864L190.387 132L188.94 132.406L188.645 131.358L192.836 130.181L193.131 131.23L191.684 131.636L192.768 135.499L191.471 135.864Z" fill="#8369A0"/>
<path d="M196.886 134.41C196.176 134.61 195.589 134.581 195.124 134.325C194.658 134.063 194.327 133.583 194.13 132.884L193.332 130.042L194.582 129.691L195.393 132.582C195.493 132.936 195.646 133.185 195.854 133.331C196.066 133.475 196.318 133.506 196.609 133.424C196.896 133.343 197.09 133.187 197.192 132.955C197.292 132.718 197.293 132.425 197.195 132.076L196.384 129.185L197.646 128.83L198.444 131.673C198.638 132.363 198.6 132.944 198.33 133.417C198.064 133.884 197.582 134.215 196.886 134.41Z" fill="#8369A0"/>
<path d="M203.538 132.476L202.823 131.582L200.666 132.188L200.521 133.323L199.238 133.683L200.131 128.133L201.142 127.849L204.801 132.121L203.538 132.476ZM200.809 131.098L202.134 130.726L201.036 129.36L200.809 131.098Z" fill="#8369A0"/>
<path d="M205.077 132.044L203.698 127.131L204.981 126.771L206.066 130.635L208.121 130.058L208.415 131.106L205.077 132.044Z" fill="#8369A0"/>
<path d="M244.086 359.036L206.531 369.705L207.081 371.686L244.636 361.017L244.086 359.036Z" fill="#00CAF5"/>
<path d="M281.181 348.621C280.287 350.193 278.728 351.455 276.8 352.003L244.592 361.153L244.042 359.173L281.181 348.621Z" fill="#48D38A"/>
<path d="M206.574 369.568L168.681 380.332L169.231 382.312L207.124 371.549L206.574 369.568Z" fill="#FFC700"/>
<path d="M131.59 390.744C133.162 391.616 135.142 391.872 137.071 391.324L169.278 382.173L168.729 380.193L131.59 390.744Z" fill="#F7685B"/>
<g filter="url(#filter1_d_56813_38342)">
<path d="M358.319 369.092L191.154 360.71C186.675 360.485 183.201 356.709 183.389 352.269L194.826 82.0363C195.014 77.5963 198.792 74.1838 203.272 74.4084L370.436 82.7901C374.915 83.0147 378.39 86.7908 378.202 91.2309L366.765 361.44C366.6 365.905 362.798 369.316 358.319 369.092Z" fill="#40196D" stroke="#DBDCE0" stroke-opacity="0.5" stroke-width="1.14496"/>
<path d="M368.329 110.034C368.41 108.472 368.175 106.377 367.653 104.289C367.172 102.414 366.52 100.6 365.578 98.8848C365.219 98.2559 364.577 98.1485 364.095 98.2374C363.445 98.3632 363.011 99.1096 363.252 99.7315C363.404 100.138 363.581 100.522 363.759 100.907C364.955 103.525 365.669 106.232 365.708 109.086C365.776 112.481 365.202 115.744 363.681 118.765C363.32 119.492 362.887 120.192 362.525 120.943C362.139 121.692 362.609 122.584 363.441 122.726C363.845 122.796 364.228 122.772 364.481 122.412C364.706 122.121 364.931 121.854 365.11 121.537C367.122 118.194 368.259 114.566 368.329 110.034ZM362.944 110.118C362.897 109.437 362.899 108.736 362.828 108.054C362.607 105.586 361.832 103.25 360.668 101.054C360.4 100.548 359.951 100.381 359.424 100.397C358.73 100.427 358.035 101.112 358.364 101.926C358.495 102.261 358.627 102.596 358.759 102.907C359.58 104.662 360.088 106.468 360.257 108.395C360.457 110.768 360.158 113.066 359.241 115.257C358.822 116.238 358.285 117.189 357.819 118.167C357.716 118.372 357.612 118.599 357.628 118.811C357.656 119.35 357.953 119.741 358.447 119.957C358.966 120.174 359.401 120.036 359.75 119.659C359.999 119.393 360.249 119.08 360.428 118.763C362.008 116.096 362.831 113.221 362.944 110.118ZM357.416 110.218C357.575 107.819 357.033 105.636 355.936 103.585C355.825 103.345 355.666 103.125 355.481 102.95C355.135 102.58 354.423 102.445 354.032 102.656C353.398 102.993 353.19 103.449 353.407 104.069C353.536 104.474 353.736 104.883 353.913 105.268C355.128 108.027 355.219 110.768 354.044 113.482C353.757 114.143 353.399 114.777 353.064 115.436C352.961 115.64 352.857 115.868 352.874 116.056C352.903 116.572 353.223 116.965 353.694 117.179C354.164 117.394 354.67 117.306 355.017 116.952C355.167 116.797 355.317 116.595 355.444 116.416C356.685 114.501 357.43 112.44 357.416 110.218ZM349.689 109.605C349.724 110.612 349.428 111.507 348.849 112.315C348.698 112.516 348.57 112.743 348.466 112.971C348.256 113.473 348.428 114.02 348.915 114.423C349.31 114.75 349.859 114.782 350.276 114.479C350.571 114.262 350.843 114.021 351.045 113.728C352.308 111.908 352.644 109.893 352.15 107.714C351.923 106.718 351.503 105.782 350.838 104.995C350.425 104.504 349.829 104.446 349.292 104.742C348.73 105.083 348.517 105.679 348.783 106.255C348.871 106.447 348.959 106.663 349.073 106.833C349.567 107.704 349.772 108.628 349.689 109.605Z" fill="#CACACA"/>
<path d="M368.315 109.939C368.244 114.504 367.075 118.158 365.007 121.549C364.823 121.869 364.592 122.138 364.36 122.431C364.102 122.77 363.707 122.818 363.291 122.747C362.413 122.579 361.955 121.682 362.351 120.951C362.747 120.22 363.166 119.513 363.538 118.757C365.103 115.691 365.691 112.427 365.622 109.008C365.557 106.132 364.823 103.405 363.618 100.769C363.436 100.382 363.279 99.9728 363.097 99.5856C362.85 98.9592 363.296 98.2074 363.964 98.0807C364.459 97.9911 365.119 98.0994 365.488 98.7327C366.456 100.46 367.125 102.288 367.62 104.177C368.182 106.258 368.398 108.366 368.315 109.939Z" fill="#CACACA"/>
<path d="M362.977 110.09C362.861 113.191 362.043 116.111 360.45 118.774C360.267 119.093 360.01 119.408 359.755 119.676C359.398 120.056 358.928 120.194 358.422 119.977C357.891 119.758 357.613 119.342 357.583 118.822C357.566 118.609 357.673 118.38 357.778 118.174C358.256 117.189 358.805 116.255 359.234 115.244C360.149 113.036 360.454 110.746 360.274 108.335C360.101 106.394 359.581 104.575 358.741 102.809C358.581 102.493 358.472 102.134 358.336 101.82C357.999 101.024 358.711 100.311 359.422 100.281C359.986 100.267 360.421 100.433 360.696 100.943C361.911 103.178 362.706 105.507 362.908 107.991C362.906 108.697 362.929 109.405 362.977 110.09Z" fill="#CACACA"/>
<path d="M357.495 110.258C357.511 112.471 356.75 114.569 355.509 116.497C355.379 116.702 355.251 116.883 355.074 117.037C354.72 117.393 354.204 117.505 353.725 117.266C353.221 117.048 352.918 116.655 352.889 116.135C352.872 115.922 353.003 115.695 353.083 115.511C353.4 114.847 353.789 114.21 354.082 113.545C355.28 110.813 355.187 108.055 353.949 105.278C353.769 104.868 353.588 104.481 353.432 104.072C353.212 103.424 353.424 102.989 354.07 102.649C354.492 102.438 355.195 102.549 355.546 102.946C355.734 103.145 355.872 103.365 356.011 103.584C357.104 105.671 357.657 107.844 357.495 110.258Z" fill="#CACACA"/>
<path d="M349.78 109.705C349.889 108.724 349.656 107.794 349.131 106.941C349.017 106.746 348.927 106.553 348.837 106.36C348.592 105.781 348.784 105.181 349.353 104.838C349.898 104.517 350.5 104.599 350.918 105.093C351.616 105.885 352.017 106.825 352.247 107.826C352.772 110.018 352.407 112.042 351.128 113.872C350.924 114.166 350.648 114.432 350.35 114.626C349.903 114.93 349.371 114.899 348.971 114.57C348.477 114.166 348.305 113.592 348.516 113.11C348.622 112.881 348.751 112.654 348.904 112.451C349.516 111.617 349.791 110.716 349.78 109.705Z" fill="#CACACA"/>
<g opacity="0.13">
<mask id="mask1_56813_38342" style="mask-type:alpha" maskUnits="userSpaceOnUse" x="190" y="135" width="186" height="70">
<path d="M230.83 197.485L217.783 196.841L202.785 176.696L201.953 196.06L190.732 195.506L193.299 135.793L204.52 136.347L202.979 172.174L218.747 154.146L232.142 154.807L213.753 175.014L230.83 197.485Z" fill="#DFE3FF"/>
<path d="M261.79 156.27L273.01 156.824L271.176 199.476L259.956 198.922L260.161 194.145C257.265 197.992 252.859 199.769 246.945 199.477C242.19 199.242 238.314 197.484 235.317 194.201C232.378 190.922 231.027 186.524 231.265 181.008L232.391 154.819L243.611 155.373L242.544 180.197C242.421 183.04 243.11 185.268 244.61 186.881C246.112 188.437 248.168 189.279 250.777 189.408C253.676 189.551 256.034 188.784 257.849 187.107C259.664 185.43 260.648 182.828 260.8 179.303L261.79 156.27Z" fill="#DFE3FF"/>
<path d="M313.506 141.726L324.727 142.28L322.16 201.993L310.939 201.439L311.156 196.406C307.672 200.394 302.886 202.238 296.797 201.938C290.94 201.649 286.017 199.24 282.028 194.712C278.099 190.13 276.271 184.682 276.542 178.37C276.814 172.057 279.101 166.842 283.404 162.723C287.767 158.55 292.877 156.608 298.734 156.897C304.822 157.198 309.43 159.505 312.557 163.82L313.506 141.726ZM290.781 187.792C293.005 190.124 295.856 191.377 299.336 191.548C302.815 191.72 305.733 190.753 308.09 188.646C310.449 186.483 311.704 183.639 311.856 180.113C312.008 176.587 311 173.659 308.834 171.33C306.671 168.943 303.849 167.664 300.37 167.493C296.891 167.321 293.943 168.315 291.525 170.475C289.168 172.582 287.914 175.398 287.763 178.924C287.611 182.45 288.617 185.406 290.781 187.792Z" fill="#DFE3FF"/>
<path d="M363.828 161.307L375.049 161.861L373.215 204.513L361.994 203.959L362.211 198.926C358.669 202.911 353.854 204.754 347.765 204.453C341.967 204.167 337.073 201.76 333.083 197.232C329.155 192.65 327.326 187.202 327.597 180.89C327.869 174.577 330.156 169.362 334.459 165.243C338.822 161.07 343.903 159.127 349.702 159.413C355.79 159.713 360.427 162.022 363.612 166.34L363.828 161.307ZM341.836 190.312C344.002 192.642 346.825 193.892 350.304 194.064C353.783 194.236 356.701 193.268 359.058 191.162C361.475 189.002 362.76 186.159 362.911 182.633C363.063 179.107 362.027 176.178 359.802 173.845C357.639 171.459 354.817 170.18 351.338 170.008C347.859 169.837 344.94 170.832 342.58 172.995C340.224 175.102 338.969 177.918 338.818 181.444C338.666 184.97 339.672 187.926 341.836 190.312Z" fill="#DFE3FF"/>
</mask>
<g mask="url(#mask1_56813_38342)">
<rect width="207.043" height="78.4649" transform="matrix(0.998772 0.0493414 -0.0429161 0.99907 169.469 123.045)" fill="#DFE3FF"/>
</g>
</g>
<g clip-path="url(#clip0_56813_38342)">
<path d="M252.577 91.6043L252.062 103.669L248.504 103.492L248.579 101.73C248.165 102.346 247.636 102.805 246.992 103.107C246.348 103.409 245.631 103.54 244.841 103.501C243.308 103.425 242.18 102.947 241.457 102.068C240.735 101.189 240.41 99.9002 240.482 98.2016L240.789 91.0184L244.444 91.2001L244.134 98.4547C244.072 99.9152 244.678 100.677 245.953 100.74C246.711 100.778 247.335 100.555 247.825 100.07C248.315 99.5852 248.577 98.9301 248.612 98.1046L248.898 91.4214L252.577 91.6043ZM266.754 86.7968L266.004 104.362L262.397 104.183L262.473 102.397C262.076 102.997 261.531 103.456 260.838 103.771C260.145 104.087 259.372 104.223 258.516 104.181C257.467 104.129 256.543 103.82 255.742 103.247C254.942 102.675 254.337 101.897 253.918 100.914C253.499 99.9303 253.32 98.8238 253.373 97.5856C253.425 96.3474 253.698 95.2712 254.198 94.3495C254.698 93.4278 255.367 92.7293 256.204 92.2539C257.041 91.7785 257.987 91.571 259.052 91.6239C259.875 91.6648 260.618 91.8767 261.282 92.2438C261.945 92.6188 262.449 93.1132 262.795 93.7348L263.099 86.6151L266.754 86.7968ZM261.819 100.686C262.329 100.099 262.608 99.2378 262.657 98.0948C262.705 96.9677 262.5 96.0905 262.034 95.4549C261.568 94.8192 260.895 94.4835 260.008 94.4394C259.104 94.3945 258.389 94.6612 257.863 95.2396C257.337 95.818 257.05 96.6628 257.003 97.774C256.954 98.9169 257.167 99.8104 257.64 100.462C258.114 101.114 258.802 101.459 259.706 101.504C260.61 101.541 261.309 101.273 261.819 100.686ZM280.469 92.9907L279.954 105.055L276.347 104.876L276.423 103.09C276.026 103.691 275.481 104.149 274.788 104.464C274.095 104.78 273.321 104.917 272.466 104.874C271.401 104.821 270.476 104.521 269.683 103.972C268.89 103.424 268.283 102.67 267.864 101.702C267.444 100.735 267.265 99.6362 267.317 98.398C267.37 97.1598 267.643 96.0678 268.145 95.1223C268.646 94.1768 269.315 93.4624 270.161 92.9715C271.006 92.4806 271.953 92.2652 273.002 92.3173C273.858 92.3598 274.616 92.5805 275.278 92.9793C275.941 93.3781 276.444 93.8963 276.789 94.5338L276.862 92.8114L280.469 92.9907ZM275.768 101.387C276.278 100.808 276.558 99.947 276.606 98.8041C276.655 97.6611 276.45 96.776 275.992 96.1407C275.534 95.5055 274.853 95.1694 273.95 95.1245C273.046 95.0796 272.331 95.3622 271.803 95.9723C271.276 96.5824 270.988 97.451 270.94 98.5781C270.892 99.7052 271.097 100.574 271.564 101.194C272.031 101.814 272.72 102.143 273.64 102.188C274.552 102.234 275.259 101.966 275.768 101.387ZM239.532 103.221L234.998 102.996L230.358 97.2847L230.125 102.754L226.43 102.57L227.187 84.8301L230.882 85.0138L230.422 95.7846L235.301 90.7854L239.739 91.0059L234.22 96.6017L239.532 103.221Z" fill="#CACACA"/>
<path d="M216.289 102.065L209.54 93.6798L213.07 101.905L210.383 101.771L206.779 93.3835L208.076 101.657L206.422 101.574L205.126 93.2854L204.776 101.493L204.13 101.46L204.888 83.7207L205.533 83.7528L205.155 92.6028L207.203 83.8358L208.849 83.9176L206.791 92.7239L211.205 84.0347L213.859 84.1667L209.471 92.8253L217.135 84.3295L221.306 84.5368L213.372 93.3214L220.581 102.278L216.289 102.065Z" fill="#CACACA"/>
<path d="M283.012 105.191C284.117 105.246 285.05 104.409 285.097 103.322C285.143 102.235 284.285 101.309 283.18 101.254C282.075 101.199 281.141 102.036 281.095 103.123C281.049 104.21 281.907 105.136 283.012 105.191Z" fill="#CACACA"/>
</g>
<path d="M319.104 364.974L274.453 362.787L274.35 365.177L319 367.364L319.104 364.974Z" fill="#00CAF5"/>
<path d="M363.248 367.006C361.718 368.409 359.575 369.222 357.282 369.11L318.99 367.234L319.094 364.843L363.248 367.006Z" fill="#48D38A"/>
<path d="M274.464 362.917L229.412 360.711L229.309 363.101L274.361 365.306L274.464 362.917Z" fill="#FFC700"/>
<path d="M185.273 358.68C186.674 360.226 188.738 361.246 191.031 361.358L229.323 363.234L229.427 360.843L185.273 358.68Z" fill="#F7685B"/>
<path d="M331.632 356.669C332.128 356.749 332.704 356.812 333.417 356.847C334.901 356.921 336.094 356.6 336.849 355.933C337.58 355.275 338.019 354.29 338.071 353.061C338.123 351.843 337.764 350.952 337.099 350.303C336.457 349.667 335.464 349.281 334.048 349.211C333.267 349.172 332.551 349.203 331.947 349.274L331.632 356.669ZM332.902 350.027C333.165 349.984 333.552 349.958 334.061 349.984C336.144 350.088 337.115 351.267 337.028 353.042C336.942 355.075 335.76 356.181 333.643 356.075C333.258 356.056 332.896 356.027 332.649 355.981L332.902 350.027Z" fill="#9484A6"/>
<path d="M343.693 354.763C343.721 354.653 343.738 354.508 343.747 354.307C343.789 353.313 343.39 351.748 341.59 351.658C339.994 351.578 338.966 352.803 338.897 354.434C338.827 356.065 339.788 357.221 341.475 357.306C342.347 357.349 342.966 357.19 343.324 357.051L343.172 356.338C342.803 356.476 342.357 356.577 341.643 356.542C340.636 356.491 339.81 355.901 339.844 354.571L343.693 354.763ZM339.885 353.868C339.993 353.19 340.462 352.307 341.481 352.358C342.602 352.414 342.832 353.399 342.795 354.013L339.885 353.868Z" fill="#9484A6"/>
<path d="M344.913 355.955C344.892 356.435 344.847 356.981 344.808 357.349L345.657 357.391L345.751 356.512L345.774 356.513C346.163 357.237 346.784 357.571 347.577 357.61C348.799 357.671 350.086 356.773 350.168 354.84C350.237 353.209 349.334 352.045 347.964 351.976C347.081 351.932 346.431 352.28 346.054 352.866L346.031 352.865L346.176 349.469L345.191 349.42L344.913 355.955ZM345.971 354.272C345.978 354.116 346.006 353.983 346.046 353.862C346.281 353.135 346.935 352.697 347.603 352.731C348.678 352.784 349.205 353.74 349.159 354.823C349.106 356.063 348.459 356.871 347.406 356.818C346.682 356.782 346.113 356.283 345.961 355.593C345.931 355.479 345.925 355.356 345.931 355.233L345.971 354.272Z" fill="#9484A6"/>
<path d="M352.295 357.723L352.525 352.316L351.529 352.266L351.299 357.673L352.295 357.723ZM352.118 350.157C351.744 350.139 351.483 350.405 351.469 350.741C351.455 351.076 351.681 351.356 352.043 351.374C352.44 351.394 352.689 351.137 352.703 350.802C352.718 350.456 352.48 350.175 352.118 350.157Z" fill="#9484A6"/>
<path d="M354.451 351.404L354.409 352.41L353.56 352.367L353.528 353.116L354.377 353.158L354.252 356.107C354.224 356.744 354.317 357.23 354.576 357.545C354.803 357.814 355.17 357.989 355.634 358.012C356.019 358.032 356.328 357.98 356.523 357.922L356.509 357.172C356.36 357.209 356.201 357.223 355.929 357.21C355.374 357.182 355.198 356.793 355.227 356.122L355.351 353.207L356.777 353.278L356.809 352.53L355.382 352.458L355.437 351.163L354.451 351.404Z" fill="#9484A6"/>
</g>
<defs>
<filter id="filter0_d_56813_38342" x="63.8073" y="110.105" width="250.573" height="308.938" filterUnits="userSpaceOnUse" color-interpolation-filters="sRGB">
<feFlood flood-opacity="0" result="BackgroundImageFix"/>
<feColorMatrix in="SourceAlpha" type="matrix" values="0 0 0 0 0 0 0 0 0 0 0 0 0 0 0 0 0 0 127 0" result="hardAlpha"/>
<feOffset dx="19.9669" dy="14.9752"/>
<feGaussianBlur stdDeviation="5.99007"/>
<feColorMatrix type="matrix" values="0 0 0 0 0.25098 0 0 0 0 0.0980392 0 0 0 0 0.427451 0 0 0 0.1 0"/>
<feBlend mode="normal" in2="BackgroundImageFix" result="effect1_dropShadow_56813_38342"/>
<feBlend mode="normal" in="SourceGraphic" in2="effect1_dropShadow_56813_38342" result="shape"/>
</filter>
<filter id="filter1_d_56813_38342" x="182.809" y="73.8262" width="232.611" height="326.764" filterUnits="userSpaceOnUse" color-interpolation-filters="sRGB">
<feFlood flood-opacity="0" result="BackgroundImageFix"/>
<feColorMatrix in="SourceAlpha" type="matrix" values="0 0 0 0 0 0 0 0 0 0 0 0 0 0 0 0 0 0 127 0" result="hardAlpha"/>
<feOffset dx="22.8992" dy="17.1744"/>
<feGaussianBlur stdDeviation="6.86977"/>
<feComposite in2="hardAlpha" operator="out"/>
<feColorMatrix type="matrix" values="0 0 0 0 0.25098 0 0 0 0 0.0980392 0 0 0 0 0.427451 0 0 0 0.1 0"/>
<feBlend mode="normal" in2="BackgroundImageFix" result="effect1_dropShadow_56813_38342"/>
<feBlend mode="normal" in="SourceGraphic" in2="effect1_dropShadow_56813_38342" result="shape"/>
</filter>
<clipPath id="clip0_56813_38342">
<rect width="80.9582" height="17.7719" fill="white" transform="matrix(0.998759 0.0496449 -0.0426538 0.999083 204.891 83.7207)"/>
</clipPath>
</defs>
</svg>
