<svg width="442" height="326" viewBox="0 0 442 326" fill="none" xmlns="http://www.w3.org/2000/svg">
<path d="M441.122 286.483H0V286.702H441.122V286.483Z" fill="#E0E0E0"/>
<path d="M357.504 293.133H334.062V293.352H357.504V293.133Z" fill="#E0E0E0"/>
<path d="M393.11 297.509H372.906V297.728H393.11V297.509Z" fill="#E0E0E0"/>
<path d="M217.524 296.861H203.32V297.08H217.524V296.861Z" fill="#E0E0E0"/>
<path d="M198.241 296.861H145.227V297.08H198.241V296.861Z" fill="#E0E0E0"/>
<path d="M123.22 295.479H89.4922V295.697H123.22V295.479Z" fill="#E0E0E0"/>
<path d="M319.237 291.874H242.809V292.092H319.237V291.874Z" fill="#E0E0E0"/>
<path d="M79.5001 295.374H57.2852V295.592H79.5001V295.374Z" fill="#E0E0E0"/>
<path d="M209.092 247.457H38.7397C37.4052 247.455 36.1261 246.927 35.1833 245.991C34.2405 245.054 33.7109 243.784 33.7109 242.461V4.95264C33.7226 3.63663 34.2572 2.3783 35.1988 1.45098C36.1404 0.523666 37.4128 0.0022544 38.7397 0H209.092C210.428 0 211.71 0.526405 212.654 1.46341C213.599 2.40042 214.13 3.67127 214.13 4.99639V242.461C214.13 243.786 213.599 245.057 212.654 245.994C211.71 246.931 210.428 247.457 209.092 247.457ZM38.7397 0.175006C37.4637 0.177324 36.2407 0.681702 35.3393 1.57743C34.4378 2.47316 33.9315 3.68705 33.9315 4.95264V242.461C33.9315 243.726 34.4378 244.94 35.3393 245.836C36.2407 246.732 37.4637 247.236 38.7397 247.238H209.092C210.369 247.236 211.593 246.732 212.496 245.836C213.399 244.941 213.907 243.727 213.909 242.461V4.95264C213.907 3.68624 213.399 2.47238 212.496 1.5769C211.593 0.681417 210.369 0.177319 209.092 0.175006H38.7397Z" fill="#E0E0E0"/>
<path d="M399.926 247.457H229.565C228.23 247.455 226.95 246.928 226.005 245.991C225.061 245.055 224.53 243.785 224.527 242.461V4.95264C224.541 3.63583 225.078 2.37751 226.021 1.45044C226.964 0.52336 228.237 0.00222982 229.565 0H399.926C401.252 0.00455407 402.522 0.526983 403.462 1.45405C404.401 2.38112 404.935 3.63814 404.946 4.95264V242.461C404.946 243.783 404.418 245.051 403.477 245.988C402.536 246.924 401.259 247.452 399.926 247.457ZM229.565 0.175006C228.288 0.177319 227.064 0.681417 226.161 1.5769C225.258 2.47238 224.75 3.68624 224.748 4.95264V242.461C224.75 243.727 225.258 244.941 226.161 245.836C227.064 246.732 228.288 247.236 229.565 247.238H399.926C401.203 247.236 402.427 246.732 403.33 245.836C404.233 244.941 404.741 243.727 404.743 242.461V4.95264C404.741 3.68624 404.233 2.47238 403.33 1.5769C402.427 0.681417 401.203 0.177319 399.926 0.175006H229.565Z" fill="#E0E0E0"/>
<path d="M276.934 286.475H293.961V176.388H276.934V286.475Z" fill="#EBEBEB"/>
<path d="M284.317 254.251L286.957 252.994L264.322 206.242L261.681 207.499L284.317 254.251Z" fill="#EBEBEB"/>
<path d="M278.721 212.824C278.721 212.824 281.844 228.067 298.475 223.578C305.744 221.609 307.297 216.193 306.962 211.013C313.684 215.764 323.795 219.632 322.842 198.806C322.842 198.806 344.501 215.178 351.762 191.639C359.023 168.101 339.578 165.887 339.578 165.887C339.578 165.887 366.928 143.478 357.594 125.111C347.51 105.327 329.962 115.556 329.962 115.556C329.962 115.556 333.588 89.3052 314.029 90.4515C311.561 90.6032 309.236 91.646 307.491 93.3829C300.795 89.8828 292.343 100.628 292.343 100.628C292.343 100.628 290.658 87.4327 277.345 92.1928C271.531 94.2754 270.013 99.1055 270.031 103.629C264.993 99.7968 257.239 96.918 256.956 115.118C256.956 115.118 240.758 101.844 233.859 122.836C226.96 143.828 242.135 144.799 242.135 144.799C242.135 144.799 219.496 165.8 225.91 181.437C232.809 198.281 247.084 188.437 247.084 188.437C247.084 188.437 243.599 207.854 254.848 209.621C254.47 211.569 254.701 213.584 255.51 215.398C256.319 217.212 257.667 218.738 259.374 219.772C268.355 224.987 278.721 212.824 278.721 212.824Z" fill="#EBEBEB"/>
<path d="M380.201 179.302V286.483H64.5781V178.917L200.505 160.664L380.201 179.302Z" fill="#FAFAFA"/>
<path d="M200.505 160.664L64.5781 178.917V286.483H200.505V160.664Z" fill="#EBEBEB"/>
<path d="M214.782 286.483H279.609V204.029H214.782V286.483Z" fill="#E0E0E0"/>
<path d="M276.559 286.484V206.813H217.854V286.484H276.559Z" fill="#EBEBEB"/>
<path d="M247.449 286.484V206.813H246.955V286.484H247.449Z" fill="#E0E0E0"/>
<path d="M392.429 183.204L200.541 163.306L52.4295 183.195L51.7148 177.998L200.461 158.021L200.779 158.056L392.985 177.989L392.429 183.204Z" fill="#E0E0E0"/>
<path d="M378.75 58.1985C383.867 47.2344 379.808 39.4204 367.28 39.4204C359.437 39.4204 349.706 42.5005 340.24 47.4969C339.163 44.6443 336.155 42.938 331.303 42.938C322.771 42.938 311.011 48.1882 301.783 55.6696C299.551 54.0071 296.322 52.9921 292.166 52.8258C283.997 52.4933 274.107 55.5296 265.514 60.4648C264.491 59.5139 263.13 59.0041 261.729 59.0472C257.018 58.8547 250.648 61.9173 247.481 65.8812L246.934 66.6074H385.093C389.469 62.7223 384.661 58.391 378.75 58.1985Z" fill="#FAFAFA"/>
<path d="M184.17 28.876C183.821 28.8408 183.471 28.8233 183.12 28.8235C183.447 25.2359 181.576 22.9433 177.571 22.9433C174.686 22.9433 171.139 24.1421 167.531 26.1634C168.563 19.1632 165.255 14.6743 157.765 14.6743C151.712 14.6743 144.063 17.6232 136.503 22.4183C135.841 19.6882 133.618 18.0432 129.877 18.0432C123.304 18.0432 113.997 23.1008 106.471 30.241C104.848 28.6485 102.421 27.6159 99.2278 27.5022C92.9638 27.1872 85.1913 30.1273 78.3009 34.8262C77.9747 34.387 77.5456 34.0332 77.0506 33.7954C76.5557 33.5576 76.0098 33.4429 75.4601 33.4611C72.037 33.2861 67.317 35.9024 64.582 39.3938H189.675C192.613 34.1261 190.275 29.4885 184.17 28.876Z" fill="#FAFAFA"/>
<path d="M57.3474 286.483H43.9285C43.9285 286.483 35.6619 279.194 32.971 269.42C31.7359 264.923 37.8322 261.808 41.52 265.045C50.166 272.562 57.3474 286.483 57.3474 286.483Z" fill="#FAFAFA"/>
<path d="M63.0103 286.483H49.5825C49.5825 286.483 41.8982 270.838 44.8714 259.445C45.097 258.545 45.5661 257.723 46.2281 257.068C46.89 256.413 47.7198 255.95 48.6277 255.728C49.5357 255.507 50.4874 255.536 51.3802 255.811C52.273 256.087 53.073 256.599 53.6938 257.292C63.822 268.379 63.0103 286.483 63.0103 286.483Z" fill="#FAFAFA"/>
<path d="M63.0234 286.483H71.6959C71.6959 286.483 77.1305 276.972 82.2828 265.29C87.0469 254.387 78.9303 249.837 73.8309 260.548C67.3023 274.172 63.0234 286.483 63.0234 286.483Z" fill="#FAFAFA"/>
<path d="M65.3984 286.483H78.8262C78.8262 286.483 92.351 280.139 91.5923 268.107C91.3982 264.966 87.7722 262.918 84.5343 264.143C70.1537 269.639 65.3984 286.483 65.3984 286.483Z" fill="#FAFAFA"/>
<path d="M57.8591 286.483H71.2957C71.2957 286.483 75.354 264.258 70.5811 250.257C69.143 246.075 64.0348 245.34 61.6792 248.98C52.8832 262.508 57.8591 286.483 57.8591 286.483Z" fill="#FAFAFA"/>
<path d="M167.864 190.511H97.2227V262.359H167.864V190.511Z" fill="#E0E0E0"/>
<path d="M164.547 258.666V194.212H100.54V258.666H164.547Z" fill="#FAFAFA"/>
<path d="M166.491 223.954H98.5938V228.915H166.491V223.954Z" fill="#E0E0E0"/>
<path d="M135.047 261.064V191.823H130.045V261.064H135.047Z" fill="#E0E0E0"/>
<path d="M380.205 262.358H300.098V191.814H380.205" fill="#E0E0E0"/>
<path d="M380.203 258.736V195.455H303.351V258.736H380.203Z" fill="#FAFAFA"/>
<path d="M256.751 187.519C258.002 182.291 254.742 177.046 249.47 175.805C244.199 174.564 238.911 177.797 237.66 183.026C236.409 188.254 239.668 193.499 244.94 194.74C250.212 195.981 255.5 192.748 256.751 187.519Z" fill="white"/>
<path d="M292.451 283.999H152.324V286.492H292.451V283.999Z" fill="#E0E0E0"/>
<path d="M220.551 326C315.023 326 391.609 321.565 391.609 316.095C391.609 310.624 315.023 306.189 220.551 306.189C126.078 306.189 49.4922 310.624 49.4922 316.095C49.4922 321.565 126.078 326 220.551 326Z" fill="#F5F5F5"/>
<path d="M188.705 103.254C188.555 105.748 188.264 108.04 187.938 110.412C187.611 112.783 187.161 115.102 186.658 117.412C185.676 122.147 184.253 126.781 182.406 131.255L181.647 132.935L181.453 133.355L181.356 133.565C181.356 133.635 181.303 133.687 181.233 133.836C180.963 134.368 180.628 134.864 180.236 135.315C179.306 136.373 178.015 137.053 176.61 137.222C175.563 137.335 174.504 137.225 173.504 136.899C172.102 136.426 170.778 135.747 169.578 134.886C168.539 134.147 167.543 133.35 166.596 132.497C163.076 129.24 159.912 125.623 157.156 121.708L160.085 119.249C161.717 120.772 163.429 122.312 165.132 123.782C166.834 125.252 168.59 126.652 170.346 127.903C171.196 128.511 172.08 129.072 172.993 129.583C173.716 130.014 174.497 130.341 175.313 130.555C175.586 130.607 175.763 130.555 175.639 130.555C175.397 130.579 175.17 130.684 174.995 130.852C174.933 130.905 174.925 130.913 174.933 130.852L175.198 130.161L175.772 128.656C177.213 124.504 178.339 120.251 179.142 115.933C179.583 113.763 179.892 111.558 180.227 109.353C180.562 107.148 180.792 104.89 180.986 102.799L188.705 103.254Z" fill="#EEC1BB"/>
<path d="M183.438 94.118C180.315 94.9056 178.145 107.637 178.145 107.637L186.738 113.439C186.738 113.439 194.969 100.628 192.587 97.1894C190.205 93.7505 187.982 92.9717 183.438 94.118Z" fill="#034EA2"/>
<path opacity="0.3" d="M183.438 94.118C180.315 94.9056 178.145 107.637 178.145 107.637L186.738 113.439C186.738 113.439 194.969 100.628 192.587 97.1894C190.205 93.7505 187.982 92.9717 183.438 94.118Z" fill="black"/>
<path d="M183.707 96.9624L181.316 109.799L186.142 113.045L183.707 96.9624Z" fill="#034EA2"/>
<path opacity="0.5" d="M183.707 96.9624L181.316 109.799L186.142 113.045L183.707 96.9624Z" fill="black"/>
<path d="M160.171 118.75L156.077 112.345L153.766 119.625C153.766 119.625 157.118 123.125 160.153 122.25L160.171 118.75Z" fill="#EEC1BB"/>
<path d="M150.087 110.228L148.473 116.423L153.757 119.625L156.078 112.345L150.087 110.228Z" fill="#EEC1BB"/>
<path d="M200.312 308.43H192.742L192.23 291.043H199.8L200.312 308.43Z" fill="#EEC1BB"/>
<path d="M267.101 273.559L261.331 278.416L248.133 266.726L253.903 261.869L267.101 273.559Z" fill="#EEC1BB"/>
<path d="M259.75 277.838L265.343 271.486C265.437 271.373 265.569 271.3 265.714 271.279C265.859 271.258 266.007 271.291 266.129 271.372L271.837 275.038C271.972 275.135 272.086 275.259 272.171 275.402C272.255 275.544 272.309 275.703 272.329 275.867C272.349 276.032 272.334 276.198 272.286 276.357C272.238 276.515 272.157 276.662 272.049 276.788C270.063 278.967 268.996 279.921 266.534 282.712C265.017 284.462 263.005 287.087 260.897 289.467C258.788 291.847 256.327 289.922 256.989 288.75C259.926 283.5 259.221 281.636 259.265 279.046C259.285 278.601 259.456 278.175 259.75 277.838Z" fill="#263238"/>
<path d="M192.476 307.554H200.981C201.128 307.553 201.271 307.604 201.383 307.699C201.495 307.794 201.568 307.926 201.59 308.07L202.551 314.747C202.571 314.915 202.555 315.086 202.503 315.248C202.451 315.409 202.365 315.558 202.251 315.684C202.136 315.81 201.996 315.91 201.84 315.978C201.683 316.046 201.513 316.079 201.342 316.077C198.378 316.024 196.931 315.858 193.208 315.858C190.906 315.858 186.15 316.094 182.974 316.094C179.798 316.094 179.622 312.979 180.945 312.691C186.882 311.431 189.212 309.681 191.214 308.018C191.568 307.723 192.014 307.559 192.476 307.554Z" fill="#263238"/>
<path d="M192.23 291.051L192.495 300.012H200.065L199.809 291.051H192.23Z" fill="#DB9792"/>
<path d="M253.903 261.869L248.133 266.734L254.944 272.754L260.714 267.889L253.903 261.869Z" fill="#DB9792"/>
<path d="M188.863 60.2286C193.971 52.6946 206.217 50.192 213.839 56.9472C223.544 65.5487 217.659 82.4104 232.578 77.9478C247.497 73.4852 261.472 74.5527 261.551 82.2092C261.63 89.8657 270.744 80.1441 281.472 88.0019C303.193 103.901 286.58 144.791 267.48 129.172C254.952 118.934 250.567 114.541 244.321 122.347C238.074 130.152 215.833 126.468 213.839 116.624C211.845 106.78 197.659 111.566 189.939 102.965C182.22 94.3633 177.967 76.2853 188.863 60.2286Z" fill="#263238"/>
<path d="M183.436 94.1182C183.436 94.1182 179.828 95.3783 187.053 139.427H217.791C217.27 127.019 217.261 119.371 223.243 93.9257C218.937 93.0493 214.574 92.482 210.186 92.2282C205.539 91.8953 200.875 91.8953 196.229 92.2282C190.229 92.7532 183.436 94.1182 183.436 94.1182Z" fill="#034EA2"/>
<path opacity="0.3" d="M183.436 94.1182C183.436 94.1182 179.828 95.3783 187.053 139.427H217.791C217.27 127.019 217.261 119.371 223.243 93.9257C218.937 93.0493 214.574 92.482 210.186 92.2282C205.539 91.8953 200.875 91.8953 196.229 92.2282C190.229 92.7532 183.436 94.1182 183.436 94.1182Z" fill="black"/>
<path d="M208.804 76.6089C207.921 81.0628 207.039 89.2267 210.189 92.2018C210.189 92.2018 208.962 96.717 200.616 96.717C191.441 96.717 196.205 92.2018 196.205 92.2018C201.207 91.0118 201.084 87.3279 200.211 83.8628L208.804 76.6089Z" fill="#EEC1BB"/>
<path d="M205.311 79.5669L200.238 83.8633C200.459 84.6678 200.604 85.4909 200.671 86.3221C202.585 86.0421 205.214 83.9595 205.417 81.947C205.526 81.1537 205.49 80.3475 205.311 79.5669Z" fill="#DB9792"/>
<path d="M213.541 68.4362C211.776 75.6814 211.194 78.7878 206.792 81.8854C200.175 86.558 191.59 82.8216 191.132 75.2089C190.717 68.3487 193.673 57.6559 201.419 56.0109C203.125 55.6396 204.899 55.7074 206.571 56.2077C208.244 56.7081 209.76 57.6244 210.974 58.8696C212.189 60.1148 213.063 61.6475 213.512 63.3219C213.961 64.9964 213.971 66.7569 213.541 68.4362Z" fill="#EEC1BB"/>
<path d="M187.051 139.427C187.051 139.427 181.078 197.258 181.572 220.148C182.093 243.967 190.889 298.271 190.889 298.271H201.123C201.123 298.271 199.499 245.358 200.408 221.968C201.396 196.479 209.557 139.427 209.557 139.427H187.051Z" fill="#034EA2"/>
<path opacity="0.5" d="M187.051 139.427C187.051 139.427 181.078 197.258 181.572 220.148C182.093 243.967 190.889 298.271 190.889 298.271H201.123C201.123 298.271 199.499 245.358 200.408 221.968C201.396 196.479 209.557 139.427 209.557 139.427H187.051Z" fill="black"/>
<path d="M202.007 298.638H189.999L189.117 294.84L202.571 294.376L202.007 298.638Z" fill="#034EA2"/>
<path opacity="0.3" d="M202.007 298.638H189.999L189.117 294.84L202.571 294.376L202.007 298.638Z" fill="white"/>
<path d="M200.303 153.821C192.76 168.88 198.794 196.365 201.459 206.585C202.835 191.237 205.138 172.459 206.937 158.678C205.817 150.881 203.788 146.873 200.303 153.821Z" fill="#034EA2"/>
<path opacity="0.6" d="M200.303 153.821C192.76 168.88 198.794 196.365 201.459 206.585C202.835 191.237 205.138 172.459 206.937 158.678C205.817 150.881 203.788 146.873 200.303 153.821Z" fill="black"/>
<path d="M195.168 139.427C195.168 139.427 202.129 199.55 207.387 218.853C213.633 241.77 252.382 272.606 252.382 272.606L260.242 265.982C260.242 265.982 232.134 232.477 227.361 220.411C217.171 194.641 225.897 156.245 217.753 139.427H195.168Z" fill="#034EA2"/>
<path opacity="0.5" d="M195.168 139.427C195.168 139.427 202.129 199.55 207.387 218.853C213.633 241.77 252.382 272.606 252.382 272.606L260.242 265.982C260.242 265.982 232.134 232.477 227.361 220.411C217.171 194.641 225.897 156.245 217.753 139.427H195.168Z" fill="black"/>
<path d="M261.543 265.623L251.776 273.849L248.133 271.678L259.17 261.493L261.543 265.623Z" fill="#034EA2"/>
<path opacity="0.3" d="M261.543 265.623L251.776 273.849L248.133 271.678L259.17 261.493L261.543 265.623Z" fill="white"/>
<path d="M201.965 68.5013C202.071 67.9064 201.838 67.3682 201.445 67.2992C201.051 67.2301 200.646 67.6563 200.54 68.2511C200.434 68.8459 200.667 69.3841 201.06 69.4532C201.453 69.5223 201.858 69.0961 201.965 68.5013Z" fill="#263238"/>
<path d="M195.181 67.3249C195.075 67.9199 194.669 68.3487 194.299 68.2787C193.928 68.2087 193.672 67.6661 193.778 67.0711C193.884 66.4761 194.29 66.0473 194.66 66.1174C195.031 66.1874 195.287 66.7299 195.181 67.3249Z" fill="#263238"/>
<path d="M194.828 66.1787L193.461 65.5137C193.461 65.5137 193.999 66.765 194.828 66.1787Z" fill="#263238"/>
<path d="M196.792 68.6636C196.013 69.9291 195.063 71.0831 193.969 72.0937C194.238 72.3629 194.562 72.5711 194.92 72.704C195.278 72.8369 195.661 72.8914 196.042 72.8637L196.792 68.6636Z" fill="#D4827D"/>
<path d="M198.761 75.6811C198.417 75.682 198.075 75.6498 197.737 75.5848C197.692 75.5763 197.652 75.5504 197.625 75.5128C197.599 75.4752 197.589 75.4287 197.596 75.3836C197.605 75.3379 197.631 75.2972 197.668 75.2696C197.706 75.242 197.753 75.2296 197.799 75.2348C198.545 75.3814 199.315 75.3525 200.047 75.1503C200.78 74.9482 201.454 74.5785 202.016 74.071C202.049 74.0389 202.094 74.021 202.14 74.021C202.186 74.021 202.23 74.0389 202.263 74.071C202.281 74.0874 202.294 74.107 202.304 74.1289C202.313 74.1507 202.318 74.1742 202.318 74.1979C202.318 74.2216 202.313 74.2451 202.304 74.2669C202.294 74.2887 202.281 74.3084 202.263 74.3248C201.319 75.213 200.062 75.6998 198.761 75.6811Z" fill="#263238"/>
<path d="M201.717 55.3985C198.338 57.3236 206.675 75.5241 212.771 72.969C218.868 70.4139 216.891 60.2549 213.874 57.6998C210.857 55.1448 206.402 52.7384 201.717 55.3985Z" fill="#263238"/>
<path d="M199.818 54.5408C199.818 54.5408 195.751 55.1271 193.034 60.1585C190.316 65.1899 205.932 55.2408 203.726 54.5408C202.458 54.1212 201.086 54.1212 199.818 54.5408Z" fill="#263238"/>
<path d="M213.848 73.8965C213.572 74.5557 213.168 75.1543 212.657 75.6574C212.147 76.1606 211.541 76.5584 210.875 76.8278C209.11 77.5453 207.99 76.014 208.308 74.2027C208.599 72.6014 209.869 70.3001 211.748 70.3439C212.162 70.3591 212.565 70.4774 212.92 70.6881C213.276 70.8987 213.572 71.1948 213.781 71.5489C213.99 71.903 214.106 72.3038 214.118 72.7141C214.13 73.1245 214.037 73.5311 213.848 73.8965Z" fill="#EEC1BB"/>
<path d="M203.833 64.5945C203.737 64.5936 203.645 64.556 203.577 64.4895C203.278 64.1547 202.902 63.8957 202.482 63.7343C202.061 63.573 201.608 63.5139 201.159 63.562C201.066 63.5773 200.97 63.5556 200.893 63.5016C200.815 63.4476 200.762 63.3656 200.745 63.2732C200.736 63.2278 200.736 63.1811 200.745 63.1358C200.755 63.0904 200.773 63.0474 200.799 63.0092C200.826 62.9709 200.859 62.9382 200.898 62.913C200.938 62.8877 200.981 62.8704 201.027 62.862C201.593 62.7911 202.169 62.8577 202.703 63.0558C203.238 63.2539 203.717 63.5777 204.097 63.9995C204.163 64.0664 204.199 64.1558 204.199 64.2489C204.199 64.3419 204.163 64.4314 204.097 64.4983C204.063 64.5324 204.021 64.5587 203.976 64.5753C203.93 64.5919 203.881 64.5985 203.833 64.5945Z" fill="#263238"/>
<path d="M192.708 63.6848C192.662 63.6846 192.616 63.6752 192.574 63.6572C192.531 63.6391 192.493 63.6128 192.461 63.5798C192.396 63.5129 192.359 63.4234 192.359 63.3304C192.359 63.2373 192.396 63.1479 192.461 63.081C192.843 62.6608 193.321 62.3386 193.856 62.1421C194.391 61.9455 194.966 61.8803 195.531 61.9522C195.615 61.9787 195.687 62.0348 195.732 62.11C195.778 62.1852 195.794 62.2742 195.777 62.3603C195.761 62.4464 195.714 62.5236 195.644 62.5774C195.574 62.6312 195.487 62.6578 195.399 62.6522C194.951 62.6052 194.499 62.664 194.079 62.8236C193.659 62.9833 193.283 63.2394 192.982 63.571C192.946 63.6072 192.903 63.6359 192.856 63.6555C192.81 63.675 192.759 63.685 192.708 63.6848Z" fill="#263238"/>
<path d="M226.56 101.923C228.216 105.926 229.651 110.016 230.856 114.174C232.125 118.386 233.06 122.689 233.653 127.045C233.768 128.174 233.9 129.285 233.936 130.458V131.333C233.976 131.92 233.932 132.509 233.803 133.083C233.683 133.564 233.49 134.024 233.23 134.448C232.928 134.932 232.536 135.354 232.074 135.691C231.371 136.191 230.545 136.493 229.683 136.566C229.16 136.616 228.632 136.601 228.113 136.522C227.72 136.469 227.331 136.39 226.948 136.286C226.306 136.108 225.675 135.892 225.06 135.638C223.98 135.182 222.928 134.662 221.911 134.081C218.124 131.873 214.548 129.328 211.227 126.477L213.397 123.335C217.111 125.199 220.887 127.142 224.584 128.638C225.466 129.014 226.428 129.338 227.275 129.592C227.654 129.705 228.04 129.796 228.43 129.863C228.565 129.874 228.701 129.874 228.836 129.863C228.924 129.863 228.968 129.863 228.836 129.863C228.513 129.896 228.207 130.021 227.954 130.222C227.523 130.548 227.212 131.006 227.072 131.525C226.983 131.814 227.019 132.059 226.983 131.674L226.904 130.965C226.825 130.029 226.648 129.067 226.489 128.104C226.136 126.162 225.713 124.21 225.175 122.259C224.637 120.308 224.099 118.348 223.49 116.396C222.228 112.52 220.843 108.565 219.396 104.82L226.56 101.923Z" fill="#EEC1BB"/>
<path d="M223.24 93.8997C226.319 94.836 230.016 105.354 230.016 105.354L218.07 113.824C218.07 113.824 213.712 105.074 215 101.092C216.35 96.9798 219.72 92.8409 223.24 93.8997Z" fill="#034EA2"/>
<path opacity="0.3" d="M223.24 93.8997C226.319 94.836 230.016 105.354 230.016 105.354L218.07 113.824C218.07 113.824 213.712 105.074 215 101.092C216.35 96.9798 219.72 92.8409 223.24 93.8997Z" fill="black"/>
<path d="M257.683 281.462C257.527 281.457 257.374 281.417 257.235 281.346C257.096 281.275 256.975 281.174 256.88 281.05C256.805 280.973 256.752 280.877 256.727 280.772C256.702 280.667 256.706 280.558 256.739 280.455C257.013 279.536 259.642 278.793 259.942 278.705C259.975 278.697 260.01 278.699 260.043 278.71C260.076 278.72 260.105 278.74 260.127 278.766C260.146 278.795 260.156 278.828 260.156 278.863C260.156 278.897 260.146 278.93 260.127 278.959C259.651 279.834 258.724 281.348 257.763 281.453L257.683 281.462ZM259.624 279.178C258.583 279.501 257.224 280.053 257.083 280.56C257.065 280.606 257.062 280.656 257.075 280.703C257.087 280.75 257.115 280.792 257.154 280.823C257.221 280.916 257.312 280.991 257.417 281.04C257.522 281.089 257.638 281.111 257.754 281.103C258.266 281.041 258.954 280.333 259.633 279.178H259.624Z" fill="#034EA2"/>
<path d="M258.794 279.203C258.011 279.28 257.228 279.065 256.597 278.599C256.509 278.488 256.461 278.351 256.461 278.21C256.461 278.069 256.509 277.932 256.597 277.821C256.67 277.704 256.769 277.606 256.887 277.535C257.005 277.463 257.138 277.42 257.276 277.409C258.361 277.261 260.011 278.687 260.082 278.748C260.105 278.769 260.122 278.795 260.133 278.824C260.144 278.853 260.147 278.884 260.143 278.914C260.136 278.945 260.121 278.973 260.099 278.996C260.077 279.019 260.05 279.036 260.02 279.046C259.621 279.157 259.208 279.21 258.794 279.203ZM257.461 277.751H257.347C257.26 277.761 257.176 277.79 257.102 277.835C257.027 277.88 256.963 277.941 256.914 278.013C256.791 278.197 256.835 278.302 256.914 278.372C257.232 278.792 258.723 278.949 259.632 278.783C259.015 278.251 258.266 277.894 257.461 277.751Z" fill="#034EA2"/>
<path d="M189.634 308.885C188.988 308.943 188.341 308.782 187.799 308.43C187.678 308.32 187.585 308.184 187.528 308.032C187.472 307.879 187.452 307.716 187.473 307.555C187.478 307.456 187.51 307.361 187.564 307.278C187.618 307.195 187.693 307.127 187.781 307.082C188.708 306.575 191.725 308.106 192.069 308.281C192.102 308.297 192.129 308.325 192.145 308.358C192.161 308.391 192.165 308.429 192.157 308.465C192.152 308.501 192.136 308.535 192.111 308.562C192.086 308.588 192.052 308.606 192.016 308.613C191.232 308.775 190.435 308.866 189.634 308.885ZM188.284 307.336C188.169 307.331 188.055 307.352 187.949 307.397C187.915 307.417 187.887 307.445 187.867 307.479C187.847 307.513 187.836 307.551 187.834 307.59C187.817 307.694 187.826 307.801 187.861 307.9C187.897 308 187.957 308.088 188.037 308.158C188.496 308.57 189.74 308.64 191.425 308.368C190.447 307.842 189.384 307.487 188.284 307.318V307.336Z" fill="#034EA2"/>
<path d="M191.984 308.604C191.961 308.613 191.936 308.613 191.913 308.604C191.031 308.202 189.222 306.583 189.363 305.734C189.363 305.533 189.54 305.279 190.034 305.236C190.212 305.213 190.394 305.229 190.566 305.282C190.738 305.334 190.896 305.423 191.031 305.542C191.984 306.321 192.16 308.342 192.16 308.429C192.165 308.46 192.161 308.491 192.148 308.519C192.136 308.547 192.115 308.57 192.089 308.587C192.057 308.604 192.02 308.61 191.984 308.604ZM190.219 305.559H190.113C189.778 305.559 189.76 305.726 189.751 305.761C189.672 306.277 190.881 307.511 191.798 308.106C191.73 307.252 191.394 306.441 190.837 305.787C190.749 305.707 190.646 305.646 190.534 305.607C190.421 305.568 190.302 305.552 190.184 305.559H190.219Z" fill="#034EA2"/>
<path d="M218.248 137.642L219.033 140.373C219.139 140.583 218.892 140.801 218.53 140.801H186.893C186.619 140.801 186.39 140.661 186.372 140.495L186.09 137.765C186.09 137.572 186.31 137.415 186.619 137.415H217.745C217.841 137.406 217.939 137.422 218.027 137.462C218.115 137.502 218.191 137.564 218.248 137.642Z" fill="#034EA2"/>
<path opacity="0.6" d="M218.248 137.642L219.033 140.373C219.139 140.583 218.892 140.801 218.53 140.801H186.893C186.619 140.801 186.39 140.661 186.372 140.495L186.09 137.765C186.09 137.572 186.31 137.415 186.619 137.415H217.745C217.841 137.406 217.939 137.422 218.027 137.462C218.115 137.502 218.191 137.564 218.248 137.642Z" fill="white"/>
<path d="M214.073 141.09H214.956C215.114 141.09 215.247 141.011 215.238 140.906L214.841 137.362C214.841 137.257 214.682 137.169 214.523 137.169H213.685C213.517 137.169 213.394 137.257 213.403 137.362L213.765 140.88C213.765 141.011 213.906 141.09 214.073 141.09Z" fill="#034EA2"/>
<path opacity="0.5" d="M214.073 141.09H214.956C215.114 141.09 215.247 141.011 215.238 140.906L214.841 137.362C214.841 137.257 214.682 137.169 214.523 137.169H213.685C213.517 137.169 213.394 137.257 213.403 137.362L213.765 140.88C213.765 141.011 213.906 141.09 214.073 141.09Z" fill="black"/>
<path d="M189.238 141.089H190.067C190.235 141.089 190.367 141.01 190.349 140.905L189.935 137.379C189.935 137.274 189.776 137.187 189.608 137.187H188.779C188.611 137.187 188.488 137.274 188.497 137.379L188.885 140.923C188.929 141.01 189.052 141.089 189.238 141.089Z" fill="#034EA2"/>
<path opacity="0.5" d="M189.238 141.089H190.067C190.235 141.089 190.367 141.01 190.349 140.905L189.935 137.379C189.935 137.274 189.776 137.187 189.608 137.187H188.779C188.611 137.187 188.488 137.274 188.497 137.379L188.885 140.923C188.929 141.01 189.052 141.089 189.238 141.089Z" fill="black"/>
<path d="M201.656 141.089H202.495C202.653 141.089 202.786 141.01 202.768 140.905L202.38 137.379C202.38 137.274 202.221 137.187 202.053 137.187H201.224C201.057 137.187 200.933 137.274 200.942 137.379L201.33 140.923C201.348 141.01 201.489 141.089 201.656 141.089Z" fill="#034EA2"/>
<path opacity="0.5" d="M201.656 141.089H202.495C202.653 141.089 202.786 141.01 202.768 140.905L202.38 137.379C202.38 137.274 202.221 137.187 202.053 137.187H201.224C201.057 137.187 200.933 137.274 200.942 137.379L201.33 140.923C201.348 141.01 201.489 141.089 201.656 141.089Z" fill="black"/>
<path d="M214.439 124.141L211.898 116.432L207.84 122.924C207.84 122.924 210.231 127.124 213.372 127.063L214.439 124.141Z" fill="#EEC1BB"/>
<path d="M209.2 107.628L207.206 133.214C207.152 133.881 206.834 134.499 206.321 134.934C205.809 135.368 205.143 135.584 204.471 135.533L155.365 131.779C154.692 131.726 154.068 131.41 153.629 130.902C153.189 130.394 152.97 129.734 153.018 129.067L155.012 103.481C155.043 103.14 155.143 102.809 155.307 102.508C155.47 102.207 155.694 101.943 155.965 101.731C156.465 101.337 157.093 101.141 157.73 101.18L206.835 104.942C207.509 104.994 208.135 105.308 208.575 105.817C209.015 106.325 209.233 106.986 209.182 107.655L209.2 107.628Z" fill="#034EA2"/>
<path opacity="0.8" d="M209.2 107.628L207.206 133.214C207.152 133.881 206.834 134.499 206.321 134.934C205.809 135.368 205.143 135.584 204.471 135.533L155.365 131.779C154.692 131.726 154.068 131.41 153.629 130.902C153.189 130.394 152.97 129.734 153.018 129.067L155.012 103.481C155.043 103.14 155.143 102.809 155.307 102.508C155.47 102.207 155.694 101.943 155.965 101.731C156.465 101.337 157.093 101.141 157.73 101.18L206.835 104.942C207.509 104.994 208.135 105.308 208.575 105.817C209.015 106.325 209.233 106.986 209.182 107.655L209.2 107.628Z" fill="white"/>
<path d="M208.525 105.686L187.492 119.957C185.546 121.282 183.202 121.91 180.848 121.736C178.493 121.563 176.269 120.599 174.541 119.004L155.961 101.704C156.46 101.311 157.089 101.115 157.725 101.153L206.831 104.916C207.472 104.955 208.076 105.23 208.525 105.686Z" fill="#034EA2"/>
<path opacity="0.6" d="M208.525 105.686L187.492 119.957C185.546 121.282 183.202 121.91 180.848 121.736C178.493 121.563 176.269 120.599 174.541 119.004L155.961 101.704C156.46 101.311 157.089 101.115 157.725 101.153L206.831 104.916C207.472 104.955 208.076 105.23 208.525 105.686Z" fill="white"/>
<path d="M206.612 112.922L203.516 118.531L208.527 123.948L211.897 116.431L206.612 112.922Z" fill="#EEC1BB"/>
<path d="M201.626 67.3769L200.25 66.7119C200.25 66.7119 200.797 67.9544 201.626 67.3769Z" fill="#263238"/>
<path d="M271.684 170.63H260.867V316.095H271.684V170.63Z" fill="#034EA2"/>
<path opacity="0.6" d="M271.684 170.63H260.867V316.095H271.684V170.63Z" fill="white"/>
<path d="M260.867 170.63H271.684V181.358L260.867 177.412V170.63Z" fill="#034EA2"/>
<path opacity="0.4" d="M260.867 170.63H271.684V181.358L260.867 177.412V170.63Z" fill="white"/>
<path d="M249.195 135.734C249.259 132.323 248.636 128.934 247.364 125.765C246.092 122.595 244.196 119.709 241.786 117.275C239.377 114.84 236.502 112.907 233.331 111.587C230.159 110.267 226.754 109.587 223.315 109.587C219.875 109.587 216.47 110.267 213.299 111.587C210.127 112.907 207.253 114.84 204.843 117.275C202.434 119.709 200.537 122.595 199.265 125.765C197.993 128.934 197.371 132.323 197.434 135.734V170.63H249.195V135.734Z" fill="#034EA2"/>
<path opacity="0.3" d="M249.195 135.734C249.259 132.323 248.636 128.934 247.364 125.765C246.092 122.595 244.196 119.709 241.786 117.275C239.377 114.84 236.502 112.907 233.331 111.587C230.159 110.267 226.754 109.587 223.315 109.587C219.875 109.587 216.47 110.267 213.299 111.587C210.127 112.907 207.253 114.84 204.843 117.275C202.434 119.709 200.537 122.595 199.265 125.765C197.993 128.934 197.371 132.323 197.434 135.734V170.63H249.195V135.734Z" fill="black"/>
<path d="M192.528 185.602C189.07 199.777 197.822 211.266 212.149 211.266C226.477 211.266 240.831 199.777 244.289 185.602L247.889 170.84C247.939 170.641 247.942 170.434 247.898 170.234C247.855 170.033 247.766 169.845 247.639 169.684C247.511 169.523 247.348 169.393 247.162 169.304C246.976 169.214 246.772 169.168 246.566 169.169H197.61C197.304 169.17 197.007 169.274 196.767 169.463C196.527 169.652 196.358 169.915 196.286 170.21L192.528 185.602Z" fill="#034EA2"/>
<path opacity="0.4" d="M192.528 185.602C189.07 199.777 197.822 211.266 212.149 211.266C226.477 211.266 240.831 199.777 244.289 185.602L247.889 170.84C247.939 170.641 247.942 170.434 247.898 170.234C247.855 170.033 247.766 169.845 247.639 169.684C247.511 169.523 247.348 169.393 247.162 169.304C246.976 169.214 246.772 169.168 246.566 169.169H197.61C197.304 169.17 197.007 169.274 196.767 169.463C196.527 169.652 196.358 169.915 196.286 170.21L192.528 185.602Z" fill="white"/>
<path d="M190.446 185.602C186.988 199.777 195.74 211.266 210.067 211.266C224.395 211.266 238.749 199.777 242.207 185.602L245.842 170.84C245.892 170.641 245.895 170.434 245.852 170.234C245.808 170.033 245.719 169.845 245.592 169.684C245.464 169.523 245.301 169.393 245.115 169.304C244.929 169.214 244.725 169.168 244.519 169.169H195.554C195.248 169.17 194.951 169.274 194.711 169.463C194.471 169.652 194.302 169.915 194.231 170.21L190.446 185.602Z" fill="#034EA2"/>
<path opacity="0.5" d="M190.446 185.602C186.988 199.777 195.74 211.266 210.067 211.266C224.395 211.266 238.749 199.777 242.207 185.602L245.842 170.84C245.892 170.641 245.895 170.434 245.852 170.234C245.808 170.033 245.719 169.845 245.592 169.684C245.464 169.523 245.301 169.393 245.115 169.304C244.929 169.214 244.725 169.168 244.519 169.169H195.554C195.248 169.17 194.951 169.274 194.711 169.463C194.471 169.652 194.302 169.915 194.231 170.21L190.446 185.602Z" fill="white"/>
<path d="M310.103 135.725V170.63H249.228V135.725C249.225 128.919 246.498 122.393 241.646 117.58C236.794 112.768 230.214 110.063 223.352 110.061H284.271C291.133 110.063 297.713 112.768 302.565 117.58C307.417 122.393 310.144 128.919 310.147 135.725H310.103Z" fill="#034EA2"/>
<path opacity="0.5" d="M310.103 135.725V170.63H249.228V135.725C249.225 128.919 246.498 122.393 241.646 117.58C236.794 112.768 230.214 110.063 223.352 110.061H284.271C291.133 110.063 297.713 112.768 302.565 117.58C307.417 122.393 310.144 128.919 310.147 135.725H310.103Z" fill="white"/>
<path d="M310.104 135.725V145.062H249.23V135.725C249.241 130.018 247.321 124.471 243.777 119.975H304.696C308.225 124.477 310.129 130.023 310.104 135.725Z" fill="#034EA2"/>
<path opacity="0.7" d="M310.104 135.725V145.062H249.23V135.725C249.241 130.018 247.321 124.471 243.777 119.975H304.696C308.225 124.477 310.129 130.023 310.104 135.725Z" fill="white"/>
<path d="M257.672 149.559V97.9328C257.671 97.4725 257.771 97.0175 257.965 96.5995C258.159 96.1815 258.443 95.8105 258.797 95.5123C259.15 95.2141 259.565 94.996 260.012 94.873C260.459 94.75 260.928 94.7251 261.386 94.8002L273.861 96.8477C274.308 96.9206 274.715 97.1491 275.007 97.4922C275.3 97.8354 275.46 98.2708 275.458 98.7203V101.923C275.458 102.426 275.256 102.909 274.897 103.266C274.538 103.622 274.051 103.822 273.543 103.822H261.642V149.542C261.642 150.064 261.433 150.565 261.061 150.934C260.688 151.303 260.183 151.511 259.657 151.511C259.134 151.511 258.631 151.306 258.259 150.94C257.888 150.575 257.677 150.078 257.672 149.559Z" fill="#034EA2"/>
<path opacity="0.3" d="M257.672 149.559V97.9328C257.671 97.4725 257.771 97.0175 257.965 96.5995C258.159 96.1815 258.443 95.8105 258.797 95.5123C259.15 95.2141 259.565 94.996 260.012 94.873C260.459 94.75 260.928 94.7251 261.386 94.8002L273.861 96.8477C274.308 96.9206 274.715 97.1491 275.007 97.4922C275.3 97.8354 275.46 98.2708 275.458 98.7203V101.923C275.458 102.426 275.256 102.909 274.897 103.266C274.538 103.622 274.051 103.822 273.543 103.822H261.642V149.542C261.642 150.064 261.433 150.565 261.061 150.934C260.688 151.303 260.183 151.511 259.657 151.511C259.134 151.511 258.631 151.306 258.259 150.94C257.888 150.575 257.677 150.078 257.672 149.559Z" fill="black"/>
<path d="M223.31 116.877V142.533C223.308 143.202 223.04 143.842 222.564 144.316C222.088 144.789 221.443 145.057 220.769 145.062H171.514C170.84 145.057 170.195 144.789 169.719 144.316C169.243 143.842 168.975 143.202 168.973 142.533V116.877C168.975 116.209 169.243 115.568 169.719 115.095C170.195 114.621 170.84 114.353 171.514 114.349H220.769C221.443 114.353 222.088 114.621 222.564 115.095C223.04 115.568 223.308 116.209 223.31 116.877Z" fill="#034EA2"/>
<path opacity="0.8" d="M223.31 116.877V142.533C223.308 143.202 223.04 143.842 222.564 144.316C222.088 144.789 221.443 145.057 220.769 145.062H171.514C170.84 145.057 170.195 144.789 169.719 144.316C169.243 143.842 168.975 143.202 168.973 142.533V116.877C168.975 116.209 169.243 115.568 169.719 115.095C170.195 114.621 170.84 114.353 171.514 114.349H220.769C221.443 114.353 222.088 114.621 222.564 115.095C223.04 115.568 223.308 116.209 223.31 116.877Z" fill="white"/>
<path d="M222.498 115.031L202.613 130.86C200.769 132.325 198.477 133.123 196.115 133.123C193.753 133.123 191.461 132.325 189.617 130.86L169.758 115.031C170.236 114.587 170.868 114.343 171.522 114.349H220.778C221.417 114.354 222.032 114.598 222.498 115.031Z" fill="#034EA2"/>
<path opacity="0.6" d="M222.498 115.031L202.613 130.86C200.769 132.325 198.477 133.123 196.115 133.123C193.753 133.123 191.461 132.325 189.617 130.86L169.758 115.031C170.236 114.587 170.868 114.343 171.522 114.349H220.778C221.417 114.354 222.032 114.598 222.498 115.031Z" fill="white"/>
<path d="M185.569 155.404V181.069C185.569 181.738 185.301 182.38 184.825 182.854C184.349 183.328 183.703 183.595 183.028 183.598H133.799C133.125 183.593 132.48 183.325 132.004 182.851C131.528 182.378 131.26 181.737 131.258 181.069V155.404C131.258 154.736 131.526 154.095 132.002 153.622C132.479 153.15 133.125 152.884 133.799 152.884H183.028C183.702 152.884 184.348 153.15 184.825 153.622C185.301 154.095 185.569 154.736 185.569 155.404Z" fill="#034EA2"/>
<path opacity="0.8" d="M185.569 155.404V181.069C185.569 181.738 185.301 182.38 184.825 182.854C184.349 183.328 183.703 183.595 183.028 183.598H133.799C133.125 183.593 132.48 183.325 132.004 182.851C131.528 182.378 131.26 181.737 131.258 181.069V155.404C131.258 154.736 131.526 154.095 132.002 153.622C132.479 153.15 133.125 152.884 133.799 152.884H183.028C183.702 152.884 184.348 153.15 184.825 153.622C185.301 154.095 185.569 154.736 185.569 155.404Z" fill="white"/>
<path d="M184.758 153.558L164.899 169.387C163.057 170.857 160.765 171.658 158.401 171.658C156.037 171.658 153.745 170.857 151.903 169.387L132.035 153.558C132.514 153.117 133.146 152.876 133.8 152.885H183.029C183.671 152.882 184.29 153.123 184.758 153.558Z" fill="#034EA2"/>
<path opacity="0.6" d="M184.758 153.558L164.899 169.387C163.057 170.857 160.765 171.658 158.401 171.658C156.037 171.658 153.745 170.857 151.903 169.387L132.035 153.558C132.514 153.117 133.146 152.876 133.8 152.885H183.029C183.671 152.882 184.29 153.123 184.758 153.558Z" fill="white"/>
<path d="M249.199 136.171V166.885H230.796C230.12 166.882 229.473 166.615 228.995 166.142C228.518 165.668 228.248 165.026 228.246 164.356V138.7C228.251 138.031 228.521 137.39 228.998 136.917C229.475 136.444 230.121 136.176 230.796 136.171H249.199Z" fill="#034EA2"/>
<path opacity="0.8" d="M249.199 136.171V166.885H230.796C230.12 166.882 229.473 166.615 228.995 166.142C228.518 165.668 228.248 165.026 228.246 164.356V138.7C228.251 138.031 228.521 137.39 228.998 136.917C229.475 136.444 230.121 136.176 230.796 136.171H249.199Z" fill="white"/>
<path d="M249.197 136.171V152.884C249.102 152.822 249.011 152.755 248.924 152.683L229.082 136.854C229.558 136.407 230.191 136.162 230.847 136.171H249.197Z" fill="#034EA2"/>
<path opacity="0.6" d="M249.197 136.171V152.884C249.102 152.822 249.011 152.755 248.924 152.683L229.082 136.854C229.558 136.407 230.191 136.162 230.847 136.171H249.197Z" fill="white"/>
<path opacity="0.5" d="M249.188 136.171H245.156V166.885H249.188V136.171Z" fill="#034EA2"/>
</svg>
