<?xml version="1.0" encoding="UTF-8"?>
<svg xmlns="http://www.w3.org/2000/svg" width="108" height="108" viewBox="0 0 108 108" fill="none">
  <path fill-rule="evenodd" clip-rule="evenodd" d="M18.2281 45.2227L6.07812 33.0727V16.8727L18.2281 4.72266H34.4281L46.5781 16.8727V33.0727L34.4281 45.2227H18.2281Z" fill="#FFD9FF"></path>
  <path fill-rule="evenodd" clip-rule="evenodd" d="M17.9517 4.04688H34.7108L47.2563 16.5923V33.3515L34.7108 45.8969H17.9517L5.40625 33.3515V16.5923L17.9517 4.04688ZM18.5108 5.39688L6.75625 17.1515V32.7923L18.5108 44.5469H34.1517L45.9063 32.7923V17.1515L34.1517 5.39688H18.5108Z" fill="#141414"></path>
  <path fill-rule="evenodd" clip-rule="evenodd" d="M32.0215 20.1269L29.2414 21.479L31.3167 12.1484L23.7335 13.4984L20.8367 24.615L18.4539 25.504L17.2188 28.6859L17.2517 30.1276L19.6317 29.2397L18.057 33.9188V35.2825H35.9211L37.3319 29.9157H27.0477L28.0392 26.1027L31.1157 24.9548L32.0221 21.4764L32.0215 20.1269Z" fill="#141414"></path>
  <path d="M26.1776 29.2415L27.4772 24.2438L30.5539 23.0958L31.3192 20.1587L31.293 20.0859L28.2644 21.2159L30.4466 12.8242H24.258L21.4043 23.7755L19.0217 24.6645L18.2344 27.6924L20.6152 26.8042L18.9333 33.2583H35.4035L36.4594 29.2415H26.1776Z" fill="#F5F5F0"></path>
  <path fill-rule="evenodd" clip-rule="evenodd" d="M30.5493 23.095L27.4726 24.243L26.173 29.2407H36.4548L35.3989 33.2575H18.9287L20.6106 26.8034L18.2298 27.6916L19.0171 24.6637L21.3997 23.7747L24.2534 12.8234H30.442L28.2599 21.2151L31.2885 20.0851L31.3146 20.1579L30.5493 23.095ZM29.2397 20.129L31.693 19.2137L32.0204 20.1264L31.114 23.6048L28.0375 24.7527L27.046 28.5657H37.3302L35.9194 33.9325H18.0553L19.63 27.8897L17.25 28.7776L18.4522 24.154L20.835 23.265L23.7318 12.1484H31.315L29.2397 20.129Z" fill="#141414"></path>
  <path fill-rule="evenodd" clip-rule="evenodd" d="M26.3297 8.43281C17.1963 8.43281 9.79219 15.8369 9.79219 24.9703C9.79219 34.1037 17.1963 41.5078 26.3297 41.5078C35.4631 41.5078 42.8672 34.1037 42.8672 24.9703C42.8672 15.8369 35.4631 8.43281 26.3297 8.43281ZM9.11719 24.9703C9.11719 15.4641 16.8235 7.75781 26.3297 7.75781C35.8359 7.75781 43.5422 15.4641 43.5422 24.9703C43.5422 34.4765 35.8359 42.1828 26.3297 42.1828C16.8235 42.1828 9.11719 34.4765 9.11719 24.9703Z" fill="#141414"></path>
  <path fill-rule="evenodd" clip-rule="evenodd" d="M70.8844 97.2031L58.7344 85.0531V68.8531L70.8844 56.7031H87.0844L99.2344 68.8531V85.0531L87.0844 97.2031H70.8844Z" fill="#910590"></path>
  <path fill-rule="evenodd" clip-rule="evenodd" d="M70.6079 56.0273H87.3671L99.9125 68.5728V85.3319L87.3671 97.8773H70.6079L58.0625 85.3319V68.5728L70.6079 56.0273ZM71.1671 57.3773L59.4125 69.1319V84.7727L71.1671 96.5273H86.8079L98.5625 84.7727V69.1319L86.8079 57.3773H71.1671Z" fill="#141414"></path>
  <path d="M78.4321 62.7773L70.2109 76.1102L70.3759 77.2221L78.552 82.0966L78.8978 82.0965L87.0859 77.222L87.2262 76.1102L79.0149 62.7774L78.4321 62.7773Z" fill="#141414"></path>
  <path d="M87.2064 79.6144L78.7255 84.499L70.2979 79.6304V80.2884L78.4467 92.1636L79.0026 92.1645L87.2064 80.2893V79.6144Z" fill="#141414"></path>
  <path d="M78.7216 62.2734L86.8913 76.258L78.723 81.1324L70.5469 76.258L78.7216 62.2734Z" fill="#F5F5F0"></path>
  <path d="M78.7231 91.2984L86.9269 79.4232L78.7231 84.216L70.5744 79.4232L78.7231 91.2984Z" fill="#F5F5F0"></path>
  <path fill-rule="evenodd" clip-rule="evenodd" d="M70.2578 76.0861L78.4326 62.1016L79.0153 62.1016L87.185 76.0862L87.0666 76.5463L78.8982 81.4207L78.5525 81.4208L70.3764 76.5463L70.2578 76.0861ZM71.0094 76.1379L78.7252 80.7379L86.4335 76.138L78.7238 62.9408L71.0094 76.1379ZM85.7886 80.4789L78.8957 84.5059L78.5543 84.5054L71.7135 80.4819L78.7264 90.7017L85.7886 80.4789ZM78.726 83.8232L86.7589 79.1303L87.2069 79.6135L79.0031 91.4887L78.4471 91.4878L70.2984 79.6126L70.7478 79.1308L78.726 83.8232Z" fill="#141414"></path>
  <path fill-rule="evenodd" clip-rule="evenodd" d="M78.9859 60.4133C69.8525 60.4133 62.4484 67.8174 62.4484 76.9508C62.4484 86.0842 69.8525 93.4883 78.9859 93.4883C88.1193 93.4883 95.5234 86.0842 95.5234 76.9508C95.5234 67.8174 88.1193 60.4133 78.9859 60.4133ZM61.7734 76.9508C61.7734 67.4446 69.4797 59.7383 78.9859 59.7383C88.4921 59.7383 96.1984 67.4446 96.1984 76.9508C96.1984 86.457 88.4921 94.1633 78.9859 94.1633C69.4797 94.1633 61.7734 86.457 61.7734 76.9508Z" fill="#141414"></path>
  <path fill-rule="evenodd" clip-rule="evenodd" d="M42.5281 78.3008L26.3281 62.1008V40.5008L42.5281 24.3008H64.1281L80.3281 40.5008V62.1008L64.1281 78.3008H42.5281Z" fill="#F5F5F0"></path>
  <path fill-rule="evenodd" clip-rule="evenodd" d="M42.2517 23.625H64.4108L81.0063 40.2204V62.3796L64.4108 78.975H42.2517L25.6562 62.3796V40.2204L42.2517 23.625ZM42.8108 24.975L27.0063 40.7796V61.8204L42.8108 77.625H63.8517L79.6562 61.8204V40.7796L63.8517 24.975H42.8108Z" fill="#141414"></path>
  <path d="M76.9531 51.3008C76.9531 64.3485 66.3759 74.9258 53.3281 74.9258C40.2804 74.9258 29.7031 64.3485 29.7031 51.3008C29.7031 38.2531 40.2804 27.6758 53.3281 27.6758C66.3759 27.6758 76.9531 38.2531 76.9531 51.3008Z" fill="#F5F5F0"></path>
  <path fill-rule="evenodd" clip-rule="evenodd" d="M53.3281 74.2508C66.0031 74.2508 76.2781 63.9757 76.2781 51.3008C76.2781 38.6258 66.0031 28.3508 53.3281 28.3508C40.6532 28.3508 30.3781 38.6258 30.3781 51.3008C30.3781 63.9757 40.6532 74.2508 53.3281 74.2508ZM53.3281 74.9258C66.3759 74.9258 76.9531 64.3485 76.9531 51.3008C76.9531 38.2531 66.3759 27.6758 53.3281 27.6758C40.2804 27.6758 29.7031 38.2531 29.7031 51.3008C29.7031 64.3485 40.2804 74.9258 53.3281 74.9258Z" fill="#141414"></path>
  <path fill-rule="evenodd" clip-rule="evenodd" d="M62.7338 63.9947L61.9405 64.8008H60.8095H60.0813V68.8508H54.6813V64.8008H51.9812V68.8508H46.5813V64.8008H45.2313H42.5312V62.1008V54.0014V51.3014V48.6008V41.1764V38.4764H45.2313H46.5813V34.4258H51.9812V38.4764H54.0063V34.4258H59.4062V38.4764H60.0813H61.1964L61.9865 39.2633L65.3748 42.6377L66.1695 43.4292V44.5508V47.9264V49.0479L65.3749 49.8394L64.2563 50.9537L66.0556 52.7818L66.8313 53.57V54.6758V58.7258V59.8316L66.0556 60.6197L62.7338 63.9947ZM61.4312 55.7816L59.6792 54.0014H47.9313V59.4008H59.6785L61.4312 57.62V55.7816ZM60.7695 46.805L58.9666 48.6008H47.9313V43.8764H58.9661L60.7695 45.6724V46.805Z" fill="#141414"></path>
  <path fill-rule="evenodd" clip-rule="evenodd" d="M51.9812 33.0742H46.5813V37.1249H45.2313H42.5312V39.8249V47.2492V49.9492V52.6499V60.7492V63.4492H45.2313H46.5813V67.4992H51.9812V63.4492H54.6813V67.4992H60.0813V63.4492H60.8095H61.9405L62.7338 62.6432L66.0556 59.2682L66.8313 58.48V57.3742V53.3242V52.2184L66.0556 51.4303L64.2563 49.6021L65.3749 48.4878L66.1695 47.6964V46.5749V43.1992V42.0776L65.3748 41.2861L61.9865 37.9118L61.1964 37.1249H60.0813H59.4062V33.0742H54.0063V37.1249H51.9812V33.0742ZM47.9313 52.6499H59.6792L61.4312 54.43V56.2684L59.6785 58.0492H47.9313V52.6499ZM58.9666 47.2492L60.7695 45.4534V44.3208L58.9661 42.5249H47.9313V47.2492H58.9666Z" fill="#910590"></path>
  <path fill-rule="evenodd" clip-rule="evenodd" d="M64.2563 49.6021L66.1695 47.6964V42.0776L61.1964 37.1249H59.4062V33.0742H54.0063V37.1249H51.9812V33.0742H46.5813V37.1249H42.5312V63.4492H46.5813V67.4992H51.9812V63.4492H54.6813V67.4992H60.0813V63.4492H61.9405L66.8313 58.48V52.2184L64.2563 49.6021ZM66.1562 52.4949L63.3045 49.5974L65.4945 47.416V42.358L60.9176 37.7999H58.7313V33.7492H54.6813V37.7999H51.3063V33.7492H47.2562V37.7999H43.2063V62.7742H47.2562V66.8242H51.3063V62.7742H55.3562V66.8242H59.4062V62.7742H61.6577L66.1562 58.2036V52.4949ZM59.9619 51.9749L62.1063 54.1536V56.5449L59.9613 58.7242H47.2562V51.9749H59.9619ZM61.4445 45.7338L59.2454 47.9242H47.2562V41.8499H59.2449L61.4445 44.0404V45.7338ZM47.9313 52.6499H59.6792L61.4312 54.43V56.2684L59.6785 58.0492H47.9313V52.6499ZM60.7695 44.3208V45.4534L58.9666 47.2492H47.9313V42.5249H58.9661L60.7695 44.3208Z" fill="#141414"></path>
</svg>
