<svg width="37" height="37" viewBox="0 0 37 37" fill="none" xmlns="http://www.w3.org/2000/svg">
<circle opacity="0.7" cx="18.5" cy="18.5" r="18.5" fill="#EFF1FF"/>
<path fill-rule="evenodd" clip-rule="evenodd" d="M19.3507 11.2852L19.5388 11.314C19.9904 11.38 20.4348 11.4882 20.866 11.6373C21.5004 11.8561 22.1007 12.1632 22.6491 12.5493C23.3536 13.0359 23.9592 13.6515 24.4336 14.3633L24.4567 14.4008H24.4234H22.0036C21.993 14.4015 21.9825 14.3987 21.9738 14.3926C21.9651 14.3866 21.9588 14.3777 21.9558 14.3676C21.6926 13.8472 21.3774 13.3545 21.0151 12.8971C20.6194 12.4057 20.16 11.9689 19.6488 11.5983C19.5984 11.5608 19.5469 11.5253 19.4953 11.4898L19.4953 11.4898C19.4417 11.4528 19.3878 11.4158 19.3348 11.3761L19.3058 11.3559L19.3391 11.3313L19.3217 11.2852H19.3507ZM22.9549 18.1108H25.7091V18.0531C25.7085 18.0416 25.7085 18.03 25.7091 18.0185C25.6911 17.7378 25.6573 17.4584 25.6078 17.1815C25.4851 16.4839 25.2603 15.808 24.9406 15.1756C24.9363 15.165 24.9285 15.1561 24.9185 15.1504C24.9086 15.1446 24.897 15.1423 24.8856 15.1438H22.3167C22.5006 15.6172 22.6458 16.1046 22.7509 16.6013C22.8574 17.0986 22.9256 17.6032 22.9549 18.1108ZM25.7076 19.028L25.7076 19.028C25.7114 18.9962 25.7152 18.9649 25.7152 18.9336V18.8585H22.9566C22.9376 19.347 22.881 19.8333 22.7873 20.3132C22.6933 20.7936 22.5602 21.2656 22.3893 21.7245H22.4211H24.9481C24.9574 21.7257 24.9668 21.7236 24.9747 21.7186C24.9826 21.7136 24.9886 21.706 24.9915 21.6971C25.0209 21.6284 25.0514 21.56 25.0819 21.4916C25.1384 21.3647 25.1949 21.2377 25.2448 21.1083C25.4991 20.4584 25.6533 19.7738 25.7021 19.0779C25.7036 19.0611 25.7056 19.0445 25.7076 19.028ZM21.3919 15.1454H18.7752V18.0879H22.1329V18.0706C22.113 17.7319 22.0738 17.3946 22.0157 17.0604C21.9036 16.4149 21.7146 15.7851 21.4527 15.1844C21.449 15.1717 21.4408 15.1607 21.4296 15.1535C21.4184 15.1464 21.405 15.1435 21.3919 15.1454ZM18.7549 21.7228V18.8742H22.117C22.117 18.9362 22.117 18.9968 22.1083 19.0574C22.074 19.5934 21.9887 20.1249 21.8536 20.6448C21.7604 21.0013 21.6439 21.3513 21.5048 21.6925C21.5024 21.7022 21.4964 21.7107 21.4882 21.7163C21.4799 21.7219 21.4698 21.7242 21.4599 21.7228H18.7549ZM14.736 17.9899L14.736 17.9899C14.7331 18.0296 14.7301 18.0696 14.7269 18.1097H18.0152V15.1658H15.4607C15.4514 15.1647 15.442 15.1668 15.4341 15.1718C15.4262 15.1768 15.4202 15.1844 15.4173 15.1933C15.19 15.7128 15.0173 16.2545 14.9021 16.8095C14.8374 17.1151 14.789 17.4239 14.7573 17.7345C14.7484 17.8193 14.7422 17.9041 14.736 17.9898L14.736 17.9899ZM18.0123 21.7243H15.3912C15.3781 21.7258 15.3649 21.7225 15.354 21.7151C15.3431 21.7077 15.3353 21.6966 15.3319 21.6839C15.1085 21.1429 14.9454 20.5792 14.8456 20.0027C14.7816 19.6353 14.742 19.2641 14.7269 18.8915V18.8742H18.0123V21.7243ZM14.5356 15.1497L14.5372 15.1454V15.1497H14.5356ZM12.1101 15.1497H14.5356C14.5214 15.1888 14.5071 15.2269 14.493 15.2645L14.4929 15.2647L14.4929 15.2648L14.4929 15.2648C14.4733 15.3171 14.4541 15.3683 14.4359 15.4195C14.1321 16.269 13.9508 17.1572 13.8975 18.0575C13.8986 18.0625 13.8983 18.0677 13.8966 18.0725C13.895 18.0773 13.8922 18.0816 13.8884 18.085C13.8845 18.0884 13.8799 18.0907 13.8749 18.0917C13.8699 18.0927 13.8647 18.0923 13.8599 18.0907H11.2852C11.2852 18.0396 11.2897 17.9924 11.2944 17.943C11.2968 17.9185 11.2992 17.8934 11.3011 17.867C11.3494 17.3325 11.4552 16.8046 11.6166 16.2926C11.7371 15.9116 11.8861 15.5402 12.0624 15.1814C12.0656 15.1716 12.072 15.1631 12.0807 15.1573C12.0894 15.1515 12.0997 15.1489 12.1101 15.1497ZM14.4601 21.7244H12.0648C12.0515 21.7261 12.0381 21.7231 12.0267 21.716C12.0154 21.7089 12.0068 21.6981 12.0026 21.6854C11.7067 21.0659 11.4987 20.4082 11.3846 19.7315C11.3373 19.452 11.3044 19.1702 11.2862 18.8873V18.8555H13.8913C13.9293 19.8356 14.1212 20.8036 14.4601 21.7244ZM19.4201 25.6004L19.3058 25.6798C19.3175 25.6923 19.3319 25.702 19.348 25.708C19.3641 25.7141 19.3814 25.7162 19.3984 25.7144L19.4737 25.7028C19.9347 25.6421 20.3885 25.5358 20.8284 25.3854C21.3692 25.2019 21.8858 24.9538 22.3668 24.6465C22.843 24.3475 23.2804 23.9913 23.6694 23.5858C23.95 23.2932 24.2065 22.9786 24.4365 22.6449C24.4611 22.6081 24.485 22.5713 24.5102 22.5324L24.5421 22.4833H22.1179C22.0972 22.4791 22.0758 22.4827 22.0576 22.4934C22.0394 22.504 22.0259 22.521 22.0195 22.541C21.7015 23.1913 21.3001 23.7977 20.8255 24.3449C20.4106 24.8194 19.9386 25.2411 19.4201 25.6004ZM17.5413 25.6873C17.5167 25.69 17.492 25.69 17.4674 25.6873C16.1242 25.5004 14.8626 24.934 13.8318 24.0551C13.3018 23.6067 12.8448 23.079 12.4772 22.4908L12.4627 22.4634H14.7393C14.7531 22.4619 14.767 22.4651 14.7788 22.4724C14.7906 22.4797 14.7997 22.4908 14.8044 22.5038C15.0606 23.0248 15.3701 23.5181 15.7278 23.9758C16.0407 24.3715 16.3879 24.739 16.7655 25.0739C17.004 25.2866 17.2564 25.4833 17.521 25.6627L17.5355 25.6728V25.6873H17.5413ZM17.5346 11.3498L17.4998 11.3108L17.4955 11.3007C15.4056 11.6182 13.7629 12.6558 12.5385 14.3846H14.8397C14.8526 14.386 14.8656 14.3831 14.8766 14.3763C14.8876 14.3695 14.896 14.3592 14.9005 14.3471C15.213 13.7244 15.6099 13.1475 16.08 12.6327C16.4906 12.1722 16.9524 11.7597 17.4564 11.4032L17.5346 11.3498ZM21.1408 22.4877C20.555 23.5184 19.7406 24.402 18.76 25.0708V22.4877H21.1408ZM18.0168 22.4867H15.7316C16.2828 23.4984 17.0658 24.3662 18.0168 25.0193V22.4867ZM21.0612 14.3804H18.776V11.9719C19.7132 12.589 20.4952 13.4132 21.0612 14.3804ZM18.0167 14.4025V12.0459C17.1103 12.6492 16.3587 13.4564 15.8226 14.4025H18.0167Z" fill="#40196D"/>
</svg>
