<svg width="41" height="40" viewBox="0 0 41 40" fill="none" xmlns="http://www.w3.org/2000/svg">
<circle cx="20.5" cy="20" r="20" fill="#DCFFEC"/>
<path d="M14.3717 12.2148C14.909 12.2153 15.4241 12.4291 15.8038 12.8092C16.1836 13.1893 16.3969 13.7046 16.3969 14.2419V26.404C16.405 26.6752 16.3586 26.9452 16.2604 27.1981C16.1622 27.451 16.0143 27.6816 15.8253 27.8763C15.6364 28.0709 15.4103 28.2257 15.1604 28.3314C14.9106 28.437 14.6421 28.4915 14.3708 28.4915C14.0995 28.4915 13.831 28.437 13.5811 28.3314C13.3313 28.2257 13.1052 28.0709 12.9162 27.8763C12.7273 27.6816 12.5794 27.451 12.4812 27.1981C12.383 26.9452 12.3366 26.6752 12.3447 26.404V14.2419C12.3447 13.7043 12.5582 13.1887 12.9384 12.8085C13.3185 12.4284 13.8341 12.2148 14.3717 12.2148ZM20.2275 15.8184C20.7648 15.8189 21.2799 16.0327 21.6597 16.4128C22.0394 16.7929 22.2528 17.3082 22.2528 17.8455V26.404C22.2608 26.6752 22.2144 26.9452 22.1162 27.1981C22.0181 27.451 21.8701 27.6816 21.6812 27.8763C21.4922 28.0709 21.2661 28.2257 21.0163 28.3314C20.7664 28.437 20.4979 28.4915 20.2266 28.4915C19.9554 28.4915 19.6868 28.437 19.437 28.3314C19.1871 28.2257 18.961 28.0709 18.7721 27.8763C18.5832 27.6816 18.4352 27.451 18.337 27.1981C18.2388 26.9452 18.1924 26.6752 18.2005 26.404V17.8455C18.2005 17.3079 18.4141 16.7923 18.7942 16.4122C19.1744 16.032 19.6899 15.8184 20.2275 15.8184ZM26.0834 19.4221C26.6207 19.4225 27.1358 19.6363 27.5155 20.0164C27.8953 20.3965 28.1086 20.9118 28.1086 21.4491V26.404C28.1167 26.6752 28.0703 26.9452 27.9721 27.1981C27.8739 27.451 27.726 27.6816 27.537 27.8763C27.3481 28.0709 27.122 28.2257 26.8721 28.3314C26.6223 28.437 26.3538 28.4915 26.0825 28.4915C25.8112 28.4915 25.5427 28.437 25.2928 28.3314C25.043 28.2257 24.8169 28.0709 24.628 27.8763C24.439 27.6816 24.2911 27.451 24.1929 27.1981C24.0947 26.9452 24.0483 26.6752 24.0564 26.404V21.4491C24.0562 21.1829 24.1086 20.9192 24.2104 20.6732C24.3122 20.4272 24.4616 20.2037 24.6498 20.0155C24.8381 19.8272 25.0616 19.6779 25.3075 19.5761C25.5535 19.4743 25.8172 19.4219 26.0834 19.4221Z" fill="#48D38A"/>
</svg>
