<svg width="37" height="38" viewBox="0 0 37 38" fill="none" xmlns="http://www.w3.org/2000/svg">
<circle opacity="0.7" cx="18.4966" cy="18.5703" r="18.5" fill="#DBF8FF"/>
<mask id="path-2-inside-1_6889_12533" fill="white">
<path fill-rule="evenodd" clip-rule="evenodd" d="M24.4175 12.5279V12.9507V25.6096V26.0123H12.5757V25.6161V12.9442V12.5279H16.9469C17.1651 11.8118 17.7352 11.3818 18.4826 11.3562C19.1759 11.3369 19.6708 11.7045 20.0415 12.5279H24.4175ZM17.5387 12.5279H19.4463C19.3383 12.1723 18.9174 11.8834 18.4896 11.8834H18.4826C18.0285 11.8897 17.6149 12.2208 17.5387 12.5279ZM16.5957 14.2868H20.5021C20.8509 14.2868 20.9346 14.2107 20.9346 13.8875V13.1206L20.3626 13.1142V13.7481H16.6306V13.6466V13.1142H16.0586V13.7924C16.0586 14.2488 16.1074 14.2868 16.5957 14.2868ZM14.4733 17.2337C14.3259 17.2337 14.2063 17.3533 14.2063 17.5007C14.2063 17.6482 14.3259 17.7678 14.4733 17.7678H22.508C22.6555 17.7678 22.7751 17.6482 22.7751 17.5007C22.7751 17.3533 22.6555 17.2337 22.5081 17.2337H14.4733ZM14.2063 19.1082C14.2063 18.9607 14.3259 18.8412 14.4733 18.8412H22.5081C22.6555 18.8412 22.7751 18.9607 22.7751 19.1082C22.7751 19.2557 22.6555 19.3752 22.5081 19.3752H14.4733C14.3259 19.3752 14.2063 19.2557 14.2063 19.1082ZM14.4733 20.4487C14.3259 20.4487 14.2063 20.5682 14.2063 20.7157C14.2063 20.8632 14.3259 20.9827 14.4733 20.9827H22.5081C22.6555 20.9827 22.7751 20.8632 22.7751 20.7157C22.7751 20.5682 22.6555 20.4487 22.5081 20.4487H14.4733ZM14.2063 22.3232C14.2063 22.1757 14.3259 22.0562 14.4733 22.0562H22.5081C22.6555 22.0562 22.7751 22.1757 22.7751 22.3232C22.7751 22.4707 22.6555 22.5903 22.5081 22.5903H14.4733C14.3259 22.5903 14.2063 22.4707 14.2063 22.3232Z"/>
</mask>
<path fill-rule="evenodd" clip-rule="evenodd" d="M24.4175 12.5279V12.9507V25.6096V26.0123H12.5757V25.6161V12.9442V12.5279H16.9469C17.1651 11.8118 17.7352 11.3818 18.4826 11.3562C19.1759 11.3369 19.6708 11.7045 20.0415 12.5279H24.4175ZM17.5387 12.5279H19.4463C19.3383 12.1723 18.9174 11.8834 18.4896 11.8834H18.4826C18.0285 11.8897 17.6149 12.2208 17.5387 12.5279ZM16.5957 14.2868H20.5021C20.8509 14.2868 20.9346 14.2107 20.9346 13.8875V13.1206L20.3626 13.1142V13.7481H16.6306V13.6466V13.1142H16.0586V13.7924C16.0586 14.2488 16.1074 14.2868 16.5957 14.2868ZM14.4733 17.2337C14.3259 17.2337 14.2063 17.3533 14.2063 17.5007C14.2063 17.6482 14.3259 17.7678 14.4733 17.7678H22.508C22.6555 17.7678 22.7751 17.6482 22.7751 17.5007C22.7751 17.3533 22.6555 17.2337 22.5081 17.2337H14.4733ZM14.2063 19.1082C14.2063 18.9607 14.3259 18.8412 14.4733 18.8412H22.5081C22.6555 18.8412 22.7751 18.9607 22.7751 19.1082C22.7751 19.2557 22.6555 19.3752 22.5081 19.3752H14.4733C14.3259 19.3752 14.2063 19.2557 14.2063 19.1082ZM14.4733 20.4487C14.3259 20.4487 14.2063 20.5682 14.2063 20.7157C14.2063 20.8632 14.3259 20.9827 14.4733 20.9827H22.5081C22.6555 20.9827 22.7751 20.8632 22.7751 20.7157C22.7751 20.5682 22.6555 20.4487 22.5081 20.4487H14.4733ZM14.2063 22.3232C14.2063 22.1757 14.3259 22.0562 14.4733 22.0562H22.5081C22.6555 22.0562 22.7751 22.1757 22.7751 22.3232C22.7751 22.4707 22.6555 22.5903 22.5081 22.5903H14.4733C14.3259 22.5903 14.2063 22.4707 14.2063 22.3232Z" fill="#1DCBEF"/>
<path d="M24.4175 12.5279H25.4175V11.5279H24.4175V12.5279ZM24.4175 26.0123V27.0123H25.4175V26.0123H24.4175ZM12.5757 26.0123H11.5757V27.0123H12.5757V26.0123ZM12.5757 12.5279V11.5279H11.5757V12.5279H12.5757ZM16.9469 12.5279V13.5279H17.6877L17.9035 12.8194L16.9469 12.5279ZM18.4826 11.3562L18.4548 10.3566L18.4483 10.3568L18.4826 11.3562ZM20.0415 12.5279L19.1296 12.9385L19.395 13.5279H20.0415V12.5279ZM19.4463 12.5279V13.5279H20.7949L20.4032 12.2375L19.4463 12.5279ZM17.5387 12.5279L16.5682 12.2872L16.2604 13.5279H17.5387V12.5279ZM18.4826 11.8834V10.8833L18.4685 10.8835L18.4826 11.8834ZM20.9346 13.1206H21.9346V12.1316L20.9457 12.1206L20.9346 13.1206ZM20.3626 13.1142L20.3737 12.1143L19.3626 12.1031V13.1142H20.3626ZM20.3626 13.7481V14.7481H21.3626V13.7481H20.3626ZM16.6306 13.7481H15.6306V14.7481H16.6306V13.7481ZM16.6306 13.1142H17.6306V12.1142H16.6306V13.1142ZM16.0586 13.1142V12.1142H15.0586V13.1142H16.0586ZM25.4175 12.9507V12.5279H23.4175V12.9507H25.4175ZM25.4175 25.6096V12.9507H23.4175V25.6096H25.4175ZM25.4175 26.0123V25.6096H23.4175V26.0123H25.4175ZM12.5757 27.0123H24.4175V25.0123H12.5757V27.0123ZM11.5757 25.6161V26.0123H13.5757V25.6161H11.5757ZM11.5757 12.9442V25.6161H13.5757V12.9442H11.5757ZM11.5757 12.5279V12.9442H13.5757V12.5279H11.5757ZM16.9469 11.5279H12.5757V13.5279H16.9469V11.5279ZM18.4483 10.3568C17.281 10.3968 16.3352 11.1047 15.9903 12.2365L17.9035 12.8194C17.995 12.519 18.1894 12.3668 18.5169 12.3556L18.4483 10.3568ZM20.9533 12.1174C20.7264 11.6133 20.4202 11.1538 19.9828 10.8259C19.5256 10.4832 19.0011 10.3414 18.4548 10.3566L18.5104 12.3558C18.6574 12.3517 18.727 12.3841 18.7833 12.4262C18.8593 12.4832 18.9859 12.6192 19.1296 12.9385L20.9533 12.1174ZM24.4175 11.5279H20.0415V13.5279H24.4175V11.5279ZM19.4463 11.5279H17.5387V13.5279H19.4463V11.5279ZM18.4896 12.8834C18.4846 12.8834 18.4877 12.8827 18.4977 12.8859C18.5078 12.8891 18.5184 12.8943 18.527 12.9001C18.5358 12.9061 18.5354 12.9079 18.5288 12.8997C18.5225 12.8917 18.5038 12.8657 18.4894 12.8184L20.4032 12.2375C20.2683 11.793 19.9651 11.4587 19.6488 11.2444C19.3275 11.0267 18.9225 10.8834 18.4896 10.8834V12.8834ZM18.4826 12.8834H18.4896V10.8834H18.4826V12.8834ZM18.5093 12.7687C18.4986 12.812 18.4849 12.8438 18.4746 12.8643C18.4641 12.885 18.455 12.898 18.4502 12.9043C18.4415 12.9157 18.441 12.9133 18.4526 12.9049C18.4634 12.8971 18.4763 12.8904 18.4878 12.8863C18.499 12.8824 18.5022 12.8832 18.4966 12.8833L18.4685 10.8835C18.0079 10.8899 17.596 11.0576 17.2854 11.2808C16.9915 11.492 16.6809 11.8328 16.5682 12.2872L18.5093 12.7687ZM20.5021 13.2868H16.5957V15.2868H20.5021V13.2868ZM19.9346 13.8875C19.9346 13.9378 19.9299 13.907 19.9466 13.8411C19.9672 13.7597 20.0247 13.6081 20.1718 13.4728C20.3127 13.343 20.4547 13.3033 20.5075 13.292C20.5528 13.2823 20.5642 13.2868 20.5021 13.2868V15.2868C20.6502 15.2868 21.1434 15.2968 21.5266 14.944C21.9398 14.5634 21.9346 14.0432 21.9346 13.8875H19.9346ZM19.9346 13.1206V13.8875H21.9346V13.1206H19.9346ZM20.3515 14.1142L20.9235 14.1205L20.9457 12.1206L20.3737 12.1143L20.3515 14.1142ZM21.3626 13.7481V13.1142H19.3626V13.7481H21.3626ZM16.6306 14.7481H20.3626V12.7481H16.6306V14.7481ZM15.6306 13.6466V13.7481H17.6306V13.6466H15.6306ZM15.6306 13.1142V13.6466H17.6306V13.1142H15.6306ZM16.0586 14.1142H16.6306V12.1142H16.0586V14.1142ZM17.0586 13.7924V13.1142H15.0586V13.7924H17.0586ZM16.5957 13.2868C16.4691 13.2868 16.4424 13.2831 16.4503 13.2842C16.4583 13.2854 16.6382 13.3086 16.8165 13.4706C17.0075 13.6441 17.0501 13.8409 17.058 13.8848C17.0635 13.915 17.0586 13.9087 17.0586 13.7924H15.0586C15.0586 13.9043 15.0599 14.0739 15.0897 14.2395C15.122 14.4189 15.2074 14.7108 15.4716 14.9509C15.7231 15.1794 16.0069 15.2407 16.1613 15.2632C16.3157 15.2858 16.4782 15.2868 16.5957 15.2868V13.2868ZM15.2063 17.5007C15.2063 17.9055 14.8781 18.2337 14.4733 18.2337V16.2337C13.7736 16.2337 13.2063 16.801 13.2063 17.5007H15.2063ZM14.4733 16.7678C14.8781 16.7678 15.2063 17.0959 15.2063 17.5007H13.2063C13.2063 18.2005 13.7736 18.7678 14.4733 18.7678V16.7678ZM22.508 16.7678H14.4733V18.7678H22.508V16.7678ZM21.7751 17.5007C21.7751 17.0959 22.1032 16.7678 22.508 16.7678V18.7678C23.2078 18.7678 23.7751 18.2005 23.7751 17.5007H21.7751ZM22.5081 18.2337C22.1032 18.2337 21.7751 17.9055 21.7751 17.5007H23.7751C23.7751 16.801 23.2078 16.2337 22.5081 16.2337V18.2337ZM14.4733 18.2337H22.5081V16.2337H14.4733V18.2337ZM14.4733 17.8412C13.7736 17.8412 13.2063 18.4085 13.2063 19.1082H15.2063C15.2063 19.513 14.8782 19.8412 14.4733 19.8412V17.8412ZM22.5081 17.8412H14.4733V19.8412H22.5081V17.8412ZM23.7751 19.1082C23.7751 18.4085 23.2078 17.8412 22.5081 17.8412V19.8412C22.1033 19.8412 21.7751 19.513 21.7751 19.1082H23.7751ZM22.5081 20.3752C23.2078 20.3752 23.7751 19.808 23.7751 19.1082H21.7751C21.7751 18.7034 22.1033 18.3752 22.5081 18.3752V20.3752ZM14.4733 20.3752H22.5081V18.3752H14.4733V20.3752ZM13.2063 19.1082C13.2063 19.808 13.7736 20.3752 14.4733 20.3752V18.3752C14.8782 18.3752 15.2063 18.7034 15.2063 19.1082H13.2063ZM15.2063 20.7157C15.2063 21.1205 14.8782 21.4487 14.4733 21.4487V19.4487C13.7736 19.4487 13.2063 20.016 13.2063 20.7157H15.2063ZM14.4733 19.9827C14.8782 19.9827 15.2063 20.3109 15.2063 20.7157H13.2063C13.2063 21.4155 13.7736 21.9827 14.4733 21.9827V19.9827ZM22.5081 19.9827H14.4733V21.9827H22.5081V19.9827ZM21.7751 20.7157C21.7751 20.3109 22.1033 19.9827 22.5081 19.9827V21.9827C23.2078 21.9827 23.7751 21.4155 23.7751 20.7157H21.7751ZM22.5081 21.4487C22.1033 21.4487 21.7751 21.1205 21.7751 20.7157H23.7751C23.7751 20.016 23.2078 19.4487 22.5081 19.4487V21.4487ZM14.4733 21.4487H22.5081V19.4487H14.4733V21.4487ZM14.4733 21.0562C13.7736 21.0562 13.2063 21.6235 13.2063 22.3232H15.2063C15.2063 22.728 14.8782 23.0562 14.4733 23.0562V21.0562ZM22.5081 21.0562H14.4733V23.0562H22.5081V21.0562ZM23.7751 22.3232C23.7751 21.6235 23.2078 21.0562 22.5081 21.0562V23.0562C22.1033 23.0562 21.7751 22.728 21.7751 22.3232H23.7751ZM22.5081 23.5903C23.2078 23.5903 23.7751 23.023 23.7751 22.3232H21.7751C21.7751 21.9184 22.1033 21.5903 22.5081 21.5903V23.5903ZM14.4733 23.5903H22.5081V21.5903H14.4733V23.5903ZM13.2063 22.3232C13.2063 23.023 13.7736 23.5903 14.4733 23.5903V21.5903C14.8782 21.5903 15.2063 21.9184 15.2063 22.3232H13.2063Z" fill="#1DCBEF" mask="url(#path-2-inside-1_6889_12533)"/>
</svg>
