<svg width="37" height="38" viewBox="0 0 37 38" fill="none" xmlns="http://www.w3.org/2000/svg">
<circle opacity="0.7" cx="18.5" cy="19" r="18.5" fill="#DCFFEC"/>
<path d="M22.2456 14.2241L14.3242 25.8848L9.9927 22.9421L17.918 11.2759L22.2495 14.2185L22.2456 14.2241Z" fill="#48D38A"/>
<path d="M21.1538 14.6031L14.2753 24.7285L11.0801 22.5579L17.9587 12.4324L21.1538 14.6031Z" fill="#DCFFEC"/>
<path d="M17.4538 16.7928C16.3308 16.0298 14.8248 16.3101 14.081 17.405C13.3372 18.5 13.636 20.0063 14.7545 20.7662C15.8775 21.5291 17.3835 21.2489 18.1273 20.1539C18.8794 19.0563 18.5768 17.5557 17.4538 16.7928Z" fill="#48D38A"/>
<path d="M25.0668 16.4555L14.5009 25.7871L11.0345 21.8621L21.6055 12.526L25.0719 16.4509L25.0668 16.4555Z" fill="#48D38A"/>
<path d="M23.9147 16.5532L14.7399 24.6562L12.1829 21.761L21.3577 13.6579L23.9147 16.5532Z" fill="#DCFFEC"/>
<path d="M19.7876 17.7545C18.8889 16.7369 17.3605 16.6348 16.3683 17.5111C15.3762 18.3874 15.2921 19.9207 16.1872 20.9343C17.0859 21.9519 18.6143 22.0539 19.6065 21.1777C20.6073 20.3009 20.6863 18.7721 19.7876 17.7545Z" fill="#48D38A"/>
<path d="M26.1536 19.1286L14.1618 26.6133L11.3815 22.1586L23.3791 14.6703L26.1594 19.125L26.1536 19.1286Z" fill="#48D38A"/>
<path d="M24.9969 19.0359L14.5839 25.5352L12.533 22.2491L22.946 15.7499L24.9969 19.0359Z" fill="#DCFFEC"/>
<path d="M20.7161 19.5427C19.9953 18.3878 18.5004 18.0344 17.3743 18.7372C16.2483 19.4401 15.9119 20.9428 16.6298 22.0931C17.3507 23.248 18.8455 23.6014 19.9716 22.8986C21.1063 22.1967 21.4369 20.6976 20.7161 19.5427Z" fill="#48D38A"/>
<path d="M19.6153 20.6709L16.9803 21.4453L16.9992 21.5126L19.6342 20.7382L19.6153 20.6709Z" fill="#DCFFEC"/>
<path d="M19.699 20.9678L17.064 21.7422L17.083 21.8095L19.7179 21.0351L19.699 20.9678Z" fill="#DCFFEC"/>
<path d="M17.8821 22.1709L17.4673 20.6973L17.7203 20.6229L18.5035 21.2004C18.6856 21.3323 18.8337 21.4576 18.9624 21.5853L18.9652 21.5811C18.8907 21.3879 18.8333 21.2127 18.7688 20.9834L18.5949 20.3658L18.8145 20.3013L19.2293 21.775L18.9949 21.8439L18.2146 21.2622C18.0416 21.1343 17.8751 21.0011 17.7411 20.8684L17.7345 20.8736C17.8019 21.0557 17.8555 21.232 17.9244 21.4766L18.1016 22.1064L17.8821 22.1709Z" fill="#DCFFEC"/>
<path d="M25.7907 18.8682C26.1 18.8561 26.4094 18.8622 26.7127 18.8682C27.1313 18.8743 27.38 19.1169 27.38 19.5416C27.38 21.7072 27.38 23.8789 27.38 26.0445C27.38 26.4631 27.1313 26.7118 26.7127 26.7239C26.6763 26.7239 26.6399 26.7239 26.6096 26.7239C21.2047 26.7239 15.7998 26.7239 10.401 26.7239C10.31 26.7239 10.219 26.7179 10.128 26.7057C9.85506 26.6572 9.67307 26.457 9.63668 26.1841C9.63061 26.1173 9.62454 26.0506 9.62454 25.9899C9.61848 23.8546 9.61848 21.7254 9.62454 19.5962C9.62454 19.4445 9.66701 19.2747 9.7398 19.1351C9.84292 18.9471 10.031 18.8622 10.2494 18.8622C10.5951 18.8622 10.947 18.8682 11.2927 18.8561L25.7907 18.8682ZM14.7565 18.8379C14.7565 18.844 14.7625 18.85 14.7625 18.8561C18.2384 18.8561 21.7082 18.8561 25.2023 18.8561L14.7565 18.8379ZM18.3112 22.8294C18.3112 23.7758 18.3112 24.7221 18.3112 25.6624C18.3112 25.7109 18.293 25.7776 18.3173 25.808C18.3658 25.8747 18.4386 25.9535 18.5053 25.9657C18.5599 25.9717 18.6388 25.8868 18.6812 25.8262C18.7055 25.7958 18.6934 25.7291 18.6934 25.6806C18.6934 23.7818 18.6934 21.8831 18.6934 19.9783C18.6934 19.9237 18.6873 19.8691 18.6752 19.8145C18.6509 19.7175 18.5781 19.6568 18.4871 19.6872C18.4204 19.7114 18.3597 19.7842 18.3112 19.8449C18.2869 19.8813 18.3051 19.9419 18.3051 19.9965C18.3112 20.9429 18.3112 21.8831 18.3112 22.8294Z" fill="black"/>
</svg>
