<?xml version="1.0" encoding="UTF-8"?>
<svg xmlns="http://www.w3.org/2000/svg" width="108" height="108" viewBox="0 0 108 108" fill="none">
  <path d="M75.6505 90.4516L65.4766 80.2777L65.4766 65.5255L75.6505 55.3516H90.4026L100.577 65.5255L100.577 80.2777L90.4027 90.4516H75.6505Z" fill="#910590"></path>
  <path fill-rule="evenodd" clip-rule="evenodd" d="M75.3662 54.6758H90.6775L101.247 65.2451L101.247 80.5565L90.6776 91.1258H75.3662L64.7969 80.5565L64.7969 65.2451L75.3662 54.6758ZM75.9254 56.0258L66.1469 65.8043L66.1469 79.9973L75.9254 89.7758H90.1184L99.8969 79.9973L99.8968 65.8043L90.1183 56.0258H75.9254Z" fill="#141414"></path>
  <path fill-rule="evenodd" clip-rule="evenodd" d="M83.0219 87.0758C90.8505 87.0758 97.1969 80.7294 97.1969 72.9008C97.1969 65.0721 90.8505 58.7258 83.0219 58.7258C75.1932 58.7258 68.8469 65.0721 68.8469 72.9008C68.8469 80.7294 75.1932 87.0758 83.0219 87.0758ZM83.0219 87.7508C91.2233 87.7508 97.8719 81.1022 97.8719 72.9008C97.8719 64.6994 91.2233 58.0508 83.0219 58.0508C74.8204 58.0508 68.1719 64.6994 68.1719 72.9008C68.1719 81.1022 74.8204 87.7508 83.0219 87.7508Z" fill="#141414"></path>
  <path fill-rule="evenodd" clip-rule="evenodd" d="M75.3662 54.6758H90.6775L101.247 65.2451L101.247 80.5565L90.6776 91.1258H75.3662L64.7969 80.5565L64.7969 65.2451L75.3662 54.6758ZM75.9254 56.0258L66.1469 65.8043L66.1469 79.9973L75.9254 89.7758H90.1184L99.8969 79.9973L99.8968 65.8043L90.1183 56.0258H75.9254Z" fill="#141414"></path>
  <path fill-rule="evenodd" clip-rule="evenodd" d="M86.1386 62.5703H82.8726V64.4932C80.3041 64.6844 78.0627 65.6601 77.4523 67.7341C77.4523 68.4269 77.4523 69.0594 77.4523 69.5146C77.4523 71.1651 78.1453 72.2873 79.2213 73.0896C80.2124 73.8287 81.5229 74.2922 82.8726 74.6846V78.1872C81.6146 77.865 81.0347 76.5428 81.0347 75.0241H77.0859L77.1049 77.3828C77.2951 80.4052 79.5214 82.5724 82.6696 82.9853V85.0478H82.8815H86.3639C86.3639 85.0478 86.3675 82.9885 86.3639 82.9891C89.062 82.5743 91.6659 80.7476 91.6659 77.6552C91.6659 75.891 90.9349 74.7006 89.8247 73.8641C88.8024 73.0939 87.468 72.6306 86.1386 72.2584V67.6145C86.5109 67.7456 86.808 67.9457 87.0421 68.2121C87.506 68.7401 87.4134 69.5734 87.4134 70.2474H91.3622V68.9491C91.1602 67.5225 90.3994 66.8732 89.5576 66.0819C88.6852 65.2618 87.5233 64.7429 86.1386 64.5538V62.5703ZM81.0576 69.4106C81.0576 68.3529 81.8842 67.658 82.8815 67.4621V71.3135C82.3493 71.1131 81.9284 70.8948 81.6254 70.635C81.2573 70.3193 81.0576 69.9385 81.0576 69.4106ZM86.1475 79.9915V75.6553C86.6504 75.852 87.0889 76.0759 87.422 76.3531C87.8394 76.7004 88.0874 77.1265 88.0874 77.7113C88.0874 78.5056 87.7522 79.0452 87.3003 79.4148C86.9576 79.6952 86.5424 79.8809 86.1475 79.9915Z" fill="#141414"></path>
  <path d="M83.2734 81.2016C80.1191 80.9848 77.893 78.8573 77.7125 75.8467L77.6953 75.6219H80.4543L80.4715 75.8226C80.609 77.5246 81.6747 78.6887 83.2648 78.9215V72.9083C80.4972 72.0894 78.0477 71.0618 78.0477 67.9789C78.0477 65.3536 80.2738 63.3626 83.2648 63.2662V61.3555H85.7401V63.3064C88.5506 63.5954 90.3383 65.3456 90.6649 68.1314L90.6907 68.3723H87.9318L87.906 68.1876C87.6739 66.7184 86.9692 65.8754 85.7401 65.6266V70.9895C88.4561 71.7602 91.0603 72.828 91.0603 76.1437C91.0603 79.2025 88.4217 80.9848 85.7401 81.2176V83.2167L83.2734 83.2255V81.2016ZM85.7487 78.9135C86.7887 78.7369 88.2842 78.0143 88.2842 76.1999C88.2842 74.7949 87.1067 74.1286 85.7487 73.6469V78.9135ZM83.2734 65.5302C82.0615 65.6185 80.8496 66.4374 80.8496 67.8745C80.8496 69.143 81.8037 69.7692 83.2734 70.2669V65.5302Z" fill="#F5F5F0"></path>
  <path fill-rule="evenodd" clip-rule="evenodd" d="M83.2729 81.2036C80.2539 80.9961 78.0853 79.0384 77.7464 76.2314C77.7312 76.1055 77.7197 75.9779 77.712 75.8487L77.6948 75.6239H80.4537L80.4709 75.8246C80.5901 77.2995 81.4063 78.3705 82.6568 78.7815C82.8493 78.8448 83.0521 78.8925 83.2643 78.9235V72.9103C80.4967 72.0914 78.0472 71.0638 78.0472 67.9809C78.0472 65.3556 80.2733 63.3646 83.2643 63.2682V61.3575H85.7396V63.3084C88.4247 63.5845 90.1763 65.1943 90.612 67.7668C90.6324 67.8869 90.6499 68.0091 90.6644 68.1334L90.6902 68.3743H87.9313L87.9055 68.1896C87.7148 66.9823 87.2049 66.1978 86.3471 65.8185C86.161 65.7362 85.9586 65.6729 85.7396 65.6286V70.9915C88.4556 71.7622 91.0598 72.83 91.0598 76.1457C91.0598 79.2045 88.4212 80.9868 85.7396 81.2197V83.2187L83.2729 83.2275V81.2036ZM86.3471 81.7557V83.8241L82.6654 83.8372V81.7506C79.5292 81.3088 77.2971 79.0423 77.1059 75.8901L77.0391 75.0164H81.0114L81.0765 75.7757C81.1703 76.9373 81.7543 77.7607 82.6568 78.134V73.3613C81.4178 72.9777 80.1922 72.5102 79.2452 71.7743C78.1465 70.9206 77.4397 69.7196 77.4397 67.9809C77.4397 65.1391 79.7005 63.0369 82.6568 62.7035V60.75H86.3471V62.7791C87.6289 63.0018 88.7219 63.531 89.5586 64.3506C90.5119 65.2845 91.091 66.5545 91.2678 68.0627L91.2685 68.0688L91.3662 68.9818H87.4027L87.3046 68.2792C87.1997 67.6195 86.9977 67.1582 86.732 66.8431C86.6221 66.7129 86.495 66.5999 86.3471 66.5054V70.5356C87.5712 70.9021 88.8181 71.3707 89.7933 72.1364C90.9253 73.0252 91.6673 74.2947 91.6673 76.1457C91.6673 79.4147 89.028 81.3201 86.3471 81.7557ZM87.0118 77.7106C87.3909 77.3874 87.6762 76.9177 87.6762 76.2019C87.6762 75.7005 87.4783 75.3426 87.1272 75.0382C86.9191 74.8578 86.6589 74.6986 86.3557 74.5525V78.1087C86.5885 78.0095 86.8152 77.8781 87.0118 77.7106ZM86.3557 78.7594C86.1459 78.8321 85.9393 78.883 85.7482 78.9155V73.6489C85.9561 73.7227 86.1598 73.8007 86.3557 73.8851C87.4391 74.352 88.2837 75.0121 88.2837 76.2019C88.2837 77.6828 87.2874 78.4364 86.3557 78.7594ZM82.6654 66.2735C81.9634 66.5247 81.4566 67.0945 81.4566 67.8765C81.4566 68.3294 81.615 68.641 81.9146 68.9088C82.1034 69.0775 82.3522 69.2316 82.6654 69.3781V66.2735ZM82.6654 65.6388C81.6866 65.9144 80.8491 66.6819 80.8491 67.8765C80.8491 68.9604 81.5457 69.5754 82.6654 70.0419C82.856 70.1214 83.059 70.1965 83.2729 70.269V65.5322C83.0684 65.5471 82.864 65.5828 82.6654 65.6388Z" fill="#141414"></path>
  <path d="M80.3281 14.0793L80.3281 93.8258L73.5781 100.576L35.1031 100.576L28.3531 93.8258L28.3531 14.1758L35.1031 7.42578L73.6746 7.42578L80.3281 14.0793Z" fill="#F5F5F0"></path>
  <path fill-rule="evenodd" clip-rule="evenodd" d="M79.65 14.3582L73.3918 8.1L35.3796 8.1L29.025 14.4546L29.025 93.5454L35.3796 99.9L73.2954 99.9L79.65 93.5454L79.65 14.3582ZM81 94.1046L73.8546 101.25L34.8204 101.25L27.675 94.1046L27.675 13.8954L34.8204 6.75L73.951 6.75L81 13.799L81 94.1046Z" fill="#141414"></path>
  <path d="M44.5469 95.8508C44.5469 95.478 44.8491 95.1758 45.2219 95.1758H62.7719C63.1447 95.1758 63.4469 95.478 63.4469 95.8508C63.4469 96.2236 63.1447 96.5258 62.7719 96.5258H45.2219C44.8491 96.5258 44.5469 96.2236 44.5469 95.8508Z" fill="#141414"></path>
  <path d="M63.4531 12.1508L63.4531 14.8508L62.1031 16.2008L46.5781 16.2008L45.2281 14.8508L45.2281 12.1508L46.5781 10.8008L62.1031 10.8008L63.4531 12.1508Z" fill="#141414"></path>
  <path d="M74.0853 50.6258L65.4766 42.0171L65.4766 29.5345L74.0853 20.9258H86.5679L95.1765 29.5345L95.1766 42.0171L86.5679 50.6258H74.0853Z" fill="#FFD9FF"></path>
  <path fill-rule="evenodd" clip-rule="evenodd" d="M73.8088 20.25H86.8506L95.8547 29.2541L95.8547 42.2959L86.8506 51.3H73.8088L64.8047 42.2959L64.8047 29.2541L73.8088 20.25ZM74.368 21.6L66.1547 29.8133L66.1547 41.7367L74.368 49.95H86.2914L94.5047 41.7367L94.5047 29.8133L86.2914 21.6H74.368Z" fill="#141414"></path>
  <path fill-rule="evenodd" clip-rule="evenodd" d="M80.3328 47.9242C87.0431 47.9242 92.4828 42.4845 92.4828 35.7742C92.4828 29.064 87.0431 23.6242 80.3328 23.6242C73.6226 23.6242 68.1828 29.064 68.1828 35.7742C68.1828 42.4845 73.6226 47.9242 80.3328 47.9242ZM80.3328 48.5992C87.4159 48.5992 93.1578 42.8573 93.1578 35.7742C93.1578 28.6912 87.4159 22.9492 80.3328 22.9492C73.2498 22.9492 67.5078 28.6912 67.5078 35.7742C67.5078 42.8573 73.2498 48.5992 80.3328 48.5992Z" fill="#141414"></path>
  <path fill-rule="evenodd" clip-rule="evenodd" d="M73.801 20.25H86.8428L95.8469 29.2541L95.8469 42.2959L86.8428 51.3H73.801L64.7969 42.2959L64.7969 29.2541L73.801 20.25ZM74.3602 21.6L66.1469 29.8133L66.1469 41.7367L74.3602 49.95H86.2836L94.4969 41.7367L94.4969 29.8133L86.2836 21.6H74.3602Z" fill="#141414"></path>
  <path d="M80.1395 27C79.1621 27 78.2494 27.2239 77.4133 27.6763L77.4081 27.6791C76.5838 28.1346 75.9246 28.7768 75.437 29.5945L75.4348 29.5983C74.9563 30.4126 74.7233 31.3258 74.7233 32.3199C74.7233 32.809 74.774 33.2798 74.8781 33.7303L74.8794 33.7361C74.9095 33.8611 74.9431 33.9878 74.9803 34.1161H73.5781V37.4568H76.0055C76.0058 37.4757 76.006 37.4948 76.006 37.514C76.006 38.2186 75.8709 38.8346 75.6136 39.3744L75.6107 39.3804L75.608 39.3864C75.3541 39.947 74.925 40.5852 74.2957 41.3016L74.1278 41.4927V44.55H86.0596V40.9576H78.9262C79.1164 40.6396 79.2848 40.3046 79.4318 39.953C79.7839 39.1471 79.967 38.3325 79.967 37.514C79.967 37.4953 79.9669 37.4762 79.9667 37.4568H83.9982V34.1161H79.0486C78.9506 33.8486 78.874 33.6218 78.8175 33.4344C78.7468 33.1855 78.7073 32.8922 78.7073 32.5487C78.7073 31.8584 78.8807 31.3926 79.1556 31.0747C79.472 30.7267 79.7925 30.5924 80.1395 30.5924H81.1244C81.4769 30.5924 81.7646 30.7227 82.0261 31.0362C82.298 31.3622 82.4832 31.8216 82.5359 32.4664L82.5866 33.0864H86.4149L86.403 32.3998C86.3861 31.4166 86.1563 30.5086 85.7043 29.6893C85.2671 28.8538 84.6485 28.1904 83.8534 27.7138C83.0563 27.236 82.1719 27 81.216 27H80.1395Z" fill="#141414"></path>
  <path d="M74.7997 40.3963C75.4563 39.6488 75.9296 38.9547 76.2198 38.314C76.5251 37.6734 76.6778 36.9564 76.6778 36.1632C76.6778 35.9039 76.6549 35.6598 76.6091 35.431H74.25V33.4403H75.922C75.754 33.0132 75.6243 32.609 75.5326 32.2276C75.441 31.831 75.3952 31.4115 75.3952 30.9691C75.3952 30.0844 75.6013 29.2912 76.0136 28.5895C76.4412 27.8725 77.0138 27.3157 77.7314 26.9191C78.4644 26.5225 79.266 26.3242 80.1364 26.3242H81.2129C82.0527 26.3242 82.8162 26.5302 83.5033 26.942C84.1904 27.3539 84.7249 27.9259 85.1066 28.6581C85.5036 29.3751 85.7097 30.1759 85.725 31.0607H83.2055C83.1445 30.3132 82.9231 29.7107 82.5413 29.253C82.1596 28.7954 81.6862 28.5666 81.1213 28.5666H80.1364C79.5714 28.5666 79.0752 28.803 78.6476 29.2759C78.2353 29.7488 78.0292 30.3895 78.0292 31.1979C78.0292 31.5946 78.075 31.953 78.1666 32.2734C78.2582 32.5785 78.3957 32.9674 78.5789 33.4403H83.3201V35.431H79.2431C79.2737 35.7361 79.2889 35.9802 79.2889 36.1632C79.2889 36.8802 79.1286 37.6047 78.8079 38.3369C78.5025 39.0691 78.0979 39.7174 77.594 40.2818H85.3814V42.5242H74.7997V40.3963Z" fill="#141414"></path>
  <path d="M74.7997 40.3963C75.4563 39.6488 75.9296 38.9547 76.2198 38.314C76.5251 37.6734 76.6778 36.9564 76.6778 36.1632C76.6778 35.9039 76.6549 35.6598 76.6091 35.431H74.25V33.4403H75.922C75.754 33.0132 75.6243 32.609 75.5326 32.2276C75.441 31.831 75.3952 31.4115 75.3952 30.9691C75.3952 30.0844 75.6013 29.2912 76.0136 28.5895C76.4412 27.8725 77.0138 27.3157 77.7314 26.9191C78.4644 26.5225 79.266 26.3242 80.1364 26.3242H81.2129C82.0527 26.3242 82.8162 26.5302 83.5033 26.942C84.1904 27.3539 84.7249 27.9259 85.1066 28.6581C85.5036 29.3751 85.7097 30.1759 85.725 31.0607H83.2055C83.1445 30.3132 82.9231 29.7107 82.5413 29.253C82.1596 28.7954 81.6862 28.5666 81.1213 28.5666H80.1364C79.5714 28.5666 79.0752 28.803 78.6476 29.2759C78.2353 29.7488 78.0292 30.3895 78.0292 31.1979C78.0292 31.5946 78.075 31.953 78.1666 32.2734C78.2582 32.5785 78.3957 32.9674 78.5789 33.4403H83.3201V35.431H79.2431C79.2737 35.7361 79.2889 35.9802 79.2889 36.1632C79.2889 36.8802 79.1286 37.6047 78.8079 38.3369C78.5025 39.0691 78.0979 39.7174 77.594 40.2818H85.3814V42.5242H74.7997V40.3963Z" fill="#F5F5F0"></path>
  <path fill-rule="evenodd" clip-rule="evenodd" d="M74.1278 40.1411L74.2957 39.95C74.925 39.2336 75.3541 38.5955 75.608 38.0348L75.6107 38.0288L75.6136 38.0228C75.8709 37.483 76.006 36.8671 76.006 36.1624C76.006 36.1432 76.0058 36.1241 76.0055 36.1052H73.5781V32.7645H74.9803C74.9431 32.6363 74.9095 32.5096 74.8794 32.3845L74.8781 32.3788C74.774 31.9282 74.7233 31.4575 74.7233 30.9684C74.7233 29.9742 74.9563 29.061 75.4348 28.2468L75.437 28.243C75.9246 27.4253 76.5838 26.7831 77.4081 26.3276L77.4133 26.3247C78.2493 25.8723 79.1621 25.6484 80.1395 25.6484H81.216C82.1719 25.6484 83.0563 25.8845 83.8534 26.3623C84.6485 26.8388 85.2671 27.5022 85.7043 28.3378C86.1563 29.157 86.3861 30.0651 86.403 31.0482L86.4149 31.7349H82.5866L82.5359 31.1149C82.4832 30.4701 82.298 30.0106 82.0261 29.6846C81.7646 29.3711 81.4769 29.2408 81.1244 29.2408H80.1395C79.7925 29.2408 79.472 29.3751 79.1556 29.7232C78.8807 30.041 78.7073 30.5068 78.7073 31.1972C78.7073 31.5407 78.7468 31.8339 78.8175 32.0829C78.874 32.2703 78.9506 32.497 79.0486 32.7645H83.9982V36.1052H79.9667C79.9669 36.1247 79.967 36.1438 79.967 36.1624C79.967 36.9809 79.7839 37.7955 79.4318 38.6015C79.2848 38.953 79.1164 39.288 78.9262 39.6061H86.0596V43.1984H74.1278V40.1411ZM77.5971 40.2811C77.7873 40.068 77.9634 39.843 78.1253 39.6061C78.3924 39.2153 78.6209 38.792 78.8111 38.3362C79.1317 37.6039 79.292 36.8794 79.292 36.1624C79.292 36.144 79.2919 36.1249 79.2916 36.1052C79.2888 35.9296 79.2737 35.7046 79.2462 35.4302H83.3232V33.4395H78.582C78.3988 32.9667 78.2614 32.5777 78.1697 32.2726C78.0781 31.9523 78.0323 31.5938 78.0323 31.1972C78.0323 30.3887 78.2385 29.748 78.6507 29.2751C79.0783 28.8023 79.5745 28.5658 80.1395 28.5658H81.1244C81.6894 28.5658 82.1627 28.7946 82.5444 29.2523C82.9262 29.7099 83.1476 30.3124 83.2087 31.0599H85.7281C85.7241 30.8292 85.7072 30.6042 85.6772 30.3849C85.5924 29.7632 85.4032 29.1873 85.1097 28.6573C84.728 27.9251 84.1935 27.3531 83.5064 26.9412C82.8193 26.5294 82.0558 26.3234 81.216 26.3234H80.1395C79.2691 26.3234 78.4675 26.5217 77.7346 26.9184C77.0169 27.315 76.4443 27.8717 76.0167 28.5887C75.6045 29.2904 75.3983 30.0836 75.3983 30.9684C75.3983 31.4107 75.4441 31.8302 75.5358 32.2268C75.5777 32.4013 75.6276 32.5805 75.6855 32.7645C75.7541 32.9828 75.834 33.2078 75.9251 33.4395H74.2531V35.4302H76.6123C76.6581 35.659 76.681 35.9031 76.681 36.1624C76.681 36.9556 76.5283 37.6726 76.2229 38.3133C75.9328 38.9539 75.4594 39.648 74.8028 40.3955V42.5234H85.3846V40.2811H77.5971Z" fill="#141414"></path>
  <path fill-rule="evenodd" clip-rule="evenodd" d="M24.3016 87.75L8.10156 71.55V49.95L24.3016 33.75H45.9016L62.1016 49.95V71.55L45.9016 87.75H24.3016Z" fill="#910590"></path>
  <path fill-rule="evenodd" clip-rule="evenodd" d="M24.0251 33.0742H46.1843L62.7797 49.6696V71.8288L46.1843 88.4242H24.0251L7.42969 71.8288V49.6696L24.0251 33.0742ZM24.5843 34.4242L8.77969 50.2288V71.2696L24.5843 87.0742H45.6251L61.4297 71.2696V50.2288L45.6251 34.4242H24.5843Z" fill="#141414"></path>
  <path d="M58.7266 60.75C58.7266 73.7977 48.1493 84.375 35.1016 84.375C22.0538 84.375 11.4766 73.7977 11.4766 60.75C11.4766 47.7023 22.0538 37.125 35.1016 37.125C48.1493 37.125 58.7266 47.7023 58.7266 60.75Z" fill="#910590"></path>
  <path fill-rule="evenodd" clip-rule="evenodd" d="M35.1016 83.7C47.7765 83.7 58.0516 73.4249 58.0516 60.75C58.0516 48.0751 47.7765 37.8 35.1016 37.8C22.4266 37.8 12.1516 48.0751 12.1516 60.75C12.1516 73.4249 22.4266 83.7 35.1016 83.7ZM35.1016 84.375C48.1493 84.375 58.7266 73.7977 58.7266 60.75C58.7266 47.7023 48.1493 37.125 35.1016 37.125C22.0538 37.125 11.4766 47.7023 11.4766 60.75C11.4766 73.7977 22.0538 84.375 35.1016 84.375Z" fill="#141414"></path>
  <path d="M35.2651 45.8984C33.6089 45.8984 31.9696 46.3432 30.3541 47.2087L30.3495 47.2112C28.7461 48.0866 27.3415 49.3754 26.1302 51.0551C25.0015 52.5939 24.1737 54.3999 23.6381 56.4618H20.3418L19.4297 59.6417V60.9511H23.0051L22.9819 61.7629L23.001 62.3162H20.3418L19.4297 65.4734V66.8055H23.5366C24.0175 68.9156 24.7891 70.7715 25.8612 72.3622L25.8657 72.3687C27.0486 74.08 28.4392 75.4 30.0434 76.3059L30.0499 76.3096L30.0565 76.3131C31.6777 77.1818 33.3598 77.6234 35.095 77.6234H37.1359C38.9975 77.6234 40.726 77.1038 42.3069 76.0731C43.9078 75.0479 45.2001 73.6491 46.1851 71.8926C47.2006 70.1042 47.7806 68.1394 47.929 66.0077L47.93 64.1234L42.191 65.2858L42.1207 65.8818C41.9068 67.6954 41.2973 69.1971 40.3107 70.4145L40.3096 70.4159C39.3634 71.5896 38.3115 72.116 37.1359 72.116H35.1375C33.9998 72.116 32.9209 71.6282 31.8869 70.5462C31.028 69.6221 30.3454 68.3843 29.859 66.8055H37.2199L39.155 55.3484L30.5674 55.1118C30.9913 54.2515 31.499 53.533 32.0852 52.9481L32.091 52.9422C33.1307 51.8789 34.1849 51.4059 35.2651 51.4059H37.306C38.0205 51.4059 38.7176 51.6439 39.4103 52.1622L39.421 52.1703L39.432 52.1779C40.1433 52.6673 40.7386 53.3764 41.2064 54.3357L41.2112 54.3457L41.2164 54.3555C41.7065 55.2819 42.0116 56.3653 42.1185 57.6184L42.1712 58.236H47.946L47.93 56.6984C47.7533 54.5539 47.163 53.4063 46.2392 51.6507C45.3406 49.889 44.1182 48.4838 42.5696 47.4538C41.0063 46.4139 39.2305 45.8984 37.2635 45.8984H35.2651Z" fill="#141414"></path>
  <path d="M35.0972 75.5977C33.4814 75.5977 31.9082 75.1876 30.3775 74.3674C28.8751 73.5189 27.557 72.2745 26.4232 70.6341C25.3177 68.9938 24.5381 67.0423 24.0846 64.7797H20.2578L20.8956 61.6404H23.7019L23.6594 60.4102L23.7019 58.9253H20.2578L20.8956 55.786H24.1696C24.6799 53.58 25.5161 51.6851 26.6783 50.1013C27.8405 48.4892 29.1728 47.2731 30.6751 46.4529C32.2058 45.6327 33.7366 45.2227 35.2673 45.2227H37.2657C39.1082 45.2227 40.7523 45.7035 42.198 46.665C43.6436 47.6266 44.7917 48.9418 45.6421 50.6104C46.5208 52.279 47.0452 54.1457 47.2153 56.2103H42.7932C42.6799 54.881 42.3539 53.7073 41.8153 52.6891C41.3051 51.6427 40.6389 50.8367 39.8169 50.271C39.0232 49.6771 38.1869 49.3801 37.3082 49.3801H35.2673C33.9633 49.3801 32.7444 49.9599 31.6106 51.1195C30.4767 52.2508 29.6405 53.8063 29.1019 55.786H38.4988L37.861 58.9253H28.5492L28.5066 60.4102L28.5492 61.6404H37.3082L36.6704 64.7797H28.9743C29.4846 66.8443 30.2925 68.4706 31.398 69.6584C32.5318 70.8463 33.7791 71.4402 35.1397 71.4402H37.1381C38.5555 71.4402 39.7885 70.7897 40.8373 69.4887C41.9145 68.1595 42.5665 66.5332 42.7932 64.6101H47.2578C47.1161 66.6464 46.5633 68.513 45.5995 70.2099C44.6641 71.8786 43.4452 73.1937 41.9429 74.1553C40.4688 75.1169 38.8673 75.5977 37.1381 75.5977H35.0972Z" fill="#F5F5F0"></path>
  <path fill-rule="evenodd" clip-rule="evenodd" d="M30.0499 74.958L30.0434 74.9543C28.4392 74.0484 27.0486 72.7285 25.8657 71.0172L25.8612 71.0106C24.7891 69.4199 24.0175 67.564 23.5366 65.454H19.4297L20.3418 60.9646H23.001L22.9819 60.4114L23.0051 59.5996H19.4297L20.3418 55.1102H23.6381C24.1737 53.0484 25.0015 51.2424 26.1302 49.7035C27.3415 48.0239 28.7461 46.735 30.3495 45.8597L30.3541 45.8572C31.9695 44.9916 33.6089 44.5469 35.2651 44.5469H37.2635C39.2305 44.5469 41.0063 45.0624 42.5696 46.1022C44.1182 47.1323 45.3406 48.5374 46.2392 50.2991C47.163 52.0547 47.7092 54.0095 47.8858 56.1541L47.946 56.8845H42.1712L42.1185 56.2668C42.0116 55.0137 41.7065 53.9304 41.2164 53.004L41.2112 52.9942L41.2064 52.9842C40.7386 52.0248 40.1433 51.3157 39.432 50.8263L39.421 50.8187L39.4103 50.8107C38.7176 50.2924 38.0205 50.0543 37.306 50.0543H35.2651C34.1849 50.0543 33.1307 50.5273 32.091 51.5906L32.0852 51.5966C31.2152 52.4645 30.5181 53.627 30.0114 55.1102H39.3225L38.4104 59.5996H29.2029L29.1798 60.4074L29.199 60.9646H38.1319L37.2199 65.454H29.859C30.3454 67.0328 31.028 68.2705 31.8869 69.1946C32.9209 70.2766 33.9998 70.7644 35.1375 70.7644H37.1359C38.3115 70.7644 39.3634 70.2381 40.3096 69.0643L40.3107 69.063C41.2973 67.8455 41.9068 66.3438 42.1207 64.5302L42.191 63.9343H47.9792L47.929 64.6561C47.7806 66.7879 47.2006 68.7526 46.1851 70.541C45.2001 72.2975 43.9078 73.6963 42.3069 74.7215C40.726 75.7522 38.9975 76.2719 37.1359 76.2719H35.095C33.3598 76.2719 31.6777 75.8303 30.0565 74.9616L30.0499 74.958ZM41.9407 74.1545C43.443 73.1929 44.6619 71.8778 45.5973 70.2091C46.4536 68.7015 46.9855 67.0598 47.1929 65.2843C47.2189 65.0614 47.2398 64.8364 47.2556 64.6093H42.791C42.5643 66.5325 41.9123 68.1587 40.8351 69.4879C39.7863 70.7889 38.5533 71.4394 37.1359 71.4394H35.1375C33.7769 71.4394 32.5296 70.8455 31.3958 69.6576C30.4137 68.6024 29.6665 67.2012 29.1541 65.454C29.0898 65.2344 29.0291 65.0094 28.9721 64.779H36.6682L37.306 61.6396H28.547L28.5044 60.4094L28.547 58.9246H37.8588L38.4966 55.7852H29.0997C29.1625 55.5545 29.2293 55.3295 29.3002 55.1102C29.8373 53.4486 30.6067 52.1181 31.6084 51.1187C32.7422 49.9591 33.9611 49.3793 35.2651 49.3793H37.306C38.1847 49.3793 39.021 49.6763 39.8147 50.2702C40.6367 50.8359 41.3029 51.6419 41.8131 52.6884C42.3517 53.7065 42.6777 54.8802 42.791 56.2095H47.2131C47.1944 55.9821 47.1713 55.7571 47.144 55.5345C46.9232 53.7361 46.4218 52.0945 45.6399 50.6096C44.7895 48.941 43.6414 47.6259 42.1958 46.6643C40.7501 45.7027 39.106 45.2219 37.2635 45.2219H35.2651C33.7344 45.2219 32.2036 45.632 30.6729 46.4521C29.1706 47.2723 27.8383 48.4885 26.6761 50.1005C25.5139 51.6843 24.6777 53.5792 24.1674 55.7852H20.8934L20.2556 58.9246H23.6997L23.6572 60.4094L23.6997 61.6396H20.8934L20.2556 64.779H24.0824C24.5359 67.0415 25.3155 68.993 26.421 70.6334C27.5548 72.2737 28.8729 73.5181 30.3753 74.3666C31.906 75.1868 33.4792 75.5969 35.095 75.5969H37.1359C38.8651 75.5969 40.4666 75.1161 41.9407 74.1545Z" fill="#141414"></path>
</svg>
