<svg width="379" height="405" viewBox="0 0 379 405" fill="none" xmlns="http://www.w3.org/2000/svg">
<circle cx="189.5" cy="190.408" r="189.5" fill="#DFE3FF"/>
<g filter="url(#filter0_d_56813_38407)">
<path d="M87 70.5428C87 52.5192 101.611 37.9082 119.635 37.9082H259.311C277.334 37.9082 291.945 52.5192 291.945 70.5428V373.392C291.945 376.997 289.023 379.919 285.419 379.919H93.5269C89.9222 379.919 87 376.997 87 373.392V70.5428Z" fill="white"/>
</g>
<path opacity="0.5" d="M102.012 94.0402C102.012 86.8307 107.856 80.9863 115.066 80.9863H265.838C273.047 80.9863 278.891 86.8307 278.891 94.0402V323.135C278.891 330.345 273.047 336.189 265.838 336.189H115.066C107.856 336.189 102.012 330.345 102.012 323.135V94.0402Z" fill="#BEBEBE"/>
<path d="M128.772 104.809C128.772 102.106 131.083 99.9141 133.934 99.9141H246.97C249.82 99.9141 252.131 102.106 252.131 104.809V106.767C252.131 109.471 249.82 111.663 246.97 111.663H133.934C131.083 111.663 128.772 109.471 128.772 106.767V104.809Z" fill="white"/>
<path opacity="0.5" d="M110.497 144.95C110.497 134.136 119.264 125.369 130.078 125.369H250.826C261.64 125.369 270.407 134.136 270.407 144.95V306.165C270.407 316.979 261.64 325.746 250.826 325.746H130.078C119.264 325.746 110.497 316.979 110.497 306.165V144.95Z" fill="#BEBEBE"/>
<path opacity="0.5" d="M141.826 310.08C141.826 308.278 143.287 306.816 145.09 306.816H236.467C238.269 306.816 239.73 308.278 239.73 310.08V313.996C239.73 315.798 238.269 317.259 236.467 317.259H145.09C143.287 317.259 141.826 315.798 141.826 313.996V310.08Z" fill="#979797"/>
<path opacity="0.3" d="M110.497 272.877H270.407V282.015H110.497V272.877Z" fill="#979797"/>
<path opacity="0.5" d="M115.719 257.213H160.755V260.476H115.719V257.213Z" fill="#979797"/>
<path d="M130.73 141.686H250.826V234.368H130.73V141.686Z" fill="white"/>
<path d="M199.856 185.936H196.549V189.177H199.856V191.212H196.549V199.866H194.147L185.723 181.419V199.866H183.181V191.212H179.909V189.177H183.181V185.936H179.909V183.902H183.181V175.316H185.583L194.008 194.004V175.316H196.549V183.902H199.856V185.936Z" fill="#BEBEBE"/>
<path d="M176.329 185.936H173.022V189.177H176.329V191.212H173.022V199.866H170.62L162.196 181.419V199.866H159.655V191.212H156.383V189.177H159.655V185.936H156.383V183.902H159.655V175.316H162.057L170.481 194.004V175.316H173.022V183.902H176.329V185.936Z" fill="#BEBEBE"/>
<path d="M223.383 185.936H220.076V189.177H223.383V191.212H220.076V199.866H217.674L209.25 181.419V199.866H206.709V191.212H203.437V189.177H206.709V185.936H203.437V183.902H206.709V175.316H209.111L217.535 194.004V175.316H220.076V183.902H223.383V185.936Z" fill="#BEBEBE"/>
<path d="M119.635 153.434H128.772V158.655H119.635V153.434Z" fill="white"/>
<path d="M252.784 153.434H261.922V158.655H252.784V153.434Z" fill="white"/>
<path d="M119.635 189.984H128.772V195.206H119.635V189.984Z" fill="white"/>
<path d="M252.784 189.984H261.922V195.206H252.784V189.984Z" fill="white"/>
<path d="M119.635 171.711H128.772V176.932H119.635V171.711Z" fill="white"/>
<path d="M252.784 171.711H261.922V176.932H252.784V171.711Z" fill="white"/>
<path d="M119.635 208.262H128.772V213.483H119.635V208.262Z" fill="white"/>
<path d="M252.784 208.262H261.922V213.483H252.784V208.262Z" fill="white"/>
<g filter="url(#filter1_d_56813_38407)">
<path d="M117.141 335.669H58.8276C57.265 335.669 56 334.404 56 332.841L56 237.736C56 236.173 57.265 234.908 58.8276 234.908H117.141C118.704 234.908 119.969 236.173 119.969 237.736V332.833C119.977 334.404 118.704 335.669 117.141 335.669Z" fill="#40196D" stroke="#DBDCE0" stroke-opacity="0.5" stroke-width="0.401411"/>
<path d="M116.794 244.707C116.803 244.152 116.695 243.416 116.488 242.688C116.298 242.035 116.05 241.406 115.702 240.819C115.57 240.604 115.347 240.579 115.181 240.62C114.958 240.678 114.817 240.951 114.908 241.166C114.966 241.307 115.032 241.439 115.099 241.571C115.545 242.473 115.827 243.416 115.876 244.425C115.942 245.625 115.785 246.791 115.297 247.891C115.181 248.156 115.041 248.412 114.925 248.685C114.801 248.958 114.975 249.264 115.264 249.297C115.405 249.314 115.537 249.297 115.62 249.165C115.694 249.058 115.769 248.958 115.827 248.843C116.48 247.618 116.827 246.311 116.794 244.707ZM114.933 244.847C114.908 244.607 114.9 244.359 114.867 244.119C114.759 243.251 114.462 242.44 114.032 241.687C113.932 241.514 113.775 241.464 113.593 241.48C113.353 241.505 113.122 241.762 113.246 242.043C113.295 242.159 113.345 242.275 113.395 242.382C113.701 242.986 113.899 243.615 113.982 244.293C114.081 245.128 114.007 245.947 113.717 246.741C113.585 247.097 113.411 247.445 113.262 247.8C113.229 247.875 113.196 247.957 113.204 248.032C113.221 248.222 113.328 248.354 113.502 248.421C113.684 248.487 113.833 248.429 113.949 248.288C114.032 248.189 114.114 248.073 114.172 247.957C114.685 246.981 114.933 245.947 114.933 244.847ZM113.022 244.996C113.047 244.144 112.832 243.383 112.427 242.68C112.385 242.597 112.328 242.523 112.261 242.465C112.137 242.341 111.889 242.308 111.757 242.39C111.542 242.523 111.476 242.688 111.558 242.903C111.608 243.044 111.682 243.184 111.748 243.317C112.203 244.268 112.27 245.236 111.897 246.22C111.806 246.46 111.691 246.692 111.583 246.932C111.55 247.006 111.517 247.089 111.525 247.155C111.542 247.337 111.657 247.469 111.823 247.536C111.988 247.602 112.162 247.56 112.278 247.428C112.328 247.37 112.377 247.296 112.419 247.229C112.824 246.526 113.055 245.782 113.022 244.996ZM110.342 244.938C110.367 245.294 110.276 245.616 110.086 245.914C110.036 245.989 109.995 246.071 109.962 246.154C109.896 246.336 109.962 246.526 110.135 246.659C110.276 246.766 110.466 246.766 110.607 246.65C110.706 246.568 110.797 246.477 110.863 246.369C111.277 245.699 111.368 244.98 111.169 244.218C111.078 243.871 110.921 243.548 110.681 243.284C110.533 243.118 110.326 243.11 110.144 243.226C109.953 243.358 109.887 243.573 109.987 243.772C110.02 243.838 110.053 243.912 110.094 243.97C110.276 244.268 110.359 244.591 110.342 244.938Z" fill="#CACACA"/>
<path d="M116.795 244.706C116.828 246.311 116.481 247.618 115.827 248.85C115.769 248.966 115.695 249.065 115.62 249.173C115.538 249.297 115.405 249.322 115.265 249.305C114.967 249.264 114.801 248.958 114.925 248.693C115.05 248.428 115.182 248.172 115.298 247.899C115.786 246.791 115.943 245.633 115.877 244.433C115.819 243.424 115.538 242.481 115.099 241.579C115.033 241.447 114.975 241.306 114.909 241.174C114.818 240.959 114.959 240.686 115.182 240.628C115.347 240.587 115.571 240.611 115.703 240.827C116.05 241.414 116.299 242.043 116.489 242.696C116.704 243.416 116.803 244.152 116.795 244.706Z" fill="#CACACA"/>
<path d="M114.933 244.847C114.933 245.939 114.693 246.981 114.189 247.949C114.131 248.064 114.048 248.18 113.965 248.28C113.85 248.42 113.693 248.478 113.519 248.412C113.337 248.346 113.238 248.205 113.221 248.023C113.213 247.949 113.246 247.866 113.279 247.792C113.428 247.436 113.602 247.097 113.734 246.733C114.015 245.939 114.09 245.128 113.999 244.284C113.916 243.606 113.717 242.977 113.411 242.373C113.353 242.266 113.312 242.142 113.262 242.034C113.138 241.761 113.37 241.497 113.61 241.472C113.8 241.455 113.949 241.505 114.048 241.679C114.487 242.44 114.784 243.242 114.884 244.111C114.892 244.359 114.908 244.607 114.933 244.847Z" fill="#CACACA"/>
<path d="M113.023 244.997C113.056 245.775 112.824 246.527 112.427 247.231C112.386 247.305 112.344 247.371 112.286 247.429C112.171 247.561 111.997 247.611 111.831 247.537C111.658 247.47 111.55 247.338 111.534 247.156C111.525 247.082 111.567 246.999 111.592 246.933C111.691 246.693 111.815 246.461 111.906 246.221C112.278 245.237 112.212 244.269 111.757 243.318C111.691 243.177 111.625 243.045 111.567 242.904C111.484 242.681 111.55 242.524 111.765 242.391C111.906 242.309 112.146 242.334 112.27 242.466C112.336 242.532 112.386 242.607 112.435 242.681C112.832 243.392 113.047 244.145 113.023 244.997Z" fill="#CACACA"/>
<path d="M110.343 244.938C110.368 244.59 110.277 244.268 110.086 243.978C110.045 243.912 110.012 243.846 109.979 243.78C109.888 243.581 109.946 243.366 110.136 243.234C110.318 243.11 110.525 243.126 110.674 243.292C110.922 243.556 111.071 243.879 111.162 244.226C111.368 244.987 111.269 245.707 110.856 246.377C110.789 246.485 110.698 246.584 110.599 246.658C110.45 246.774 110.268 246.774 110.128 246.667C109.954 246.534 109.888 246.336 109.954 246.162C109.987 246.079 110.028 245.997 110.078 245.922C110.277 245.616 110.359 245.293 110.343 244.938Z" fill="#CACACA"/>
<g opacity="0.13">
<mask id="mask0_56813_38407" style="mask-type:alpha" maskUnits="userSpaceOnUse" x="56" y="256" width="64" height="23">
<path d="M70.0874 277.761H65.5138L59.9645 270.897V277.761H56.0312V256.594H59.9645V269.294L65.2089 262.641H69.9045L63.7759 270.11L70.0874 277.761Z" fill="#DFE3FF"/>
<path d="M80.2975 262.641H84.2307V277.761H80.2975V276.067C79.3421 277.478 77.8277 278.184 75.7544 278.184C74.0875 278.184 72.7053 277.63 71.6076 276.521C70.5303 275.412 69.9916 273.88 69.9916 271.925V262.641H73.9249V271.441C73.9249 272.449 74.1993 273.225 74.7482 273.769C75.297 274.293 76.0288 274.555 76.9435 274.555C77.9598 274.555 78.7729 274.243 79.3827 273.618C79.9925 272.993 80.2975 272.056 80.2975 270.806V262.641Z" fill="#DFE3FF"/>
<path d="M98.1695 256.594H102.103V277.761H98.1695V275.977C97.0108 277.448 95.3643 278.184 93.23 278.184C91.177 278.184 89.4187 277.418 87.9551 275.886C86.5119 274.334 85.7903 272.439 85.7903 270.201C85.7903 267.963 86.5119 266.079 87.9551 264.546C89.4187 262.994 91.177 262.218 93.23 262.218C95.3643 262.218 97.0108 262.954 98.1695 264.426V256.594ZM90.9127 273.285C91.7258 274.072 92.7421 274.465 93.9618 274.465C95.1814 274.465 96.1876 274.072 96.9803 273.285C97.7731 272.479 98.1695 271.451 98.1695 270.201C98.1695 268.951 97.7731 267.933 96.9803 267.147C96.1876 266.341 95.1814 265.937 93.9618 265.937C92.7421 265.937 91.7258 266.341 90.9127 267.147C90.12 267.933 89.7236 268.951 89.7236 270.201C89.7236 271.451 90.12 272.479 90.9127 273.285Z" fill="#DFE3FF"/>
<path d="M116.067 262.641H120V277.761H116.067V275.977C114.888 277.448 113.231 278.184 111.097 278.184C109.064 278.184 107.316 277.418 105.852 275.886C104.409 274.334 103.688 272.439 103.688 270.201C103.688 267.963 104.409 266.079 105.852 264.546C107.316 262.994 109.064 262.218 111.097 262.218C113.231 262.218 114.888 262.954 116.067 264.426V262.641ZM108.81 273.285C109.603 274.072 110.609 274.465 111.829 274.465C113.048 274.465 114.054 274.072 114.847 273.285C115.66 272.479 116.067 271.451 116.067 270.201C116.067 268.951 115.66 267.933 114.847 267.147C114.054 266.341 113.048 265.937 111.829 265.937C110.609 265.937 109.603 266.341 108.81 267.147C108.017 267.933 107.621 268.951 107.621 270.201C107.621 271.451 108.017 272.479 108.81 273.285Z" fill="#DFE3FF"/>
</mask>
<g mask="url(#mask0_56813_38407)">
<rect x="47.501" y="252.512" width="72.4779" height="27.759" fill="#DFE3FF"/>
</g>
</g>
<g clip-path="url(#clip0_56813_38407)">
<path d="M76.0046 240.135V244.44H74.757V243.811C74.6212 244.038 74.443 244.21 74.2223 244.329C74.0016 244.448 73.7527 244.508 73.4754 244.508C72.9379 244.508 72.5362 244.358 72.2702 244.058C72.0043 243.757 71.8714 243.304 71.8714 242.698V240.135H73.1529V242.723C73.1529 243.245 73.3764 243.505 73.8234 243.505C74.0893 243.505 74.3043 243.415 74.4684 243.233C74.6325 243.052 74.7145 242.814 74.7145 242.52V240.135H76.0046ZM80.8932 238.172V244.44H79.6286V243.803C79.4985 244.024 79.3146 244.196 79.0769 244.321C78.8393 244.446 78.5705 244.508 78.2707 244.508C77.9029 244.508 77.5747 244.414 77.2862 244.225C76.9976 244.035 76.7741 243.769 76.6128 243.426C76.4516 243.083 76.3724 242.692 76.3724 242.25C76.3724 241.809 76.4516 241.421 76.6128 241.084C76.7741 240.747 76.9976 240.486 77.2833 240.302C77.5691 240.118 77.8972 240.027 78.2707 240.027C78.5592 240.027 78.8223 240.089 79.06 240.208C79.2976 240.33 79.4815 240.497 79.6116 240.713V238.172H80.8932ZM79.374 243.205C79.5437 242.987 79.6286 242.675 79.6286 242.267C79.6286 241.865 79.5437 241.557 79.3712 241.338C79.1986 241.12 78.9581 241.013 78.6469 241.013C78.3301 241.013 78.0839 241.12 77.9085 241.336C77.7331 241.551 77.6454 241.857 77.6454 242.253C77.6454 242.661 77.7331 242.976 77.9085 243.199C78.0839 243.423 78.3301 243.534 78.6469 243.534C78.9638 243.531 79.2043 243.423 79.374 243.205ZM85.7846 240.135V244.44H84.52V243.803C84.3899 244.024 84.206 244.196 83.9684 244.321C83.7307 244.446 83.462 244.508 83.1621 244.508C82.7887 244.508 82.4605 244.417 82.1748 244.236C81.889 244.055 81.6655 243.797 81.5043 243.46C81.343 243.123 81.2638 242.735 81.2638 242.293C81.2638 241.851 81.343 241.457 81.5043 241.112C81.6655 240.766 81.889 240.5 82.1776 240.31C82.4661 240.121 82.7943 240.027 83.1621 240.027C83.462 240.027 83.7307 240.092 83.9684 240.223C84.206 240.353 84.3899 240.528 84.52 240.749V240.135H85.7846ZM84.2654 243.208C84.4352 242.993 84.52 242.681 84.52 242.273C84.52 241.865 84.4352 241.554 84.2654 241.336C84.0957 241.118 83.8524 241.01 83.5355 241.01C83.2187 241.01 82.9725 241.123 82.7971 241.35C82.6217 241.576 82.534 241.891 82.534 242.293C82.534 242.695 82.6189 243.001 82.7915 243.213C82.9641 243.426 83.2102 243.531 83.5327 243.531C83.8524 243.531 84.0957 243.423 84.2654 243.208ZM71.6139 244.502H70.024L68.3152 242.551V244.502H67.0195V238.172H68.3152V242.015L69.9476 240.149H71.5036L69.6562 242.239L71.6139 244.502Z" fill="#CACACA"/>
<path d="M63.4636 244.502L60.9768 241.636L62.3348 244.502H61.3927L60.0065 241.579L60.5836 244.502H60.0036L59.4265 241.574V244.502H59.2002V238.172H59.4265V241.33L60.0121 238.172H60.5893L60.0008 241.344L61.4153 238.172H62.3461L60.9401 241.333L63.4947 238.172H64.9573L62.3122 241.44L64.9686 244.502H63.4636Z" fill="#CACACA"/>
<path d="M86.8569 244.434C87.2444 244.434 87.5585 244.12 87.5585 243.732C87.5585 243.344 87.2444 243.029 86.8569 243.029C86.4694 243.029 86.1553 243.344 86.1553 243.732C86.1553 244.12 86.4694 244.434 86.8569 244.434Z" fill="#CACACA"/>
</g>
<path d="M103.708 334.785H88.042V335.67H103.708V334.785Z" fill="#00CAF5"/>
<path d="M119.2 334.785C118.686 335.331 117.948 335.67 117.143 335.67H103.708V334.785H119.2Z" fill="#48D38A"/>
<path d="M88.0414 334.785H72.2344V335.67H88.0414V334.785Z" fill="#FFC700"/>
<path d="M56.7432 334.785C57.2573 335.331 57.9955 335.67 58.7999 335.67H72.2351V334.785H56.7432Z" fill="#F7685B"/>
<path d="M107.967 331.753C108.141 331.773 108.344 331.784 108.594 331.784C109.114 331.784 109.526 331.65 109.78 331.4C110.026 331.154 110.165 330.796 110.165 330.36C110.165 329.927 110.026 329.618 109.784 329.4C109.55 329.185 109.197 329.066 108.701 329.066C108.427 329.066 108.177 329.09 107.967 329.126V331.753ZM108.312 329.376C108.403 329.356 108.538 329.34 108.717 329.34C109.447 329.34 109.804 329.741 109.8 330.372C109.8 331.094 109.403 331.507 108.661 331.507C108.526 331.507 108.399 331.503 108.312 331.491V329.376Z" fill="#9484A6"/>
<path d="M112.157 330.864C112.165 330.824 112.169 330.773 112.169 330.701C112.169 330.348 112.006 329.8 111.375 329.8C110.816 329.8 110.474 330.253 110.474 330.832C110.474 331.411 110.827 331.804 111.419 331.804C111.724 331.804 111.938 331.737 112.061 331.681L111.998 331.431C111.871 331.487 111.716 331.531 111.466 331.531C111.113 331.531 110.816 331.336 110.808 330.864H112.157ZM110.812 330.614C110.839 330.372 110.99 330.05 111.347 330.05C111.74 330.05 111.835 330.396 111.831 330.614H110.812Z" fill="#9484A6"/>
<path d="M112.601 331.265C112.601 331.435 112.593 331.63 112.585 331.761H112.883L112.903 331.447H112.911C113.057 331.697 113.28 331.804 113.557 331.804C113.986 331.804 114.422 331.463 114.422 330.777C114.422 330.197 114.089 329.8 113.609 329.8C113.299 329.8 113.077 329.935 112.954 330.15H112.946V328.943H112.601V331.265ZM112.946 330.65C112.946 330.594 112.954 330.546 112.966 330.503C113.038 330.241 113.26 330.074 113.494 330.074C113.871 330.074 114.069 330.404 114.069 330.788C114.069 331.229 113.855 331.527 113.486 331.527C113.232 331.527 113.026 331.36 112.962 331.118C112.95 331.078 112.946 331.035 112.946 330.991V330.65Z" fill="#9484A6"/>
<path d="M115.209 331.761V329.84H114.86V331.761H115.209ZM115.035 329.082C114.904 329.082 114.817 329.181 114.817 329.3C114.817 329.42 114.9 329.515 115.027 329.515C115.166 329.515 115.249 329.42 115.249 329.3C115.249 329.177 115.162 329.082 115.035 329.082Z" fill="#9484A6"/>
<path d="M115.87 329.483V329.84H115.572V330.106H115.87V331.154C115.87 331.38 115.909 331.55 116.004 331.657C116.088 331.749 116.219 331.804 116.381 331.804C116.516 331.804 116.623 331.78 116.691 331.757L116.675 331.491C116.623 331.507 116.568 331.515 116.473 331.515C116.278 331.515 116.211 331.38 116.211 331.142V330.106H116.711V329.84H116.211V329.38L115.87 329.483Z" fill="#9484A6"/>
</g>
<defs>
<filter id="filter0_d_56813_38407" x="62" y="12.9082" width="254.945" height="392.012" filterUnits="userSpaceOnUse" color-interpolation-filters="sRGB">
<feFlood flood-opacity="0" result="BackgroundImageFix"/>
<feColorMatrix in="SourceAlpha" type="matrix" values="0 0 0 0 0 0 0 0 0 0 0 0 0 0 0 0 0 0 127 0" result="hardAlpha"/>
<feOffset/>
<feGaussianBlur stdDeviation="12.5"/>
<feColorMatrix type="matrix" values="0 0 0 0 0 0 0 0 0 0 0 0 0 0 0 0 0 0 0.06 0"/>
<feBlend mode="normal" in2="BackgroundImageFix" result="effect1_dropShadow_56813_38407"/>
<feBlend mode="normal" in="SourceGraphic" in2="effect1_dropShadow_56813_38407" result="shape"/>
</filter>
<filter id="filter1_d_56813_38407" x="55.7993" y="234.707" width="77.2153" height="112" filterUnits="userSpaceOnUse" color-interpolation-filters="sRGB">
<feFlood flood-opacity="0" result="BackgroundImageFix"/>
<feColorMatrix in="SourceAlpha" type="matrix" values="0 0 0 0 0 0 0 0 0 0 0 0 0 0 0 0 0 0 127 0" result="hardAlpha"/>
<feOffset dx="8.02823" dy="6.02117"/>
<feGaussianBlur stdDeviation="2.40847"/>
<feComposite in2="hardAlpha" operator="out"/>
<feColorMatrix type="matrix" values="0 0 0 0 0.25098 0 0 0 0 0.0980392 0 0 0 0 0.427451 0 0 0 0.1 0"/>
<feBlend mode="normal" in2="BackgroundImageFix" result="effect1_dropShadow_56813_38407"/>
<feBlend mode="normal" in="SourceGraphic" in2="effect1_dropShadow_56813_38407" result="shape"/>
</filter>
<clipPath id="clip0_56813_38407">
<rect width="28.3521" height="6.33602" fill="white" transform="translate(59.2002 238.172)"/>
</clipPath>
</defs>
</svg>
