<svg width="37" height="38" viewBox="0 0 37 38" fill="none" xmlns="http://www.w3.org/2000/svg">
<circle cx="18.5" cy="18.7012" r="18.5" fill="#DFE3FF"/>
<path d="M14 15.1236C14 12.8462 15.8462 11 18.1236 11V11C20.401 11 22.2472 12.8462 22.2472 15.1236V15.1236C22.2472 17.401 20.401 19.2472 18.1236 19.2472V19.2472C15.8462 19.2472 14 17.401 14 15.1236V15.1236Z" fill="white"/>
<path d="M20.6016 16.7539C20.8945 16.474 21.1191 16.1517 21.2754 15.7871C21.4316 15.4225 21.513 15.0352 21.5195 14.625C21.5195 14.2148 21.4414 13.8275 21.2852 13.4629C21.1289 13.0983 20.901 12.776 20.6016 12.4961L21.4707 11.5977C21.8874 12.0013 22.2064 12.4603 22.4277 12.9746C22.6491 13.4889 22.763 14.0391 22.7695 14.625C22.7695 15.2044 22.6589 15.7513 22.4375 16.2656C22.2161 16.7799 21.8939 17.2422 21.4707 17.6523L20.6016 16.7539ZM23.209 9.80078C23.5345 10.1133 23.8242 10.4551 24.0781 10.8262C24.332 11.1973 24.5501 11.5879 24.7324 11.998C24.9147 12.4082 25.0482 12.8346 25.1328 13.2773C25.2174 13.7201 25.263 14.1693 25.2695 14.625C25.2695 15.0807 25.224 15.5299 25.1328 15.9727C25.0417 16.4154 24.9082 16.8418 24.7324 17.252C24.5566 17.6621 24.3418 18.0527 24.0879 18.4238C23.834 18.7949 23.541 19.1367 23.209 19.4492L22.3398 18.5508C22.8802 18.0299 23.2936 17.4342 23.5801 16.7637C23.8665 16.0931 24.013 15.3802 24.0195 14.625C24.0195 13.8763 23.8763 13.1667 23.5898 12.4961C23.3034 11.8255 22.8867 11.2266 22.3398 10.6992L23.209 9.80078ZM15.2793 17.6523C14.8626 17.2487 14.5436 16.7897 14.3223 16.2754C14.1009 15.7611 13.987 15.2109 13.9805 14.625C13.9805 14.0456 14.0911 13.4987 14.3125 12.9844C14.5339 12.4701 14.8561 12.0078 15.2793 11.5977L16.1484 12.4961C15.8555 12.776 15.6309 13.0983 15.4746 13.4629C15.3184 13.8275 15.237 14.2148 15.2305 14.625C15.2305 15.0352 15.3086 15.4225 15.4648 15.7871C15.6211 16.1517 15.849 16.474 16.1484 16.7539L15.2793 17.6523ZM13.541 19.4492C13.2155 19.1367 12.9258 18.7949 12.6719 18.4238C12.418 18.0527 12.1999 17.6621 12.0176 17.252C11.8353 16.8418 11.7018 16.4154 11.6172 15.9727C11.5326 15.5299 11.487 15.0807 11.4805 14.625C11.4805 14.1693 11.526 13.7201 11.6172 13.2773C11.7083 12.8346 11.8418 12.4082 12.0176 11.998C12.1934 11.5879 12.4082 11.1973 12.6621 10.8262C12.916 10.4551 13.209 10.1133 13.541 9.80078L14.4102 10.6992C13.8698 11.2201 13.4564 11.8158 13.1699 12.4863C12.8835 13.1569 12.737 13.8698 12.7305 14.625C12.7305 15.3737 12.8737 16.0833 13.1602 16.7539C13.4466 17.4245 13.8633 18.0234 14.4102 18.5508L13.541 19.4492ZM20.25 14.625C20.25 14.918 20.1882 15.1914 20.0645 15.4453C19.9408 15.6992 19.7617 15.9173 19.5273 16.0996L23.4043 27.75H22.0957L21.2559 25.25H15.4941L14.6543 27.75H13.3457L17.2227 16.0996C16.9948 15.9238 16.819 15.709 16.6953 15.4551C16.5716 15.2012 16.5065 14.9245 16.5 14.625C16.5 14.3646 16.5488 14.1204 16.6465 13.8926C16.7441 13.6647 16.8776 13.4661 17.0469 13.2969C17.2161 13.1276 17.4147 12.9941 17.6426 12.8965C17.8704 12.7988 18.1146 12.75 18.375 12.75C18.6354 12.75 18.8796 12.7988 19.1074 12.8965C19.3353 12.9941 19.5339 13.1276 19.7031 13.2969C19.8724 13.4661 20.0059 13.6647 20.1035 13.8926C20.2012 14.1204 20.25 14.3646 20.25 14.625ZM18.375 14C18.2057 14 18.0592 14.0618 17.9355 14.1855C17.8118 14.3092 17.75 14.4557 17.75 14.625C17.75 14.7943 17.8118 14.9408 17.9355 15.0645C18.0592 15.1882 18.2057 15.25 18.375 15.25C18.5443 15.25 18.6908 15.1882 18.8145 15.0645C18.9382 14.9408 19 14.7943 19 14.625C19 14.4557 18.9382 14.3092 18.8145 14.1855C18.6908 14.0618 18.5443 14 18.375 14ZM18.375 16.5977L17.1543 20.25H19.5957L18.375 16.5977ZM20.8457 24L20.0059 21.5H16.7441L15.9043 24H20.8457Z" fill="#40196D"/>
</svg>
