<svg width="379" height="489" viewBox="0 0 379 489" fill="none" xmlns="http://www.w3.org/2000/svg">
<circle cx="189.5" cy="189.5" r="189.5" fill="#DBF8FF"/>
<g filter="url(#filter0_d_46822_11702)">
<rect x="53" y="60" width="274" height="403.333" rx="10" fill="white"/>
</g>
<rect x="147.601" y="163.4" width="67.4667" height="88" transform="rotate(-90 147.601 163.4)" fill="#F4F4F4"/>
<path opacity="0.1" d="M191.601 139.2L235.601 95.933H147.601L191.601 139.2Z" fill="#40196D"/>
<path opacity="0.2" d="M191.601 120.134L235.601 163.4H147.601L191.601 120.134Z" fill="#DBDCE0"/>
<g filter="url(#filter1_d_46822_11702)">
<circle cx="191.326" cy="130.717" r="14.4847" transform="rotate(-21.5357 191.326 130.717)" fill="#40196D"/>
<path d="M190.303 124.995L192.683 124.055L190.586 130.981L196.942 134.57L194.444 135.555L188.029 132.235L190.303 124.995Z" fill="white"/>
<path d="M186.845 126.359L188.508 125.703L188.138 132.193L192.554 136.301L190.749 137.014L186.574 132.755L186.845 126.359Z" fill="white"/>
<path d="M184.509 127.281L185.456 126.908L186.588 132.75L189.62 137.459L188.673 137.833L185.665 133.114L184.509 127.281Z" fill="white"/>
<path d="M183.152 127.817L183.683 127.607L187.847 138.159L187.316 138.368L183.152 127.817Z" fill="white"/>
<circle cx="197.879" cy="132.888" r="1.2714" transform="rotate(-21.5357 197.879 132.888)" fill="white"/>
</g>
<path fill-rule="evenodd" clip-rule="evenodd" d="M135.868 307.866V341.6H135.135V307.866H135.868Z" fill="#48D38A"/>
<ellipse cx="135.868" cy="349.538" rx="4.4" ry="4.31499" fill="white"/>
<mask id="mask0_46822_11702" style="mask-type:alpha" maskUnits="userSpaceOnUse" x="129" y="343" width="14" height="14">
<path fill-rule="evenodd" clip-rule="evenodd" d="M129.268 343.066V356.266H142.468V343.066H129.268ZM134.858 352.574L132.398 350.114L132.982 349.531L134.827 351.376L138.932 346.814L139.545 347.366L134.858 352.574L134.858 352.574Z" fill="white"/>
</mask>
<g mask="url(#mask0_46822_11702)">
<path d="M135.868 356.266C139.513 356.266 142.468 353.311 142.468 349.666C142.468 346.021 139.513 343.066 135.868 343.066C132.222 343.066 129.268 346.021 129.268 349.666C129.268 353.311 132.222 356.266 135.868 356.266Z" fill="#48D38A"/>
</g>
<path fill-rule="evenodd" clip-rule="evenodd" d="M135.867 357.733C140.322 357.733 143.934 354.121 143.934 349.666C143.934 345.211 140.322 341.6 135.867 341.6C131.412 341.6 127.801 345.211 127.801 349.666C127.801 354.121 131.412 357.733 135.867 357.733ZM135.867 358.466C140.727 358.466 144.667 354.526 144.667 349.666C144.667 344.806 140.727 340.866 135.867 340.866C131.007 340.866 127.067 344.806 127.067 349.666C127.067 354.526 131.007 358.466 135.867 358.466Z" fill="#48D38A"/>
<path fill-rule="evenodd" clip-rule="evenodd" d="M135.868 256.533V290.266H135.135V256.533H135.868Z" fill="#48D38A"/>
<ellipse cx="135.868" cy="298.939" rx="4.4" ry="4.31499" fill="white"/>
<mask id="mask1_46822_11702" style="mask-type:alpha" maskUnits="userSpaceOnUse" x="129" y="292" width="14" height="14">
<path fill-rule="evenodd" clip-rule="evenodd" d="M129.268 292.466V305.666H142.468V292.466H129.268ZM134.858 301.974L132.398 299.514L132.982 298.931L134.827 300.776L138.932 296.215L139.545 296.767L134.858 301.974L134.858 301.974Z" fill="white"/>
</mask>
<g mask="url(#mask1_46822_11702)">
<path d="M135.868 305.666C139.513 305.666 142.468 302.711 142.468 299.066C142.468 295.421 139.513 292.466 135.868 292.466C132.222 292.466 129.268 295.421 129.268 299.066C129.268 302.711 132.222 305.666 135.868 305.666Z" fill="#48D38A"/>
</g>
<path fill-rule="evenodd" clip-rule="evenodd" d="M135.867 307.133C140.322 307.133 143.934 303.521 143.934 299.066C143.934 294.611 140.322 291 135.867 291C131.412 291 127.801 294.611 127.801 299.066C127.801 303.521 131.412 307.133 135.867 307.133ZM135.867 307.866C140.727 307.866 144.667 303.926 144.667 299.066C144.667 294.206 140.727 290.266 135.867 290.266C131.007 290.266 127.067 294.206 127.067 299.066C127.067 303.926 131.007 307.866 135.867 307.866Z" fill="#48D38A"/>
<path fill-rule="evenodd" clip-rule="evenodd" d="M135.868 205.933V239.667H135.135V205.933H135.868Z" fill="#48D38A"/>
<ellipse cx="135.868" cy="197.592" rx="4.4" ry="4.31499" fill="#DCFFEC"/>
<mask id="mask2_46822_11702" style="mask-type:alpha" maskUnits="userSpaceOnUse" x="129" y="191" width="14" height="14">
<path fill-rule="evenodd" clip-rule="evenodd" d="M129.268 191.12V204.32H142.468V191.12H129.268ZM134.858 200.628L132.398 198.168L132.982 197.584L134.827 199.429L138.932 194.868L139.545 195.42L134.858 200.628L134.858 200.628Z" fill="white"/>
</mask>
<g mask="url(#mask2_46822_11702)">
<path d="M135.868 204.32C139.513 204.32 142.468 201.365 142.468 197.72C142.468 194.075 139.513 191.12 135.868 191.12C132.222 191.12 129.268 194.075 129.268 197.72C129.268 201.365 132.222 204.32 135.868 204.32Z" fill="#48D38A"/>
</g>
<path fill-rule="evenodd" clip-rule="evenodd" d="M135.867 205.787C140.322 205.787 143.934 202.175 143.934 197.72C143.934 193.265 140.322 189.653 135.867 189.653C131.412 189.653 127.801 193.265 127.801 197.72C127.801 202.175 131.412 205.787 135.867 205.787ZM135.867 206.52C140.727 206.52 144.667 202.58 144.667 197.72C144.667 192.86 140.727 188.92 135.867 188.92C131.007 188.92 127.067 192.86 127.067 197.72C127.067 202.58 131.007 206.52 135.867 206.52Z" fill="#48D38A"/>
<ellipse cx="135.868" cy="248.338" rx="4.4" ry="4.31499" fill="white"/>
<mask id="mask3_46822_11702" style="mask-type:alpha" maskUnits="userSpaceOnUse" x="129" y="241" width="14" height="15">
<path fill-rule="evenodd" clip-rule="evenodd" d="M129.268 241.866V255.066H142.468V241.866H129.268ZM134.858 251.374L132.398 248.914L132.982 248.331L134.827 250.176L138.932 245.615L139.545 246.167L134.858 251.374L134.858 251.374Z" fill="white"/>
</mask>
<g mask="url(#mask3_46822_11702)">
<path d="M135.868 255.066C139.513 255.066 142.468 252.111 142.468 248.466C142.468 244.821 139.513 241.866 135.868 241.866C132.222 241.866 129.268 244.821 129.268 248.466C129.268 252.111 132.222 255.066 135.868 255.066Z" fill="#48D38A"/>
</g>
<path fill-rule="evenodd" clip-rule="evenodd" d="M135.867 256.533C140.322 256.533 143.934 252.922 143.934 248.467C143.934 244.011 140.322 240.4 135.867 240.4C131.412 240.4 127.801 244.011 127.801 248.467C127.801 252.922 131.412 256.533 135.867 256.533ZM135.867 257.267C140.727 257.267 144.667 253.327 144.667 248.467C144.667 243.606 140.727 239.667 135.867 239.667C131.007 239.667 127.067 243.606 127.067 248.467C127.067 253.327 131.007 257.267 135.867 257.267Z" fill="#48D38A"/>
<path d="M165.311 351.965C164.497 351.965 163.786 351.8 163.177 351.47C162.576 351.132 162.11 350.659 161.78 350.051C161.457 349.442 161.296 348.738 161.296 347.939C161.296 347.147 161.457 346.45 161.78 345.849C162.11 345.24 162.576 344.771 163.177 344.441C163.786 344.103 164.497 343.935 165.311 343.935C165.824 343.935 166.319 344.012 166.796 344.166C167.28 344.32 167.669 344.529 167.962 344.793L167.335 346.256C166.697 345.794 166.037 345.563 165.355 345.563C164.724 345.563 164.24 345.764 163.903 346.168C163.566 346.564 163.397 347.154 163.397 347.939C163.397 348.731 163.566 349.328 163.903 349.732C164.24 350.135 164.724 350.337 165.355 350.337C166.037 350.337 166.697 350.106 167.335 349.644L167.962 351.107C167.669 351.371 167.28 351.58 166.796 351.734C166.319 351.888 165.824 351.965 165.311 351.965Z" fill="black"/>
<path d="M174.703 346.278V351.866H172.745V351.107C172.583 351.371 172.349 351.58 172.041 351.734C171.733 351.88 171.395 351.954 171.029 351.954C170.552 351.954 170.127 351.836 169.753 351.602C169.379 351.367 169.085 351.033 168.873 350.601C168.667 350.161 168.565 349.655 168.565 349.083C168.565 348.503 168.671 347.99 168.884 347.543C169.096 347.095 169.39 346.747 169.764 346.498C170.138 346.248 170.559 346.124 171.029 346.124C171.395 346.124 171.729 346.204 172.03 346.366C172.338 346.52 172.576 346.729 172.745 346.993V346.278H174.703ZM171.645 350.469C171.997 350.469 172.268 350.348 172.459 350.106C172.649 349.864 172.745 349.515 172.745 349.061C172.745 348.599 172.649 348.247 172.459 348.005C172.268 347.755 171.997 347.631 171.645 347.631C171.3 347.631 171.029 347.759 170.831 348.016C170.633 348.265 170.534 348.621 170.534 349.083C170.534 349.53 170.629 349.875 170.82 350.117C171.01 350.351 171.285 350.469 171.645 350.469Z" fill="black"/>
<path d="M179.417 346.146C179.688 346.146 179.897 346.186 180.044 346.267V348.082C179.729 347.935 179.424 347.862 179.131 347.862C178.295 347.862 177.877 348.261 177.877 349.061V351.866H175.886V347.884C175.886 347.282 175.857 346.747 175.798 346.278H177.668L177.789 347.213C177.921 346.868 178.134 346.604 178.427 346.421C178.72 346.237 179.05 346.146 179.417 346.146Z" fill="black"/>
<path d="M186.39 343.77V351.866H184.432V351.107C184.271 351.371 184.036 351.58 183.728 351.734C183.42 351.88 183.083 351.954 182.716 351.954C182.24 351.954 181.814 351.833 181.44 351.591C181.066 351.341 180.773 350.997 180.56 350.557C180.355 350.109 180.252 349.596 180.252 349.017C180.252 348.445 180.355 347.939 180.56 347.499C180.773 347.059 181.066 346.721 181.44 346.487C181.814 346.245 182.24 346.124 182.716 346.124C183.068 346.124 183.391 346.197 183.684 346.344C183.985 346.49 184.223 346.688 184.399 346.938V343.77H186.39ZM183.332 350.469C183.684 350.469 183.956 350.348 184.146 350.106C184.337 349.856 184.432 349.501 184.432 349.039C184.432 348.591 184.333 348.247 184.135 348.005C183.945 347.755 183.677 347.631 183.332 347.631C182.973 347.631 182.698 347.752 182.507 347.994C182.317 348.228 182.221 348.569 182.221 349.017C182.221 349.479 182.317 349.838 182.507 350.095C182.705 350.344 182.98 350.469 183.332 350.469Z" fill="black"/>
<path d="M193.712 351.965C193.125 351.965 192.546 351.888 191.974 351.734C191.402 351.58 190.936 351.371 190.577 351.107L191.226 349.644C191.607 349.886 192.011 350.073 192.436 350.205C192.869 350.329 193.301 350.392 193.734 350.392C194.174 350.392 194.511 350.333 194.746 350.216C194.981 350.091 195.098 349.919 195.098 349.699C195.098 349.501 194.992 349.339 194.779 349.215C194.566 349.083 194.167 348.954 193.58 348.83C192.839 348.683 192.264 348.503 191.853 348.291C191.442 348.071 191.153 347.814 190.984 347.521C190.823 347.227 190.742 346.872 190.742 346.454C190.742 345.977 190.878 345.548 191.149 345.167C191.42 344.778 191.802 344.477 192.293 344.265C192.784 344.045 193.345 343.935 193.976 343.935C194.541 343.935 195.087 344.015 195.615 344.177C196.15 344.331 196.568 344.536 196.869 344.793L196.231 346.256C195.886 346.014 195.523 345.83 195.142 345.706C194.761 345.574 194.379 345.508 193.998 345.508C193.624 345.508 193.323 345.581 193.096 345.728C192.869 345.867 192.755 346.058 192.755 346.3C192.755 346.432 192.795 346.542 192.876 346.63C192.957 346.718 193.107 346.806 193.327 346.894C193.547 346.974 193.877 347.062 194.317 347.158C195.028 347.312 195.586 347.499 195.989 347.719C196.4 347.931 196.689 348.184 196.858 348.478C197.027 348.764 197.111 349.108 197.111 349.512C197.111 350.274 196.814 350.876 196.22 351.316C195.626 351.748 194.79 351.965 193.712 351.965Z" fill="black"/>
<path d="M203.314 349.27H199.805C199.841 349.702 199.966 350.014 200.179 350.205C200.391 350.395 200.703 350.491 201.114 350.491C201.392 350.491 201.671 350.447 201.95 350.359C202.228 350.263 202.481 350.135 202.709 349.974L203.215 351.294C202.936 351.499 202.599 351.66 202.203 351.778C201.807 351.895 201.411 351.954 201.015 351.954C200.377 351.954 199.823 351.836 199.354 351.602C198.884 351.367 198.525 351.033 198.276 350.601C198.026 350.161 197.902 349.644 197.902 349.05C197.902 348.485 198.019 347.983 198.254 347.543C198.496 347.095 198.826 346.747 199.244 346.498C199.669 346.248 200.153 346.124 200.696 346.124C201.224 346.124 201.686 346.241 202.082 346.476C202.478 346.71 202.782 347.048 202.995 347.488C203.207 347.92 203.314 348.426 203.314 349.006V349.27ZM200.751 347.488C200.259 347.488 199.951 347.774 199.827 348.346H201.609C201.535 347.774 201.249 347.488 200.751 347.488Z" fill="black"/>
<path d="M207.975 346.124C208.635 346.124 209.126 346.325 209.449 346.729C209.779 347.125 209.944 347.726 209.944 348.533V351.866H207.953V348.621C207.953 348.276 207.894 348.03 207.777 347.884C207.659 347.73 207.476 347.653 207.227 347.653C206.926 347.653 206.684 347.755 206.501 347.961C206.317 348.159 206.226 348.423 206.226 348.753V351.866H204.235V347.884C204.235 347.282 204.205 346.747 204.147 346.278H206.017L206.116 347.103C206.328 346.787 206.592 346.545 206.908 346.377C207.223 346.208 207.579 346.124 207.975 346.124Z" fill="black"/>
<path d="M214.399 350.348C214.531 350.348 214.707 350.326 214.927 350.282V351.789C214.656 351.899 214.311 351.954 213.893 351.954C213.138 351.954 212.562 351.741 212.166 351.316C211.777 350.89 211.583 350.3 211.583 349.545V347.741H210.538V346.278H211.583V345.013L213.574 344.375V346.278H214.916V347.741H213.574V349.545C213.574 349.809 213.651 350.01 213.805 350.15C213.966 350.282 214.164 350.348 214.399 350.348Z" fill="black"/>
<path d="M216.059 349.149L215.432 344.023L217.885 344.034L217.269 349.149H216.059ZM215.619 349.82H217.698V351.866H215.619V349.82Z" fill="black"/>
<path d="M161.506 196.117C161.506 195.31 161.664 194.61 161.979 194.016C162.294 193.415 162.745 192.949 163.332 192.619C163.919 192.289 164.612 192.124 165.411 192.124C166.218 192.124 166.914 192.289 167.501 192.619C168.088 192.949 168.539 193.415 168.854 194.016C169.177 194.61 169.338 195.31 169.338 196.117C169.338 196.916 169.177 197.617 168.854 198.218C168.539 198.819 168.088 199.289 167.501 199.626C166.914 199.956 166.218 200.121 165.411 200.121C164.612 200.121 163.919 199.956 163.332 199.626C162.753 199.289 162.302 198.819 161.979 198.218C161.664 197.617 161.506 196.916 161.506 196.117ZM163.629 196.117C163.629 196.843 163.776 197.411 164.069 197.822C164.362 198.225 164.81 198.427 165.411 198.427C166.012 198.427 166.463 198.225 166.764 197.822C167.065 197.411 167.215 196.843 167.215 196.117C167.215 195.391 167.065 194.826 166.764 194.423C166.463 194.02 166.012 193.818 165.411 193.818C164.81 193.818 164.362 194.02 164.069 194.423C163.776 194.819 163.629 195.384 163.629 196.117ZM170.446 200V195.941C170.446 195.684 170.438 195.428 170.424 195.171C170.409 194.914 170.387 194.661 170.358 194.412H172.25L172.459 196.128H172.162C172.235 195.71 172.352 195.365 172.514 195.094C172.675 194.823 172.877 194.621 173.119 194.489C173.361 194.357 173.647 194.291 173.977 194.291C174.131 194.291 174.244 194.298 174.318 194.313C174.398 194.32 174.483 194.342 174.571 194.379V196.095C174.387 196.014 174.241 195.963 174.131 195.941C174.021 195.919 173.878 195.908 173.702 195.908C173.401 195.908 173.155 195.963 172.965 196.073C172.774 196.176 172.635 196.337 172.547 196.557C172.466 196.777 172.426 197.059 172.426 197.404V200H170.446ZM177.287 200.121C176.81 200.121 176.385 200.007 176.011 199.78C175.637 199.545 175.344 199.208 175.131 198.768C174.918 198.328 174.812 197.807 174.812 197.206C174.812 196.597 174.915 196.077 175.12 195.644C175.333 195.204 175.626 194.87 176 194.643C176.381 194.408 176.81 194.291 177.287 194.291C177.712 194.291 178.097 194.39 178.442 194.588C178.787 194.779 179.018 195.035 179.135 195.358H178.97V191.904H180.928V200H179.003V198.999H179.146C179.043 199.336 178.816 199.608 178.464 199.813C178.119 200.018 177.727 200.121 177.287 200.121ZM177.914 198.669C178.237 198.669 178.501 198.555 178.706 198.328C178.919 198.093 179.025 197.719 179.025 197.206C179.025 196.693 178.919 196.322 178.706 196.095C178.501 195.86 178.237 195.743 177.914 195.743C177.584 195.743 177.313 195.86 177.1 196.095C176.895 196.322 176.792 196.693 176.792 197.206C176.792 197.719 176.895 198.093 177.1 198.328C177.313 198.555 177.584 198.669 177.914 198.669ZM185.092 200.121C184.08 200.121 183.292 199.861 182.727 199.34C182.17 198.819 181.891 198.104 181.891 197.195C181.891 196.63 182.008 196.128 182.243 195.688C182.478 195.248 182.808 194.907 183.233 194.665C183.658 194.416 184.157 194.291 184.729 194.291C185.294 194.291 185.763 194.416 186.137 194.665C186.518 194.907 186.804 195.244 186.995 195.677C187.186 196.102 187.281 196.597 187.281 197.162V197.58H183.53V196.656H185.84L185.653 196.81C185.653 196.392 185.572 196.084 185.411 195.886C185.257 195.681 185.037 195.578 184.751 195.578C184.421 195.578 184.168 195.703 183.992 195.952C183.823 196.194 183.739 196.561 183.739 197.052V197.25C183.739 197.741 183.86 198.101 184.102 198.328C184.344 198.555 184.692 198.669 185.147 198.669C185.44 198.669 185.715 198.636 185.972 198.57C186.236 198.504 186.485 198.398 186.72 198.251L187.226 199.527C186.947 199.718 186.625 199.864 186.258 199.967C185.891 200.07 185.503 200.121 185.092 200.121ZM188.213 200V195.941C188.213 195.684 188.206 195.428 188.191 195.171C188.177 194.914 188.155 194.661 188.125 194.412H190.017L190.226 196.128H189.929C190.003 195.71 190.12 195.365 190.281 195.094C190.443 194.823 190.644 194.621 190.886 194.489C191.128 194.357 191.414 194.291 191.744 194.291C191.898 194.291 192.012 194.298 192.085 194.313C192.166 194.32 192.25 194.342 192.338 194.379V196.095C192.155 196.014 192.008 195.963 191.898 195.941C191.788 195.919 191.645 195.908 191.469 195.908C191.169 195.908 190.923 195.963 190.732 196.073C190.542 196.176 190.402 196.337 190.314 196.557C190.234 196.777 190.193 197.059 190.193 197.404V200H188.213ZM196.219 200V192.245H199.882C200.777 192.245 201.466 192.458 201.95 192.883C202.441 193.308 202.687 193.899 202.687 194.654C202.687 195.16 202.577 195.593 202.357 195.952C202.137 196.304 201.818 196.579 201.4 196.777C200.982 196.968 200.483 197.063 199.904 197.063L200.003 196.788H200.553C200.876 196.788 201.162 196.876 201.411 197.052C201.66 197.228 201.866 197.474 202.027 197.789L203.204 200H200.982L199.717 197.525C199.636 197.364 199.515 197.254 199.354 197.195C199.2 197.136 199.024 197.107 198.826 197.107H198.254V200H196.219ZM198.254 195.666H199.53C199.926 195.666 200.227 195.589 200.432 195.435C200.637 195.274 200.74 195.035 200.74 194.72C200.74 194.412 200.637 194.181 200.432 194.027C200.227 193.873 199.926 193.796 199.53 193.796H198.254V195.666ZM206.748 200.121C205.736 200.121 204.948 199.861 204.383 199.34C203.826 198.819 203.547 198.104 203.547 197.195C203.547 196.63 203.665 196.128 203.899 195.688C204.134 195.248 204.464 194.907 204.889 194.665C205.315 194.416 205.813 194.291 206.385 194.291C206.95 194.291 207.419 194.416 207.793 194.665C208.175 194.907 208.461 195.244 208.651 195.677C208.842 196.102 208.937 196.597 208.937 197.162V197.58H205.186V196.656H207.496L207.309 196.81C207.309 196.392 207.229 196.084 207.067 195.886C206.913 195.681 206.693 195.578 206.407 195.578C206.077 195.578 205.824 195.703 205.648 195.952C205.48 196.194 205.395 196.561 205.395 197.052V197.25C205.395 197.741 205.516 198.101 205.758 198.328C206 198.555 206.349 198.669 206.803 198.669C207.097 198.669 207.372 198.636 207.628 198.57C207.892 198.504 208.142 198.398 208.376 198.251L208.882 199.527C208.604 199.718 208.281 199.864 207.914 199.967C207.548 200.07 207.159 200.121 206.748 200.121ZM212.697 200.121C212.081 200.121 211.542 200.004 211.08 199.769C210.618 199.534 210.258 199.201 210.002 198.768C209.745 198.328 209.617 197.804 209.617 197.195C209.617 196.586 209.745 196.066 210.002 195.633C210.258 195.2 210.618 194.87 211.08 194.643C211.542 194.408 212.081 194.291 212.697 194.291C213.078 194.291 213.452 194.342 213.819 194.445C214.185 194.548 214.482 194.694 214.71 194.885L214.16 196.216C213.984 196.069 213.782 195.959 213.555 195.886C213.335 195.805 213.118 195.765 212.906 195.765C212.502 195.765 212.187 195.886 211.96 196.128C211.74 196.37 211.63 196.726 211.63 197.195C211.63 197.664 211.74 198.024 211.96 198.273C212.187 198.515 212.502 198.636 212.906 198.636C213.111 198.636 213.327 198.599 213.555 198.526C213.782 198.445 213.984 198.335 214.16 198.196L214.71 199.527C214.475 199.71 214.174 199.857 213.808 199.967C213.448 200.07 213.078 200.121 212.697 200.121ZM218.361 200.121C217.349 200.121 216.56 199.861 215.996 199.34C215.438 198.819 215.16 198.104 215.16 197.195C215.16 196.63 215.277 196.128 215.512 195.688C215.746 195.248 216.076 194.907 216.502 194.665C216.927 194.416 217.426 194.291 217.998 194.291C218.562 194.291 219.032 194.416 219.406 194.665C219.787 194.907 220.073 195.244 220.264 195.677C220.454 196.102 220.55 196.597 220.55 197.162V197.58H216.799V196.656H219.109L218.922 196.81C218.922 196.392 218.841 196.084 218.68 195.886C218.526 195.681 218.306 195.578 218.02 195.578C217.69 195.578 217.437 195.703 217.261 195.952C217.092 196.194 217.008 196.561 217.008 197.052V197.25C217.008 197.741 217.129 198.101 217.371 198.328C217.613 198.555 217.961 198.669 218.416 198.669C218.709 198.669 218.984 198.636 219.241 198.57C219.505 198.504 219.754 198.398 219.989 198.251L220.495 199.527C220.216 199.718 219.893 199.864 219.527 199.967C219.16 200.07 218.771 200.121 218.361 200.121ZM221.482 200V194.412H223.44V200H221.482ZM221.438 193.62V191.86H223.495V193.62H221.438ZM226.279 200L223.848 194.412H225.905L227.346 198.13H226.95L228.457 194.412H230.382L227.929 200H226.279ZM233.604 200.121C232.592 200.121 231.803 199.861 231.239 199.34C230.681 198.819 230.403 198.104 230.403 197.195C230.403 196.63 230.52 196.128 230.755 195.688C230.989 195.248 231.319 194.907 231.745 194.665C232.17 194.416 232.669 194.291 233.241 194.291C233.805 194.291 234.275 194.416 234.649 194.665C235.03 194.907 235.316 195.244 235.507 195.677C235.697 196.102 235.793 196.597 235.793 197.162V197.58H232.042V196.656H234.352L234.165 196.81C234.165 196.392 234.084 196.084 233.923 195.886C233.769 195.681 233.549 195.578 233.263 195.578C232.933 195.578 232.68 195.703 232.504 195.952C232.335 196.194 232.251 196.561 232.251 197.052V197.25C232.251 197.741 232.372 198.101 232.614 198.328C232.856 198.555 233.204 198.669 233.659 198.669C233.952 198.669 234.227 198.636 234.484 198.57C234.748 198.504 234.997 198.398 235.232 198.251L235.738 199.527C235.459 199.718 235.136 199.864 234.77 199.967C234.403 200.07 234.014 200.121 233.604 200.121ZM238.947 200.121C238.47 200.121 238.045 200.007 237.671 199.78C237.297 199.545 237.004 199.208 236.791 198.768C236.578 198.328 236.472 197.807 236.472 197.206C236.472 196.597 236.575 196.077 236.78 195.644C236.993 195.204 237.286 194.87 237.66 194.643C238.041 194.408 238.47 194.291 238.947 194.291C239.372 194.291 239.757 194.39 240.102 194.588C240.447 194.779 240.678 195.035 240.795 195.358H240.63V191.904H242.588V200H240.663V198.999H240.806C240.703 199.336 240.476 199.608 240.124 199.813C239.779 200.018 239.387 200.121 238.947 200.121ZM239.574 198.669C239.897 198.669 240.161 198.555 240.366 198.328C240.579 198.093 240.685 197.719 240.685 197.206C240.685 196.693 240.579 196.322 240.366 196.095C240.161 195.86 239.897 195.743 239.574 195.743C239.244 195.743 238.973 195.86 238.76 196.095C238.555 196.322 238.452 196.693 238.452 197.206C238.452 197.719 238.555 198.093 238.76 198.328C238.973 198.555 239.244 198.669 239.574 198.669Z" fill="black"/>
<path d="M161.506 248.117C161.506 247.31 161.664 246.61 161.979 246.016C162.294 245.415 162.745 244.949 163.332 244.619C163.919 244.289 164.612 244.124 165.411 244.124C166.218 244.124 166.914 244.289 167.501 244.619C168.088 244.949 168.539 245.415 168.854 246.016C169.177 246.61 169.338 247.31 169.338 248.117C169.338 248.916 169.177 249.617 168.854 250.218C168.539 250.819 168.088 251.289 167.501 251.626C166.914 251.956 166.218 252.121 165.411 252.121C164.612 252.121 163.919 251.956 163.332 251.626C162.753 251.289 162.302 250.819 161.979 250.218C161.664 249.617 161.506 248.916 161.506 248.117ZM163.629 248.117C163.629 248.843 163.776 249.411 164.069 249.822C164.362 250.225 164.81 250.427 165.411 250.427C166.012 250.427 166.463 250.225 166.764 249.822C167.065 249.411 167.215 248.843 167.215 248.117C167.215 247.391 167.065 246.826 166.764 246.423C166.463 246.02 166.012 245.818 165.411 245.818C164.81 245.818 164.362 246.02 164.069 246.423C163.776 246.819 163.629 247.384 163.629 248.117ZM170.446 252V247.941C170.446 247.684 170.438 247.428 170.424 247.171C170.409 246.914 170.387 246.661 170.358 246.412H172.25L172.459 248.128H172.162C172.235 247.71 172.352 247.365 172.514 247.094C172.675 246.823 172.877 246.621 173.119 246.489C173.361 246.357 173.647 246.291 173.977 246.291C174.131 246.291 174.244 246.298 174.318 246.313C174.398 246.32 174.483 246.342 174.571 246.379V248.095C174.387 248.014 174.241 247.963 174.131 247.941C174.021 247.919 173.878 247.908 173.702 247.908C173.401 247.908 173.155 247.963 172.965 248.073C172.774 248.176 172.635 248.337 172.547 248.557C172.466 248.777 172.426 249.059 172.426 249.404V252H170.446ZM177.287 252.121C176.81 252.121 176.385 252.007 176.011 251.78C175.637 251.545 175.344 251.208 175.131 250.768C174.918 250.328 174.812 249.807 174.812 249.206C174.812 248.597 174.915 248.077 175.12 247.644C175.333 247.204 175.626 246.87 176 246.643C176.381 246.408 176.81 246.291 177.287 246.291C177.712 246.291 178.097 246.39 178.442 246.588C178.787 246.779 179.018 247.035 179.135 247.358H178.97V243.904H180.928V252H179.003V250.999H179.146C179.043 251.336 178.816 251.608 178.464 251.813C178.119 252.018 177.727 252.121 177.287 252.121ZM177.914 250.669C178.237 250.669 178.501 250.555 178.706 250.328C178.919 250.093 179.025 249.719 179.025 249.206C179.025 248.693 178.919 248.322 178.706 248.095C178.501 247.86 178.237 247.743 177.914 247.743C177.584 247.743 177.313 247.86 177.1 248.095C176.895 248.322 176.792 248.693 176.792 249.206C176.792 249.719 176.895 250.093 177.1 250.328C177.313 250.555 177.584 250.669 177.914 250.669ZM185.092 252.121C184.08 252.121 183.292 251.861 182.727 251.34C182.17 250.819 181.891 250.104 181.891 249.195C181.891 248.63 182.008 248.128 182.243 247.688C182.478 247.248 182.808 246.907 183.233 246.665C183.658 246.416 184.157 246.291 184.729 246.291C185.294 246.291 185.763 246.416 186.137 246.665C186.518 246.907 186.804 247.244 186.995 247.677C187.186 248.102 187.281 248.597 187.281 249.162V249.58H183.53V248.656H185.84L185.653 248.81C185.653 248.392 185.572 248.084 185.411 247.886C185.257 247.681 185.037 247.578 184.751 247.578C184.421 247.578 184.168 247.703 183.992 247.952C183.823 248.194 183.739 248.561 183.739 249.052V249.25C183.739 249.741 183.86 250.101 184.102 250.328C184.344 250.555 184.692 250.669 185.147 250.669C185.44 250.669 185.715 250.636 185.972 250.57C186.236 250.504 186.485 250.398 186.72 250.251L187.226 251.527C186.947 251.718 186.625 251.864 186.258 251.967C185.891 252.07 185.503 252.121 185.092 252.121ZM188.213 252V247.941C188.213 247.684 188.206 247.428 188.191 247.171C188.177 246.914 188.155 246.661 188.125 246.412H190.017L190.226 248.128H189.929C190.003 247.71 190.12 247.365 190.281 247.094C190.443 246.823 190.644 246.621 190.886 246.489C191.128 246.357 191.414 246.291 191.744 246.291C191.898 246.291 192.012 246.298 192.085 246.313C192.166 246.32 192.25 246.342 192.338 246.379V248.095C192.155 248.014 192.008 247.963 191.898 247.941C191.788 247.919 191.645 247.908 191.469 247.908C191.169 247.908 190.923 247.963 190.732 248.073C190.542 248.176 190.402 248.337 190.314 248.557C190.234 248.777 190.193 249.059 190.193 249.404V252H188.213ZM196.219 252V244.245H200.025C200.92 244.245 201.594 244.465 202.049 244.905C202.504 245.338 202.731 245.928 202.731 246.676C202.731 247.417 202.504 248.007 202.049 248.447C201.594 248.887 200.92 249.107 200.025 249.107H198.254V252H196.219ZM198.254 247.545H199.761C200.106 247.545 200.362 247.472 200.531 247.325C200.7 247.171 200.784 246.955 200.784 246.676C200.784 246.397 200.7 246.181 200.531 246.027C200.362 245.873 200.106 245.796 199.761 245.796H198.254V247.545ZM203.521 252V247.941C203.521 247.684 203.514 247.428 203.499 247.171C203.484 246.914 203.462 246.661 203.433 246.412H205.325L205.534 248.128H205.237C205.31 247.71 205.428 247.365 205.589 247.094C205.75 246.823 205.952 246.621 206.194 246.489C206.436 246.357 206.722 246.291 207.052 246.291C207.206 246.291 207.32 246.298 207.393 246.313C207.474 246.32 207.558 246.342 207.646 246.379V248.095C207.463 248.014 207.316 247.963 207.206 247.941C207.096 247.919 206.953 247.908 206.777 247.908C206.476 247.908 206.231 247.963 206.04 248.073C205.849 248.176 205.71 248.337 205.622 248.557C205.541 248.777 205.501 249.059 205.501 249.404V252H203.521ZM210.934 252.121C210.311 252.121 209.772 252.004 209.317 251.769C208.862 251.534 208.51 251.201 208.261 250.768C208.012 250.328 207.887 249.807 207.887 249.206C207.887 248.597 208.012 248.077 208.261 247.644C208.51 247.211 208.862 246.878 209.317 246.643C209.772 246.408 210.311 246.291 210.934 246.291C211.55 246.291 212.085 246.408 212.54 246.643C212.995 246.878 213.347 247.215 213.596 247.655C213.845 248.088 213.97 248.605 213.97 249.206C213.97 249.8 213.845 250.317 213.596 250.757C213.347 251.197 212.995 251.534 212.54 251.769C212.085 252.004 211.55 252.121 210.934 252.121ZM210.934 250.669C211.257 250.669 211.513 250.555 211.704 250.328C211.895 250.093 211.99 249.719 211.99 249.206C211.99 248.693 211.895 248.322 211.704 248.095C211.513 247.86 211.257 247.743 210.934 247.743C210.604 247.743 210.344 247.86 210.153 248.095C209.962 248.322 209.867 248.693 209.867 249.206C209.867 249.719 209.962 250.093 210.153 250.328C210.344 250.555 210.604 250.669 210.934 250.669ZM217.756 252.121C217.14 252.121 216.601 252.004 216.139 251.769C215.677 251.534 215.318 251.201 215.061 250.768C214.805 250.328 214.676 249.804 214.676 249.195C214.676 248.586 214.805 248.066 215.061 247.633C215.318 247.2 215.677 246.87 216.139 246.643C216.601 246.408 217.14 246.291 217.756 246.291C218.138 246.291 218.512 246.342 218.878 246.445C219.245 246.548 219.542 246.694 219.769 246.885L219.219 248.216C219.043 248.069 218.842 247.959 218.614 247.886C218.394 247.805 218.178 247.765 217.965 247.765C217.562 247.765 217.247 247.886 217.019 248.128C216.799 248.37 216.689 248.726 216.689 249.195C216.689 249.664 216.799 250.024 217.019 250.273C217.247 250.515 217.562 250.636 217.965 250.636C218.171 250.636 218.387 250.599 218.614 250.526C218.842 250.445 219.043 250.335 219.219 250.196L219.769 251.527C219.535 251.71 219.234 251.857 218.867 251.967C218.508 252.07 218.138 252.121 217.756 252.121ZM223.42 252.121C222.408 252.121 221.62 251.861 221.055 251.34C220.498 250.819 220.219 250.104 220.219 249.195C220.219 248.63 220.337 248.128 220.571 247.688C220.806 247.248 221.136 246.907 221.561 246.665C221.987 246.416 222.485 246.291 223.057 246.291C223.622 246.291 224.091 246.416 224.465 246.665C224.847 246.907 225.133 247.244 225.323 247.677C225.514 248.102 225.609 248.597 225.609 249.162V249.58H221.858V248.656H224.168L223.981 248.81C223.981 248.392 223.901 248.084 223.739 247.886C223.585 247.681 223.365 247.578 223.079 247.578C222.749 247.578 222.496 247.703 222.32 247.952C222.152 248.194 222.067 248.561 222.067 249.052V249.25C222.067 249.741 222.188 250.101 222.43 250.328C222.672 250.555 223.021 250.669 223.475 250.669C223.769 250.669 224.044 250.636 224.3 250.57C224.564 250.504 224.814 250.398 225.048 250.251L225.554 251.527C225.276 251.718 224.953 251.864 224.586 251.967C224.22 252.07 223.831 252.121 223.42 252.121ZM228.687 252.121C228.166 252.121 227.693 252.07 227.268 251.967C226.85 251.857 226.494 251.71 226.201 251.527L226.674 250.251C226.96 250.412 227.279 250.544 227.631 250.647C227.99 250.75 228.346 250.801 228.698 250.801C228.976 250.801 229.178 250.761 229.303 250.68C229.435 250.592 229.501 250.478 229.501 250.339C229.501 250.229 229.46 250.141 229.38 250.075C229.299 250.009 229.178 249.961 229.017 249.932L227.829 249.723C227.359 249.635 226.993 249.463 226.729 249.206C226.472 248.942 226.344 248.601 226.344 248.183C226.344 247.802 226.446 247.472 226.652 247.193C226.857 246.907 227.15 246.687 227.532 246.533C227.913 246.372 228.364 246.291 228.885 246.291C229.31 246.291 229.713 246.339 230.095 246.434C230.483 246.529 230.821 246.68 231.107 246.885L230.601 248.128C230.373 247.974 230.106 247.849 229.798 247.754C229.497 247.651 229.215 247.6 228.951 247.6C228.635 247.6 228.412 247.648 228.28 247.743C228.148 247.831 228.082 247.941 228.082 248.073C228.082 248.176 228.118 248.264 228.192 248.337C228.265 248.403 228.382 248.451 228.544 248.48L229.732 248.689C230.216 248.77 230.586 248.938 230.843 249.195C231.107 249.444 231.239 249.785 231.239 250.218C231.239 250.621 231.129 250.966 230.909 251.252C230.696 251.531 230.399 251.747 230.018 251.901C229.636 252.048 229.193 252.121 228.687 252.121ZM234.251 252.121C233.73 252.121 233.257 252.07 232.832 251.967C232.414 251.857 232.058 251.71 231.765 251.527L232.238 250.251C232.524 250.412 232.843 250.544 233.195 250.647C233.554 250.75 233.91 250.801 234.262 250.801C234.541 250.801 234.742 250.761 234.867 250.68C234.999 250.592 235.065 250.478 235.065 250.339C235.065 250.229 235.025 250.141 234.944 250.075C234.863 250.009 234.742 249.961 234.581 249.932L233.393 249.723C232.924 249.635 232.557 249.463 232.293 249.206C232.036 248.942 231.908 248.601 231.908 248.183C231.908 247.802 232.011 247.472 232.216 247.193C232.421 246.907 232.715 246.687 233.096 246.533C233.477 246.372 233.928 246.291 234.449 246.291C234.874 246.291 235.278 246.339 235.659 246.434C236.048 246.529 236.385 246.68 236.671 246.885L236.165 248.128C235.938 247.974 235.67 247.849 235.362 247.754C235.061 247.651 234.779 247.6 234.515 247.6C234.2 247.6 233.976 247.648 233.844 247.743C233.712 247.831 233.646 247.941 233.646 248.073C233.646 248.176 233.683 248.264 233.756 248.337C233.829 248.403 233.947 248.451 234.108 248.48L235.296 248.689C235.78 248.77 236.15 248.938 236.407 249.195C236.671 249.444 236.803 249.785 236.803 250.218C236.803 250.621 236.693 250.966 236.473 251.252C236.26 251.531 235.963 251.747 235.582 251.901C235.201 252.048 234.757 252.121 234.251 252.121ZM237.67 252V246.412H239.628V252H237.67ZM237.626 245.62V243.86H239.683V245.62H237.626ZM240.839 252V247.93C240.839 247.681 240.832 247.428 240.817 247.171C240.803 246.914 240.781 246.661 240.751 246.412H242.643L242.753 247.38H242.632C242.816 247.028 243.076 246.76 243.413 246.577C243.751 246.386 244.132 246.291 244.557 246.291C245.21 246.291 245.698 246.485 246.02 246.874C246.35 247.255 246.515 247.853 246.515 248.667V252H244.557V248.755C244.557 248.396 244.495 248.146 244.37 248.007C244.246 247.86 244.066 247.787 243.831 247.787C243.523 247.787 243.274 247.89 243.083 248.095C242.893 248.293 242.797 248.557 242.797 248.887V252H240.839ZM250.432 254.464C249.875 254.464 249.383 254.413 248.958 254.31C248.54 254.215 248.162 254.064 247.825 253.859L248.166 252.473C248.364 252.59 248.58 252.689 248.815 252.77C249.05 252.851 249.292 252.909 249.541 252.946C249.798 252.99 250.04 253.012 250.267 253.012C250.736 253.012 251.085 252.902 251.312 252.682C251.539 252.469 251.653 252.165 251.653 251.769V250.79H251.763C251.646 251.113 251.415 251.373 251.07 251.571C250.725 251.762 250.344 251.857 249.926 251.857C249.427 251.857 248.991 251.747 248.617 251.527C248.25 251.3 247.961 250.977 247.748 250.559C247.543 250.141 247.44 249.646 247.44 249.074C247.44 248.502 247.543 248.007 247.748 247.589C247.961 247.171 248.25 246.852 248.617 246.632C248.991 246.405 249.427 246.291 249.926 246.291C250.359 246.291 250.74 246.386 251.07 246.577C251.4 246.768 251.624 247.021 251.741 247.336L251.653 247.314L251.774 246.412H253.655C253.626 246.661 253.604 246.914 253.589 247.171C253.574 247.428 253.567 247.681 253.567 247.93V251.549C253.567 252.488 253.299 253.206 252.764 253.705C252.229 254.211 251.451 254.464 250.432 254.464ZM250.531 250.405C250.868 250.405 251.136 250.291 251.334 250.064C251.532 249.837 251.631 249.507 251.631 249.074C251.631 248.634 251.532 248.304 251.334 248.084C251.136 247.857 250.868 247.743 250.531 247.743C250.186 247.743 249.915 247.857 249.717 248.084C249.519 248.304 249.42 248.634 249.42 249.074C249.42 249.507 249.519 249.837 249.717 250.064C249.915 250.291 250.186 250.405 250.531 250.405Z" fill="black"/>
<path d="M161.715 303V295.245H165.521C166.416 295.245 167.09 295.465 167.545 295.905C168 296.338 168.227 296.928 168.227 297.676C168.227 298.417 168 299.007 167.545 299.447C167.09 299.887 166.416 300.107 165.521 300.107H163.75V303H161.715ZM163.75 298.545H165.257C165.602 298.545 165.858 298.472 166.027 298.325C166.196 298.171 166.28 297.955 166.28 297.676C166.28 297.397 166.196 297.181 166.027 297.027C165.858 296.873 165.602 296.796 165.257 296.796H163.75V298.545ZM169.017 303V298.941C169.017 298.684 169.01 298.428 168.995 298.171C168.98 297.914 168.958 297.661 168.929 297.412H170.821L171.03 299.128H170.733C170.806 298.71 170.924 298.365 171.085 298.094C171.246 297.823 171.448 297.621 171.69 297.489C171.932 297.357 172.218 297.291 172.548 297.291C172.702 297.291 172.816 297.298 172.889 297.313C172.97 297.32 173.054 297.342 173.142 297.379V299.095C172.959 299.014 172.812 298.963 172.702 298.941C172.592 298.919 172.449 298.908 172.273 298.908C171.972 298.908 171.727 298.963 171.536 299.073C171.345 299.176 171.206 299.337 171.118 299.557C171.037 299.777 170.997 300.059 170.997 300.404V303H169.017ZM173.733 303V297.412H175.691V303H173.733ZM173.689 296.62V294.86H175.746V296.62H173.689ZM176.902 303V298.93C176.902 298.681 176.895 298.428 176.88 298.171C176.865 297.914 176.843 297.661 176.814 297.412H178.706L178.816 298.38H178.695C178.878 298.028 179.139 297.76 179.476 297.577C179.813 297.386 180.195 297.291 180.62 297.291C181.273 297.291 181.76 297.485 182.083 297.874C182.413 298.255 182.578 298.853 182.578 299.667V303H180.62V299.755C180.62 299.396 180.558 299.146 180.433 299.007C180.308 298.86 180.129 298.787 179.894 298.787C179.586 298.787 179.337 298.89 179.146 299.095C178.955 299.293 178.86 299.557 178.86 299.887V303H176.902ZM186.615 303.121C185.823 303.121 185.226 302.934 184.822 302.56C184.426 302.179 184.228 301.603 184.228 300.833V298.853H183.183V297.412H184.228V296.092L186.186 295.63V297.412H187.55V298.853H186.186V300.756C186.186 301.079 186.26 301.295 186.406 301.405C186.553 301.508 186.729 301.559 186.934 301.559C187.059 301.559 187.165 301.552 187.253 301.537C187.349 301.515 187.448 301.486 187.55 301.449V302.956C187.389 303.022 187.228 303.066 187.066 303.088C186.912 303.11 186.762 303.121 186.615 303.121ZM188.31 303V297.412H190.268V303H188.31ZM188.266 296.62V294.86H190.323V296.62H188.266ZM191.479 303V298.93C191.479 298.681 191.472 298.428 191.457 298.171C191.442 297.914 191.42 297.661 191.391 297.412H193.283L193.393 298.38H193.272C193.455 298.028 193.716 297.76 194.053 297.577C194.39 297.386 194.772 297.291 195.197 297.291C195.85 297.291 196.337 297.485 196.66 297.874C196.99 298.255 197.155 298.853 197.155 299.667V303H195.197V299.755C195.197 299.396 195.135 299.146 195.01 299.007C194.885 298.86 194.706 298.787 194.471 298.787C194.163 298.787 193.914 298.89 193.723 299.095C193.532 299.293 193.437 299.557 193.437 299.887V303H191.479ZM201.072 305.464C200.514 305.464 200.023 305.413 199.598 305.31C199.18 305.215 198.802 305.064 198.465 304.859L198.806 303.473C199.004 303.59 199.22 303.689 199.455 303.77C199.689 303.851 199.931 303.909 200.181 303.946C200.437 303.99 200.679 304.012 200.907 304.012C201.376 304.012 201.724 303.902 201.952 303.682C202.179 303.469 202.293 303.165 202.293 302.769V301.79H202.403C202.285 302.113 202.054 302.373 201.71 302.571C201.365 302.762 200.984 302.857 200.566 302.857C200.067 302.857 199.631 302.747 199.257 302.527C198.89 302.3 198.6 301.977 198.388 301.559C198.182 301.141 198.08 300.646 198.08 300.074C198.08 299.502 198.182 299.007 198.388 298.589C198.6 298.171 198.89 297.852 199.257 297.632C199.631 297.405 200.067 297.291 200.566 297.291C200.998 297.291 201.38 297.386 201.71 297.577C202.04 297.768 202.263 298.021 202.381 298.336L202.293 298.314L202.414 297.412H204.295C204.265 297.661 204.243 297.914 204.229 298.171C204.214 298.428 204.207 298.681 204.207 298.93V302.549C204.207 303.488 203.939 304.206 203.404 304.705C202.868 305.211 202.091 305.464 201.072 305.464ZM201.171 301.405C201.508 301.405 201.776 301.291 201.974 301.064C202.172 300.837 202.271 300.507 202.271 300.074C202.271 299.634 202.172 299.304 201.974 299.084C201.776 298.857 201.508 298.743 201.171 298.743C200.826 298.743 200.555 298.857 200.357 299.084C200.159 299.304 200.06 299.634 200.06 300.074C200.06 300.507 200.159 300.837 200.357 301.064C200.555 301.291 200.826 301.405 201.171 301.405ZM212.595 303.121C211.752 303.121 211.022 302.956 210.406 302.626C209.798 302.296 209.325 301.83 208.987 301.229C208.657 300.628 208.492 299.924 208.492 299.117C208.492 298.31 208.657 297.61 208.987 297.016C209.325 296.415 209.798 295.949 210.406 295.619C211.022 295.289 211.752 295.124 212.595 295.124C213.131 295.124 213.618 295.197 214.058 295.344C214.498 295.483 214.869 295.685 215.169 295.949L214.564 297.544C214.227 297.302 213.915 297.133 213.629 297.038C213.351 296.935 213.032 296.884 212.672 296.884C212.012 296.884 211.503 297.078 211.143 297.467C210.791 297.848 210.615 298.398 210.615 299.117C210.615 299.843 210.791 300.4 211.143 300.789C211.503 301.17 212.012 301.361 212.672 301.361C213.032 301.361 213.351 301.313 213.629 301.218C213.915 301.115 214.227 300.943 214.564 300.701L215.169 302.296C214.869 302.56 214.498 302.765 214.058 302.912C213.618 303.051 213.131 303.121 212.595 303.121ZM218.118 303.121C217.634 303.121 217.208 303.007 216.842 302.78C216.475 302.545 216.185 302.208 215.973 301.768C215.767 301.328 215.665 300.807 215.665 300.206C215.665 299.597 215.767 299.077 215.973 298.644C216.185 298.204 216.475 297.87 216.842 297.643C217.208 297.408 217.634 297.291 218.118 297.291C218.55 297.291 218.939 297.394 219.284 297.599C219.636 297.804 219.867 298.072 219.977 298.402H219.867L219.988 297.412H221.869C221.847 297.661 221.825 297.914 221.803 298.171C221.788 298.428 221.78 298.681 221.78 298.93V303H219.845L219.823 302.054H219.955C219.845 302.377 219.614 302.637 219.262 302.835C218.917 303.026 218.536 303.121 218.118 303.121ZM218.745 301.669C219.075 301.669 219.342 301.555 219.548 301.328C219.753 301.093 219.856 300.719 219.856 300.206C219.856 299.693 219.753 299.322 219.548 299.095C219.342 298.86 219.075 298.743 218.745 298.743C218.415 298.743 218.147 298.86 217.942 299.095C217.736 299.322 217.634 299.693 217.634 300.206C217.634 300.719 217.733 301.093 217.931 301.328C218.136 301.555 218.407 301.669 218.745 301.669ZM222.997 303V298.941C222.997 298.684 222.989 298.428 222.975 298.171C222.96 297.914 222.938 297.661 222.909 297.412H224.801L225.01 299.128H224.713C224.786 298.71 224.903 298.365 225.065 298.094C225.226 297.823 225.428 297.621 225.67 297.489C225.912 297.357 226.198 297.291 226.528 297.291C226.682 297.291 226.795 297.298 226.869 297.313C226.949 297.32 227.034 297.342 227.122 297.379V299.095C226.938 299.014 226.792 298.963 226.682 298.941C226.572 298.919 226.429 298.908 226.253 298.908C225.952 298.908 225.706 298.963 225.516 299.073C225.325 299.176 225.186 299.337 225.098 299.557C225.017 299.777 224.977 300.059 224.977 300.404V303H222.997ZM229.838 303.121C229.361 303.121 228.936 303.007 228.562 302.78C228.188 302.545 227.894 302.208 227.682 301.768C227.469 301.328 227.363 300.807 227.363 300.206C227.363 299.597 227.465 299.077 227.671 298.644C227.883 298.204 228.177 297.87 228.551 297.643C228.932 297.408 229.361 297.291 229.838 297.291C230.263 297.291 230.648 297.39 230.993 297.588C231.337 297.779 231.568 298.035 231.686 298.358H231.521V294.904H233.479V303H231.554V301.999H231.697C231.594 302.336 231.367 302.608 231.015 302.813C230.67 303.018 230.278 303.121 229.838 303.121ZM230.465 301.669C230.787 301.669 231.051 301.555 231.257 301.328C231.469 301.093 231.576 300.719 231.576 300.206C231.576 299.693 231.469 299.322 231.257 299.095C231.051 298.86 230.787 298.743 230.465 298.743C230.135 298.743 229.863 298.86 229.651 299.095C229.445 299.322 229.343 299.693 229.343 300.206C229.343 300.719 229.445 301.093 229.651 301.328C229.863 301.555 230.135 301.669 230.465 301.669Z" fill="black"/>
<g filter="url(#filter2_d_46822_11702)">
<path fill-rule="evenodd" clip-rule="evenodd" d="M73.5332 391.067C73.5332 388.858 75.3241 387.067 77.5332 387.067H303.467C305.676 387.067 307.467 388.858 307.467 391.067V423.4C307.467 425.609 305.676 427.4 303.467 427.4H77.5332C75.3241 427.4 73.5332 425.609 73.5332 423.4V391.067Z" fill="white"/>
</g>
<path d="M138.877 412L138.184 410.383H134.708L134.015 412H131.947L135.61 404.168H137.238L140.912 412H138.877ZM135.379 408.832H137.513L136.446 406.357L135.379 408.832Z" fill="#40196D"/>
<path d="M144.02 412.088C143.074 412.088 142.334 411.831 141.798 411.318C141.263 410.805 140.995 410.104 140.995 409.217C140.995 408.63 141.124 408.113 141.38 407.666C141.644 407.219 142.011 406.874 142.48 406.632C142.95 406.383 143.492 406.258 144.108 406.258C144.519 406.258 144.922 406.32 145.318 406.445C145.714 406.562 146.03 406.724 146.264 406.929L145.758 408.304C145.56 408.143 145.329 408.014 145.065 407.919C144.801 407.824 144.548 407.776 144.306 407.776C143.896 407.776 143.58 407.893 143.36 408.128C143.14 408.363 143.03 408.711 143.03 409.173C143.03 409.642 143.14 409.998 143.36 410.24C143.58 410.475 143.899 410.592 144.317 410.592C144.559 410.592 144.809 410.544 145.065 410.449C145.329 410.354 145.56 410.225 145.758 410.064L146.264 411.417C146.022 411.63 145.7 411.795 145.296 411.912C144.9 412.029 144.475 412.088 144.02 412.088Z" fill="#40196D"/>
<path d="M150.274 410.482C150.406 410.482 150.582 410.46 150.802 410.416V411.923C150.531 412.033 150.186 412.088 149.768 412.088C149.013 412.088 148.437 411.875 148.041 411.45C147.652 411.025 147.458 410.434 147.458 409.679V407.875H146.413V406.412H147.458V405.147L149.449 404.509V406.412H150.791V407.875H149.449V409.679C149.449 409.943 149.526 410.145 149.68 410.284C149.841 410.416 150.039 410.482 150.274 410.482Z" fill="#40196D"/>
<path d="M151.55 412V406.412H153.541V412H151.55ZM151.495 403.673H153.574V405.466H151.495V403.673Z" fill="#40196D"/>
<path d="M158.547 406.423H160.505L158.019 412H156.38L153.927 406.423H155.995L157.249 409.635L158.547 406.423Z" fill="#40196D"/>
<path d="M166.641 406.412V412H164.683V411.241C164.522 411.505 164.287 411.714 163.979 411.868C163.671 412.015 163.334 412.088 162.967 412.088C162.491 412.088 162.065 411.971 161.691 411.736C161.317 411.501 161.024 411.168 160.811 410.735C160.606 410.295 160.503 409.789 160.503 409.217C160.503 408.638 160.61 408.124 160.822 407.677C161.035 407.23 161.328 406.881 161.702 406.632C162.076 406.383 162.498 406.258 162.967 406.258C163.334 406.258 163.668 406.339 163.968 406.5C164.276 406.654 164.515 406.863 164.683 407.127V406.412H166.641ZM163.583 410.603C163.935 410.603 164.207 410.482 164.397 410.24C164.588 409.998 164.683 409.65 164.683 409.195C164.683 408.733 164.588 408.381 164.397 408.139C164.207 407.89 163.935 407.765 163.583 407.765C163.239 407.765 162.967 407.893 162.769 408.15C162.571 408.399 162.472 408.755 162.472 409.217C162.472 409.664 162.568 410.009 162.758 410.251C162.949 410.486 163.224 410.603 163.583 410.603Z" fill="#40196D"/>
<path d="M171.125 410.482C171.257 410.482 171.433 410.46 171.653 410.416V411.923C171.381 412.033 171.037 412.088 170.619 412.088C169.863 412.088 169.288 411.875 168.892 411.45C168.503 411.025 168.309 410.434 168.309 409.679V407.875H167.264V406.412H168.309V405.147L170.3 404.509V406.412H171.642V407.875H170.3V409.679C170.3 409.943 170.377 410.145 170.531 410.284C170.692 410.416 170.89 410.482 171.125 410.482Z" fill="#40196D"/>
<path d="M177.56 409.404H174.051C174.087 409.837 174.212 410.148 174.425 410.339C174.637 410.53 174.949 410.625 175.36 410.625C175.638 410.625 175.917 410.581 176.196 410.493C176.474 410.398 176.727 410.269 176.955 410.108L177.461 411.428C177.182 411.633 176.845 411.795 176.449 411.912C176.053 412.029 175.657 412.088 175.261 412.088C174.623 412.088 174.069 411.971 173.6 411.736C173.13 411.501 172.771 411.168 172.522 410.735C172.272 410.295 172.148 409.778 172.148 409.184C172.148 408.619 172.265 408.117 172.5 407.677C172.742 407.23 173.072 406.881 173.49 406.632C173.915 406.383 174.399 406.258 174.942 406.258C175.47 406.258 175.932 406.375 176.328 406.61C176.724 406.845 177.028 407.182 177.241 407.622C177.453 408.055 177.56 408.561 177.56 409.14V409.404ZM174.997 407.622C174.505 407.622 174.197 407.908 174.073 408.48H175.855C175.781 407.908 175.495 407.622 174.997 407.622Z" fill="#40196D"/>
<path d="M185.587 412.099C184.773 412.099 184.062 411.934 183.453 411.604C182.852 411.267 182.386 410.794 182.056 410.185C181.734 409.576 181.572 408.872 181.572 408.073C181.572 407.281 181.734 406.584 182.056 405.983C182.386 405.374 182.852 404.905 183.453 404.575C184.062 404.238 184.773 404.069 185.587 404.069C186.101 404.069 186.596 404.146 187.072 404.3C187.556 404.454 187.945 404.663 188.238 404.927L187.611 406.39C186.973 405.928 186.313 405.697 185.631 405.697C185.001 405.697 184.517 405.899 184.179 406.302C183.842 406.698 183.673 407.288 183.673 408.073C183.673 408.865 183.842 409.463 184.179 409.866C184.517 410.269 185.001 410.471 185.631 410.471C186.313 410.471 186.973 410.24 187.611 409.778L188.238 411.241C187.945 411.505 187.556 411.714 187.072 411.868C186.596 412.022 186.101 412.099 185.587 412.099Z" fill="#40196D"/>
<path d="M194.979 406.412V412H193.021V411.241C192.86 411.505 192.625 411.714 192.317 411.868C192.009 412.015 191.672 412.088 191.305 412.088C190.828 412.088 190.403 411.971 190.029 411.736C189.655 411.501 189.362 411.168 189.149 410.735C188.944 410.295 188.841 409.789 188.841 409.217C188.841 408.638 188.947 408.124 189.16 407.677C189.373 407.23 189.666 406.881 190.04 406.632C190.414 406.383 190.836 406.258 191.305 406.258C191.672 406.258 192.005 406.339 192.306 406.5C192.614 406.654 192.852 406.863 193.021 407.127V406.412H194.979ZM191.921 410.603C192.273 410.603 192.544 410.482 192.735 410.24C192.926 409.998 193.021 409.65 193.021 409.195C193.021 408.733 192.926 408.381 192.735 408.139C192.544 407.89 192.273 407.765 191.921 407.765C191.576 407.765 191.305 407.893 191.107 408.15C190.909 408.399 190.81 408.755 190.81 409.217C190.81 409.664 190.905 410.009 191.096 410.251C191.287 410.486 191.562 410.603 191.921 410.603Z" fill="#40196D"/>
<path d="M199.693 406.28C199.965 406.28 200.174 406.32 200.32 406.401V408.216C200.005 408.069 199.701 407.996 199.407 407.996C198.571 407.996 198.153 408.396 198.153 409.195V412H196.162V408.018C196.162 407.417 196.133 406.881 196.074 406.412H197.944L198.065 407.347C198.197 407.002 198.41 406.738 198.703 406.555C198.997 406.372 199.327 406.28 199.693 406.28Z" fill="#40196D"/>
<path d="M206.667 403.904V412H204.709V411.241C204.547 411.505 204.313 411.714 204.005 411.868C203.697 412.015 203.359 412.088 202.993 412.088C202.516 412.088 202.091 411.967 201.717 411.725C201.343 411.476 201.049 411.131 200.837 410.691C200.631 410.244 200.529 409.73 200.529 409.151C200.529 408.579 200.631 408.073 200.837 407.633C201.049 407.193 201.343 406.856 201.717 406.621C202.091 406.379 202.516 406.258 202.993 406.258C203.345 406.258 203.667 406.331 203.961 406.478C204.261 406.625 204.5 406.823 204.676 407.072V403.904H206.667ZM203.609 410.603C203.961 410.603 204.232 410.482 204.423 410.24C204.613 409.991 204.709 409.635 204.709 409.173C204.709 408.726 204.61 408.381 204.412 408.139C204.221 407.89 203.953 407.765 203.609 407.765C203.249 407.765 202.974 407.886 202.784 408.128C202.593 408.363 202.498 408.704 202.498 409.151C202.498 409.613 202.593 409.972 202.784 410.229C202.982 410.478 203.257 410.603 203.609 410.603Z" fill="#40196D"/>
<path d="M287.039 411.654L288.149 412.734L293.639 407.403L288.149 402.072L287.039 403.152L291.415 407.403L287.039 411.654Z" fill="#40196D"/>
<g filter="url(#filter3_d_46822_11702)">
<path d="M105.487 395H89.1445C88.312 394.999 87.513 395.316 86.9233 395.882C86.3336 396.448 86.0015 397.217 86 398.019V418.37C86.0237 420.023 87.4008 421.362 89.1164 421.4H105.344C106.177 421.401 106.976 421.084 107.565 420.518C108.155 419.952 108.487 419.183 108.489 418.381V397.951C108.497 397.176 108.185 396.43 107.622 395.877C107.06 395.323 106.292 395.008 105.487 395Z" fill="white"/>
</g>
<path d="M97.2473 414.555C98.1203 414.555 98.9388 414.389 99.7027 414.058C100.471 413.726 101.146 413.269 101.73 412.685C102.317 412.102 102.775 411.426 103.102 410.658C103.434 409.89 103.6 409.072 103.6 408.203C103.6 407.33 103.434 406.509 103.102 405.741C102.771 404.973 102.311 404.297 101.724 403.714C101.14 403.131 100.464 402.673 99.6964 402.342C98.9325 402.01 98.1141 401.844 97.241 401.844C96.368 401.844 95.5475 402.01 94.7794 402.342C94.0155 402.673 93.3398 403.131 92.7522 403.714C92.1688 404.297 91.7113 404.973 91.3797 405.741C91.0524 406.509 90.8887 407.33 90.8887 408.203C90.8887 409.072 91.0545 409.89 91.386 410.658C91.7176 411.426 92.1751 412.102 92.7585 412.685C93.3419 413.269 94.0155 413.726 94.7794 414.058C95.5475 414.389 96.3701 414.555 97.2473 414.555ZM97.2536 411.389C96.8129 411.389 96.3995 411.305 96.0134 411.137C95.6314 410.969 95.2936 410.74 94.9998 410.45C94.706 410.157 94.4751 409.819 94.3072 409.437C94.1436 409.051 94.0617 408.639 94.0617 408.203C94.0617 407.787 94.1394 407.389 94.2947 407.007C94.4499 406.621 94.6703 406.289 94.9557 406.012C95.0942 405.865 95.239 405.794 95.3901 405.798C95.5454 405.798 95.6776 405.848 95.7867 405.949C95.8959 406.046 95.9588 406.171 95.9756 406.327C95.9924 406.478 95.9315 406.629 95.793 406.78C95.6042 406.973 95.4594 407.191 95.3586 407.435C95.2621 407.678 95.2138 407.934 95.2138 408.203C95.2138 408.581 95.3041 408.923 95.4845 409.229C95.6692 409.536 95.9147 409.781 96.2211 409.966C96.5317 410.15 96.8759 410.243 97.2536 410.243C97.6314 410.243 97.9734 410.15 98.2798 409.966C98.5862 409.781 98.8318 409.536 99.0164 409.229C99.2011 408.923 99.2934 408.581 99.2934 408.203C99.2893 407.934 99.2368 407.678 99.1361 407.435C99.0395 407.191 98.8989 406.975 98.7142 406.786C98.5757 406.631 98.5128 406.478 98.5254 406.327C98.5422 406.176 98.6051 406.05 98.7142 405.949C98.8234 405.848 98.9535 405.798 99.1046 405.798C99.2599 405.794 99.4068 405.865 99.5453 406.012C99.8307 406.293 100.051 406.627 100.206 407.013C100.362 407.395 100.439 407.792 100.439 408.203C100.439 408.639 100.355 409.051 100.187 409.437C100.024 409.819 99.795 410.157 99.5012 410.45C99.2116 410.74 98.8737 410.969 98.4876 411.137C98.1015 411.305 97.6901 411.389 97.2536 411.389ZM97.2536 408.461C97.0732 408.461 96.9263 408.402 96.8129 408.285C96.6996 408.167 96.643 408.016 96.643 407.831V405.458C96.643 405.273 96.6996 405.122 96.8129 405.005C96.9263 404.887 97.0732 404.828 97.2536 404.828C97.4299 404.828 97.5747 404.887 97.688 405.005C97.8014 405.122 97.858 405.273 97.858 405.458V407.831C97.858 408.016 97.8014 408.167 97.688 408.285C97.5747 408.402 97.4299 408.461 97.2536 408.461Z" fill="#FFC83E"/>
<defs>
<filter id="filter0_d_46822_11702" x="28" y="35" width="324" height="453.333" filterUnits="userSpaceOnUse" color-interpolation-filters="sRGB">
<feFlood flood-opacity="0" result="BackgroundImageFix"/>
<feColorMatrix in="SourceAlpha" type="matrix" values="0 0 0 0 0 0 0 0 0 0 0 0 0 0 0 0 0 0 127 0" result="hardAlpha"/>
<feOffset/>
<feGaussianBlur stdDeviation="12.5"/>
<feColorMatrix type="matrix" values="0 0 0 0 0 0 0 0 0 0 0 0 0 0 0 0 0 0 0.06 0"/>
<feBlend mode="normal" in2="BackgroundImageFix" result="effect1_dropShadow_46822_11702"/>
<feBlend mode="normal" in="SourceGraphic" in2="effect1_dropShadow_46822_11702" result="shape"/>
</filter>
<filter id="filter1_d_46822_11702" x="172.837" y="116.228" width="36.9775" height="36.9771" filterUnits="userSpaceOnUse" color-interpolation-filters="sRGB">
<feFlood flood-opacity="0" result="BackgroundImageFix"/>
<feColorMatrix in="SourceAlpha" type="matrix" values="0 0 0 0 0 0 0 0 0 0 0 0 0 0 0 0 0 0 127 0" result="hardAlpha"/>
<feOffset dy="4"/>
<feGaussianBlur stdDeviation="2"/>
<feColorMatrix type="matrix" values="0 0 0 0 0 0 0 0 0 0 0 0 0 0 0 0 0 0 0.15 0"/>
<feBlend mode="normal" in2="BackgroundImageFix" result="effect1_dropShadow_46822_11702"/>
<feBlend mode="normal" in="SourceGraphic" in2="effect1_dropShadow_46822_11702" result="shape"/>
</filter>
<filter id="filter2_d_46822_11702" x="48.5332" y="362.067" width="283.934" height="90.3333" filterUnits="userSpaceOnUse" color-interpolation-filters="sRGB">
<feFlood flood-opacity="0" result="BackgroundImageFix"/>
<feColorMatrix in="SourceAlpha" type="matrix" values="0 0 0 0 0 0 0 0 0 0 0 0 0 0 0 0 0 0 127 0" result="hardAlpha"/>
<feOffset/>
<feGaussianBlur stdDeviation="12.5"/>
<feColorMatrix type="matrix" values="0 0 0 0 0 0 0 0 0 0 0 0 0 0 0 0 0 0 0.06 0"/>
<feBlend mode="normal" in2="BackgroundImageFix" result="effect1_dropShadow_46822_11702"/>
<feBlend mode="normal" in="SourceGraphic" in2="effect1_dropShadow_46822_11702" result="shape"/>
</filter>
<filter id="filter3_d_46822_11702" x="76.2223" y="385.222" width="42.0437" height="45.9554" filterUnits="userSpaceOnUse" color-interpolation-filters="sRGB">
<feFlood flood-opacity="0" result="BackgroundImageFix"/>
<feColorMatrix in="SourceAlpha" type="matrix" values="0 0 0 0 0 0 0 0 0 0 0 0 0 0 0 0 0 0 127 0" result="hardAlpha"/>
<feOffset/>
<feGaussianBlur stdDeviation="4.88886"/>
<feColorMatrix type="matrix" values="0 0 0 0 0 0 0 0 0 0 0 0 0 0 0 0 0 0 0.06 0"/>
<feBlend mode="normal" in2="BackgroundImageFix" result="effect1_dropShadow_46822_11702"/>
<feBlend mode="normal" in="SourceGraphic" in2="effect1_dropShadow_46822_11702" result="shape"/>
</filter>
</defs>
</svg>
