<svg width="379" height="438" viewBox="0 0 379 438" fill="none" xmlns="http://www.w3.org/2000/svg">
<circle cx="189.5" cy="189.5" r="189.5" fill="#FEE8F0"/>
<g filter="url(#filter0_d_46822_15723)">
<rect x="39" y="87" width="300" height="326" rx="10" fill="white"/>
</g>
<rect x="57" y="328.8" width="268" height="40" rx="3.2" fill="#F9F9F9"/>
<path d="M270.067 349.745C269.433 349.745 268.893 349.616 268.447 349.358C268.002 349.099 267.658 348.733 267.418 348.258C267.183 347.776 267.066 347.21 267.066 346.559C267.066 345.908 267.183 345.345 267.418 344.87C267.658 344.394 268.002 344.028 268.447 343.77C268.893 343.511 269.433 343.382 270.067 343.382C270.507 343.382 270.9 343.447 271.246 343.576C271.592 343.705 271.894 343.893 272.152 344.139L271.835 344.87C271.554 344.629 271.278 344.456 271.008 344.35C270.744 344.245 270.436 344.192 270.084 344.192C269.415 344.192 268.905 344.397 268.553 344.808C268.201 345.219 268.025 345.802 268.025 346.559C268.025 347.316 268.201 347.903 268.553 348.319C268.905 348.73 269.415 348.935 270.084 348.935C270.436 348.935 270.744 348.882 271.008 348.777C271.278 348.671 271.554 348.495 271.835 348.249L272.152 348.979C271.894 349.226 271.592 349.416 271.246 349.551C270.9 349.68 270.507 349.745 270.067 349.745ZM272.901 346.559C272.901 345.908 273.015 345.345 273.244 344.87C273.473 344.394 273.805 344.028 274.239 343.77C274.679 343.511 275.201 343.382 275.805 343.382C276.403 343.382 276.92 343.511 277.354 343.77C277.788 344.028 278.122 344.394 278.357 344.87C278.598 345.345 278.718 345.905 278.718 346.55C278.718 347.202 278.598 347.768 278.357 348.249C278.122 348.724 277.785 349.094 277.345 349.358C276.911 349.616 276.398 349.745 275.805 349.745C275.201 349.745 274.682 349.616 274.247 349.358C273.813 349.094 273.479 348.724 273.244 348.249C273.015 347.768 272.901 347.204 272.901 346.559ZM273.86 346.559C273.86 347.31 274.025 347.897 274.353 348.319C274.682 348.742 275.166 348.953 275.805 348.953C276.427 348.953 276.908 348.744 277.248 348.328C277.589 347.906 277.759 347.316 277.759 346.559C277.759 345.802 277.589 345.216 277.248 344.799C276.914 344.383 276.433 344.174 275.805 344.174C275.166 344.174 274.682 344.383 274.353 344.799C274.025 345.216 273.86 345.802 273.86 346.559ZM279.97 349.666V343.462H282.601C283.264 343.462 283.772 343.623 284.124 343.946C284.482 344.262 284.66 344.702 284.66 345.266C284.66 345.829 284.482 346.272 284.124 346.594C283.772 346.917 283.264 347.078 282.601 347.078H280.885V349.666H279.97ZM280.885 346.348H282.504C282.921 346.348 283.235 346.254 283.446 346.066C283.657 345.879 283.763 345.612 283.763 345.266C283.763 344.925 283.657 344.661 283.446 344.474C283.235 344.286 282.921 344.192 282.504 344.192H280.885V346.348ZM287.25 349.666V346.753L287.453 347.334L284.839 343.462H285.895L287.84 346.427H287.62L289.565 343.462H290.585L287.981 347.334L288.165 346.753V349.666H287.25Z" fill="#40196D"/>
<rect x="298.445" y="342.8" width="9.6" height="9.6" rx="2.8" fill="#DFE3FF" stroke="#40196D" stroke-width="0.8"/>
<rect x="296.045" y="345.2" width="9.6" height="9.6" rx="2.8" fill="#40196D" stroke="#40196D" stroke-width="0.8"/>
<path d="M74.7848 354.222V353.256H77.0424V345.599H77.6408L75.0024 347.245V346.116L77.3552 344.634H78.1712V353.256H80.2928V354.222H74.7848ZM82.3819 354.222V353.378L85.7819 349.829C86.2262 349.366 86.5571 348.927 86.7747 348.51C87.0014 348.084 87.1147 347.644 87.1147 347.19C87.1147 346.637 86.9424 346.22 86.5979 345.939C86.2534 345.649 85.7547 345.504 85.1019 345.504C84.5942 345.504 84.1227 345.595 83.6875 345.776C83.2614 345.948 82.8488 346.225 82.4499 346.606L82.0419 345.722C82.4046 345.359 82.867 345.069 83.4291 344.851C83.9912 344.625 84.5851 344.511 85.2107 344.511C86.1808 344.511 86.9288 344.738 87.4547 345.191C87.9806 345.636 88.2435 346.27 88.2435 347.095C88.2435 347.703 88.0939 348.283 87.7947 348.836C87.5046 349.38 87.0784 349.942 86.5163 350.522L83.5107 353.569V353.256H88.6515V354.222H82.3819ZM93.3926 354.344C92.7489 354.344 92.1323 354.244 91.543 354.045C90.9537 353.845 90.4595 353.56 90.0606 353.188L90.4822 352.318C90.9265 352.68 91.3843 352.943 91.8558 353.106C92.3273 353.27 92.835 353.351 93.379 353.351C94.0953 353.351 94.6393 353.202 95.011 352.902C95.3827 352.594 95.5686 352.145 95.5686 351.556C95.5686 350.994 95.3782 350.568 94.9974 350.278C94.6166 349.978 94.059 349.829 93.3246 349.829H91.883V348.89H93.2294C93.8641 348.89 94.3673 348.727 94.739 348.401C95.1107 348.074 95.2966 347.63 95.2966 347.068C95.2966 346.56 95.1243 346.175 94.7798 345.912C94.4443 345.64 93.9593 345.504 93.3246 345.504C92.291 345.504 91.3979 345.871 90.6454 346.606L90.2238 345.722C90.5955 345.341 91.0625 345.046 91.6246 344.838C92.1867 344.62 92.7761 344.511 93.3926 344.511C94.3355 344.511 95.0745 344.729 95.6094 345.164C96.1443 345.599 96.4118 346.202 96.4118 346.973C96.4118 347.562 96.2441 348.07 95.9086 348.496C95.5731 348.913 95.1198 349.199 94.5486 349.353V349.203C95.2286 349.312 95.7545 349.584 96.1262 350.019C96.4979 350.445 96.6838 350.985 96.6838 351.638C96.6838 352.472 96.3891 353.134 95.7998 353.623C95.2195 354.104 94.4171 354.344 93.3926 354.344ZM102.771 354.222V352.141H98.2017V351.325L102.948 344.634H103.873V351.23H105.342V352.141H103.873V354.222H102.771ZM102.771 351.23V345.966H103.07L99.1265 351.515V351.23H102.771ZM109.933 354.344C109.516 354.344 109.108 354.299 108.709 354.208C108.31 354.117 107.934 353.986 107.58 353.814C107.236 353.641 106.932 353.433 106.669 353.188L107.091 352.318C107.535 352.671 107.988 352.934 108.451 353.106C108.913 353.27 109.407 353.351 109.933 353.351C110.622 353.351 111.162 353.165 111.552 352.794C111.941 352.422 112.136 351.932 112.136 351.325C112.136 350.699 111.951 350.187 111.579 349.788C111.207 349.389 110.69 349.19 110.028 349.19C109.557 349.19 109.135 349.285 108.764 349.475C108.392 349.657 108.07 349.942 107.798 350.332H106.982V344.634H112.667V345.586H108.07V349.407H107.771C108.016 349.026 108.351 348.736 108.777 348.537C109.212 348.328 109.702 348.224 110.246 348.224C110.863 348.224 111.393 348.351 111.837 348.605C112.291 348.859 112.64 349.212 112.884 349.666C113.129 350.119 113.252 350.649 113.252 351.257C113.252 351.864 113.116 352.404 112.844 352.875C112.581 353.338 112.2 353.7 111.701 353.963C111.212 354.217 110.622 354.344 109.933 354.344ZM118.224 354.344C117.063 354.344 116.166 353.936 115.531 353.12C114.905 352.295 114.593 351.144 114.593 349.666C114.593 348.56 114.751 347.626 115.069 346.864C115.386 346.093 115.839 345.509 116.429 345.11C117.018 344.711 117.73 344.511 118.564 344.511C119.063 344.511 119.566 344.616 120.073 344.824C120.581 345.024 120.998 345.305 121.325 345.667L120.917 346.538C120.572 346.184 120.196 345.926 119.788 345.762C119.38 345.59 118.967 345.504 118.55 345.504C117.625 345.504 116.914 345.835 116.415 346.497C115.925 347.15 115.681 348.133 115.681 349.448V350.713H115.558C115.622 350.196 115.776 349.752 116.021 349.38C116.275 348.999 116.605 348.709 117.013 348.51C117.421 348.31 117.875 348.21 118.373 348.21C118.954 348.21 119.466 348.337 119.91 348.591C120.355 348.845 120.704 349.203 120.957 349.666C121.211 350.119 121.338 350.64 121.338 351.23C121.338 351.828 121.207 352.363 120.944 352.834C120.681 353.306 120.314 353.678 119.842 353.95C119.371 354.213 118.831 354.344 118.224 354.344ZM118.142 353.392C118.559 353.392 118.927 353.306 119.244 353.134C119.57 352.952 119.82 352.703 119.992 352.386C120.173 352.059 120.264 351.688 120.264 351.27C120.264 350.853 120.173 350.486 119.992 350.169C119.82 349.852 119.57 349.602 119.244 349.421C118.927 349.24 118.559 349.149 118.142 349.149C117.725 349.149 117.358 349.24 117.041 349.421C116.723 349.602 116.474 349.852 116.293 350.169C116.12 350.486 116.034 350.853 116.034 351.27C116.034 351.688 116.12 352.059 116.293 352.386C116.474 352.703 116.723 352.952 117.041 353.134C117.358 353.306 117.725 353.392 118.142 353.392Z" fill="black"/>
<path d="M57.9152 322V314.668H60.9C61.6696 314.668 62.2624 314.855 62.6784 315.23C63.0944 315.597 63.3024 316.11 63.3024 316.769C63.3024 317.414 63.0944 317.927 62.6784 318.308C62.2624 318.682 61.6696 318.87 60.9 318.87H58.7784V322H57.9152ZM58.7784 318.152H60.8168C61.3507 318.152 61.7528 318.031 62.0232 317.788C62.3005 317.545 62.4392 317.206 62.4392 316.769C62.4392 316.325 62.3005 315.982 62.0232 315.739C61.7528 315.497 61.3507 315.375 60.8168 315.375H58.7784V318.152ZM66.3283 322.094C65.8638 322.094 65.4582 321.986 65.1115 321.771C64.7648 321.549 64.4944 321.237 64.3003 320.835C64.1131 320.433 64.0195 319.951 64.0195 319.39C64.0195 318.821 64.1131 318.336 64.3003 317.934C64.4944 317.531 64.7648 317.223 65.1115 317.008C65.4582 316.793 65.8638 316.686 66.3283 316.686C66.7998 316.686 67.2054 316.807 67.5451 317.05C67.8918 317.285 68.1206 317.608 68.2315 318.017H68.1067L68.2211 316.779H69.0323C69.0115 316.98 68.9907 317.185 68.9699 317.393C68.956 317.594 68.9491 317.791 68.9491 317.986V322H68.1067V320.773H68.2211C68.1102 321.182 67.8814 321.504 67.5347 321.74C67.188 321.976 66.7859 322.094 66.3283 322.094ZM66.4947 321.407C66.9939 321.407 67.3891 321.237 67.6803 320.898C67.9715 320.551 68.1171 320.048 68.1171 319.39C68.1171 318.724 67.9715 318.221 67.6803 317.882C67.3891 317.535 66.9939 317.362 66.4947 317.362C66.0024 317.362 65.6072 317.535 65.3091 317.882C65.0179 318.221 64.8723 318.724 64.8723 319.39C64.8723 320.048 65.0179 320.551 65.3091 320.898C65.6072 321.237 66.0024 321.407 66.4947 321.407ZM70.3191 324.361L70.1215 323.664C70.4473 323.588 70.7177 323.498 70.9327 323.394C71.1545 323.297 71.3383 323.165 71.4839 322.998C71.6295 322.832 71.7543 322.624 71.8583 322.374L72.1287 321.761L72.1079 322.114L69.8303 316.779H70.7455L72.6279 321.366H72.3575L74.2191 316.779H75.1031L72.6903 322.437C72.5516 322.77 72.3991 323.047 72.2327 323.269C72.0663 323.498 71.886 323.681 71.6919 323.82C71.5047 323.966 71.2967 324.08 71.0679 324.163C70.8391 324.246 70.5895 324.312 70.3191 324.361ZM78.8574 322V314.668H79.7206V322H78.8574ZM81.5488 322V314.668H83.9824C84.7936 314.668 85.48 314.81 86.0416 315.094C86.6032 315.372 87.0296 315.784 87.3208 316.332C87.612 316.873 87.7576 317.538 87.7576 318.329C87.7576 319.112 87.612 319.778 87.3208 320.326C87.0296 320.873 86.6032 321.289 86.0416 321.574C85.48 321.858 84.7936 322 83.9824 322H81.5488ZM82.412 321.262H83.92C84.9184 321.262 85.6603 321.019 86.1456 320.534C86.6309 320.041 86.8736 319.306 86.8736 318.329C86.8736 317.344 86.6309 316.609 86.1456 316.124C85.6603 315.639 84.9184 315.396 83.92 315.396H82.412V321.262Z" fill="black"/>
<path d="M158.783 417.112C157.919 417.112 157.163 416.932 156.515 416.572C155.875 416.204 155.383 415.692 155.039 415.036C154.695 414.372 154.523 413.6 154.523 412.72C154.523 411.848 154.695 411.084 155.039 410.428C155.383 409.764 155.875 409.252 156.515 408.892C157.163 408.532 157.919 408.352 158.783 408.352C159.351 408.352 159.891 408.44 160.403 408.616C160.923 408.784 161.347 409.024 161.675 409.336L161.087 410.68C160.703 410.392 160.327 410.184 159.959 410.056C159.599 409.92 159.219 409.852 158.819 409.852C158.051 409.852 157.463 410.096 157.055 410.584C156.647 411.072 156.443 411.784 156.443 412.72C156.443 413.664 156.647 414.384 157.055 414.88C157.463 415.368 158.051 415.612 158.819 415.612C159.219 415.612 159.599 415.548 159.959 415.42C160.327 415.284 160.703 415.072 161.087 414.784L161.675 416.128C161.347 416.44 160.923 416.684 160.403 416.86C159.891 417.028 159.351 417.112 158.783 417.112Z" fill="white"/>
<path d="M165.657 417.1C165.009 417.1 164.441 416.972 163.953 416.716C163.473 416.46 163.101 416.092 162.837 415.612C162.581 415.132 162.453 414.572 162.453 413.932C162.453 413.292 162.581 412.732 162.837 412.252C163.101 411.772 163.473 411.404 163.953 411.148C164.441 410.892 165.009 410.764 165.657 410.764C166.297 410.764 166.857 410.892 167.337 411.148C167.817 411.404 168.185 411.772 168.441 412.252C168.705 412.732 168.837 413.292 168.837 413.932C168.837 414.572 168.705 415.132 168.441 415.612C168.185 416.092 167.817 416.46 167.337 416.716C166.857 416.972 166.297 417.1 165.657 417.1ZM165.657 415.72C166.105 415.72 166.445 415.572 166.677 415.276C166.917 414.98 167.037 414.532 167.037 413.932C167.037 413.34 166.917 412.896 166.677 412.6C166.445 412.296 166.105 412.144 165.657 412.144C165.201 412.144 164.853 412.296 164.613 412.6C164.373 412.896 164.253 413.34 164.253 413.932C164.253 415.124 164.721 415.72 165.657 415.72Z" fill="white"/>
<path d="M173.715 410.764C174.235 410.764 174.699 410.9 175.107 411.172C175.515 411.436 175.831 411.812 176.055 412.3C176.287 412.788 176.403 413.344 176.403 413.968C176.403 414.592 176.291 415.144 176.067 415.624C175.843 416.096 175.527 416.46 175.119 416.716C174.711 416.972 174.243 417.1 173.715 417.1C173.291 417.1 172.911 417.012 172.575 416.836C172.239 416.66 171.983 416.416 171.807 416.104V419.596H169.995V412.66C169.995 412.012 169.963 411.432 169.899 410.92H171.603L171.723 411.928C171.883 411.568 172.139 411.284 172.491 411.076C172.851 410.868 173.259 410.764 173.715 410.764ZM173.199 415.72C173.647 415.72 173.991 415.572 174.231 415.276C174.471 414.972 174.591 414.536 174.591 413.968C174.591 413.4 174.467 412.956 174.219 412.636C173.979 412.316 173.639 412.156 173.199 412.156C172.751 412.156 172.403 412.312 172.155 412.624C171.915 412.928 171.795 413.368 171.795 413.944C171.795 414.52 171.915 414.96 172.155 415.264C172.403 415.568 172.751 415.72 173.199 415.72Z" fill="white"/>
<path d="M183.448 410.92L180.64 417.328C180.296 418.104 179.86 418.672 179.332 419.032C178.812 419.4 178.172 419.636 177.412 419.74L176.992 418.348C177.552 418.228 177.972 418.076 178.252 417.892C178.54 417.708 178.764 417.44 178.924 417.088L179.104 416.692L176.596 410.92H178.492L180.052 414.868L181.66 410.92H183.448Z" fill="white"/>
<path d="M187.541 408.46H191.417C192.361 408.46 193.093 408.688 193.613 409.144C194.141 409.6 194.405 410.22 194.405 411.004C194.405 411.78 194.141 412.4 193.613 412.864C193.085 413.32 192.353 413.548 191.417 413.548H189.413V417.004H187.541V408.46ZM191.177 412.12C192.153 412.12 192.641 411.752 192.641 411.016C192.641 410.272 192.153 409.9 191.177 409.9H189.413V412.12H191.177Z" fill="white"/>
<path d="M201.38 410.92V417.004H199.592V416.104C199.408 416.416 199.148 416.66 198.812 416.836C198.476 417.012 198.096 417.1 197.672 417.1C197.144 417.1 196.676 416.972 196.268 416.716C195.868 416.46 195.552 416.096 195.32 415.624C195.096 415.144 194.984 414.592 194.984 413.968C194.984 413.344 195.096 412.788 195.32 412.3C195.552 411.812 195.872 411.436 196.28 411.172C196.688 410.9 197.152 410.764 197.672 410.764C198.096 410.764 198.476 410.856 198.812 411.04C199.148 411.224 199.408 411.472 199.592 411.784V410.92H201.38ZM198.2 415.72C198.648 415.72 198.992 415.568 199.232 415.264C199.472 414.96 199.592 414.52 199.592 413.944C199.592 413.368 199.472 412.928 199.232 412.624C198.992 412.312 198.648 412.156 198.2 412.156C197.752 412.156 197.404 412.316 197.156 412.636C196.908 412.956 196.784 413.4 196.784 413.968C196.784 414.536 196.904 414.972 197.144 415.276C197.392 415.572 197.744 415.72 198.2 415.72Z" fill="white"/>
<path d="M208.843 410.92L206.035 417.328C205.691 418.104 205.255 418.672 204.727 419.032C204.207 419.4 203.567 419.636 202.807 419.74L202.387 418.348C202.947 418.228 203.367 418.076 203.647 417.892C203.935 417.708 204.159 417.44 204.319 417.088L204.499 416.692L201.991 410.92H203.887L205.447 414.868L207.055 410.92H208.843Z" fill="white"/>
<path d="M212.936 408.46H214.808V417.004H212.936V408.46Z" fill="white"/>
<path d="M216.522 408.46H219.822C220.758 408.46 221.562 408.628 222.234 408.964C222.906 409.3 223.418 409.788 223.77 410.428C224.13 411.068 224.31 411.832 224.31 412.72C224.31 413.616 224.134 414.384 223.782 415.024C223.43 415.664 222.918 416.156 222.246 416.5C221.574 416.836 220.766 417.004 219.822 417.004H216.522V408.46ZM219.702 415.492C221.526 415.492 222.438 414.568 222.438 412.72C222.438 410.888 221.526 409.972 219.702 409.972H218.394V415.492H219.702Z" fill="white"/>
<path d="M213.312 197.832H168.836C162.961 197.832 158.155 193.041 158.155 187.182V142.854C158.155 136.995 162.961 132.204 168.836 132.204H213.292C219.168 132.204 223.973 136.995 223.973 142.854V187.182C223.993 193.041 219.187 197.832 213.312 197.832Z" fill="#F4E6FF"/>
<path d="M124.92 221.611L120.2 228.587V233.003H117.704V228.571L113 221.611H115.832L118.936 226.475L122.072 221.611H124.92Z" fill="black"/>
<path d="M127.633 233.131C126.769 233.131 126.011 232.961 125.361 232.619C124.721 232.278 124.225 231.787 123.873 231.147C123.531 230.507 123.361 229.761 123.361 228.907C123.361 228.054 123.531 227.307 123.873 226.667C124.225 226.027 124.721 225.537 125.361 225.195C126.011 224.854 126.769 224.683 127.633 224.683C128.486 224.683 129.233 224.854 129.873 225.195C130.513 225.537 131.003 226.027 131.345 226.667C131.697 227.307 131.873 228.054 131.873 228.907C131.873 229.761 131.697 230.507 131.345 231.147C131.003 231.787 130.513 232.278 129.873 232.619C129.233 232.961 128.486 233.131 127.633 233.131ZM127.633 231.291C128.23 231.291 128.683 231.094 128.993 230.699C129.313 230.305 129.473 229.707 129.473 228.907C129.473 228.118 129.313 227.526 128.993 227.131C128.683 226.726 128.23 226.523 127.633 226.523C127.025 226.523 126.561 226.726 126.241 227.131C125.921 227.526 125.761 228.118 125.761 228.907C125.761 230.497 126.385 231.291 127.633 231.291Z" fill="black"/>
<path d="M141.161 224.891V233.003H138.809V231.819C138.553 232.246 138.217 232.571 137.801 232.795C137.385 233.019 136.916 233.131 136.393 233.131C135.38 233.131 134.622 232.849 134.121 232.283C133.62 231.718 133.369 230.865 133.369 229.723V224.891H135.785V229.771C135.785 230.753 136.206 231.243 137.049 231.243C137.55 231.243 137.956 231.073 138.265 230.731C138.574 230.39 138.729 229.942 138.729 229.387V224.891H141.161Z" fill="black"/>
<path d="M147.84 224.699C148.181 224.699 148.469 224.753 148.704 224.859L148.688 227.067C148.293 226.886 147.899 226.795 147.504 226.795C146.864 226.795 146.373 226.971 146.032 227.323C145.701 227.665 145.536 228.145 145.536 228.763V233.003H143.12V227.211C143.12 226.347 143.077 225.574 142.992 224.891H145.264L145.424 226.283C145.627 225.771 145.941 225.382 146.368 225.115C146.805 224.838 147.296 224.699 147.84 224.699Z" fill="black"/>
<path d="M154.343 221.611H159.511C160.769 221.611 161.745 221.915 162.439 222.523C163.143 223.131 163.495 223.958 163.495 225.003C163.495 226.038 163.143 226.865 162.439 227.483C161.735 228.091 160.759 228.395 159.511 228.395H156.839V233.003H154.343V221.611ZM159.191 226.491C160.492 226.491 161.143 226.001 161.143 225.019C161.143 224.027 160.492 223.531 159.191 223.531H156.839V226.491H159.191Z" fill="black"/>
<path d="M172.795 224.891V233.003H170.411V231.803C170.166 232.219 169.819 232.545 169.371 232.779C168.923 233.014 168.416 233.131 167.851 233.131C167.147 233.131 166.523 232.961 165.979 232.619C165.446 232.278 165.024 231.793 164.715 231.163C164.416 230.523 164.267 229.787 164.267 228.955C164.267 228.123 164.416 227.382 164.715 226.731C165.024 226.081 165.451 225.579 165.995 225.227C166.539 224.865 167.158 224.683 167.851 224.683C168.416 224.683 168.923 224.806 169.371 225.051C169.819 225.297 170.166 225.627 170.411 226.043V224.891H172.795ZM168.555 231.291C169.152 231.291 169.611 231.089 169.931 230.683C170.251 230.278 170.411 229.691 170.411 228.923C170.411 228.155 170.251 227.569 169.931 227.163C169.611 226.747 169.152 226.539 168.555 226.539C167.958 226.539 167.494 226.753 167.163 227.179C166.832 227.606 166.667 228.198 166.667 228.955C166.667 229.713 166.827 230.294 167.147 230.699C167.478 231.094 167.947 231.291 168.555 231.291Z" fill="black"/>
<path d="M182.745 224.891L179.001 233.435C178.542 234.47 177.961 235.227 177.257 235.707C176.564 236.198 175.71 236.513 174.697 236.651L174.137 234.795C174.884 234.635 175.444 234.433 175.817 234.187C176.201 233.942 176.5 233.585 176.713 233.115L176.953 232.587L173.609 224.891H176.137L178.217 230.155L180.361 224.891H182.745Z" fill="black"/>
<path d="M188.202 233.003V221.611H190.698V233.003H188.202Z" fill="black"/>
<path d="M192.983 221.611H197.383C198.631 221.611 199.703 221.835 200.599 222.283C201.495 222.731 202.178 223.382 202.647 224.235C203.127 225.089 203.367 226.107 203.367 227.291C203.367 228.486 203.133 229.51 202.663 230.363C202.194 231.217 201.511 231.873 200.615 232.331C199.719 232.779 198.642 233.003 197.383 233.003H192.983V221.611ZM197.223 230.987C199.655 230.987 200.871 229.755 200.871 227.291C200.871 224.849 199.655 223.627 197.223 223.627H195.479V230.987H197.223Z" fill="black"/>
<path d="M209.667 233.003V224.891H212.083V233.003H209.667ZM209.587 221.083H212.163V223.355H209.587V221.083Z" fill="black"/>
<path d="M217.162 233.131C215.626 233.131 214.415 232.801 213.53 232.139L214.17 230.459C214.596 230.769 215.071 231.009 215.594 231.179C216.116 231.339 216.65 231.419 217.194 231.419C217.61 231.419 217.93 231.355 218.154 231.227C218.378 231.099 218.49 230.913 218.49 230.667C218.49 230.465 218.41 230.305 218.25 230.187C218.09 230.07 217.807 229.969 217.402 229.883L216.074 229.579C215.295 229.409 214.719 229.137 214.346 228.763C213.983 228.39 213.802 227.894 213.802 227.275C213.802 226.774 213.946 226.326 214.234 225.931C214.532 225.537 214.943 225.233 215.466 225.019C215.988 224.795 216.591 224.683 217.274 224.683C217.85 224.683 218.415 224.774 218.97 224.955C219.524 225.126 220.02 225.371 220.458 225.691L219.786 227.307C219.37 227.019 218.943 226.801 218.506 226.651C218.079 226.502 217.663 226.427 217.258 226.427C216.863 226.427 216.554 226.497 216.33 226.635C216.106 226.774 215.994 226.966 215.994 227.211C215.994 227.393 216.058 227.542 216.186 227.659C216.324 227.766 216.564 227.857 216.906 227.931L218.266 228.235C219.098 228.427 219.7 228.715 220.074 229.099C220.447 229.483 220.634 229.995 220.634 230.635C220.634 231.403 220.324 232.011 219.706 232.459C219.087 232.907 218.239 233.131 217.162 233.131Z" fill="black"/>
<path d="M231.325 224.699C231.666 224.699 231.954 224.753 232.188 224.859L232.173 227.067C231.778 226.886 231.383 226.795 230.989 226.795C230.349 226.795 229.858 226.971 229.517 227.323C229.186 227.665 229.021 228.145 229.021 228.763V233.003H226.605V227.211C226.605 226.347 226.562 225.574 226.477 224.891H228.748L228.909 226.283C229.111 225.771 229.426 225.382 229.853 225.115C230.29 224.838 230.781 224.699 231.325 224.699Z" fill="black"/>
<path d="M240.291 229.147H234.947C234.989 229.905 235.187 230.459 235.539 230.811C235.891 231.153 236.413 231.323 237.107 231.323C237.523 231.323 237.939 231.254 238.355 231.115C238.771 230.977 239.155 230.774 239.507 230.507L240.147 232.139C239.763 232.449 239.283 232.694 238.707 232.875C238.141 233.046 237.571 233.131 236.995 233.131C235.629 233.131 234.557 232.758 233.779 232.011C233 231.254 232.611 230.225 232.611 228.923C232.611 228.102 232.776 227.371 233.107 226.731C233.448 226.081 233.923 225.579 234.531 225.227C235.139 224.865 235.827 224.683 236.595 224.683C237.736 224.683 238.637 225.057 239.299 225.803C239.96 226.539 240.291 227.537 240.291 228.795V229.147ZM236.659 226.379C236.2 226.379 235.827 226.513 235.539 226.779C235.261 227.046 235.08 227.435 234.995 227.947H238.211C238.083 226.902 237.565 226.379 236.659 226.379Z" fill="black"/>
<path d="M249.936 224.891V233.003H247.552V231.803C247.306 232.219 246.96 232.545 246.512 232.779C246.064 233.014 245.557 233.131 244.992 233.131C244.288 233.131 243.664 232.961 243.12 232.619C242.586 232.278 242.165 231.793 241.856 231.163C241.557 230.523 241.408 229.787 241.408 228.955C241.408 228.123 241.557 227.382 241.856 226.731C242.165 226.081 242.592 225.579 243.136 225.227C243.68 224.865 244.298 224.683 244.992 224.683C245.557 224.683 246.064 224.806 246.512 225.051C246.96 225.297 247.306 225.627 247.552 226.043V224.891H249.936ZM245.696 231.291C246.293 231.291 246.752 231.089 247.072 230.683C247.392 230.278 247.552 229.691 247.552 228.923C247.552 228.155 247.392 227.569 247.072 227.163C246.752 226.747 246.293 226.539 245.696 226.539C245.098 226.539 244.634 226.753 244.304 227.179C243.973 227.606 243.808 228.198 243.808 228.955C243.808 229.713 243.968 230.294 244.288 230.699C244.618 231.094 245.088 231.291 245.696 231.291Z" fill="black"/>
<path d="M260.014 221.227V233.003H257.63V231.803C257.384 232.219 257.038 232.545 256.59 232.779C256.142 233.014 255.635 233.131 255.07 233.131C254.376 233.131 253.758 232.955 253.214 232.603C252.67 232.241 252.243 231.739 251.934 231.099C251.635 230.449 251.486 229.707 251.486 228.875C251.486 228.043 251.635 227.313 251.934 226.683C252.243 226.043 252.664 225.553 253.198 225.211C253.742 224.859 254.366 224.683 255.07 224.683C255.614 224.683 256.11 224.801 256.558 225.035C257.006 225.259 257.352 225.574 257.598 225.979V221.227H260.014ZM255.774 231.291C256.371 231.291 256.83 231.089 257.15 230.683C257.47 230.267 257.63 229.675 257.63 228.907C257.63 228.15 257.464 227.569 257.134 227.163C256.814 226.747 256.36 226.539 255.774 226.539C255.176 226.539 254.712 226.742 254.382 227.147C254.051 227.553 253.886 228.129 253.886 228.875C253.886 229.643 254.051 230.241 254.382 230.667C254.712 231.083 255.176 231.291 255.774 231.291Z" fill="black"/>
<path d="M269.964 224.891L266.22 233.435C265.761 234.47 265.18 235.227 264.476 235.707C263.783 236.198 262.929 236.513 261.916 236.651L261.356 234.795C262.103 234.635 262.663 234.433 263.036 234.187C263.42 233.942 263.719 233.585 263.932 233.115L264.172 232.587L260.828 224.891H263.356L265.436 230.155L267.58 224.891H269.964Z" fill="black"/>
<path d="M269.928 230.427H272.536V233.003H269.928V230.427Z" fill="black"/>
<path d="M78 257.004V248.46H78.984V257.004H78Z" fill="black"/>
<path d="M82.2698 251.736V255.036C82.2698 255.484 82.3618 255.8 82.5458 255.984C82.7298 256.16 82.9898 256.248 83.3258 256.248C83.5498 256.248 83.7658 256.212 83.9738 256.14V256.968C83.7258 257.048 83.4458 257.088 83.1338 257.088C82.5578 257.088 82.1057 256.928 81.7777 256.608C81.4577 256.28 81.2978 255.8 81.2978 255.168V251.736H80.1217V250.968H81.2978V249.42L82.2698 249.072V250.968H83.9978V251.736H82.2698Z" fill="black"/>
<path d="M96.506 250.968H97.466L95.234 257.004H94.298L92.57 252.288L90.854 257.004H89.918L87.686 250.968H88.706L90.41 255.84L92.174 250.968H93.026L94.766 255.852L96.506 250.968Z" fill="black"/>
<path d="M98.7277 257.004V250.968H99.6997V257.004H98.7277ZM98.6317 248.412H99.8197V249.516H98.6317V248.412Z" fill="black"/>
<path d="M101.587 257.004V248.172H102.559V257.004H101.587Z" fill="black"/>
<path d="M104.446 257.004V248.172H105.418V257.004H104.446Z" fill="black"/>
<path d="M115.487 253.956H111.059C111.067 254.724 111.243 255.304 111.587 255.696C111.939 256.088 112.447 256.284 113.111 256.284C113.815 256.284 114.463 256.048 115.055 255.576L115.379 256.284C115.115 256.532 114.775 256.728 114.359 256.872C113.951 257.016 113.531 257.088 113.099 257.088C112.155 257.088 111.415 256.812 110.879 256.26C110.343 255.7 110.075 254.936 110.075 253.968C110.075 253.352 110.195 252.808 110.435 252.336C110.675 251.856 111.011 251.484 111.443 251.22C111.875 250.956 112.367 250.824 112.919 250.824C113.719 250.824 114.347 251.088 114.803 251.616C115.259 252.136 115.487 252.856 115.487 253.776V253.956ZM112.931 251.58C112.427 251.58 112.015 251.732 111.695 252.036C111.383 252.34 111.183 252.768 111.095 253.32H114.611C114.563 252.752 114.395 252.32 114.107 252.024C113.827 251.728 113.435 251.58 112.931 251.58Z" fill="black"/>
<path d="M119.736 253.896L122.22 257.004H121.056L119.148 254.628L117.264 257.004H116.076L118.584 253.896L116.22 250.968H117.396L119.148 253.188L120.9 250.968H122.088L119.736 253.896Z" fill="black"/>
<path d="M126.314 250.824C126.842 250.824 127.31 250.956 127.718 251.22C128.126 251.484 128.442 251.856 128.666 252.336C128.89 252.808 129.002 253.356 129.002 253.98C129.002 254.604 128.89 255.152 128.666 255.624C128.442 256.088 128.126 256.448 127.718 256.704C127.318 256.96 126.85 257.088 126.314 257.088C125.842 257.088 125.43 256.984 125.078 256.776C124.726 256.568 124.458 256.272 124.274 255.888V259.596H123.302V252.66C123.302 252.036 123.27 251.472 123.206 250.968H124.13L124.226 252.132C124.394 251.716 124.658 251.396 125.018 251.172C125.386 250.94 125.818 250.824 126.314 250.824ZM126.134 256.284C126.726 256.284 127.182 256.084 127.502 255.684C127.83 255.284 127.994 254.716 127.994 253.98C127.994 253.244 127.83 252.672 127.502 252.264C127.174 251.848 126.718 251.64 126.134 251.64C125.534 251.64 125.074 251.84 124.754 252.24C124.434 252.64 124.274 253.212 124.274 253.956C124.274 254.7 124.434 255.276 124.754 255.684C125.074 256.084 125.534 256.284 126.134 256.284Z" fill="black"/>
<path d="M130.497 257.004V250.968H131.469V257.004H130.497ZM130.401 248.412H131.589V249.516H130.401V248.412Z" fill="black"/>
<path d="M136.165 250.824C136.365 250.824 136.549 250.848 136.717 250.896L136.693 251.784C136.509 251.72 136.297 251.688 136.057 251.688C135.473 251.688 135.037 251.872 134.749 252.24C134.469 252.6 134.329 253.04 134.329 253.56V257.004H133.357V252.66C133.357 252.036 133.325 251.472 133.261 250.968H134.185L134.281 252.084C134.433 251.676 134.677 251.364 135.013 251.148C135.349 250.932 135.733 250.824 136.165 250.824Z" fill="black"/>
<path d="M142.639 253.956H138.211C138.219 254.724 138.395 255.304 138.739 255.696C139.091 256.088 139.599 256.284 140.263 256.284C140.967 256.284 141.615 256.048 142.207 255.576L142.531 256.284C142.267 256.532 141.927 256.728 141.511 256.872C141.103 257.016 140.683 257.088 140.251 257.088C139.307 257.088 138.567 256.812 138.031 256.26C137.495 255.7 137.227 254.936 137.227 253.968C137.227 253.352 137.347 252.808 137.587 252.336C137.827 251.856 138.163 251.484 138.595 251.22C139.027 250.956 139.519 250.824 140.071 250.824C140.871 250.824 141.499 251.088 141.955 251.616C142.411 252.136 142.639 252.856 142.639 253.776V253.956ZM140.083 251.58C139.579 251.58 139.167 251.732 138.847 252.036C138.535 252.34 138.335 252.768 138.247 253.32H141.763C141.715 252.752 141.547 252.32 141.259 252.024C140.979 251.728 140.587 251.58 140.083 251.58Z" fill="black"/>
<path d="M147.243 257.004V250.968H148.215V257.004H147.243ZM147.147 248.412H148.335V249.516H147.147V248.412Z" fill="black"/>
<path d="M153.115 250.824C154.563 250.824 155.287 251.62 155.287 253.212V257.004H154.315V253.26C154.315 252.7 154.203 252.292 153.979 252.036C153.755 251.772 153.403 251.64 152.923 251.64C152.363 251.64 151.915 251.812 151.579 252.156C151.243 252.5 151.075 252.964 151.075 253.548V257.004H150.103V252.66C150.103 252.036 150.071 251.472 150.007 250.968H150.931L151.027 252.048C151.211 251.656 151.487 251.356 151.855 251.148C152.223 250.932 152.643 250.824 153.115 250.824Z" fill="black"/>
<path d="M163.731 256.176H165.615V257.004H160.851V256.176H162.735V249.684L160.983 250.8V249.852L163.167 248.46H163.731V256.176Z" fill="black"/>
<path d="M170.11 257.1C169.134 257.1 168.39 256.732 167.878 255.996C167.374 255.252 167.122 254.164 167.122 252.732C167.122 251.3 167.374 250.216 167.878 249.48C168.39 248.736 169.134 248.364 170.11 248.364C171.086 248.364 171.826 248.736 172.33 249.48C172.842 250.216 173.098 251.296 173.098 252.72C173.098 254.152 172.842 255.24 172.33 255.984C171.826 256.728 171.086 257.1 170.11 257.1ZM170.11 256.272C170.79 256.272 171.29 255.984 171.61 255.408C171.938 254.832 172.102 253.936 172.102 252.72C172.102 251.512 171.942 250.624 171.622 250.056C171.302 249.488 170.798 249.204 170.11 249.204C169.43 249.204 168.926 249.488 168.598 250.056C168.278 250.624 168.118 251.512 168.118 252.72C168.118 253.928 168.278 254.824 168.598 255.408C168.926 255.984 169.43 256.272 170.11 256.272Z" fill="black"/>
<path d="M184.467 250.824C185.803 250.824 186.471 251.62 186.471 253.212V257.004H185.499V253.26C185.499 252.692 185.399 252.28 185.199 252.024C185.007 251.768 184.691 251.64 184.251 251.64C183.739 251.64 183.339 251.812 183.051 252.156C182.763 252.5 182.619 252.968 182.619 253.56V257.004H181.647V253.26C181.647 252.7 181.547 252.292 181.347 252.036C181.147 251.772 180.827 251.64 180.387 251.64C179.875 251.64 179.471 251.812 179.175 252.156C178.887 252.5 178.743 252.968 178.743 253.56V257.004H177.771V252.66C177.771 252.036 177.739 251.472 177.675 250.968H178.599L178.695 252.024C178.863 251.64 179.111 251.344 179.439 251.136C179.775 250.928 180.163 250.824 180.603 250.824C181.083 250.824 181.475 250.92 181.779 251.112C182.083 251.304 182.307 251.6 182.451 252C182.635 251.64 182.903 251.356 183.255 251.148C183.615 250.932 184.019 250.824 184.467 250.824Z" fill="black"/>
<path d="M188.318 257.004V250.968H189.29V257.004H188.318ZM188.222 248.412H189.41V249.516H188.222V248.412Z" fill="black"/>
<path d="M194.189 250.824C195.637 250.824 196.361 251.62 196.361 253.212V257.004H195.389V253.26C195.389 252.7 195.277 252.292 195.053 252.036C194.829 251.772 194.477 251.64 193.997 251.64C193.437 251.64 192.989 251.812 192.653 252.156C192.317 252.5 192.149 252.964 192.149 253.548V257.004H191.177V252.66C191.177 252.036 191.145 251.472 191.081 250.968H192.005L192.101 252.048C192.285 251.656 192.561 251.356 192.929 251.148C193.297 250.932 193.717 250.824 194.189 250.824Z" fill="black"/>
<path d="M203.248 250.968V257.004H202.3V255.96C202.108 256.328 201.84 256.608 201.496 256.8C201.152 256.992 200.764 257.088 200.332 257.088C199.62 257.088 199.08 256.888 198.712 256.488C198.344 256.088 198.16 255.496 198.16 254.712V250.968H199.132V254.688C199.132 255.232 199.244 255.632 199.468 255.888C199.692 256.144 200.032 256.272 200.488 256.272C201.024 256.272 201.456 256.1 201.784 255.756C202.112 255.404 202.276 254.944 202.276 254.376V250.968H203.248Z" fill="black"/>
<path d="M206.418 251.736V255.036C206.418 255.484 206.51 255.8 206.694 255.984C206.878 256.16 207.138 256.248 207.474 256.248C207.698 256.248 207.914 256.212 208.122 256.14V256.968C207.874 257.048 207.594 257.088 207.282 257.088C206.706 257.088 206.254 256.928 205.926 256.608C205.606 256.28 205.446 255.8 205.446 255.168V251.736H204.27V250.968H205.446V249.42L206.418 249.072V250.968H208.146V251.736H206.418Z" fill="black"/>
<path d="M214.37 253.956H209.942C209.95 254.724 210.126 255.304 210.47 255.696C210.822 256.088 211.33 256.284 211.994 256.284C212.698 256.284 213.346 256.048 213.938 255.576L214.262 256.284C213.997 256.532 213.658 256.728 213.242 256.872C212.834 257.016 212.413 257.088 211.981 257.088C211.037 257.088 210.298 256.812 209.762 256.26C209.225 255.7 208.958 254.936 208.958 253.968C208.958 253.352 209.077 252.808 209.318 252.336C209.558 251.856 209.893 251.484 210.325 251.22C210.757 250.956 211.249 250.824 211.801 250.824C212.601 250.824 213.23 251.088 213.686 251.616C214.141 252.136 214.37 252.856 214.37 253.776V253.956ZM211.814 251.58C211.31 251.58 210.897 251.732 210.577 252.036C210.265 252.34 210.065 252.768 209.977 253.32H213.494C213.446 252.752 213.278 252.32 212.99 252.024C212.71 251.728 212.318 251.58 211.814 251.58Z" fill="black"/>
<path d="M217.885 257.088C216.869 257.088 216.065 256.828 215.473 256.308L215.797 255.588C216.125 255.844 216.457 256.028 216.793 256.14C217.129 256.252 217.505 256.308 217.921 256.308C218.377 256.308 218.721 256.232 218.953 256.08C219.193 255.92 219.313 255.692 219.313 255.396C219.313 255.156 219.233 254.964 219.073 254.82C218.913 254.676 218.649 254.564 218.281 254.484L217.261 254.244C216.757 254.132 216.365 253.932 216.085 253.644C215.813 253.356 215.677 253.012 215.677 252.612C215.677 252.084 215.889 251.656 216.313 251.328C216.737 250.992 217.297 250.824 217.993 250.824C218.417 250.824 218.817 250.892 219.193 251.028C219.569 251.164 219.885 251.36 220.141 251.616L219.817 252.324C219.249 251.852 218.641 251.616 217.993 251.616C217.561 251.616 217.225 251.7 216.985 251.868C216.753 252.028 216.637 252.256 216.637 252.552C216.637 252.8 216.709 252.996 216.853 253.14C217.005 253.284 217.245 253.396 217.573 253.476L218.593 253.728C219.153 253.856 219.569 254.056 219.841 254.328C220.113 254.592 220.249 254.94 220.249 255.372C220.249 255.892 220.037 256.308 219.613 256.62C219.189 256.932 218.613 257.088 217.885 257.088Z" fill="black"/>
<path d="M221.571 255.768H222.807V257.004H221.571V255.768Z" fill="black"/>
<path d="M234.438 257.004H233.154L228.75 252.936V257.004H227.766V248.46H228.75V252.384L232.95 248.46H234.21L229.746 252.624L234.438 257.004Z" fill="black"/>
<path d="M240.245 253.956H235.817C235.825 254.724 236.001 255.304 236.345 255.696C236.697 256.088 237.205 256.284 237.869 256.284C238.573 256.284 239.221 256.048 239.812 255.576L240.137 256.284C239.872 256.532 239.533 256.728 239.117 256.872C238.709 257.016 238.288 257.088 237.856 257.088C236.912 257.088 236.173 256.812 235.637 256.26C235.1 255.7 234.833 254.936 234.833 253.968C234.833 253.352 234.953 252.808 235.193 252.336C235.433 251.856 235.768 251.484 236.2 251.22C236.632 250.956 237.124 250.824 237.676 250.824C238.476 250.824 239.105 251.088 239.561 251.616C240.016 252.136 240.245 252.856 240.245 253.776V253.956ZM237.689 251.58C237.185 251.58 236.772 251.732 236.452 252.036C236.14 252.34 235.94 252.768 235.852 253.32H239.369C239.321 252.752 239.153 252.32 238.865 252.024C238.585 251.728 238.193 251.58 237.689 251.58Z" fill="black"/>
<path d="M246.772 253.956H242.344C242.352 254.724 242.528 255.304 242.872 255.696C243.224 256.088 243.732 256.284 244.396 256.284C245.1 256.284 245.748 256.048 246.34 255.576L246.664 256.284C246.4 256.532 246.06 256.728 245.644 256.872C245.236 257.016 244.816 257.088 244.384 257.088C243.44 257.088 242.7 256.812 242.164 256.26C241.628 255.7 241.36 254.936 241.36 253.968C241.36 253.352 241.48 252.808 241.72 252.336C241.96 251.856 242.296 251.484 242.728 251.22C243.16 250.956 243.652 250.824 244.204 250.824C245.004 250.824 245.632 251.088 246.088 251.616C246.544 252.136 246.772 252.856 246.772 253.776V253.956ZM244.216 251.58C243.712 251.58 243.3 251.732 242.98 252.036C242.668 252.34 242.468 252.768 242.38 253.32H245.896C245.848 252.752 245.68 252.32 245.392 252.024C245.112 251.728 244.72 251.58 244.216 251.58Z" fill="black"/>
<path d="M251.259 250.824C251.787 250.824 252.255 250.956 252.663 251.22C253.071 251.484 253.387 251.856 253.611 252.336C253.835 252.808 253.947 253.356 253.947 253.98C253.947 254.604 253.835 255.152 253.611 255.624C253.387 256.088 253.071 256.448 252.663 256.704C252.263 256.96 251.795 257.088 251.259 257.088C250.787 257.088 250.375 256.984 250.023 256.776C249.671 256.568 249.403 256.272 249.219 255.888V259.596H248.247V252.66C248.247 252.036 248.215 251.472 248.151 250.968H249.075L249.171 252.132C249.339 251.716 249.603 251.396 249.963 251.172C250.331 250.94 250.763 250.824 251.259 250.824ZM251.079 256.284C251.671 256.284 252.127 256.084 252.447 255.684C252.775 255.284 252.939 254.716 252.939 253.98C252.939 253.244 252.775 252.672 252.447 252.264C252.119 251.848 251.663 251.64 251.079 251.64C250.479 251.64 250.019 251.84 249.699 252.24C249.379 252.64 249.219 253.212 249.219 253.956C249.219 254.7 249.379 255.276 249.699 255.684C250.019 256.084 250.479 256.284 251.079 256.284Z" fill="black"/>
<path d="M258.571 257.004V250.968H259.543V257.004H258.571ZM258.475 248.412H259.663V249.516H258.475V248.412Z" fill="black"/>
<path d="M262.727 251.736V255.036C262.727 255.484 262.819 255.8 263.003 255.984C263.187 256.16 263.447 256.248 263.783 256.248C264.007 256.248 264.223 256.212 264.431 256.14V256.968C264.183 257.048 263.903 257.088 263.591 257.088C263.015 257.088 262.563 256.928 262.235 256.608C261.915 256.28 261.755 255.8 261.755 255.168V251.736H260.579V250.968H261.755V249.42L262.727 249.072V250.968H264.455V251.736H262.727Z" fill="black"/>
<path d="M270.795 257.088C269.779 257.088 268.975 256.828 268.383 256.308L268.707 255.588C269.035 255.844 269.367 256.028 269.703 256.14C270.039 256.252 270.415 256.308 270.831 256.308C271.287 256.308 271.631 256.232 271.863 256.08C272.103 255.92 272.223 255.692 272.223 255.396C272.223 255.156 272.143 254.964 271.983 254.82C271.823 254.676 271.559 254.564 271.191 254.484L270.171 254.244C269.667 254.132 269.275 253.932 268.995 253.644C268.723 253.356 268.587 253.012 268.587 252.612C268.587 252.084 268.799 251.656 269.223 251.328C269.647 250.992 270.207 250.824 270.903 250.824C271.327 250.824 271.727 250.892 272.103 251.028C272.479 251.164 272.795 251.36 273.051 251.616L272.727 252.324C272.159 251.852 271.551 251.616 270.903 251.616C270.471 251.616 270.135 251.7 269.895 251.868C269.663 252.028 269.547 252.256 269.547 252.552C269.547 252.8 269.619 252.996 269.763 253.14C269.915 253.284 270.155 253.396 270.483 253.476L271.503 253.728C272.063 253.856 272.479 254.056 272.751 254.328C273.023 254.592 273.159 254.94 273.159 255.372C273.159 255.892 272.947 256.308 272.523 256.62C272.099 256.932 271.523 257.088 270.795 257.088Z" fill="black"/>
<path d="M280.024 250.968V257.004H279.064V255.912C278.888 256.288 278.62 256.58 278.26 256.788C277.908 256.988 277.496 257.088 277.024 257.088C276.488 257.088 276.016 256.96 275.608 256.704C275.208 256.448 274.896 256.088 274.672 255.624C274.456 255.152 274.348 254.604 274.348 253.98C274.348 253.356 274.46 252.808 274.684 252.336C274.908 251.856 275.22 251.484 275.62 251.22C276.028 250.956 276.496 250.824 277.024 250.824C277.496 250.824 277.908 250.928 278.26 251.136C278.612 251.344 278.88 251.636 279.064 252.012V250.968H280.024ZM277.216 256.284C277.808 256.284 278.264 256.084 278.584 255.684C278.904 255.276 279.064 254.7 279.064 253.956C279.064 253.212 278.904 252.64 278.584 252.24C278.264 251.84 277.808 251.64 277.216 251.64C276.624 251.64 276.16 251.848 275.824 252.264C275.496 252.672 275.332 253.244 275.332 253.98C275.332 254.716 275.496 255.284 275.824 255.684C276.152 256.084 276.616 256.284 277.216 256.284Z" fill="black"/>
<path d="M284.219 248.964C283.899 248.964 283.647 249.056 283.463 249.24C283.287 249.416 283.199 249.724 283.199 250.164V250.968H284.675V251.736H283.199V257.004H282.227V251.736H281.051V250.968H282.227V250.044C282.227 249.412 282.383 248.936 282.695 248.616C283.015 248.288 283.459 248.124 284.027 248.124C284.307 248.124 284.579 248.16 284.843 248.232V249.06C284.619 248.996 284.411 248.964 284.219 248.964Z" fill="black"/>
<path d="M290.94 253.956H286.512C286.52 254.724 286.696 255.304 287.04 255.696C287.392 256.088 287.9 256.284 288.564 256.284C289.268 256.284 289.916 256.048 290.508 255.576L290.832 256.284C290.568 256.532 290.228 256.728 289.812 256.872C289.404 257.016 288.984 257.088 288.552 257.088C287.608 257.088 286.868 256.812 286.332 256.26C285.796 255.7 285.528 254.936 285.528 253.968C285.528 253.352 285.648 252.808 285.888 252.336C286.128 251.856 286.464 251.484 286.896 251.22C287.328 250.956 287.82 250.824 288.372 250.824C289.172 250.824 289.8 251.088 290.256 251.616C290.712 252.136 290.94 252.856 290.94 253.776V253.956ZM288.384 251.58C287.88 251.58 287.468 251.732 287.148 252.036C286.836 252.34 286.636 252.768 286.548 253.32H290.064C290.016 252.752 289.848 252.32 289.56 252.024C289.28 251.728 288.888 251.58 288.384 251.58Z" fill="black"/>
<path d="M296.84 251.736V255.036C296.84 255.484 296.932 255.8 297.116 255.984C297.3 256.16 297.56 256.248 297.896 256.248C298.12 256.248 298.336 256.212 298.544 256.14V256.968C298.296 257.048 298.016 257.088 297.704 257.088C297.128 257.088 296.676 256.928 296.348 256.608C296.028 256.28 295.868 255.8 295.868 255.168V251.736H294.692V250.968H295.868V249.42L296.84 249.072V250.968H298.568V251.736H296.84Z" fill="black"/>
<path d="M299.739 257.004V250.968H300.711V257.004H299.739ZM299.643 248.412H300.831V249.516H299.643V248.412Z" fill="black"/>
<path d="M302.599 257.004V248.172H303.571V257.004H302.599Z" fill="black"/>
<path d="M305.458 257.004V248.172H306.43V257.004H305.458Z" fill="black"/>
<path d="M159.104 266.168L156.284 272.756C155.988 273.444 155.616 273.948 155.168 274.268C154.72 274.588 154.168 274.808 153.512 274.928L153.308 274.172C153.876 274.044 154.304 273.872 154.592 273.656C154.888 273.448 155.132 273.124 155.324 272.684L155.564 272.144L153.008 266.168H154.028L156.068 271.148L158.132 266.168H159.104Z" fill="black"/>
<path d="M162.601 272.288C162.033 272.288 161.533 272.16 161.101 271.904C160.669 271.648 160.333 271.284 160.093 270.812C159.861 270.34 159.745 269.788 159.745 269.156C159.745 268.524 159.861 267.972 160.093 267.5C160.333 267.028 160.669 266.664 161.101 266.408C161.533 266.152 162.033 266.024 162.601 266.024C163.169 266.024 163.669 266.152 164.101 266.408C164.533 266.664 164.865 267.028 165.097 267.5C165.337 267.972 165.457 268.524 165.457 269.156C165.457 269.788 165.337 270.34 165.097 270.812C164.865 271.284 164.533 271.648 164.101 271.904C163.669 272.16 163.169 272.288 162.601 272.288ZM162.601 271.484C163.201 271.484 163.661 271.288 163.981 270.896C164.301 270.496 164.461 269.916 164.461 269.156C164.461 268.42 164.297 267.852 163.969 267.452C163.641 267.044 163.185 266.84 162.601 266.84C162.009 266.84 161.549 267.044 161.221 267.452C160.893 267.852 160.729 268.42 160.729 269.156C160.729 269.916 160.889 270.496 161.209 270.896C161.537 271.288 162.001 271.484 162.601 271.484Z" fill="black"/>
<path d="M172.024 266.168V272.204H171.076V271.16C170.884 271.528 170.616 271.808 170.272 272C169.928 272.192 169.54 272.288 169.108 272.288C168.396 272.288 167.856 272.088 167.488 271.688C167.12 271.288 166.936 270.696 166.936 269.912V266.168H167.908V269.888C167.908 270.432 168.02 270.832 168.244 271.088C168.468 271.344 168.808 271.472 169.264 271.472C169.8 271.472 170.232 271.3 170.56 270.956C170.888 270.604 171.052 270.144 171.052 269.576V266.168H172.024Z" fill="black"/>
<path d="M174.966 263.66V264.536C174.966 264.872 174.91 265.18 174.798 265.46C174.686 265.74 174.498 266.016 174.234 266.288L173.778 265.928C174.09 265.568 174.266 265.224 174.306 264.896H173.73V263.66H174.966Z" fill="black"/>
<path d="M181.042 266.18H182.014L179.41 272.204H178.486L175.918 266.18H176.938L178.978 271.148L181.042 266.18Z" fill="black"/>
<path d="M188.067 269.156H183.639C183.647 269.924 183.823 270.504 184.167 270.896C184.519 271.288 185.027 271.484 185.691 271.484C186.395 271.484 187.043 271.248 187.635 270.776L187.959 271.484C187.695 271.732 187.355 271.928 186.939 272.072C186.531 272.216 186.111 272.288 185.679 272.288C184.735 272.288 183.995 272.012 183.459 271.46C182.923 270.9 182.655 270.136 182.655 269.168C182.655 268.552 182.775 268.008 183.015 267.536C183.255 267.056 183.591 266.684 184.023 266.42C184.455 266.156 184.947 266.024 185.499 266.024C186.299 266.024 186.927 266.288 187.383 266.816C187.839 267.336 188.067 268.056 188.067 268.976V269.156ZM185.511 266.78C185.007 266.78 184.595 266.932 184.275 267.236C183.963 267.54 183.763 267.968 183.675 268.52H187.191C187.143 267.952 186.975 267.52 186.687 267.224C186.407 266.928 186.015 266.78 185.511 266.78Z" fill="black"/>
<path d="M197.723 266.168V272.204H196.775V271.16C196.583 271.528 196.315 271.808 195.971 272C195.627 272.192 195.239 272.288 194.807 272.288C194.095 272.288 193.555 272.088 193.187 271.688C192.819 271.288 192.635 270.696 192.635 269.912V266.168H193.607V269.888C193.607 270.432 193.719 270.832 193.943 271.088C194.167 271.344 194.507 271.472 194.963 271.472C195.499 271.472 195.931 271.3 196.259 270.956C196.587 270.604 196.751 270.144 196.751 269.576V266.168H197.723Z" fill="black"/>
<path d="M201.637 272.288C200.621 272.288 199.817 272.028 199.225 271.508L199.549 270.788C199.877 271.044 200.209 271.228 200.545 271.34C200.881 271.452 201.257 271.508 201.673 271.508C202.129 271.508 202.473 271.432 202.705 271.28C202.945 271.12 203.065 270.892 203.065 270.596C203.065 270.356 202.985 270.164 202.825 270.02C202.665 269.876 202.401 269.764 202.033 269.684L201.013 269.444C200.509 269.332 200.117 269.132 199.837 268.844C199.565 268.556 199.429 268.212 199.429 267.812C199.429 267.284 199.641 266.856 200.065 266.528C200.489 266.192 201.049 266.024 201.745 266.024C202.169 266.024 202.569 266.092 202.945 266.228C203.321 266.364 203.637 266.56 203.893 266.816L203.569 267.524C203.001 267.052 202.393 266.816 201.745 266.816C201.313 266.816 200.977 266.9 200.737 267.068C200.505 267.228 200.389 267.456 200.389 267.752C200.389 268 200.461 268.196 200.605 268.34C200.757 268.484 200.997 268.596 201.325 268.676L202.345 268.928C202.905 269.056 203.321 269.256 203.593 269.528C203.865 269.792 204.001 270.14 204.001 270.572C204.001 271.092 203.789 271.508 203.365 271.82C202.941 272.132 202.365 272.288 201.637 272.288Z" fill="black"/>
<path d="M210.602 269.156H206.174C206.182 269.924 206.358 270.504 206.702 270.896C207.054 271.288 207.562 271.484 208.226 271.484C208.93 271.484 209.578 271.248 210.17 270.776L210.494 271.484C210.23 271.732 209.89 271.928 209.474 272.072C209.066 272.216 208.646 272.288 208.214 272.288C207.27 272.288 206.53 272.012 205.994 271.46C205.458 270.9 205.19 270.136 205.19 269.168C205.19 268.552 205.31 268.008 205.55 267.536C205.79 267.056 206.126 266.684 206.558 266.42C206.99 266.156 207.482 266.024 208.034 266.024C208.834 266.024 209.462 266.288 209.918 266.816C210.374 267.336 210.602 268.056 210.602 268.976V269.156ZM208.046 266.78C207.542 266.78 207.13 266.932 206.81 267.236C206.498 267.54 206.298 267.968 206.21 268.52H209.726C209.678 267.952 209.51 267.52 209.222 267.224C208.942 266.928 208.55 266.78 208.046 266.78Z" fill="black"/>
<path d="M217.393 263.372V272.204H216.433V271.112C216.257 271.488 215.989 271.78 215.629 271.988C215.277 272.188 214.865 272.288 214.393 272.288C213.865 272.288 213.397 272.156 212.989 271.892C212.589 271.628 212.277 271.26 212.053 270.788C211.829 270.308 211.717 269.756 211.717 269.132C211.717 268.508 211.825 267.964 212.041 267.5C212.265 267.028 212.581 266.664 212.989 266.408C213.397 266.152 213.865 266.024 214.393 266.024C214.865 266.024 215.277 266.128 215.629 266.336C215.981 266.536 216.245 266.82 216.421 267.188V263.372H217.393ZM214.585 271.484C215.177 271.484 215.633 271.284 215.953 270.884C216.273 270.476 216.433 269.9 216.433 269.156C216.433 268.42 216.273 267.852 215.953 267.452C215.633 267.044 215.177 266.84 214.585 266.84C213.993 266.84 213.529 267.04 213.193 267.44C212.865 267.84 212.701 268.404 212.701 269.132C212.701 269.876 212.865 270.456 213.193 270.872C213.529 271.28 213.993 271.484 214.585 271.484Z" fill="black"/>
<path d="M222.401 272.204V266.168H223.373V272.204H222.401ZM222.305 263.612H223.493V264.716H222.305V263.612Z" fill="black"/>
<path d="M226.557 266.936V270.236C226.557 270.684 226.649 271 226.833 271.184C227.017 271.36 227.277 271.448 227.613 271.448C227.837 271.448 228.053 271.412 228.261 271.34V272.168C228.013 272.248 227.733 272.288 227.421 272.288C226.845 272.288 226.393 272.128 226.065 271.808C225.745 271.48 225.585 271 225.585 270.368V266.936H224.409V266.168H225.585V264.62L226.557 264.272V266.168H228.285V266.936H226.557Z" fill="black"/>
<path d="M229.452 270.968H230.688V272.204H229.452V270.968Z" fill="black"/>
<path d="M210.137 194.651H165.681C159.806 194.651 155 189.86 155 184.001V139.654C155 133.795 159.806 129.003 165.681 129.003H210.137C216.013 129.003 220.818 133.795 220.818 139.654V183.982C220.838 189.86 216.032 194.651 210.137 194.651Z" fill="#40196D"/>
<path d="M181.648 162.081C181.019 162.081 180.469 162.061 179.92 162.081C179.448 162.1 179.075 161.708 179.075 161.316C179.075 160.884 179.429 160.551 179.92 160.551C180.469 160.551 181.039 160.551 181.628 160.551C181.314 159.982 181.019 159.472 180.725 158.942C180.568 158.668 180.587 158.393 180.764 158.158C180.96 157.903 181.216 157.805 181.53 157.863C181.824 157.922 182.021 158.079 182.158 158.334C182.433 158.805 182.688 159.276 182.983 159.786C183.199 159.433 183.376 159.099 183.572 158.766C183.67 158.589 183.768 158.413 183.866 158.236C184.102 157.844 184.554 157.726 184.907 157.922C185.28 158.138 185.398 158.57 185.162 158.982C184.927 159.413 184.691 159.825 184.456 160.237C184.416 160.315 184.377 160.394 184.298 160.531C184.613 160.531 184.888 160.531 185.162 160.531C185.477 160.531 185.791 160.512 186.085 160.531C186.517 160.551 186.812 160.884 186.812 161.296C186.792 161.708 186.478 162.061 186.066 162.061C185.575 162.061 185.104 162.061 184.613 162.061C184.514 162.061 184.416 162.061 184.24 162.061C184.554 162.611 184.829 163.101 185.104 163.591C185.261 163.846 185.3 164.121 185.143 164.396C184.848 164.925 184.161 164.945 183.827 164.435C183.572 164.023 183.336 163.591 183.101 163.179C183.042 163.081 183.002 163.003 182.904 162.866C182.806 163.042 182.708 163.199 182.629 163.356C182.413 163.709 182.217 164.082 182.001 164.435C181.765 164.807 181.333 164.925 181 164.729C180.607 164.513 180.489 164.082 180.705 163.689C181.039 163.16 181.333 162.65 181.648 162.081Z" fill="white"/>
<path d="M172.753 162.081C172.144 162.081 171.594 162.061 171.045 162.081C170.554 162.12 170.2 161.689 170.2 161.316C170.2 160.884 170.554 160.551 171.045 160.531C171.594 160.531 172.164 160.531 172.773 160.531C172.458 160.002 172.164 159.511 171.909 159.001C171.81 158.805 171.771 158.53 171.83 158.315C171.889 158.02 172.144 157.863 172.439 157.824C172.773 157.785 173.047 157.903 173.224 158.197C173.479 158.609 173.715 159.04 173.951 159.452C174.01 159.55 174.049 159.629 174.127 159.747C174.422 159.237 174.697 158.766 174.972 158.295C175.247 157.824 175.679 157.687 176.052 157.903C176.444 158.118 176.523 158.589 176.287 159.04C176.013 159.511 175.738 159.982 175.443 160.512C176.052 160.512 176.621 160.512 177.171 160.512C177.74 160.512 178.074 160.963 177.917 161.492C177.819 161.806 177.524 162.042 177.191 162.042C176.621 162.042 176.032 162.042 175.384 162.042C175.502 162.257 175.6 162.434 175.698 162.611C175.895 162.944 176.091 163.277 176.268 163.611C176.484 164.023 176.366 164.474 175.973 164.69C175.62 164.886 175.188 164.749 174.952 164.356C174.697 163.944 174.481 163.513 174.226 163.101C174.186 163.022 174.127 162.944 174.049 162.826C173.754 163.356 173.46 163.866 173.165 164.356C172.851 164.886 172.203 164.925 171.869 164.435C171.693 164.18 171.673 163.905 171.83 163.65C172.066 163.238 172.282 162.846 172.517 162.434C172.596 162.375 172.655 162.257 172.753 162.081Z" fill="white"/>
<path d="M199.419 160.551C199.105 160.022 198.83 159.531 198.555 159.041C198.3 158.59 198.398 158.158 198.81 157.923C199.183 157.707 199.615 157.864 199.87 158.276C200.145 158.747 200.42 159.237 200.734 159.767C201.049 159.237 201.324 158.727 201.618 158.237C201.913 157.727 202.521 157.668 202.875 158.099C203.091 158.354 203.11 158.649 202.934 158.982C202.698 159.414 202.462 159.826 202.227 160.237C202.188 160.316 202.148 160.394 202.07 160.532C202.678 160.532 203.248 160.532 203.817 160.532C204.426 160.551 204.76 161.061 204.524 161.591C204.387 161.885 204.151 162.062 203.817 162.062C203.248 162.062 202.659 162.062 202.03 162.062C202.266 162.474 202.482 162.846 202.678 163.199C202.757 163.356 202.855 163.494 202.934 163.651C203.13 164.043 203.012 164.455 202.639 164.69C202.305 164.886 201.854 164.769 201.638 164.416C201.402 164.023 201.186 163.631 200.95 163.239C200.892 163.121 200.813 163.003 200.734 162.866C200.676 162.944 200.636 163.003 200.597 163.062C200.342 163.494 200.106 163.945 199.851 164.376C199.615 164.788 199.183 164.926 198.81 164.73C198.417 164.514 198.3 164.063 198.535 163.631C198.81 163.141 199.105 162.65 199.419 162.081C199.046 162.081 198.732 162.081 198.437 162.081C198.182 162.081 197.907 162.081 197.652 162.081C197.22 162.081 196.886 161.767 196.866 161.356C196.847 160.983 197.141 160.61 197.573 160.571C197.946 160.532 198.319 160.551 198.712 160.551C198.889 160.551 199.124 160.551 199.419 160.551Z" fill="white"/>
<path d="M191.859 159.786C192.173 159.237 192.468 158.727 192.743 158.236C192.919 157.942 193.214 157.805 193.528 157.864C193.862 157.923 194.117 158.138 194.137 158.472C194.156 158.668 194.097 158.884 193.999 159.08C193.744 159.57 193.469 160.041 193.155 160.571C193.351 160.571 193.508 160.571 193.665 160.571C194.097 160.571 194.51 160.571 194.942 160.571C195.393 160.59 195.727 160.924 195.708 161.355C195.708 161.767 195.354 162.101 194.903 162.101C194.333 162.101 193.764 162.101 193.135 162.101C193.371 162.513 193.587 162.885 193.803 163.258C193.881 163.395 193.96 163.533 194.039 163.69C194.235 164.082 194.117 164.494 193.744 164.729C193.41 164.925 192.959 164.827 192.723 164.455C192.468 164.023 192.212 163.592 191.977 163.14C191.937 163.062 191.879 162.983 191.8 162.866C191.486 163.395 191.211 163.905 190.916 164.396C190.602 164.906 189.974 164.945 189.64 164.474C189.444 164.219 189.444 163.945 189.601 163.65C189.836 163.219 190.092 162.787 190.327 162.356C190.367 162.277 190.425 162.199 190.484 162.062C190.033 162.062 189.64 162.062 189.228 162.062C189.051 162.062 188.855 162.062 188.678 162.062C188.266 162.062 187.932 161.728 187.912 161.336C187.892 160.963 188.187 160.59 188.58 160.551C188.874 160.512 189.188 160.531 189.483 160.531C189.797 160.531 190.111 160.531 190.484 160.531C190.17 159.982 189.876 159.472 189.601 158.962C189.346 158.472 189.581 157.962 190.111 157.824C190.425 157.746 190.759 157.903 190.956 158.256C191.27 158.766 191.545 159.256 191.859 159.786Z" fill="white"/>
<defs>
<filter id="filter0_d_46822_15723" x="14" y="62" width="350" height="376" filterUnits="userSpaceOnUse" color-interpolation-filters="sRGB">
<feFlood flood-opacity="0" result="BackgroundImageFix"/>
<feColorMatrix in="SourceAlpha" type="matrix" values="0 0 0 0 0 0 0 0 0 0 0 0 0 0 0 0 0 0 127 0" result="hardAlpha"/>
<feOffset/>
<feGaussianBlur stdDeviation="12.5"/>
<feColorMatrix type="matrix" values="0 0 0 0 0 0 0 0 0 0 0 0 0 0 0 0 0 0 0.06 0"/>
<feBlend mode="normal" in2="BackgroundImageFix" result="effect1_dropShadow_46822_15723"/>
<feBlend mode="normal" in="SourceGraphic" in2="effect1_dropShadow_46822_15723" result="shape"/>
</filter>
</defs>
</svg>
