<svg width="37" height="38" viewBox="0 0 37 38" fill="none" xmlns="http://www.w3.org/2000/svg">
<circle cx="18.5" cy="18.7012" r="18.5" fill="#DFE3FF"/>
<path d="M11.7793 21.9739C11.7848 21.1094 12.115 20.3707 12.7479 19.7629C13.4137 19.1133 14.0961 18.4741 14.7675 17.8349C15.0207 17.5939 15.3453 17.6043 15.5435 17.8453C15.681 18.013 15.681 18.2278 15.5435 18.4007C15.5049 18.4479 15.4609 18.495 15.4169 18.5369C14.729 19.1971 14.0246 19.8415 13.3532 20.5174C12.4837 21.4028 12.5607 22.7441 13.4963 23.5667C14.3713 24.3421 15.7746 24.3578 16.6826 23.4776C17.4255 22.7546 18.1905 22.0525 18.9389 21.3295C19.8579 20.444 19.869 19.1499 18.9664 18.2383C18.8289 18.0968 18.7793 17.9397 18.8399 17.7563C18.9004 17.5781 19.038 17.4786 19.2306 17.4419C19.3902 17.4105 19.5333 17.4629 19.6433 17.5677C20.4028 18.3116 20.7164 19.1971 20.5679 20.224C20.4688 20.9261 20.1276 21.5181 19.5993 22.0158C18.8619 22.7127 18.141 23.42 17.4035 24.1063C16.402 25.0389 15.2243 25.2904 13.898 24.866C12.7534 24.4993 11.8729 23.3728 11.8013 22.2254C11.7903 22.1468 11.7848 22.0577 11.7793 21.9739Z" fill="#40196D"/>
<path fill-rule="evenodd" clip-rule="evenodd" d="M19.4493 17.7693C19.397 17.7201 19.3441 17.7051 19.285 17.7167L19.2832 17.717C19.1677 17.739 19.1271 17.7832 19.1057 17.8453C19.0912 17.8896 19.0933 17.9178 19.0991 17.9387C19.1056 17.9622 19.1225 17.9968 19.1667 18.0424C20.1769 19.0638 20.1658 20.5366 19.1335 21.5312C18.775 21.8774 18.4228 22.2096 18.0722 22.5402C17.6742 22.9156 17.2783 23.2889 16.8782 23.6783L16.8778 23.6787C15.8625 24.6629 14.2934 24.6466 13.3113 23.7766C12.261 22.8528 12.1666 21.3264 13.1537 20.3213L13.1548 20.3201L13.1548 20.3201C13.6054 19.8665 14.0735 19.4244 14.5378 18.9858C14.7681 18.7683 14.9975 18.5517 15.2233 18.335L15.2241 18.3342L15.2241 18.3342C15.2597 18.3003 15.2952 18.2623 15.3256 18.2252C15.3822 18.1532 15.3786 18.0855 15.3273 18.023L15.5437 17.8454L15.3274 18.0232C15.2771 17.9619 15.2217 17.9403 15.1711 17.9394C15.1181 17.9384 15.0425 17.96 14.9609 18.0377C14.7683 18.2211 14.5752 18.4041 14.3821 18.587C13.9 19.0439 13.418 19.5006 12.9437 19.9634L12.9421 19.9649L12.9421 19.9649C12.3636 20.5205 12.0671 21.1848 12.0597 21.9659C12.0651 22.0492 12.07 22.1231 12.0789 22.1866L12.0804 22.1973L12.0811 22.208C12.1452 23.237 12.9457 24.2668 13.9837 24.5994C15.2166 24.9939 16.2879 24.7628 17.213 23.9014L17.213 23.9014C17.6426 23.5016 18.063 23.098 18.4861 22.6919C18.7903 22.3999 19.0959 22.1066 19.4073 21.8124L19.4076 21.8121C19.8969 21.351 20.202 20.8147 20.2909 20.1849L20.291 20.1839C20.4261 19.2504 20.1468 18.4535 19.4493 17.7693ZM19.1785 17.1669C19.4374 17.1165 19.6696 17.2058 19.8367 17.3649L19.8396 17.3677L19.8396 17.3677C20.6595 18.171 21.0071 19.1443 20.8453 20.2636C20.736 21.0377 20.3588 21.6853 19.7917 22.2196C19.4881 22.5064 19.1845 22.7978 18.8804 23.0897C18.4531 23.4999 18.0248 23.9109 17.5946 24.3113C16.5166 25.3151 15.2326 25.587 13.813 25.1327L13.8129 25.1327C12.565 24.7329 11.6064 23.5155 11.5228 22.2534C11.5118 22.1712 11.506 22.0822 11.5012 22.0081C11.5009 22.0028 11.5005 21.9975 11.5002 21.9923L11.4995 21.9823L11.4996 21.9722C11.5056 21.0289 11.8691 20.2193 12.5534 19.5618C13.0306 19.0962 13.5169 18.6354 13.9999 18.1776C14.1923 17.9953 14.3842 17.8135 14.5747 17.6321C14.7462 17.4689 14.9595 17.3752 15.1817 17.3794C15.4063 17.3837 15.6123 17.4878 15.7601 17.6676L15.7602 17.6678C15.9838 17.9402 15.9804 18.3018 15.7628 18.5751L15.7606 18.5779L15.7606 18.5779C15.7144 18.6345 15.6625 18.69 15.6106 18.7394C15.378 18.9627 15.1452 19.1825 14.9134 19.4014C14.4534 19.8359 13.9971 20.2668 13.5527 20.7142C12.8015 21.4798 12.8613 22.6353 13.6815 23.3564L13.6823 23.3571C14.4501 24.0376 15.6872 24.0526 16.4878 23.2768C16.8798 22.8953 17.2887 22.5095 17.6962 22.125C18.0509 21.7904 18.4044 21.4569 18.7447 21.1281L18.7449 21.1279C19.5504 20.3519 19.5615 19.2372 18.7677 18.4353L18.766 18.4336L18.766 18.4336C18.6731 18.3381 18.5967 18.2236 18.5592 18.0874C18.521 17.9487 18.5286 17.8069 18.5742 17.6686L18.575 17.6662L18.575 17.6662C18.6748 17.3727 18.9095 17.2181 19.1785 17.1669Z" fill="#40196D"/>
<path d="M22.1914 12.28C23.5342 12.2957 24.8385 13.3017 25.1466 14.7635C25.3558 15.7642 25.1191 16.681 24.3817 17.4355C23.6773 18.1585 22.9289 18.8449 22.197 19.5417C21.9823 19.746 21.6852 19.7408 21.487 19.5469C21.2944 19.3583 21.2999 19.0806 21.5091 18.8815C22.1859 18.2371 22.8628 17.5927 23.5397 16.9482C23.991 16.5186 24.2441 16.0052 24.2386 15.3922C24.2276 14.5015 23.7874 13.8518 22.9729 13.4379C22.1309 13.0135 21.1073 13.1498 20.4249 13.7837C19.5774 14.5644 18.741 15.3503 17.932 16.1676C17.1671 16.9378 17.1836 18.2004 17.921 18.9916C17.9705 19.0492 18.0256 19.1016 18.0751 19.1592C18.2347 19.3478 18.2237 19.5993 18.0421 19.7775C17.8825 19.9399 17.5908 19.9608 17.4037 19.8089C17.1285 19.5888 16.9139 19.3112 16.7598 19.002C16.226 17.9542 16.2645 16.9168 16.9029 15.9161C17.0295 15.717 17.1946 15.5336 17.3652 15.366C18.1081 14.6482 18.8565 13.9304 19.605 13.2231C20.2598 12.6101 21.0413 12.28 22.1914 12.28Z" fill="#40196D"/>
<path fill-rule="evenodd" clip-rule="evenodd" d="M19.797 13.427C19.05 14.133 18.3028 14.8496 17.5608 15.5665C17.3975 15.727 17.2495 15.8931 17.1394 16.0663C16.5554 16.9818 16.5199 17.9138 17.0095 18.8749L17.0106 18.8771C17.1483 19.1533 17.3382 19.3978 17.5788 19.5902L17.5804 19.5915C17.6554 19.6524 17.7841 19.6407 17.8426 19.5812L17.8462 19.5775C17.9243 19.5008 17.925 19.4156 17.8621 19.3408C17.8429 19.3185 17.8219 19.2962 17.7953 19.2683L17.7934 19.2663C17.7695 19.2412 17.7408 19.2109 17.7126 19.1784C16.8825 18.2836 16.8577 16.8523 17.7334 15.9704C18.5468 15.1486 19.3869 14.3593 20.2354 13.5777L20.4251 13.7837L20.2346 13.5785C21.005 12.8628 22.1554 12.7122 23.0991 13.1878C23.5412 13.4125 23.8965 13.7089 24.1415 14.0828C24.3872 14.4578 24.5127 14.8962 24.5188 15.3887C24.5251 16.0912 24.2311 16.6769 23.733 17.151L21.7023 19.0843C21.6447 19.1392 21.6285 19.1908 21.6275 19.2263C21.6265 19.2608 21.6388 19.3034 21.6831 19.3468M19.797 13.427C20.3954 12.8672 21.1061 12.5603 22.19 12.56C23.4015 12.575 24.5919 13.4887 24.8728 14.821C25.0638 15.7352 24.8503 16.5557 24.1817 17.2398C23.6578 17.7775 23.1105 18.2937 22.5592 18.8136C22.3744 18.9879 22.1891 19.1627 22.0041 19.3389C21.8961 19.4417 21.7709 19.4326 21.6831 19.3468M19.4138 13.0187C20.1248 12.3531 20.9765 12 22.1917 12H22.1949C23.6684 12.0172 25.0855 13.1151 25.4209 14.7057C25.648 15.7927 25.3884 16.8062 24.5825 17.6309C24.0496 18.1779 23.4902 18.7054 22.9368 19.2274C22.7536 19.4002 22.571 19.5724 22.3902 19.7445C22.069 20.0503 21.5998 20.0488 21.2914 19.747C21.1432 19.6019 21.0619 19.4112 21.0677 19.21C21.0736 19.0098 21.1647 18.823 21.3162 18.6787L23.3469 16.7454C23.7512 16.3605 23.9634 15.9184 23.9588 15.3951C23.9539 14.9972 23.8538 14.6656 23.6731 14.3897C23.4916 14.1127 23.2189 13.877 22.8467 13.6877C22.1066 13.3149 21.21 13.4367 20.6157 13.9888L20.6149 13.9896C19.7685 14.7693 18.9357 15.5518 18.1312 16.3645C17.4785 17.0217 17.4851 18.113 18.126 18.8006L18.1337 18.8089C18.1532 18.8315 18.1743 18.8541 18.2012 18.8825L18.203 18.8844C18.228 18.9107 18.2583 18.9425 18.2877 18.9767L18.2891 18.9783C18.5442 19.2799 18.5232 19.6963 18.2401 19.9756C17.9793 20.2389 17.5268 20.2686 17.2282 20.0269C16.9192 19.7796 16.6803 19.4694 16.51 19.128C15.9326 17.9939 15.9745 16.8512 16.6669 15.7657C16.8098 15.541 16.9916 15.3407 17.1691 15.1662L17.1708 15.1646C17.9142 14.4463 18.6634 13.7278 19.4129 13.0196L19.4138 13.0187Z" fill="#40196D"/>
</svg>
