<svg width="41" height="40" viewBox="0 0 41 40" fill="none" xmlns="http://www.w3.org/2000/svg">
<circle cx="20.5" cy="20" r="20" fill="#DCFFEC"/>
<path d="M18.7416 24.5117H16.5216L22.7016 13.9367H24.9216L18.7416 24.5117ZM16.7466 20.2367C15.8466 20.2367 15.1466 19.9417 14.6466 19.3517C14.1466 18.7517 13.8966 17.9617 13.8966 16.9817C13.8966 15.9917 14.1466 15.2117 14.6466 14.6417C15.1566 14.0617 15.8566 13.7717 16.7466 13.7717C17.6366 13.7717 18.3316 14.0667 18.8316 14.6567C19.3316 15.2467 19.5816 16.0217 19.5816 16.9817C19.5816 17.9617 19.3316 18.7517 18.8316 19.3517C18.3316 19.9417 17.6366 20.2367 16.7466 20.2367ZM16.7466 18.6167C16.9766 18.6167 17.1516 18.4967 17.2716 18.2567C17.4016 18.0067 17.4666 17.5817 17.4666 16.9817C17.4666 16.3817 17.4016 15.9667 17.2716 15.7367C17.1416 15.5067 16.9666 15.3917 16.7466 15.3917C16.5066 15.3917 16.3266 15.5017 16.2066 15.7217C16.0866 15.9417 16.0266 16.3617 16.0266 16.9817C16.0266 17.6017 16.0866 18.0317 16.2066 18.2717C16.3266 18.5017 16.5066 18.6167 16.7466 18.6167ZM24.6966 24.6767C23.8066 24.6767 23.1116 24.3817 22.6116 23.7917C22.1116 23.1917 21.8616 22.4017 21.8616 21.4217C21.8616 20.4317 22.1116 19.6517 22.6116 19.0817C23.1216 18.5017 23.8166 18.2117 24.6966 18.2117C25.5966 18.2117 26.2916 18.5067 26.7816 19.0967C27.2816 19.6867 27.5316 20.4617 27.5316 21.4217C27.5316 22.4017 27.2816 23.1917 26.7816 23.7917C26.2916 24.3817 25.5966 24.6767 24.6966 24.6767ZM24.6966 23.0567C24.9366 23.0567 25.1166 22.9367 25.2366 22.6967C25.3566 22.4467 25.4166 22.0217 25.4166 21.4217C25.4166 20.8217 25.3516 20.4067 25.2216 20.1767C25.1016 19.9467 24.9266 19.8317 24.6966 19.8317C24.4666 19.8317 24.2866 19.9467 24.1566 20.1767C24.0366 20.3967 23.9766 20.8117 23.9766 21.4217C23.9766 22.0417 24.0366 22.4717 24.1566 22.7117C24.2866 22.9417 24.4666 23.0567 24.6966 23.0567Z" fill="#48D38A"/>
</svg>
