<svg width="431" height="546" viewBox="0 0 431 546" fill="none" xmlns="http://www.w3.org/2000/svg">
<rect width="375" height="812" transform="translate(27 27)" fill="white"/>
<g clip-path="url(#clip0)">
<rect width="375" height="812" transform="translate(27 27)" fill="white"/>
<g filter="url(#filter0_d)">
<rect x="42" y="106" width="345" height="352" rx="15" fill="white"/>
<path d="M440.707 421.123H-10V421.348H440.707V421.123Z" fill="#EBEBEB"/>
<path d="M395.546 435.627H365.691V435.852H395.546V435.627Z" fill="#EBEBEB"/>
<path d="M288.566 438.078H280.732V438.303H288.566V438.078Z" fill="#EBEBEB"/>
<path d="M364.79 427.262H347.492V427.487H364.79V427.262Z" fill="#EBEBEB"/>
<path d="M76.2192 428.776H37.2871V429.002H76.2192V428.776Z" fill="#EBEBEB"/>
<path d="M89.956 428.776H84.25V429.002H89.956V428.776Z" fill="#EBEBEB"/>
<path d="M192.954 432.58H108.51V432.805H192.954V432.58Z" fill="#EBEBEB"/>
<path d="M203.635 380.92H29.5814C28.2179 380.917 26.911 380.374 25.9477 379.409C24.9844 378.444 24.4434 377.136 24.4434 375.773V131.102C24.4552 129.746 25.0015 128.45 25.9635 127.495C26.9256 126.539 28.2257 126.002 29.5814 126H203.635C205.001 126 206.31 126.542 207.275 127.508C208.24 128.473 208.783 129.782 208.783 131.147V375.773C208.783 377.138 208.24 378.447 207.275 379.412C206.31 380.378 205.001 380.92 203.635 380.92ZM29.5814 126.18C28.2777 126.183 27.0281 126.702 26.1071 127.625C25.186 128.548 24.6687 129.798 24.6687 131.102V375.773C24.6687 377.077 25.186 378.327 26.1071 379.25C27.0281 380.173 28.2777 380.692 29.5814 380.694H203.635C204.94 380.692 206.191 380.173 207.113 379.25C208.035 378.328 208.555 377.077 208.557 375.773V131.102C208.555 129.797 208.035 128.547 207.113 127.624C206.191 126.702 204.94 126.183 203.635 126.18H29.5814Z" fill="#EBEBEB"/>
<path d="M398.62 380.92H224.557C223.193 380.917 221.885 380.374 220.92 379.41C219.956 378.445 219.413 377.137 219.41 375.773V131.102C219.424 129.745 219.973 128.449 220.936 127.494C221.9 126.539 223.201 126.002 224.557 126H398.62C399.974 126.005 401.272 126.543 402.232 127.498C403.192 128.453 403.737 129.748 403.749 131.102V375.773C403.749 377.135 403.21 378.441 402.248 379.406C401.287 380.371 399.982 380.915 398.62 380.92ZM224.557 126.18C223.253 126.183 222.002 126.702 221.08 127.624C220.157 128.547 219.638 129.797 219.636 131.102V375.773C219.638 377.077 220.157 378.328 221.08 379.25C222.002 380.173 223.253 380.692 224.557 380.694H398.62C399.925 380.692 401.175 380.173 402.098 379.25C403.02 378.328 403.54 377.077 403.542 375.773V131.102C403.54 129.797 403.02 128.547 402.098 127.624C401.175 126.702 399.925 126.183 398.62 126.18H224.557Z" fill="#EBEBEB"/>
<path d="M151.48 295.187H360.328V156.306L151.48 156.306L151.48 295.187Z" fill="#E6E6E6"/>
<path d="M148.243 295.187H357.092V156.306L148.243 156.306L148.243 295.187Z" fill="#F5F5F5"/>
<path d="M351.287 288.66V162.813H154.04V288.66H351.287Z" fill="white"/>
<path d="M156.492 288.67V162.823H154.049V288.67H156.492Z" fill="#E6E6E6"/>
<path d="M150.64 258.291H354.693V249.538L150.64 249.538V258.291Z" fill="#F5F5F5"/>
<g opacity="0.4">
<path opacity="0.4" d="M161.476 149.446H141.762V266.937H161.476V149.446Z" fill="#E6E6E6"/>
<path opacity="0.4" d="M161.485 257.498H171.256V149.446H161.485V257.498Z" fill="#F5F5F5"/>
<path opacity="0.4" d="M190.97 149.445H171.256V266.936H190.97V149.445Z" fill="#E6E6E6"/>
<path opacity="0.4" d="M190.981 257.498H200.752V149.446H190.981V257.498Z" fill="#F5F5F5"/>
<path opacity="0.4" d="M220.466 149.445H200.752V266.936H220.466V149.445Z" fill="#E6E6E6"/>
<path opacity="0.4" d="M220.473 257.498H230.244V149.446H220.473V257.498Z" fill="#F5F5F5"/>
<path opacity="0.4" d="M249.958 149.445H230.244V266.936H249.958V149.445Z" fill="#E6E6E6"/>
<path opacity="0.4" d="M249.967 257.498H259.738V149.446H249.967V257.498Z" fill="#F5F5F5"/>
<path opacity="0.4" d="M279.452 149.445H259.738V266.936H279.452V149.445Z" fill="#E6E6E6"/>
<path opacity="0.4" d="M279.451 257.498H289.223V149.446H279.451V257.498Z" fill="#F5F5F5"/>
<path opacity="0.4" d="M308.937 149.445H289.223V266.936H308.937V149.445Z" fill="#E6E6E6"/>
<path opacity="0.4" d="M308.947 257.498H318.719V149.446H308.947V257.498Z" fill="#F5F5F5"/>
<path opacity="0.4" d="M338.433 149.445H318.719V266.936H338.433V149.445Z" fill="#E6E6E6"/>
<path opacity="0.4" d="M338.442 257.498H348.213V149.446H338.442V257.498Z" fill="#F5F5F5"/>
<path opacity="0.4" d="M367.927 149.445H348.213V266.936H367.927V149.445Z" fill="#E6E6E6"/>
</g>
<path d="M64.6278 421.123H110.861L110.861 326.114H64.6278L64.6278 421.123Z" fill="#EBEBEB"/>
<path d="M73.4087 421.123H64.6289V401.77H82.6211L73.4087 421.123Z" fill="#F5F5F5"/>
<path d="M328.417 421.123H374.65V326.114H328.417V421.123Z" fill="#EBEBEB"/>
<path d="M64.6303 409.251L336.082 409.251V326.114H64.6303V409.251Z" fill="#F5F5F5"/>
<path d="M327.056 385.797H246.587C246.391 385.797 246.203 385.719 246.064 385.58C245.926 385.441 245.848 385.254 245.848 385.057V332.424C245.848 332.228 245.926 332.04 246.064 331.901C246.203 331.763 246.391 331.685 246.587 331.685H261.442C261.601 331.681 261.757 331.732 261.884 331.829C264.092 333.443 266.541 334.7 269.14 335.552C272.274 336.59 275.556 337.113 278.857 337.102H294.776C300.866 337.209 306.831 335.371 311.804 331.856C311.928 331.761 312.08 331.71 312.237 331.712H327.101C327.297 331.712 327.485 331.79 327.624 331.928C327.762 332.067 327.84 332.255 327.84 332.451V385.057C327.84 385.158 327.82 385.258 327.78 385.351C327.74 385.444 327.682 385.527 327.608 385.597C327.535 385.666 327.448 385.719 327.353 385.754C327.258 385.788 327.157 385.803 327.056 385.797ZM247.326 384.318H326.317V333.19H312.435C307.26 336.797 301.084 338.688 294.776 338.599H278.857C275.396 338.61 271.956 338.059 268.671 336.967C266.005 336.092 263.489 334.815 261.208 333.181H247.326V384.318Z" fill="#E6E6E6"/>
<path d="M240.592 385.797H160.114C159.918 385.797 159.73 385.719 159.591 385.58C159.453 385.441 159.375 385.254 159.375 385.057V332.424C159.375 332.228 159.453 332.04 159.591 331.901C159.73 331.763 159.918 331.685 160.114 331.685H174.167C174.327 331.681 174.482 331.732 174.609 331.829C176.801 333.442 179.235 334.699 181.82 335.552C184.954 336.59 188.236 337.113 191.537 337.102H207.456C213.525 337.192 219.464 335.344 224.412 331.829C224.54 331.735 224.695 331.684 224.854 331.685H240.592C240.69 331.684 240.786 331.702 240.877 331.739C240.967 331.775 241.049 331.83 241.118 331.899C241.187 331.967 241.241 332.049 241.278 332.14C241.314 332.23 241.333 332.326 241.332 332.424V385.03C241.335 385.13 241.319 385.229 241.283 385.322C241.248 385.414 241.194 385.499 241.125 385.571C241.056 385.642 240.973 385.699 240.882 385.738C240.79 385.777 240.692 385.797 240.592 385.797ZM160.862 384.318H239.853V333.19H225.142C219.973 336.795 213.803 338.687 207.501 338.599H191.583C188.121 338.61 184.681 338.059 181.397 336.967C178.725 336.098 176.205 334.821 173.924 333.181H160.853L160.862 384.318Z" fill="#E6E6E6"/>
<path d="M154.121 385.797H73.6513C73.4553 385.797 73.2673 385.719 73.1287 385.58C72.99 385.441 72.9122 385.254 72.9122 385.057V332.424C72.911 332.326 72.9292 332.23 72.966 332.14C73.0027 332.049 73.0571 331.967 73.126 331.899C73.1948 331.83 73.2768 331.775 73.367 331.739C73.4573 331.702 73.5539 331.684 73.6513 331.685H87.7044C87.8607 331.683 88.0132 331.734 88.137 331.829C90.3315 333.439 92.7648 334.695 95.3484 335.552C98.4857 336.59 101.77 337.113 105.075 337.102H120.994C127.068 337.19 133.012 335.344 137.967 331.829C138.094 331.732 138.25 331.681 138.409 331.685H154.075C154.272 331.685 154.46 331.763 154.598 331.901C154.737 332.04 154.815 332.228 154.815 332.424V385.03C154.822 385.223 154.754 385.412 154.624 385.555C154.494 385.698 154.313 385.785 154.121 385.797ZM74.3905 384.318H153.381V333.19H138.733C133.561 336.795 127.388 338.687 121.084 338.599H105.12C101.658 338.611 98.218 338.06 94.9337 336.967C92.2625 336.098 89.7418 334.821 87.461 333.181H74.3905V384.318Z" fill="#E6E6E6"/>
<path d="M327.301 421.123H336.081V401.77H318.098L327.301 421.123Z" fill="#F5F5F5"/>
<path d="M119.749 310.196H112.456C112.51 305.148 112.456 292.329 111.943 262.97C111.041 209.787 109.355 206.506 109.355 206.506L118 232.773C120.053 238.951 121.248 245.381 121.552 251.883C122.507 272.363 118.901 288.715 119.749 310.196Z" fill="#E6E6E6"/>
<path d="M125.293 224.849C135.019 210.129 154.435 202.449 174.284 195.22C182.073 192.38 160.204 227.598 144.303 243.571C131.954 255.975 119.965 255.695 116.423 267.91C115.738 253.721 116.909 237.532 125.293 224.849Z" fill="#E6E6E6"/>
<path d="M114.152 215.402C106.526 198.185 87.2629 175.857 65.6109 160.127C57.1106 153.953 78.0865 207.001 92.8787 228.689C104.399 245.599 115.144 255.894 116.82 267.954C124.086 252.865 121.769 232.61 114.152 215.402Z" fill="#E6E6E6"/>
<path d="M114.875 326.114C118.997 326.113 122.963 324.536 125.96 321.705C128.957 318.875 130.757 315.005 130.992 310.889L132.425 296.295H97.3242L98.7485 310.889C98.9855 315.005 100.788 318.875 103.786 321.706C106.784 324.537 110.751 326.114 114.875 326.114Z" fill="#F0F0F0"/>
<path d="M95.0498 296.376H134.694L135.83 291.192H93.9141L95.0498 296.376Z" fill="#F0F0F0"/>
<path d="M97.0042 305.264H132.736L133.764 300.081H95.9766L97.0042 305.264Z" fill="#F0F0F0"/>
<path d="M316.747 357.141H145.586C145.053 357.145 144.524 357.038 144.034 356.828C143.544 356.617 143.103 356.307 142.739 355.917C142.375 355.528 142.095 355.067 141.918 354.564C141.741 354.061 141.67 353.526 141.71 352.994L148.759 241.138C148.848 240.023 149.349 238.981 150.164 238.215C150.978 237.448 152.049 237.012 153.167 236.991H324.318C324.852 236.987 325.38 237.094 325.87 237.305C326.36 237.515 326.801 237.825 327.166 238.215C327.53 238.604 327.809 239.065 327.987 239.568C328.164 240.072 328.234 240.606 328.195 241.138L321.145 352.994C321.056 354.108 320.557 355.148 319.744 355.914C318.932 356.68 317.863 357.118 316.747 357.141Z" fill="#263238"/>
<path opacity="0.6" d="M316.747 357.141H145.586C145.053 357.145 144.524 357.038 144.034 356.828C143.544 356.617 143.103 356.307 142.739 355.917C142.375 355.528 142.095 355.067 141.918 354.564C141.741 354.061 141.67 353.526 141.71 352.994L148.759 241.138C148.848 240.023 149.349 238.981 150.164 238.215C150.978 237.448 152.049 237.012 153.167 236.991H324.318C324.852 236.987 325.38 237.094 325.87 237.305C326.36 237.515 326.801 237.825 327.166 238.215C327.53 238.604 327.809 239.065 327.987 239.568C328.164 240.072 328.234 240.606 328.195 241.138L321.145 352.994C321.056 354.108 320.557 355.148 319.744 355.914C318.932 356.68 317.863 357.118 316.747 357.141Z" fill="black"/>
<path d="M315.463 357.141H144.312C143.778 357.146 143.248 357.04 142.757 356.83C142.266 356.62 141.824 356.311 141.459 355.921C141.093 355.531 140.813 355.07 140.636 354.566C140.458 354.062 140.387 353.527 140.427 352.994L147.476 241.138C147.565 240.023 148.066 238.981 148.88 238.215C149.695 237.449 150.766 237.012 151.884 236.991H323.035C323.569 236.986 324.098 237.092 324.589 237.302C325.079 237.512 325.521 237.822 325.886 238.212C326.25 238.602 326.53 239.063 326.706 239.567C326.883 240.071 326.953 240.606 326.911 241.138L319.862 352.994C319.773 354.108 319.274 355.148 318.461 355.914C317.648 356.681 316.58 357.118 315.463 357.141Z" fill="#263238"/>
<path opacity="0.6" d="M315.249 358.565H286.286C285.356 358.562 284.443 358.822 283.654 359.315C282.864 359.808 282.23 360.513 281.824 361.351C281.72 361.569 281.673 361.81 281.688 362.051C281.703 362.292 281.779 362.525 281.909 362.729C282.038 362.933 282.218 363.1 282.43 363.216C282.643 363.331 282.881 363.39 283.122 363.388H318.404C318.646 363.392 318.885 363.333 319.099 363.219C319.312 363.104 319.493 362.937 319.624 362.733C319.755 362.529 319.831 362.295 319.847 362.053C319.862 361.811 319.815 361.57 319.711 361.351C319.304 360.514 318.67 359.809 317.88 359.316C317.091 358.824 316.179 358.563 315.249 358.565Z" fill="black"/>
<path d="M297.291 362.081H289.809C289.636 362.078 289.471 362.008 289.35 361.885C289.228 361.762 289.16 361.596 289.16 361.423C289.16 361.25 289.228 361.084 289.35 360.961C289.471 360.837 289.636 360.767 289.809 360.765H297.291C297.377 360.765 297.463 360.782 297.543 360.815C297.623 360.848 297.695 360.896 297.756 360.957C297.817 361.018 297.866 361.091 297.899 361.171C297.932 361.251 297.949 361.336 297.949 361.423C297.949 361.509 297.932 361.595 297.899 361.675C297.866 361.754 297.817 361.827 297.756 361.888C297.695 361.949 297.623 361.998 297.543 362.031C297.463 362.064 297.377 362.081 297.291 362.081Z" fill="#034EA2"/>
<path opacity="0.7" d="M201.084 362.081H193.611C193.437 362.081 193.269 362.011 193.146 361.888C193.022 361.765 192.953 361.597 192.953 361.423C192.953 361.336 192.97 361.251 193.003 361.171C193.036 361.091 193.085 361.018 193.146 360.957C193.207 360.896 193.28 360.848 193.359 360.815C193.439 360.782 193.525 360.765 193.611 360.765H201.084C201.17 360.765 201.256 360.782 201.336 360.815C201.416 360.848 201.488 360.896 201.549 360.957C201.61 361.018 201.659 361.091 201.692 361.171C201.725 361.251 201.742 361.336 201.742 361.423C201.742 361.597 201.673 361.765 201.549 361.888C201.426 362.011 201.258 362.081 201.084 362.081Z" fill="white"/>
<path d="M305.035 360.765H300.14C299.842 360.765 299.6 361.007 299.6 361.306V361.54C299.6 361.839 299.842 362.081 300.14 362.081H305.035C305.334 362.081 305.576 361.839 305.576 361.54V361.306C305.576 361.007 305.334 360.765 305.035 360.765Z" fill="#034EA2"/>
<path d="M144.285 348.956L150.829 245.176C150.862 244.743 151.057 244.338 151.374 244.041C151.691 243.745 152.107 243.577 152.541 243.571H321.548C321.755 243.568 321.96 243.608 322.151 243.689C322.341 243.77 322.513 243.89 322.655 244.041C322.797 244.192 322.905 244.371 322.974 244.566C323.042 244.762 323.069 244.97 323.053 245.176L316.518 348.956C316.482 349.389 316.286 349.794 315.967 350.091C315.649 350.388 315.231 350.555 314.796 350.56H145.799C145.592 350.562 145.387 350.521 145.196 350.44C145.006 350.358 144.834 350.239 144.692 350.088C144.55 349.938 144.44 349.759 144.37 349.564C144.3 349.37 144.271 349.162 144.285 348.956Z" fill="white"/>
<path opacity="0.1" d="M240.43 240.372L184.137 347.37H142.609C142.401 347.373 142.194 347.333 142.002 347.251C141.81 347.17 141.638 347.05 141.495 346.898C141.353 346.746 141.243 346.566 141.174 346.369C141.105 346.173 141.078 345.964 141.094 345.756L147.639 241.986C147.672 241.552 147.866 241.146 148.183 240.848C148.5 240.549 148.916 240.38 149.351 240.372H240.43Z" fill="#034EA2"/>
<path opacity="0.1" d="M289.728 240.372L233.435 347.37H220.311L276.604 240.372H289.728Z" fill="#034EA2"/>
<path opacity="0.1" d="M319.865 241.985L313.32 345.756C313.289 346.19 313.095 346.597 312.778 346.896C312.461 347.195 312.043 347.364 311.608 347.369H247.607L303.901 240.372H318.323C318.533 240.366 318.742 240.405 318.937 240.485C319.131 240.565 319.307 240.685 319.452 240.837C319.597 240.989 319.709 241.169 319.78 241.367C319.851 241.565 319.88 241.775 319.865 241.985Z" fill="#034EA2"/>
<path opacity="0.4" d="M238.454 240.48C238.429 240.807 238.283 241.113 238.045 241.338C237.806 241.563 237.493 241.691 237.165 241.697C237.008 241.698 236.853 241.667 236.709 241.606C236.565 241.544 236.435 241.453 236.328 241.339C236.222 241.224 236.14 241.089 236.088 240.941C236.037 240.793 236.016 240.636 236.029 240.48C236.052 240.152 236.197 239.845 236.436 239.619C236.675 239.394 236.99 239.267 237.318 239.263C237.475 239.261 237.63 239.292 237.774 239.354C237.918 239.415 238.048 239.506 238.154 239.621C238.261 239.735 238.343 239.871 238.395 240.019C238.446 240.167 238.466 240.324 238.454 240.48Z" fill="white"/>
<path d="M210.53 215.591C205.599 221.234 202.751 238.532 206.402 247.042C210.052 255.551 167.695 264.069 202.643 277.897C237.59 291.725 265.543 275.689 255.429 261.365C245.316 247.042 256.52 223.19 244.811 217.196C234.228 211.733 220.41 204.279 210.53 215.591Z" fill="#263238"/>
<path d="M200.085 285.244C198.237 291.554 196.272 297.864 194.235 304.174C192.197 310.483 190.079 316.721 187.835 322.986L186.978 325.348L186.546 326.529L186.41 326.88L186.194 327.412C186.059 327.755 185.851 328.124 185.671 328.476C184.79 330.085 183.475 331.416 181.876 332.316C180.425 333.104 178.804 333.531 177.153 333.56C174.837 333.571 172.541 333.12 170.401 332.235C168.649 331.524 166.953 330.683 165.326 329.72C159.416 326.085 153.999 321.704 149.209 316.685L153.094 312.106C154.401 312.944 155.798 313.837 157.15 314.675C158.503 315.513 159.918 316.325 161.288 317.127C163.973 318.698 166.744 320.116 169.59 321.373C170.887 321.944 172.224 322.417 173.592 322.788C174.538 323.102 175.538 323.218 176.531 323.13C176.783 323.13 176.738 322.986 176.531 323.067C176.324 323.148 176.098 323.383 176.089 323.356C176.08 323.329 176.089 323.356 176.089 323.302C176.093 323.284 176.093 323.265 176.089 323.247L176.161 323.022L176.504 321.859L177.198 319.516L182.706 300.586C184.58 294.276 186.509 287.966 188.493 281.656L200.085 285.244Z" fill="#B65B52"/>
<path d="M152.812 311.962L142.338 308.086L146.493 319.155C146.493 319.155 153.885 320.219 156.752 316.334L154.417 313.206C154.012 312.646 153.455 312.214 152.812 311.962Z" fill="#B55B52"/>
<path d="M133.1 311.304L137.084 320.382L146.54 319.138L142.375 308.068L133.1 311.304Z" fill="#B55B52"/>
<path d="M192.441 268.92C187.645 270.136 184.328 289.85 184.328 289.85L197.534 298.865C197.534 298.865 210.154 278.979 206.503 273.715C202.627 268.189 199.427 267.144 192.441 268.92Z" fill="#034EA2"/>
<path opacity="0.5" d="M192.441 268.92C187.645 270.136 184.328 289.85 184.328 289.85L197.534 298.865C197.534 298.865 210.154 278.979 206.503 273.715C202.627 268.189 199.427 267.144 192.441 268.92Z" fill="white"/>
<path opacity="0.2" d="M192.006 276.086L202.255 278.457L203.238 288.489C201.501 292.031 199.585 295.482 197.496 298.829L189.482 293.42C189.834 288.778 190.699 279.241 192.006 276.086Z" fill="black"/>
<path d="M192.439 268.919C192.439 268.919 186.896 270.866 197.992 339.067H245.19C244.397 319.858 244.379 308.005 253.555 268.586C246.949 267.22 240.252 266.337 233.517 265.945C225.575 265.557 219.094 265.305 212.081 265.945C202.878 266.783 192.439 268.919 192.439 268.919Z" fill="#034EA2"/>
<path opacity="0.5" d="M192.439 268.919C192.439 268.919 186.896 270.866 197.992 339.067H245.19C244.397 319.858 244.379 308.005 253.555 268.586C246.949 267.22 240.252 266.337 233.517 265.945C225.575 265.557 219.094 265.305 212.081 265.945C202.878 266.783 192.439 268.919 192.439 268.919Z" fill="white"/>
<path opacity="0.2" d="M242.45 286.885L248.544 292.077C247.246 298.973 246.372 304.697 245.84 309.826C244.677 304.706 241.774 290.806 242.45 286.885Z" fill="black"/>
<path d="M231.388 241.805C230.036 248.701 228.684 261.338 233.516 265.945C233.516 265.945 229.008 276.275 217.065 276.275C205.121 276.275 212.08 265.945 212.08 265.945C219.769 264.142 219.571 258.4 218.237 253.045L231.388 241.805Z" fill="#B55B52"/>
<path d="M231.985 263.367C230.849 265.665 227.19 270.921 216.967 272.796C216.683 272.848 216.39 272.79 216.147 272.633C214.236 271.299 213.046 268.478 213.885 265.206C213.94 265.005 213.938 264.792 213.88 264.592C213.821 264.392 213.707 264.212 213.551 264.074C213.395 263.935 213.204 263.842 212.999 263.807C212.793 263.771 212.582 263.793 212.388 263.872C211.603 264.2 210.849 264.598 210.135 265.061C209.978 265.166 209.851 265.308 209.765 265.476C209.017 266.882 205.988 273.769 215.129 278.015C215.274 278.077 215.43 278.114 215.588 278.123C220.997 278.231 230.453 277.167 236.429 266.405C236.536 266.21 236.583 265.989 236.566 265.768C236.548 265.547 236.466 265.336 236.33 265.161C235.527 264.281 234.593 263.53 233.563 262.934C233.433 262.851 233.287 262.796 233.134 262.772C232.982 262.749 232.826 262.758 232.677 262.799C232.529 262.84 232.39 262.911 232.271 263.009C232.152 263.107 232.054 263.229 231.985 263.367Z" fill="#FAFAFA"/>
<path d="M234.492 291.743L222.323 291.392C222.196 291.393 222.07 291.367 221.953 291.315C221.837 291.264 221.733 291.188 221.648 291.094C221.563 290.999 221.498 290.888 221.459 290.767C221.42 290.646 221.407 290.518 221.421 290.391L221.539 288.886C221.574 288.633 221.701 288.401 221.895 288.235C222.089 288.069 222.338 287.98 222.593 287.985L234.762 288.336C234.89 288.335 235.017 288.362 235.134 288.413C235.251 288.465 235.356 288.542 235.441 288.637C235.527 288.733 235.591 288.845 235.629 288.967C235.667 289.09 235.679 289.219 235.664 289.346L235.547 290.842C235.511 291.095 235.385 291.327 235.19 291.493C234.996 291.659 234.748 291.748 234.492 291.743Z" fill="#FAFAFA"/>
<path opacity="0.2" d="M226.025 246.393L218.236 253.036C218.57 254.282 218.794 255.555 218.903 256.84C221.833 256.416 225.871 253.189 226.187 250.115C226.359 248.875 226.304 247.613 226.025 246.393Z" fill="black"/>
<path d="M240.474 228.762C238.302 240.093 237.626 244.933 231.1 250.044C221.283 257.742 207.843 252.586 206.599 240.841C205.472 230.267 209.213 213.519 221.022 210.418C223.609 209.731 226.33 209.715 228.925 210.373C231.521 211.03 233.905 212.339 235.853 214.176C237.801 216.013 239.248 218.317 240.057 220.869C240.865 223.422 241.009 226.138 240.474 228.762Z" fill="#B55B52"/>
<path d="M234.031 220.379C232.625 227.473 232.292 236.875 238.791 236.875C245.29 236.875 250.383 225.815 244.776 217.152C239.169 208.489 234.852 216.196 234.031 220.379Z" fill="#263238"/>
<path d="M245.261 221.253C245.261 228.969 235.543 225.156 231.244 221.83C226.944 218.503 226.737 218.864 218.768 218.855C210.8 218.846 209.204 218.296 206.851 214.492C204.499 210.688 204.715 208.182 210.015 208.984C215.316 209.787 210.863 204.378 214.811 201.377C218.759 198.375 223.437 199.132 228.837 205.983C234.236 212.834 245.261 207.885 245.261 221.253Z" fill="#263238"/>
<path d="M242.409 238.843C243.432 235.356 242.429 231.992 240.169 231.329C237.909 230.667 235.249 232.957 234.226 236.444C233.204 239.932 234.207 243.296 236.466 243.958C238.726 244.621 241.387 242.331 242.409 238.843Z" fill="white"/>
<path d="M224.367 247.565C222.274 247.565 220.204 247.139 218.282 246.312C218.241 246.296 218.203 246.271 218.172 246.239C218.141 246.208 218.116 246.171 218.099 246.13C218.082 246.088 218.074 246.044 218.074 246C218.075 245.955 218.084 245.911 218.102 245.871C218.139 245.788 218.207 245.724 218.291 245.69C218.375 245.657 218.469 245.657 218.552 245.69C220.364 246.468 222.313 246.874 224.284 246.885C226.255 246.896 228.208 246.511 230.027 245.754C231.797 245.029 233.405 243.958 234.754 242.604C236.104 241.249 237.17 239.639 237.888 237.866C240.592 230.123 243.35 220.46 240.159 214.429C239.517 213.256 238.629 212.235 237.556 211.437C236.482 210.638 235.248 210.082 233.94 209.805C233.853 209.782 233.779 209.725 233.733 209.648C233.687 209.57 233.674 209.478 233.696 209.391C233.72 209.304 233.776 209.229 233.854 209.184C233.931 209.138 234.024 209.125 234.111 209.147C235.509 209.448 236.826 210.047 237.973 210.902C239.119 211.758 240.068 212.85 240.754 214.105C244.072 220.334 241.304 230.186 238.519 238.073C237.763 239.935 236.643 241.626 235.223 243.047C233.803 244.468 232.113 245.591 230.253 246.348C228.388 247.132 226.389 247.545 224.367 247.565Z" fill="white"/>
<path opacity="0.6" d="M242.082 238.875C241.28 241.58 239.441 243.482 237.972 243.058C236.502 242.634 235.962 240.056 236.764 237.316C237.566 234.576 239.405 232.701 240.874 233.133C242.344 233.566 242.884 236.135 242.082 238.875Z" fill="#034EA2"/>
<path d="M219.216 244.821L215.685 244.14C215.064 244.02 214.463 244.426 214.344 245.047L214.304 245.25C214.185 245.871 214.591 246.472 215.212 246.591L218.743 247.273C219.364 247.393 219.964 246.986 220.084 246.366L220.123 246.162C220.243 245.541 219.837 244.941 219.216 244.821Z" fill="white"/>
<path d="M214.604 229.708C214.604 229.708 212.512 233.503 210.529 235.207C211.602 236.514 213.765 236.261 213.765 236.261L214.604 229.708Z" fill="#A02724"/>
<path d="M216.598 241.111H216.679C218.722 241.272 220.751 240.654 222.358 239.38C222.391 239.347 222.409 239.301 222.409 239.254C222.409 239.207 222.391 239.162 222.358 239.128C222.342 239.112 222.323 239.099 222.302 239.09C222.281 239.082 222.258 239.077 222.236 239.077C222.213 239.077 222.191 239.082 222.17 239.09C222.149 239.099 222.13 239.112 222.114 239.128C220.58 240.334 218.651 240.922 216.706 240.777C216.682 240.774 216.659 240.775 216.636 240.78C216.613 240.786 216.592 240.797 216.573 240.811C216.555 240.825 216.539 240.843 216.528 240.864C216.516 240.885 216.51 240.907 216.507 240.931C216.503 240.966 216.509 241.003 216.525 241.035C216.541 241.067 216.566 241.093 216.598 241.111Z" fill="#263238"/>
<path d="M226.909 225.246C226.96 225.274 227.017 225.289 227.076 225.289C227.134 225.289 227.192 225.274 227.243 225.246C227.32 225.194 227.374 225.115 227.394 225.024C227.414 224.934 227.399 224.839 227.351 224.759C226.92 224.037 226.323 223.429 225.609 222.983C224.896 222.538 224.087 222.269 223.249 222.199C223.155 222.199 223.065 222.236 222.997 222.302C222.93 222.367 222.891 222.457 222.889 222.551C222.889 222.642 222.924 222.731 222.988 222.796C223.052 222.862 223.14 222.9 223.231 222.902C223.953 222.971 224.649 223.21 225.261 223.598C225.874 223.986 226.386 224.514 226.756 225.138C226.796 225.187 226.849 225.224 226.909 225.246Z" fill="#263238"/>
<path d="M221.743 229.861C221.59 230.762 220.968 231.456 220.355 231.357C219.742 231.258 219.39 230.456 219.544 229.482C219.697 228.509 220.328 227.887 220.932 227.986C221.536 228.085 221.905 228.932 221.743 229.861Z" fill="#263238"/>
<path d="M211.233 228.077C211.08 228.978 210.458 229.672 209.845 229.573C209.232 229.474 208.881 228.627 209.034 227.698C209.187 226.77 209.818 226.094 210.422 226.202C211.026 226.31 211.396 227.139 211.233 228.077Z" fill="#263238"/>
<path d="M210.684 226.3L208.557 225.272C208.557 225.272 209.404 227.211 210.684 226.3Z" fill="#263238"/>
<path d="M221.196 228.086L219.068 227.067C219.068 227.067 219.916 229.005 221.196 228.086Z" fill="#263238"/>
<path d="M207.665 221.794C207.72 221.826 207.782 221.844 207.845 221.844C207.909 221.844 207.971 221.826 208.026 221.794C208.582 221.326 209.243 221 209.952 220.843C210.662 220.686 211.399 220.703 212.1 220.892C212.189 220.923 212.286 220.918 212.37 220.878C212.455 220.837 212.52 220.764 212.551 220.676C212.582 220.588 212.577 220.49 212.536 220.406C212.495 220.321 212.423 220.256 212.334 220.225C211.526 219.995 210.673 219.963 209.849 220.133C209.025 220.302 208.254 220.668 207.602 221.199C207.564 221.225 207.533 221.26 207.509 221.299C207.485 221.339 207.47 221.383 207.464 221.428C207.458 221.474 207.461 221.521 207.474 221.565C207.487 221.609 207.509 221.65 207.539 221.686C207.569 221.734 207.613 221.771 207.665 221.794Z" fill="#263238"/>
<path d="M196.197 350.561C196.197 350.561 196.071 344.107 198 339.068H245.189C245.189 339.068 249.435 345.919 250.534 350.561H196.197Z" fill="#034EA2"/>
<path d="M245.903 336.3L246.272 340.519C246.443 340.852 246.056 341.186 245.506 341.186H197.731C197.307 341.186 196.956 340.979 196.929 340.708L196.496 336.48C196.496 336.192 196.839 335.94 197.307 335.94H245.082C245.239 335.923 245.397 335.948 245.54 336.011C245.684 336.074 245.809 336.174 245.903 336.3Z" fill="#034EA2"/>
<path opacity="0.3" d="M245.903 336.3L246.272 340.519C246.443 340.852 246.056 341.186 245.506 341.186H197.731C197.307 341.186 196.956 340.979 196.929 340.708L196.496 336.48C196.496 336.192 196.839 335.94 197.307 335.94H245.082C245.239 335.923 245.397 335.948 245.54 336.011C245.684 336.074 245.809 336.174 245.903 336.3Z" fill="#FAFAFA"/>
<path d="M239.474 341.637H240.754C241.016 341.637 241.205 341.511 241.187 341.348L240.592 335.859C240.592 335.697 240.349 335.57 240.096 335.57H238.789C238.528 335.57 238.339 335.697 238.357 335.859L238.952 341.348C238.997 341.511 239.222 341.637 239.474 341.637Z" fill="#034EA2"/>
<path d="M201.355 341.637H202.635C202.887 341.637 203.085 341.511 203.067 341.348L202.464 335.859C202.464 335.697 202.229 335.57 201.968 335.57H200.688C200.435 335.57 200.237 335.697 200.255 335.859L200.859 341.348C200.877 341.511 201.102 341.637 201.355 341.637Z" fill="#034EA2"/>
<path d="M220.42 341.637H221.664C221.916 341.637 222.115 341.511 222.097 341.348L221.493 335.859C221.493 335.697 221.249 335.57 220.997 335.57H219.717C219.465 335.57 219.266 335.697 219.284 335.859L219.888 341.348C219.942 341.511 220.159 341.637 220.42 341.637Z" fill="#034EA2"/>
<path d="M257.592 281.944C259.666 288.675 261.658 295.442 263.569 302.244L266.444 312.394L267.877 317.442L268.238 318.686L268.418 319.308L268.463 319.452L268.319 319.227C268.091 318.901 267.811 318.614 267.49 318.379C266.784 317.866 265.945 317.569 265.074 317.523C264.416 317.492 263.76 317.622 263.163 317.902C262.514 318.253 262.577 318.334 262.631 318.271C262.784 318.138 262.923 317.99 263.046 317.83C263.471 317.299 263.862 316.742 264.218 316.162C265.011 314.864 265.795 313.404 266.534 311.907C268.067 308.915 269.446 305.742 270.843 302.551C272.24 299.36 273.547 296.133 274.899 292.878C276.252 289.624 277.541 286.352 278.875 283.125L284.635 284.838C283.138 291.869 281.39 298.774 279.226 305.652C278.163 309.104 276.982 312.52 275.621 315.982C274.917 317.712 274.169 319.443 273.241 321.237C272.746 322.207 272.192 323.147 271.582 324.049C271.203 324.616 270.781 325.152 270.32 325.654C269.589 326.484 268.7 327.161 267.706 327.646C266.714 328.129 265.618 328.358 264.515 328.313C263.208 328.24 261.953 327.779 260.91 326.988C260.245 326.487 259.669 325.877 259.206 325.185C258.913 324.741 258.657 324.274 258.44 323.788C258.359 323.59 258.268 323.382 258.205 323.202L258.034 322.76L257.8 322.12L257.331 320.849C256.718 319.164 256.096 317.478 255.528 315.792C254.374 312.421 253.22 309.059 252.139 305.679C249.927 298.924 247.866 292.136 245.955 285.316L257.592 281.944Z" fill="#B65B52"/>
<path d="M253.555 268.586C258.287 270.019 265.526 288.58 265.526 288.58L247.182 301.695C247.182 301.695 238.934 285.83 240.917 279.719C242.99 273.355 248.165 266.946 253.555 268.586Z" fill="#034EA2"/>
<path opacity="0.5" d="M253.555 268.586C258.287 270.019 265.526 288.58 265.526 288.58L247.182 301.695C247.182 301.695 238.934 285.83 240.917 279.719C242.99 273.355 248.165 266.946 253.555 268.586Z" fill="white"/>
<path d="M279.083 285.596L276.568 274.509L287.025 280.025C287.025 280.025 287.151 287.489 282.932 289.842L279.083 285.596Z" fill="#B55B52"/>
<path d="M280.949 265.711L287.62 270.443L287.025 280.025L276.568 274.509L280.949 265.711Z" fill="#B55B52"/>
<path d="M93.66 209.914H166.675C168.069 209.9 169.45 210.175 170.732 210.723C172.014 211.271 173.169 212.078 174.123 213.095C175.077 214.112 175.81 215.315 176.275 216.629C176.74 217.944 176.927 219.34 176.824 220.731L174.787 253.776C174.563 256.685 173.262 259.406 171.138 261.407C169.014 263.407 166.221 264.544 163.303 264.593H154.848L158.3 275.942L141.787 264.593H90.3158C88.9217 264.607 87.54 264.331 86.2579 263.784C84.9759 263.236 83.8214 262.429 82.8674 261.412C81.9135 260.395 81.1808 259.192 80.7158 257.877C80.2508 256.563 80.0635 255.167 80.1659 253.776L82.185 220.731C82.4089 217.823 83.7088 215.103 85.8308 213.103C87.9528 211.103 90.7443 209.966 93.66 209.914Z" fill="#034EA2"/>
<path d="M159.985 227.221H98.2382C97.976 227.219 97.717 227.163 97.4776 227.057C97.2381 226.95 97.0235 226.794 96.8472 226.6C96.6709 226.406 96.5369 226.178 96.4536 225.929C96.3703 225.681 96.3395 225.417 96.3632 225.156C96.4036 224.609 96.647 224.097 97.0455 223.72C97.4441 223.343 97.9691 223.129 98.5176 223.119H160.273C160.534 223.12 160.792 223.174 161.031 223.278C161.27 223.383 161.485 223.535 161.663 223.726C161.84 223.917 161.976 224.143 162.063 224.389C162.15 224.635 162.185 224.896 162.166 225.156C162.134 225.714 161.891 226.238 161.485 226.621C161.08 227.005 160.543 227.219 159.985 227.221Z" fill="white"/>
<path d="M123.406 239.29H97.4998C97.2375 239.292 96.9776 239.24 96.7365 239.136C96.4954 239.033 96.2783 238.881 96.0988 238.69C95.9193 238.498 95.7814 238.272 95.6936 238.025C95.6058 237.778 95.5701 237.515 95.5888 237.253C95.6293 236.705 95.874 236.191 96.2744 235.814C96.6749 235.437 97.2022 235.223 97.7522 235.216H123.686C123.949 235.213 124.21 235.264 124.452 235.367C124.694 235.47 124.912 235.622 125.093 235.813C125.273 236.005 125.412 236.232 125.5 236.479C125.589 236.727 125.625 236.991 125.606 237.253C125.563 237.807 125.312 238.325 124.905 238.702C124.497 239.08 123.962 239.29 123.406 239.29Z" fill="white"/>
<path d="M145.609 251.361H96.7615C96.4992 251.363 96.2393 251.31 95.9982 251.207C95.7571 251.103 95.54 250.951 95.3605 250.76C95.181 250.569 95.0431 250.342 94.9553 250.095C94.8675 249.848 94.8319 249.585 94.8505 249.323C94.889 248.774 95.133 248.259 95.5339 247.882C95.9348 247.504 96.4633 247.292 97.0139 247.286H145.862C146.124 247.283 146.385 247.334 146.627 247.437C146.868 247.54 147.086 247.692 147.266 247.884C147.445 248.076 147.583 248.303 147.671 248.55C147.758 248.798 147.793 249.061 147.773 249.323C147.732 249.872 147.487 250.386 147.087 250.763C146.686 251.14 146.159 251.353 145.609 251.361Z" fill="white"/>
<path d="M142.435 239.29H132.222C131.96 239.292 131.7 239.24 131.459 239.137C131.218 239.033 131.001 238.881 130.821 238.69C130.642 238.498 130.504 238.272 130.416 238.025C130.328 237.778 130.293 237.515 130.311 237.253C130.354 236.705 130.599 236.193 130.999 235.816C131.399 235.44 131.925 235.226 132.475 235.216H142.679C142.942 235.213 143.202 235.264 143.444 235.367C143.686 235.47 143.903 235.622 144.083 235.814C144.263 236.005 144.401 236.232 144.488 236.48C144.575 236.728 144.61 236.991 144.59 237.253C144.549 237.8 144.306 238.312 143.908 238.689C143.509 239.066 142.984 239.281 142.435 239.29Z" fill="white"/>
<path d="M195.331 150.51H155.525C153.255 150.544 151.08 151.426 149.427 152.982C147.774 154.538 146.763 156.656 146.592 158.92L145.041 184.647C144.964 185.728 145.112 186.814 145.475 187.836C145.838 188.858 146.409 189.793 147.152 190.583C147.895 191.373 148.793 192.001 149.79 192.427C150.788 192.853 151.862 193.067 152.947 193.057H159.464L155.696 201.891L169.632 193.057H192.726C194.996 193.023 197.171 192.141 198.824 190.585C200.477 189.029 201.488 186.91 201.659 184.647L203.237 158.92C203.314 157.839 203.166 156.753 202.803 155.731C202.44 154.709 201.869 153.774 201.126 152.984C200.383 152.194 199.485 151.566 198.488 151.14C197.49 150.714 196.416 150.5 195.331 150.51Z" fill="#034EA2"/>
<g opacity="0.5">
<path opacity="0.5" d="M195.331 150.51H155.525C153.255 150.544 151.08 151.426 149.427 152.982C147.774 154.538 146.763 156.656 146.592 158.92L145.041 184.647C144.964 185.728 145.112 186.814 145.475 187.836C145.838 188.858 146.409 189.793 147.152 190.583C147.895 191.373 148.793 192.001 149.79 192.427C150.788 192.853 151.862 193.067 152.947 193.057H159.464L155.696 201.891L169.632 193.057H192.726C194.996 193.023 197.171 192.141 198.824 190.585C200.477 189.029 201.488 186.91 201.659 184.647L203.237 158.92C203.314 157.839 203.166 156.753 202.803 155.731C202.44 154.709 201.869 153.774 201.126 152.984C200.383 152.194 199.485 151.566 198.488 151.14C197.49 150.714 196.416 150.5 195.331 150.51Z" fill="#FAFAFA"/>
</g>
<path d="M176.14 175.993C176.003 176.56 175.68 177.064 175.222 177.425C174.764 177.786 174.199 177.983 173.616 177.985H171.263C171.263 177.318 171.317 176.913 171.326 176.768C171.361 175.469 171.694 174.195 172.3 173.045C173.152 171.764 174.234 170.651 175.491 169.764C176.494 169.038 177.44 168.236 178.321 167.367C178.789 166.813 179.067 166.124 179.115 165.401C179.15 164.922 179.075 164.442 178.895 163.996C178.716 163.551 178.436 163.153 178.078 162.832C177.203 162.083 176.073 161.702 174.923 161.769C173.714 161.736 172.533 162.132 171.588 162.887C171.026 163.35 170.566 163.924 170.236 164.572C169.992 165.046 169.614 165.437 169.149 165.697C168.684 165.957 168.153 166.074 167.622 166.032C167.239 165.985 166.875 165.842 166.563 165.617C166.251 165.392 166 165.091 165.835 164.743C165.67 164.396 165.595 164.012 165.617 163.627C165.64 163.243 165.758 162.87 165.963 162.544C166.507 161.631 167.205 160.82 168.027 160.146C169.981 158.576 172.437 157.766 174.941 157.866C177.889 157.866 180.178 158.632 181.828 160.173C182.6 160.837 183.208 161.671 183.604 162.61C183.999 163.548 184.172 164.565 184.108 165.582C184.026 166.737 183.627 167.847 182.955 168.791C181.688 170.35 180.225 171.738 178.601 172.919C177.759 173.507 177.032 174.243 176.455 175.092C176.309 175.376 176.203 175.679 176.14 175.993ZM170.993 182.465V182.177C171.04 181.525 171.331 180.916 171.807 180.468C172.282 180.021 172.909 179.768 173.562 179.761H173.886C174.199 179.756 174.509 179.817 174.796 179.938C175.084 180.06 175.344 180.24 175.558 180.467C175.772 180.695 175.937 180.964 176.042 181.258C176.147 181.552 176.19 181.865 176.167 182.177V182.465C176.12 183.118 175.83 183.728 175.354 184.177C174.878 184.626 174.252 184.88 173.598 184.89H173.31C172.993 184.9 172.679 184.843 172.386 184.723C172.093 184.603 171.829 184.423 171.61 184.194C171.392 183.966 171.224 183.693 171.118 183.396C171.011 183.098 170.969 182.781 170.993 182.465Z" fill="white"/>
</g>
</g>
<path fill-rule="evenodd" clip-rule="evenodd" d="M428 300V781.956C428 810.484 425.03 820.829 419.452 831.259C413.874 841.689 405.689 849.874 395.259 855.452C384.829 861.03 374.484 864 345.956 864H85.0443C56.5157 864 46.1706 861.03 35.7409 855.452C25.3113 849.874 17.1261 841.689 11.5482 831.259C5.97042 820.829 3 810.484 3 781.956V321C1.34315 321 0 319.657 0 318V260C0 258.343 1.34315 257 3 257V242C1.34315 242 0 240.657 0 239V181C0 179.343 1.34315 178 3 178V151C1.34315 151 0 149.657 0 148V120C0 118.343 1.34315 117 3 117V82.0443C3 53.5157 5.97042 43.1706 11.5482 32.7409C17.1261 22.3113 25.3113 14.1261 35.7409 8.54825C46.1706 2.97042 56.5157 0 85.0443 0H345.956C374.484 0 384.829 2.97042 395.259 8.54825C405.689 14.1261 413.874 22.3113 419.452 32.7409C425.03 43.1706 428 53.5157 428 82.0443V199C429.657 199 431 200.343 431 202V297C431 298.657 429.657 300 428 300ZM27 87.8C27 66.518 27 55.877 31.1418 47.7484C34.7849 40.5982 40.5982 34.7849 47.7484 31.1418C55.877 27 66.518 27 87.8 27L103 27C106.684 27.0098 109.732 29.865 109.998 33.4837C110.14 38.4568 111.1 42.1066 112.785 45.2569C114.615 48.6791 117.301 51.3649 120.723 53.1951C124.145 55.0253 128.157 56 133.814 56H295.146C300.803 56 304.815 55.0253 308.237 53.1951C311.659 51.3649 314.345 48.6791 316.175 45.2569C317.857 42.1117 318.817 38.4686 318.961 33.5079C319.216 29.8778 322.269 27.0098 325.961 27L341.2 27C362.482 27 373.123 27 381.252 31.1418C388.402 34.7849 394.215 40.5982 397.858 47.7484C402 55.877 402 66.518 402 87.8V778.2C402 799.482 402 810.123 397.858 818.252C394.215 825.402 388.402 831.215 381.252 834.858C373.123 839 362.482 839 341.2 839H87.8C66.518 839 55.877 839 47.7484 834.858C40.5982 831.215 34.7849 825.402 31.1418 818.252C27 810.123 27 799.482 27 778.2V87.8Z" fill="black"/>
<path fill-rule="evenodd" clip-rule="evenodd" d="M261 42C264.866 42 268 38.866 268 35C268 31.134 264.866 28 261 28C257.134 28 254 31.134 254 35C254 38.866 257.134 42 261 42Z" fill="#232323"/>
<rect x="189" y="31" width="52" height="8" rx="4" fill="#232323"/>
<defs>
<filter id="filter0_d" x="-40" y="80" width="510.707" height="412" filterUnits="userSpaceOnUse" color-interpolation-filters="sRGB">
<feFlood flood-opacity="0" result="BackgroundImageFix"/>
<feColorMatrix in="SourceAlpha" type="matrix" values="0 0 0 0 0 0 0 0 0 0 0 0 0 0 0 0 0 0 127 0" result="hardAlpha"/>
<feOffset dy="4"/>
<feGaussianBlur stdDeviation="15"/>
<feColorMatrix type="matrix" values="0 0 0 0 0.407843 0 0 0 0 0.458824 0 0 0 0 0.509804 0 0 0 0.1 0"/>
<feBlend mode="normal" in2="BackgroundImageFix" result="effect1_dropShadow"/>
<feBlend mode="normal" in="SourceGraphic" in2="effect1_dropShadow" result="shape"/>
</filter>
<clipPath id="clip0">
<rect width="375" height="812" fill="white" transform="translate(27 27)"/>
</clipPath>
</defs>
</svg>
