<svg width="1440" height="764" viewBox="0 0 1440 764" fill="none" xmlns="http://www.w3.org/2000/svg">
<g style="mix-blend-mode:multiply" opacity="0.2">
<rect x="637.219" y="266.227" width="92.6612" height="92.6612" rx="10.0898" transform="rotate(-180 637.219 266.227)" fill="#E5E7EB"/>
</g>
<g style="mix-blend-mode:multiply" opacity="0.2">
<rect x="670.68" y="173.564" width="34.9318" height="34.5641" rx="10.0898" transform="rotate(-180 670.68 173.564)" fill="#E5E7EB"/>
</g>
<g style="mix-blend-mode:multiply" opacity="0.1">
<rect x="831.488" y="265.754" width="126.753" height="126.753" rx="10.0898" transform="rotate(-180 831.488 265.754)" fill="#EDC239"/>
</g>
<g style="mix-blend-mode:multiply" opacity="0.2">
<rect x="659.332" y="478.213" width="160.806" height="160.806" rx="10.0898" transform="rotate(-180 659.332 478.213)" fill="#EDEEFF"/>
</g>
<g style="mix-blend-mode:multiply" opacity="0.2">
<rect x="875" y="414.465" width="87.655" height="87.655" rx="10.0898" transform="rotate(-180 875 414.465)" fill="#E5E7EB"/>
</g>
<path d="M1597.78 508.213L1060 508.213" stroke="#EDEEFF" stroke-width="0.4"/>
<path d="M1597.78 373.657L1060 373.657" stroke="#EDEEFF" stroke-width="0.4"/>
<path d="M1597.78 239.1L1060 239.1" stroke="#EDEEFF" stroke-width="0.4"/>
<path d="M1597.78 642.769L1060 642.769" stroke="#EDEEFF" stroke-width="0.4"/>
<path d="M1194.11 763.87L1194.11 118" stroke="#EDEEFF" stroke-width="0.4"/>
<path d="M1328.66 763.87L1328.66 118" stroke="#EDEEFF" stroke-width="0.4"/>
<path d="M481.777 366.213L-55.9991 366.213" stroke="#EDEEFF" stroke-width="0.4"/>
<path d="M481.777 231.657L-55.9991 231.657" stroke="#EDEEFF" stroke-width="0.4"/>
<path d="M481.777 97.1005L-55.9991 97.1005" stroke="#EDEEFF" stroke-width="0.4"/>
<path d="M481.777 500.769L-55.9991 500.769" stroke="#EDEEFF" stroke-width="0.4"/>
<path d="M347.223 621.87L347.223 -23.9998" stroke="#EDEEFF" stroke-width="0.4"/>
<path d="M78.1094 621.87L78.1094 -24" stroke="#EDEEFF" stroke-width="0.4"/>
<path d="M212.664 621.87L212.664 -23.9999" stroke="#EDEEFF" stroke-width="0.4"/>
<g style="mix-blend-mode:multiply" opacity="0.1">
<rect x="167.68" y="180.266" width="37" height="36" rx="5" transform="rotate(-180 167.68 180.266)" fill="#6B87FF"/>
</g>
<g style="mix-blend-mode:multiply" opacity="0.1">
<rect x="1280" y="459" width="37" height="36" rx="5" transform="rotate(-180 1280 459)" fill="#EDC239"/>
</g>
</svg>
