<?xml version="1.0" encoding="UTF-8"?>
<svg xmlns="http://www.w3.org/2000/svg" width="108" height="108" viewBox="0 0 108 108" fill="none">
  <path d="M25.4375 62.581L102.316 14.1758L25.4375 88.2073L25.4375 62.581Z" fill="#141414"></path>
  <path fill-rule="evenodd" clip-rule="evenodd" d="M25.081 62.0068L101.96 13.6016L102.788 14.659L25.9088 88.6905L24.7656 88.2043L24.7656 62.578L25.081 62.0068ZM26.1156 62.9506L26.1156 86.6172L97.1153 18.2471L26.1156 62.9506Z" fill="#141414"></path>
  <path d="M25.4421 62.581L102.321 14.1758L3.375 40.5139L25.4421 62.581Z" fill="#F5F5F0"></path>
  <path fill-rule="evenodd" clip-rule="evenodd" d="M4.68131 40.8638L25.5391 61.7216L98.2051 15.969L4.68131 40.8638ZM3.2021 39.8605L102.148 13.5224L102.263 13.5L102.681 14.7459L77.2882 33.4125L64.2419 38.9485L25.8025 63.1511L24.9655 63.0572L2.89844 40.9901L3.2021 39.8605Z" fill="#141414"></path>
  <path d="M25.4375 88.2073L31.1322 68.2757L102.316 14.1758L25.4375 88.2073Z" fill="#FFD9FF"></path>
  <path fill-rule="evenodd" clip-rule="evenodd" d="M30.7244 67.7367L101.909 13.6367L102.785 14.6603L25.9063 88.6919L24.7891 88.0202L30.4838 68.0886L30.7244 67.7367ZM31.7201 68.6755L26.7759 85.9803L93.5228 21.7055L31.7201 68.6755Z" fill="#141414"></path>
  <path fill-rule="evenodd" clip-rule="evenodd" d="M37.8016 66.1484L21.6016 49.9484V28.3484L37.8016 12.1484H59.4016L75.6016 28.3484V49.9484L59.4016 66.1484H37.8016Z" fill="#910590"></path>
  <path fill-rule="evenodd" clip-rule="evenodd" d="M37.5251 11.4727H59.6843L76.2797 28.0681V50.2272L59.6843 66.8226H37.5251L20.9297 50.2272V28.0681L37.5251 11.4727ZM38.0843 12.8227L22.2797 28.6272V49.6681L38.0843 65.4726H59.1251L74.9297 49.6681V28.6272L59.1251 12.8227H38.0843Z" fill="#141414"></path>
  <path d="M72.2266 39.1484C72.2266 52.1962 61.6493 62.7734 48.6016 62.7734C35.5538 62.7734 24.9766 52.1962 24.9766 39.1484C24.9766 26.1007 35.5538 15.5234 48.6016 15.5234C61.6493 15.5234 72.2266 26.1007 72.2266 39.1484Z" fill="#910590"></path>
  <path fill-rule="evenodd" clip-rule="evenodd" d="M48.6016 62.0984C61.2765 62.0984 71.5516 51.8234 71.5516 39.1484C71.5516 26.4735 61.2765 16.1984 48.6016 16.1984C35.9266 16.1984 25.6516 26.4735 25.6516 39.1484C25.6516 51.8234 35.9266 62.0984 48.6016 62.0984ZM48.6016 62.7734C61.6493 62.7734 72.2266 52.1962 72.2266 39.1484C72.2266 26.1007 61.6493 15.5234 48.6016 15.5234C35.5538 15.5234 24.9766 26.1007 24.9766 39.1484C24.9766 52.1962 35.5538 62.7734 48.6016 62.7734Z" fill="#141414"></path>
  <path d="M48.7651 24.3008C47.1089 24.3008 45.4696 24.7455 43.8541 25.6111L43.8495 25.6136C42.2461 26.4889 40.8415 27.7778 39.6302 29.4574C38.5015 30.9963 37.6737 32.8023 37.1381 34.8642H33.8418L32.9297 38.0441V39.3535H36.5051L36.4819 40.1653L36.501 40.7186H33.8418L32.9297 43.8758V45.2079H37.0366C37.5175 47.3179 38.2891 49.1738 39.3612 50.7645L39.3657 50.7711C40.5486 52.4824 41.9392 53.8023 43.5434 54.7083L43.5499 54.7119L43.5565 54.7155C45.1777 55.5842 46.8598 56.0258 48.595 56.0258H50.6359C52.4975 56.0258 54.226 55.5061 55.8069 54.4754C57.4078 53.4502 58.7001 52.0514 59.6851 50.2949C60.7006 48.5065 61.2806 46.5418 61.429 44.41L61.43 42.5258L55.691 43.6882L55.6207 44.2841C55.4068 46.0977 54.7973 47.5994 53.8107 48.8169L53.8096 48.8182C52.8634 49.992 51.8115 50.5183 50.6359 50.5183H48.6375C47.4998 50.5183 46.4209 50.0305 45.3869 48.9485C44.528 48.0244 43.8454 46.7867 43.359 45.2079H50.7199L52.655 33.7508L44.0674 33.5142C44.4913 32.6539 44.999 31.9353 45.5852 31.3505L45.591 31.3445C46.6307 30.2812 47.6849 29.8083 48.7651 29.8083H50.806C51.5205 29.8083 52.2176 30.0463 52.9103 30.5646L52.921 30.5726L52.932 30.5802C53.6433 31.0696 54.2386 31.7787 54.7064 32.7381L54.7112 32.7481L54.7164 32.7579C55.2065 33.6843 55.5116 34.7677 55.6185 36.0208L55.6712 36.6384H61.446L61.43 35.1008C61.2533 32.9562 60.663 31.8086 59.7392 30.053C58.8406 28.2913 57.6182 26.8862 56.0696 25.8561C54.5063 24.8163 52.7305 24.3008 50.7635 24.3008H48.7651Z" fill="#141414"></path>
  <path d="M48.5972 54C46.9814 54 45.4082 53.5899 43.8775 52.7697C42.3751 51.9213 41.057 50.6768 39.9232 49.0365C38.8177 47.3961 38.0381 45.4447 37.5846 43.1821H33.7578L34.3956 40.0428H37.2019L37.1594 38.8125L37.2019 37.3277H33.7578L34.3956 34.1884H37.6696C38.1799 31.9824 39.0161 30.0875 40.1783 28.5037C41.3405 26.8916 42.6728 25.6755 44.1751 24.8553C45.7058 24.0351 47.2366 23.625 48.7673 23.625H50.7657C52.6082 23.625 54.2523 24.1058 55.698 25.0674C57.1436 26.029 58.2917 27.3441 59.1421 29.0127C60.0208 30.6814 60.5452 32.548 60.7153 34.6126H56.2932C56.1799 33.2833 55.8539 32.1096 55.3153 31.0915C54.8051 30.045 54.1389 29.239 53.3169 28.6734C52.5232 28.0794 51.6869 27.7825 50.8082 27.7825H48.7673C47.4633 27.7825 46.2444 28.3623 45.1106 29.5218C43.9767 30.6531 43.1405 32.2086 42.6019 34.1884H51.9988L51.361 37.3277H42.0492L42.0066 38.8125L42.0492 40.0428H50.8082L50.1704 43.1821H42.4743C42.9846 45.2467 43.7925 46.8729 44.898 48.0608C46.0318 49.2486 47.2791 49.8425 48.6397 49.8425H50.6381C52.0555 49.8425 53.2885 49.192 54.3373 47.8911C55.4145 46.5618 56.0665 44.9356 56.2932 43.0124H60.7578C60.6161 45.0487 60.0633 46.9153 59.0995 48.6123C58.1641 50.2809 56.9452 51.596 55.4429 52.5576C53.9688 53.5192 52.3673 54 50.6381 54H48.5972Z" fill="#F5F5F0"></path>
  <path fill-rule="evenodd" clip-rule="evenodd" d="M43.5499 53.3604L43.5434 53.3567C41.9392 52.4507 40.5486 51.1308 39.3657 49.4195L39.3612 49.413C38.2891 47.8223 37.5175 45.9663 37.0366 43.8563H32.9297L33.8418 39.367H36.501L36.4819 38.8137L36.5051 38.0019H32.9297L33.8418 33.5126H37.1381C37.6737 31.4507 38.5015 29.6447 39.6302 28.1059C40.8415 26.4262 42.2461 25.1374 43.8495 24.262L43.8541 24.2595C45.4695 23.3939 47.1089 22.9492 48.7651 22.9492H50.7635C52.7305 22.9492 54.5063 23.4647 56.0696 24.5046C57.6182 25.5346 58.8406 26.9397 59.7392 28.7014C60.663 30.4571 61.2092 32.4118 61.3858 34.5564L61.446 35.2868H55.6712L55.6185 34.6692C55.5116 33.4161 55.2065 32.3327 54.7164 31.4063L54.7112 31.3965L54.7064 31.3865C54.2386 30.4271 53.6433 29.7181 52.932 29.2287L52.921 29.2211L52.9103 29.213C52.2176 28.6947 51.5205 28.4567 50.806 28.4567H48.7651C47.6849 28.4567 46.6307 28.9297 45.591 29.993L45.5852 29.9989C44.7152 30.8669 44.0181 32.0293 43.5114 33.5126H52.8225L51.9104 38.0019H42.7029L42.6798 38.8097L42.699 39.367H51.6319L50.7199 43.8563H43.359C43.8454 45.4351 44.528 46.6729 45.3869 47.5969C46.4209 48.6789 47.4998 49.1667 48.6375 49.1667H50.6359C51.8115 49.1667 52.8634 48.6404 53.8096 47.4666L53.8107 47.4653C54.7973 46.2479 55.4068 44.7461 55.6207 42.9326L55.691 42.3366H61.4792L61.429 43.0585C61.2806 45.1902 60.7006 47.1549 59.6851 48.9434C58.7001 50.6998 57.4078 52.0986 55.8069 53.1238C54.226 54.1545 52.4975 54.6742 50.6359 54.6742H48.595C46.8598 54.6742 45.1777 54.2326 43.5565 53.3639L43.5499 53.3604ZM55.4407 52.5568C56.943 51.5952 58.1619 50.2801 59.0973 48.6115C59.9536 47.1038 60.4855 45.4622 60.6929 43.6866C60.7189 43.4637 60.7398 43.2387 60.7556 43.0116H56.291C56.0643 44.9348 55.4123 46.561 54.3351 47.8903C53.2863 49.1913 52.0533 49.8417 50.6359 49.8417H48.6375C47.2769 49.8417 46.0296 49.2478 44.8958 48.06C43.9137 47.0047 43.1665 45.6035 42.6541 43.8563C42.5898 43.6368 42.5291 43.4118 42.4721 43.1813H50.1682L50.806 40.042H42.047L42.0044 38.8117L42.047 37.3269H51.3588L51.9966 34.1876H42.5997C42.6625 33.9568 42.7293 33.7318 42.8002 33.5126C43.3373 31.851 44.1067 30.5205 45.1084 29.521C46.2422 28.3615 47.4611 27.7817 48.7651 27.7817H50.806C51.6847 27.7817 52.521 28.0787 53.3147 28.6726C54.1367 29.2382 54.8029 30.0443 55.3131 31.0907C55.8517 32.1089 56.1777 33.2826 56.291 34.6118H60.7131C60.6944 34.3844 60.6713 34.1594 60.644 33.9368C60.4232 32.1384 59.9218 30.4968 59.1399 29.012C58.2895 27.3433 57.1414 26.0282 55.6958 25.0666C54.2501 24.105 52.606 23.6242 50.7635 23.6242H48.7651C47.2344 23.6242 45.7036 24.0343 44.1729 24.8545C42.6706 25.6747 41.3383 26.8908 40.1761 28.5029C39.0139 30.0867 38.1777 31.9816 37.6674 34.1876H34.3934L33.7556 37.3269H37.1997L37.1572 38.8117L37.1997 40.042H34.3934L33.7556 43.1813H37.5824C38.0359 45.4439 38.8155 47.3953 39.921 49.0357C41.0548 50.6761 42.3729 51.9205 43.8753 52.7689C45.406 53.5891 46.9792 53.9992 48.595 53.9992H50.6359C52.3651 53.9992 53.9666 53.5184 55.4407 52.5568Z" fill="#141414"></path>
  <path d="M63.2444 100.576L31.0469 68.4436L102.597 14.1758L63.2444 100.576Z" fill="#F5F5F0"></path>
  <path fill-rule="evenodd" clip-rule="evenodd" d="M30.647 67.9052L102.197 13.6374L102.268 13.5L103.219 14.455L63.8667 100.855L62.7756 101.053L30.5781 68.9208L30.647 67.9052ZM32.0802 68.5126L63.0411 99.4107L100.882 16.329L32.0802 68.5126Z" fill="#141414"></path>
  <path fill-rule="evenodd" clip-rule="evenodd" d="M37.1802 87.5581L41.9531 82.7852L42.4304 83.2625L37.6575 88.0354L37.1802 87.5581Z" fill="#141414"></path>
  <path fill-rule="evenodd" clip-rule="evenodd" d="M36.4186 97.8665L46.7266 87.5586L47.2039 88.0359L36.8959 98.3438L36.4186 97.8665Z" fill="#141414"></path>
  <path fill-rule="evenodd" clip-rule="evenodd" d="M46.727 97.105L51.5 92.332L51.9773 92.8093L47.2043 97.5823L46.727 97.105Z" fill="#141414"></path>
  <path fill-rule="evenodd" clip-rule="evenodd" d="M8.71434 54.5982L11.5781 51.7344L12.0554 52.2117L9.19164 55.0755L8.71434 54.5982Z" fill="#141414"></path>
  <path fill-rule="evenodd" clip-rule="evenodd" d="M8.25156 64.6117L16.3516 56.5117L16.8289 56.989L8.72886 65.089L8.25156 64.6117Z" fill="#141414"></path>
  <path fill-rule="evenodd" clip-rule="evenodd" d="M17.7839 64.6223L21.125 61.2812L21.6023 61.7585L18.2612 65.0996L17.7839 64.6223Z" fill="#141414"></path>
</svg>
