<svg width="379" height="405" viewBox="0 0 379 405" fill="none" xmlns="http://www.w3.org/2000/svg">
<circle cx="189.5" cy="189.5" r="189.5" fill="#DBF8FF"/>
<g filter="url(#filter0_d_47080_11117)">
<rect x="39" y="69" width="300" height="310.4" rx="10" fill="white"/>
</g>
<rect x="89" y="198" width="200" height="12" rx="6" fill="#F4F4F4"/>
<path d="M67.2954 248.135C66.4454 248.135 65.6854 248.025 65.0154 247.805C64.3454 247.585 63.7604 247.27 63.2604 246.86L63.7104 245.87C64.0604 246.13 64.4104 246.35 64.7604 246.53C65.1204 246.7 65.5054 246.83 65.9154 246.92C66.3254 247 66.7854 247.04 67.2954 247.04C68.1854 247.04 68.8454 246.875 69.2754 246.545C69.7054 246.215 69.9204 245.775 69.9204 245.225C69.9204 244.755 69.7704 244.395 69.4704 244.145C69.1704 243.895 68.6454 243.695 67.8954 243.545L66.3204 243.23C65.3504 243.03 64.6254 242.705 64.1454 242.255C63.6754 241.805 63.4404 241.195 63.4404 240.425C63.4404 239.795 63.6004 239.245 63.9204 238.775C64.2504 238.305 64.7104 237.94 65.3004 237.68C65.8904 237.42 66.5754 237.29 67.3554 237.29C68.1054 237.29 68.7904 237.405 69.4104 237.635C70.0304 237.855 70.5604 238.18 71.0004 238.61L70.5654 239.57C70.0954 239.15 69.6004 238.85 69.0804 238.67C68.5704 238.48 67.9904 238.385 67.3404 238.385C66.5204 238.385 65.8704 238.565 65.3904 238.925C64.9204 239.275 64.6854 239.755 64.6854 240.365C64.6854 240.855 64.8354 241.24 65.1354 241.52C65.4354 241.79 65.9304 241.995 66.6204 242.135L68.2104 242.45C69.2304 242.66 69.9804 242.975 70.4604 243.395C70.9404 243.815 71.1804 244.405 71.1804 245.165C71.1804 245.745 71.0204 246.26 70.7004 246.71C70.3904 247.16 69.9454 247.51 69.3654 247.76C68.7854 248.01 68.0954 248.135 67.2954 248.135ZM73.0561 248V236.96H74.2711V242.135H74.0761C74.2861 241.545 74.6361 241.1 75.1261 240.8C75.6261 240.49 76.2011 240.335 76.8511 240.335C77.7511 240.335 78.4211 240.58 78.8611 241.07C79.3011 241.55 79.5211 242.28 79.5211 243.26V248H78.3061V243.335C78.3061 242.635 78.1661 242.125 77.8861 241.805C77.6161 241.485 77.1761 241.325 76.5661 241.325C75.8661 241.325 75.3061 241.54 74.8861 241.97C74.4761 242.4 74.2711 242.965 74.2711 243.665V248H73.0561ZM84.7102 248.135C84.0402 248.135 83.4552 247.98 82.9552 247.67C82.4552 247.35 82.0652 246.9 81.7852 246.32C81.5152 245.74 81.3802 245.045 81.3802 244.235C81.3802 243.415 81.5152 242.715 81.7852 242.135C82.0652 241.555 82.4552 241.11 82.9552 240.8C83.4552 240.49 84.0402 240.335 84.7102 240.335C85.3902 240.335 85.9752 240.51 86.4652 240.86C86.9652 241.2 87.2952 241.665 87.4552 242.255H87.2752L87.4402 240.47H88.6102C88.5802 240.76 88.5502 241.055 88.5202 241.355C88.5002 241.645 88.4902 241.93 88.4902 242.21V248H87.2752V246.23H87.4402C87.2802 246.82 86.9502 247.285 86.4502 247.625C85.9502 247.965 85.3702 248.135 84.7102 248.135ZM84.9502 247.145C85.6702 247.145 86.2402 246.9 86.6602 246.41C87.0802 245.91 87.2902 245.185 87.2902 244.235C87.2902 243.275 87.0802 242.55 86.6602 242.06C86.2402 241.56 85.6702 241.31 84.9502 241.31C84.2402 241.31 83.6702 241.56 83.2402 242.06C82.8202 242.55 82.6102 243.275 82.6102 244.235C82.6102 245.185 82.8202 245.91 83.2402 246.41C83.6702 246.9 84.2402 247.145 84.9502 247.145ZM90.8093 248V242.285C90.8093 241.985 90.7993 241.68 90.7793 241.37C90.7693 241.06 90.7493 240.76 90.7193 240.47H91.8893L92.0393 242.3L91.8293 242.315C91.9293 241.865 92.1043 241.495 92.3543 241.205C92.6043 240.915 92.8993 240.7 93.2393 240.56C93.5793 240.41 93.9343 240.335 94.3043 240.335C94.4543 240.335 94.5843 240.34 94.6943 240.35C94.8143 240.36 94.9243 240.385 95.0243 240.425L95.0093 241.505C94.8593 241.455 94.7193 241.425 94.5893 241.415C94.4693 241.395 94.3293 241.385 94.1693 241.385C93.7293 241.385 93.3443 241.49 93.0143 241.7C92.6943 241.91 92.4493 242.18 92.2793 242.51C92.1193 242.84 92.0393 243.19 92.0393 243.56V248H90.8093ZM99.5456 248.135C98.3656 248.135 97.4356 247.795 96.7556 247.115C96.0756 246.425 95.7356 245.47 95.7356 244.25C95.7356 243.46 95.8856 242.775 96.1856 242.195C96.4856 241.605 96.9056 241.15 97.4456 240.83C97.9856 240.5 98.6056 240.335 99.3056 240.335C99.9956 240.335 100.576 240.48 101.046 240.77C101.516 241.06 101.876 241.475 102.126 242.015C102.376 242.545 102.501 243.175 102.501 243.905V244.355H96.6656V243.59H101.706L101.451 243.785C101.451 242.985 101.271 242.36 100.911 241.91C100.551 241.46 100.016 241.235 99.3056 241.235C98.5556 241.235 97.9706 241.5 97.5506 242.03C97.1306 242.55 96.9206 243.255 96.9206 244.145V244.28C96.9206 245.22 97.1506 245.935 97.6106 246.425C98.0806 246.905 98.7356 247.145 99.5756 247.145C100.026 247.145 100.446 247.08 100.836 246.95C101.236 246.81 101.616 246.585 101.976 246.275L102.396 247.13C102.066 247.45 101.646 247.7 101.136 247.88C100.636 248.05 100.106 248.135 99.5456 248.135ZM107.971 251.405L107.686 250.4C108.156 250.29 108.546 250.16 108.856 250.01C109.176 249.87 109.441 249.68 109.651 249.44C109.861 249.2 110.041 248.9 110.191 248.54L110.581 247.655L110.551 248.165L107.266 240.47H108.586L111.301 247.085H110.911L113.596 240.47H114.871L111.391 248.63C111.191 249.11 110.971 249.51 110.731 249.83C110.491 250.16 110.231 250.425 109.951 250.625C109.681 250.835 109.381 251 109.051 251.12C108.721 251.24 108.361 251.335 107.971 251.405ZM119.227 248.135C118.507 248.135 117.877 247.98 117.337 247.67C116.807 247.35 116.397 246.9 116.107 246.32C115.817 245.73 115.672 245.035 115.672 244.235C115.672 243.425 115.817 242.73 116.107 242.15C116.397 241.57 116.807 241.125 117.337 240.815C117.877 240.495 118.507 240.335 119.227 240.335C119.957 240.335 120.587 240.495 121.117 240.815C121.657 241.125 122.072 241.57 122.362 242.15C122.662 242.73 122.812 243.425 122.812 244.235C122.812 245.035 122.662 245.73 122.362 246.32C122.072 246.9 121.657 247.35 121.117 247.67C120.587 247.98 119.957 248.135 119.227 248.135ZM119.227 247.145C119.947 247.145 120.517 246.9 120.937 246.41C121.357 245.91 121.567 245.185 121.567 244.235C121.567 243.275 121.352 242.55 120.922 242.06C120.502 241.56 119.937 241.31 119.227 241.31C118.517 241.31 117.952 241.56 117.532 242.06C117.112 242.55 116.902 243.275 116.902 244.235C116.902 245.185 117.112 245.91 117.532 246.41C117.952 246.9 118.517 247.145 119.227 247.145ZM127.361 248.135C126.471 248.135 125.796 247.89 125.336 247.4C124.886 246.91 124.661 246.16 124.661 245.15V240.47H125.876V245.12C125.876 245.81 126.016 246.32 126.296 246.65C126.576 246.97 127.011 247.13 127.601 247.13C128.261 247.13 128.791 246.915 129.191 246.485C129.591 246.055 129.791 245.48 129.791 244.76V240.47H131.006V248H129.821V246.305H130.016C129.806 246.885 129.466 247.335 128.996 247.655C128.536 247.975 127.991 248.135 127.361 248.135ZM133.334 248V242.285C133.334 241.985 133.324 241.68 133.304 241.37C133.294 241.06 133.274 240.76 133.244 240.47H134.414L134.564 242.3L134.354 242.315C134.454 241.865 134.629 241.495 134.879 241.205C135.129 240.915 135.424 240.7 135.764 240.56C136.104 240.41 136.459 240.335 136.829 240.335C136.979 240.335 137.109 240.34 137.219 240.35C137.339 240.36 137.449 240.385 137.549 240.425L137.534 241.505C137.384 241.455 137.244 241.425 137.114 241.415C136.994 241.395 136.854 241.385 136.694 241.385C136.254 241.385 135.869 241.49 135.539 241.7C135.219 241.91 134.974 242.18 134.804 242.51C134.644 242.84 134.564 243.19 134.564 243.56V248H133.334ZM142.724 248V242.21C142.724 241.93 142.709 241.645 142.679 241.355C142.659 241.055 142.634 240.76 142.604 240.47H143.774L143.924 242.12H143.744C143.964 241.54 144.314 241.1 144.794 240.8C145.284 240.49 145.849 240.335 146.489 240.335C147.379 240.335 148.049 240.575 148.499 241.055C148.959 241.525 149.189 242.27 149.189 243.29V248H147.974V243.365C147.974 242.655 147.829 242.14 147.539 241.82C147.259 241.49 146.819 241.325 146.219 241.325C145.519 241.325 144.964 241.54 144.554 241.97C144.144 242.4 143.939 242.975 143.939 243.695V248H142.724ZM154.858 248.135C153.678 248.135 152.748 247.795 152.068 247.115C151.388 246.425 151.048 245.47 151.048 244.25C151.048 243.46 151.198 242.775 151.498 242.195C151.798 241.605 152.218 241.15 152.758 240.83C153.298 240.5 153.918 240.335 154.618 240.335C155.308 240.335 155.888 240.48 156.358 240.77C156.828 241.06 157.188 241.475 157.438 242.015C157.688 242.545 157.813 243.175 157.813 243.905V244.355H151.978V243.59H157.018L156.763 243.785C156.763 242.985 156.583 242.36 156.223 241.91C155.863 241.46 155.328 241.235 154.618 241.235C153.868 241.235 153.283 241.5 152.863 242.03C152.443 242.55 152.233 243.255 152.233 244.145V244.28C152.233 245.22 152.463 245.935 152.923 246.425C153.393 246.905 154.048 247.145 154.888 247.145C155.338 247.145 155.758 247.08 156.148 246.95C156.548 246.81 156.928 246.585 157.288 246.275L157.708 247.13C157.378 247.45 156.958 247.7 156.448 247.88C155.948 248.05 155.418 248.135 154.858 248.135ZM161.594 248L158.804 240.47H160.094L162.419 247.1H162.029L164.429 240.47H165.479L167.834 247.1H167.459L169.799 240.47H171.029L168.224 248H167.054L164.624 241.265H165.224L162.779 248H161.594ZM180.838 248.135C179.408 248.135 178.343 247.77 177.643 247.04C176.953 246.31 176.608 245.235 176.608 243.815V237.425H177.838V243.755C177.838 244.845 178.078 245.665 178.558 246.215C179.038 246.765 179.798 247.04 180.838 247.04C181.818 247.04 182.563 246.765 183.073 246.215C183.583 245.665 183.838 244.845 183.838 243.755V237.425H185.068V243.815C185.068 245.235 184.708 246.31 183.988 247.04C183.278 247.77 182.228 248.135 180.838 248.135ZM189.995 248.135C189.395 248.135 188.835 248.055 188.315 247.895C187.795 247.725 187.365 247.49 187.025 247.19L187.445 246.335C187.815 246.625 188.215 246.84 188.645 246.98C189.085 247.12 189.54 247.19 190.01 247.19C190.61 247.19 191.06 247.085 191.36 246.875C191.67 246.655 191.825 246.355 191.825 245.975C191.825 245.685 191.725 245.455 191.525 245.285C191.335 245.105 191.02 244.965 190.58 244.865L189.185 244.58C188.545 244.44 188.065 244.205 187.745 243.875C187.425 243.535 187.265 243.105 187.265 242.585C187.265 242.145 187.38 241.76 187.61 241.43C187.84 241.09 188.175 240.825 188.615 240.635C189.055 240.435 189.57 240.335 190.16 240.335C190.71 240.335 191.215 240.42 191.675 240.59C192.145 240.75 192.535 240.985 192.845 241.295L192.41 242.135C192.11 241.845 191.765 241.63 191.375 241.49C190.995 241.34 190.6 241.265 190.19 241.265C189.6 241.265 189.155 241.385 188.855 241.625C188.565 241.855 188.42 242.16 188.42 242.54C188.42 242.83 188.51 243.07 188.69 243.26C188.88 243.44 189.17 243.575 189.56 243.665L190.955 243.95C191.635 244.1 192.14 244.335 192.47 244.655C192.81 244.965 192.98 245.385 192.98 245.915C192.98 246.365 192.855 246.76 192.605 247.1C192.355 247.43 192.005 247.685 191.555 247.865C191.115 248.045 190.595 248.135 189.995 248.135ZM198.276 248.135C197.096 248.135 196.166 247.795 195.486 247.115C194.806 246.425 194.466 245.47 194.466 244.25C194.466 243.46 194.616 242.775 194.916 242.195C195.216 241.605 195.636 241.15 196.176 240.83C196.716 240.5 197.336 240.335 198.036 240.335C198.726 240.335 199.306 240.48 199.776 240.77C200.246 241.06 200.606 241.475 200.856 242.015C201.106 242.545 201.231 243.175 201.231 243.905V244.355H195.396V243.59H200.436L200.181 243.785C200.181 242.985 200.001 242.36 199.641 241.91C199.281 241.46 198.746 241.235 198.036 241.235C197.286 241.235 196.701 241.5 196.281 242.03C195.861 242.55 195.651 243.255 195.651 244.145V244.28C195.651 245.22 195.881 245.935 196.341 246.425C196.811 246.905 197.466 247.145 198.306 247.145C198.756 247.145 199.176 247.08 199.566 246.95C199.966 246.81 200.346 246.585 200.706 246.275L201.126 247.13C200.796 247.45 200.376 247.7 199.866 247.88C199.366 248.05 198.836 248.135 198.276 248.135ZM203.06 248V242.285C203.06 241.985 203.05 241.68 203.03 241.37C203.02 241.06 203 240.76 202.97 240.47H204.14L204.29 242.3L204.08 242.315C204.18 241.865 204.355 241.495 204.605 241.205C204.855 240.915 205.15 240.7 205.49 240.56C205.83 240.41 206.185 240.335 206.555 240.335C206.705 240.335 206.835 240.34 206.945 240.35C207.065 240.36 207.175 240.385 207.275 240.425L207.26 241.505C207.11 241.455 206.97 241.425 206.84 241.415C206.72 241.395 206.58 241.385 206.42 241.385C205.98 241.385 205.595 241.49 205.265 241.7C204.945 241.91 204.7 242.18 204.53 242.51C204.37 242.84 204.29 243.19 204.29 243.56V248H203.06ZM208.539 248V242.21C208.539 241.93 208.524 241.645 208.494 241.355C208.474 241.055 208.449 240.76 208.419 240.47H209.589L209.739 242.12H209.559C209.779 241.54 210.129 241.1 210.609 240.8C211.099 240.49 211.664 240.335 212.304 240.335C213.194 240.335 213.864 240.575 214.314 241.055C214.774 241.525 215.004 242.27 215.004 243.29V248H213.789V243.365C213.789 242.655 213.644 242.14 213.354 241.82C213.074 241.49 212.634 241.325 212.034 241.325C211.334 241.325 210.779 241.54 210.369 241.97C209.959 242.4 209.754 242.975 209.754 243.695V248H208.539ZM220.194 248.135C219.524 248.135 218.939 247.98 218.439 247.67C217.939 247.35 217.549 246.9 217.269 246.32C216.999 245.74 216.864 245.045 216.864 244.235C216.864 243.415 216.999 242.715 217.269 242.135C217.549 241.555 217.939 241.11 218.439 240.8C218.939 240.49 219.524 240.335 220.194 240.335C220.874 240.335 221.459 240.51 221.949 240.86C222.449 241.2 222.779 241.665 222.939 242.255H222.759L222.924 240.47H224.094C224.064 240.76 224.034 241.055 224.004 241.355C223.984 241.645 223.974 241.93 223.974 242.21V248H222.759V246.23H222.924C222.764 246.82 222.434 247.285 221.934 247.625C221.434 247.965 220.854 248.135 220.194 248.135ZM220.434 247.145C221.154 247.145 221.724 246.9 222.144 246.41C222.564 245.91 222.774 245.185 222.774 244.235C222.774 243.275 222.564 242.55 222.144 242.06C221.724 241.56 221.154 241.31 220.434 241.31C219.724 241.31 219.154 241.56 218.724 242.06C218.304 242.55 218.094 243.275 218.094 244.235C218.094 245.185 218.304 245.91 218.724 246.41C219.154 246.9 219.724 247.145 220.434 247.145ZM226.323 248V242.21C226.323 241.93 226.308 241.645 226.278 241.355C226.258 241.055 226.233 240.76 226.203 240.47H227.373L227.523 242.12H227.343C227.543 241.55 227.858 241.11 228.288 240.8C228.728 240.49 229.258 240.335 229.878 240.335C230.508 240.335 231.018 240.485 231.408 240.785C231.808 241.085 232.078 241.55 232.218 242.18H231.993C232.183 241.61 232.518 241.16 232.998 240.83C233.478 240.5 234.038 240.335 234.678 240.335C235.508 240.335 236.133 240.575 236.553 241.055C236.973 241.525 237.183 242.27 237.183 243.29V248H235.968V243.365C235.968 242.655 235.843 242.14 235.593 241.82C235.343 241.49 234.943 241.325 234.393 241.325C233.763 241.325 233.263 241.545 232.893 241.985C232.533 242.415 232.353 242.995 232.353 243.725V248H231.138V243.365C231.138 242.655 231.013 242.14 230.763 241.82C230.513 241.49 230.113 241.325 229.563 241.325C228.933 241.325 228.438 241.545 228.078 241.985C227.718 242.415 227.538 242.995 227.538 243.725V248H226.323ZM242.837 248.135C241.657 248.135 240.727 247.795 240.047 247.115C239.367 246.425 239.027 245.47 239.027 244.25C239.027 243.46 239.177 242.775 239.477 242.195C239.777 241.605 240.197 241.15 240.737 240.83C241.277 240.5 241.897 240.335 242.597 240.335C243.287 240.335 243.867 240.48 244.337 240.77C244.807 241.06 245.167 241.475 245.417 242.015C245.667 242.545 245.792 243.175 245.792 243.905V244.355H239.957V243.59H244.997L244.742 243.785C244.742 242.985 244.562 242.36 244.202 241.91C243.842 241.46 243.307 241.235 242.597 241.235C241.847 241.235 241.262 241.5 240.842 242.03C240.422 242.55 240.212 243.255 240.212 244.145V244.28C240.212 245.22 240.442 245.935 240.902 246.425C241.372 246.905 242.027 247.145 242.867 247.145C243.317 247.145 243.737 247.08 244.127 246.95C244.527 246.81 244.907 246.585 245.267 246.275L245.687 247.13C245.357 247.45 244.937 247.7 244.427 247.88C243.927 248.05 243.397 248.135 242.837 248.135ZM253.572 248L250.782 240.47H252.072L254.397 247.1H254.007L256.407 240.47H257.457L259.812 247.1H259.437L261.777 240.47H263.007L260.202 248H259.032L256.602 241.265H257.202L254.757 248H253.572ZM264.599 248V240.47H265.814V248H264.599ZM264.449 238.76V237.395H265.949V238.76H264.449ZM270.843 248.135C270.103 248.135 269.538 247.925 269.148 247.505C268.758 247.075 268.563 246.43 268.563 245.57V241.415H267.093V240.47H268.563V238.415L269.778 238.07V240.47H271.938V241.415H269.778V245.435C269.778 246.035 269.878 246.465 270.078 246.725C270.288 246.975 270.598 247.1 271.008 247.1C271.198 247.1 271.368 247.085 271.518 247.055C271.668 247.015 271.803 246.97 271.923 246.92V247.94C271.783 248 271.613 248.045 271.413 248.075C271.223 248.115 271.033 248.135 270.843 248.135ZM273.417 248V236.96H274.632V242.135H274.437C274.647 241.545 274.997 241.1 275.487 240.8C275.987 240.49 276.562 240.335 277.212 240.335C278.112 240.335 278.782 240.58 279.222 241.07C279.662 241.55 279.882 242.28 279.882 243.26V248H278.667V243.335C278.667 242.635 278.527 242.125 278.247 241.805C277.977 241.485 277.537 241.325 276.927 241.325C276.227 241.325 275.667 241.54 275.247 241.97C274.837 242.4 274.632 242.965 274.632 243.665V248H273.417ZM285.818 251.405L285.533 250.4C286.003 250.29 286.393 250.16 286.703 250.01C287.023 249.87 287.288 249.68 287.498 249.44C287.708 249.2 287.888 248.9 288.038 248.54L288.428 247.655L288.398 248.165L285.113 240.47H286.433L289.148 247.085H288.758L291.443 240.47H292.718L289.238 248.63C289.038 249.11 288.818 249.51 288.578 249.83C288.338 250.16 288.078 250.425 287.798 250.625C287.528 250.835 287.228 251 286.898 251.12C286.568 251.24 286.208 251.335 285.818 251.405ZM297.074 248.135C296.354 248.135 295.724 247.98 295.184 247.67C294.654 247.35 294.244 246.9 293.954 246.32C293.664 245.73 293.519 245.035 293.519 244.235C293.519 243.425 293.664 242.73 293.954 242.15C294.244 241.57 294.654 241.125 295.184 240.815C295.724 240.495 296.354 240.335 297.074 240.335C297.804 240.335 298.434 240.495 298.964 240.815C299.504 241.125 299.919 241.57 300.209 242.15C300.509 242.73 300.659 243.425 300.659 244.235C300.659 245.035 300.509 245.73 300.209 246.32C299.919 246.9 299.504 247.35 298.964 247.67C298.434 247.98 297.804 248.135 297.074 248.135ZM297.074 247.145C297.794 247.145 298.364 246.9 298.784 246.41C299.204 245.91 299.414 245.185 299.414 244.235C299.414 243.275 299.199 242.55 298.769 242.06C298.349 241.56 297.784 241.31 297.074 241.31C296.364 241.31 295.799 241.56 295.379 242.06C294.959 242.55 294.749 243.275 294.749 244.235C294.749 245.185 294.959 245.91 295.379 246.41C295.799 246.9 296.364 247.145 297.074 247.145ZM305.208 248.135C304.318 248.135 303.643 247.89 303.183 247.4C302.733 246.91 302.508 246.16 302.508 245.15V240.47H303.723V245.12C303.723 245.81 303.863 246.32 304.143 246.65C304.423 246.97 304.858 247.13 305.448 247.13C306.108 247.13 306.638 246.915 307.038 246.485C307.438 246.055 307.638 245.48 307.638 244.76V240.47H308.853V248H307.668V246.305H307.863C307.653 246.885 307.313 247.335 306.843 247.655C306.383 247.975 305.838 248.135 305.208 248.135ZM311.18 248V242.285C311.18 241.985 311.17 241.68 311.15 241.37C311.14 241.06 311.12 240.76 311.09 240.47H312.26L312.41 242.3L312.2 242.315C312.3 241.865 312.475 241.495 312.725 241.205C312.975 240.915 313.27 240.7 313.61 240.56C313.95 240.41 314.305 240.335 314.675 240.335C314.825 240.335 314.955 240.34 315.065 240.35C315.185 240.36 315.295 240.385 315.395 240.425L315.38 241.505C315.23 241.455 315.09 241.425 314.96 241.415C314.84 241.395 314.7 241.385 314.54 241.385C314.1 241.385 313.715 241.49 313.385 241.7C313.065 241.91 312.82 242.18 312.65 242.51C312.49 242.84 312.41 243.19 312.41 243.56V248H311.18ZM165.167 268V261.415H163.697V260.47H165.497L165.167 260.785V259.525C165.167 258.675 165.382 258.025 165.812 257.575C166.242 257.125 166.857 256.9 167.657 256.9C167.857 256.9 168.062 256.92 168.272 256.96C168.492 256.99 168.672 257.035 168.812 257.095V258.1C168.692 258.05 168.542 258.01 168.362 257.98C168.192 257.94 168.017 257.92 167.837 257.92C167.527 257.92 167.262 257.985 167.042 258.115C166.822 258.235 166.657 258.42 166.547 258.67C166.437 258.92 166.382 259.24 166.382 259.63V260.725L166.187 260.47H168.482V261.415H166.382V268H165.167ZM169.816 268V262.285C169.816 261.985 169.806 261.68 169.786 261.37C169.776 261.06 169.756 260.76 169.726 260.47H170.896L171.046 262.3L170.836 262.315C170.936 261.865 171.111 261.495 171.361 261.205C171.611 260.915 171.906 260.7 172.246 260.56C172.586 260.41 172.941 260.335 173.311 260.335C173.461 260.335 173.591 260.34 173.701 260.35C173.821 260.36 173.931 260.385 174.031 260.425L174.016 261.505C173.866 261.455 173.726 261.425 173.596 261.415C173.476 261.395 173.336 261.385 173.176 261.385C172.736 261.385 172.351 261.49 172.021 261.7C171.701 261.91 171.456 262.18 171.286 262.51C171.126 262.84 171.046 263.19 171.046 263.56V268H169.816ZM175.295 268V260.47H176.51V268H175.295ZM175.145 258.76V257.395H176.645V258.76H175.145ZM182.214 268.135C181.034 268.135 180.104 267.795 179.424 267.115C178.744 266.425 178.404 265.47 178.404 264.25C178.404 263.46 178.554 262.775 178.854 262.195C179.154 261.605 179.574 261.15 180.114 260.83C180.654 260.5 181.274 260.335 181.974 260.335C182.664 260.335 183.244 260.48 183.714 260.77C184.184 261.06 184.544 261.475 184.794 262.015C185.044 262.545 185.169 263.175 185.169 263.905V264.355H179.334V263.59H184.374L184.119 263.785C184.119 262.985 183.939 262.36 183.579 261.91C183.219 261.46 182.684 261.235 181.974 261.235C181.224 261.235 180.639 261.5 180.219 262.03C179.799 262.55 179.589 263.255 179.589 264.145V264.28C179.589 265.22 179.819 265.935 180.279 266.425C180.749 266.905 181.404 267.145 182.244 267.145C182.694 267.145 183.114 267.08 183.504 266.95C183.904 266.81 184.284 266.585 184.644 266.275L185.064 267.13C184.734 267.45 184.314 267.7 183.804 267.88C183.304 268.05 182.774 268.135 182.214 268.135ZM187.028 268V262.21C187.028 261.93 187.013 261.645 186.983 261.355C186.963 261.055 186.938 260.76 186.908 260.47H188.078L188.228 262.12H188.048C188.268 261.54 188.618 261.1 189.098 260.8C189.588 260.49 190.153 260.335 190.793 260.335C191.683 260.335 192.353 260.575 192.803 261.055C193.263 261.525 193.493 262.27 193.493 263.29V268H192.278V263.365C192.278 262.655 192.133 262.14 191.843 261.82C191.563 261.49 191.123 261.325 190.523 261.325C189.823 261.325 189.268 261.54 188.858 261.97C188.448 262.4 188.243 262.975 188.243 263.695V268H187.028ZM198.667 268.135C198.007 268.135 197.427 267.98 196.927 267.67C196.427 267.35 196.037 266.9 195.757 266.32C195.487 265.74 195.352 265.045 195.352 264.235C195.352 263.415 195.487 262.715 195.757 262.135C196.037 261.555 196.427 261.11 196.927 260.8C197.427 260.49 198.007 260.335 198.667 260.335C199.347 260.335 199.932 260.505 200.422 260.845C200.922 261.185 201.257 261.645 201.427 262.225H201.247V256.96H202.462V268H201.262V266.2H201.427C201.267 266.8 200.937 267.275 200.437 267.625C199.937 267.965 199.347 268.135 198.667 268.135ZM198.922 267.145C199.632 267.145 200.202 266.9 200.632 266.41C201.062 265.91 201.277 265.185 201.277 264.235C201.277 263.275 201.062 262.55 200.632 262.06C200.202 261.56 199.632 261.31 198.922 261.31C198.212 261.31 197.642 261.56 197.212 262.06C196.792 262.55 196.582 263.275 196.582 264.235C196.582 265.185 196.792 265.91 197.212 266.41C197.642 266.9 198.212 267.145 198.922 267.145ZM207.316 268.135C206.716 268.135 206.156 268.055 205.636 267.895C205.116 267.725 204.686 267.49 204.346 267.19L204.766 266.335C205.136 266.625 205.536 266.84 205.966 266.98C206.406 267.12 206.861 267.19 207.331 267.19C207.931 267.19 208.381 267.085 208.681 266.875C208.991 266.655 209.146 266.355 209.146 265.975C209.146 265.685 209.046 265.455 208.846 265.285C208.656 265.105 208.341 264.965 207.901 264.865L206.506 264.58C205.866 264.44 205.386 264.205 205.066 263.875C204.746 263.535 204.586 263.105 204.586 262.585C204.586 262.145 204.701 261.76 204.931 261.43C205.161 261.09 205.496 260.825 205.936 260.635C206.376 260.435 206.891 260.335 207.481 260.335C208.031 260.335 208.536 260.42 208.996 260.59C209.466 260.75 209.856 260.985 210.166 261.295L209.731 262.135C209.431 261.845 209.086 261.63 208.696 261.49C208.316 261.34 207.921 261.265 207.511 261.265C206.921 261.265 206.476 261.385 206.176 261.625C205.886 261.855 205.741 262.16 205.741 262.54C205.741 262.83 205.831 263.07 206.011 263.26C206.201 263.44 206.491 263.575 206.881 263.665L208.276 263.95C208.956 264.1 209.461 264.335 209.791 264.655C210.131 264.965 210.301 265.385 210.301 265.915C210.301 266.365 210.176 266.76 209.926 267.1C209.676 267.43 209.326 267.685 208.876 267.865C208.436 268.045 207.916 268.135 207.316 268.135ZM211.94 268V266.47H213.47V268H211.94Z" fill="#100F0D"/>
<path d="M189.547 165C206.115 165 219.547 151.569 219.547 135C219.547 118.431 206.115 105 189.547 105C172.978 105 159.547 118.431 159.547 135C159.547 151.569 172.978 165 189.547 165Z" fill="#FFC83E"/>
<path opacity="0.3" d="M192.547 167C209.115 167 222.547 153.569 222.547 137C222.547 120.431 209.115 107 192.547 107C175.978 107 162.547 120.431 162.547 137C162.547 153.569 175.978 167 192.547 167Z" fill="#FFC83E"/>
<path d="M186.768 149.766C186.448 149.766 186.078 149.736 185.658 149.676C185.218 149.616 184.838 149.516 184.518 149.376V146.916C184.778 146.996 185.068 147.066 185.388 147.126C185.688 147.206 185.978 147.246 186.258 147.246C187.038 147.246 187.628 146.996 188.028 146.496C188.448 146.016 188.658 145.216 188.658 144.096V128.016H191.688V144.306C191.688 146.106 191.288 147.466 190.488 148.386C189.688 149.306 188.448 149.766 186.768 149.766ZM188.388 124.866V121.716H191.928V124.866H188.388Z" fill="white"/>
<path fill-rule="evenodd" clip-rule="evenodd" d="M210.5 124C215.747 124 220 119.747 220 114.5C220 109.253 215.747 105 210.5 105C205.253 105 201 109.253 201 114.5C201 119.747 205.253 124 210.5 124Z" fill="white"/>
<g clip-path="url(#clip0_47080_11117)">
<circle cx="210.498" cy="114.5" r="7.6" fill="#40196D"/>
<path d="M210.997 111.448H212.354L209.972 114.454L212.408 117.461H210.984L208.467 114.576L210.997 111.448Z" fill="white"/>
<path d="M209.026 111.448H209.974L208.529 114.576L209.907 117.461H208.878L207.648 114.549L209.026 111.448Z" fill="white"/>
<path d="M207.695 111.448H208.235L207.656 114.549L208.235 117.461H207.695L207.13 114.549L207.695 111.448Z" fill="white"/>
<path d="M206.922 111.448H207.224V117.461H206.922V111.448Z" fill="white"/>
<circle cx="213.197" cy="116.814" r="0.674002" fill="white"/>
</g>
<path d="M246.524 146C245.043 146 243.69 145.766 242.465 145.297C241.241 144.844 240.183 144.178 239.291 143.302C238.414 142.44 237.734 141.412 237.25 140.218C236.781 139.023 236.547 137.701 236.547 136.249C236.547 134.707 236.789 133.309 237.272 132.054C237.771 130.785 238.482 129.704 239.404 128.812C240.326 127.905 241.422 127.209 242.692 126.726C243.977 126.242 245.398 126 246.955 126C248.799 126 250.402 126.355 251.762 127.066C253.138 127.761 254.204 128.744 254.96 130.014C255.715 131.283 256.093 132.788 256.093 134.526C256.093 135.826 255.904 136.96 255.526 137.927C255.149 138.88 254.619 139.613 253.939 140.127C253.259 140.641 252.465 140.898 251.558 140.898C250.621 140.898 249.88 140.649 249.336 140.15C248.807 139.651 248.505 138.948 248.429 138.041L249.268 137.61C248.905 138.714 248.368 139.537 247.658 140.082C246.963 140.626 246.177 140.898 245.3 140.898C244.06 140.898 243.1 140.512 242.42 139.741C241.74 138.971 241.399 137.92 241.399 136.59C241.399 135.471 241.604 134.488 242.012 133.642C242.435 132.78 243.009 132.107 243.735 131.624C244.476 131.125 245.322 130.875 246.275 130.875C247.091 130.875 247.749 131.072 248.248 131.465C248.762 131.858 249.117 132.447 249.313 133.234H248.86L249.268 131.102H251.74L250.81 136.34C250.765 136.612 250.727 136.862 250.697 137.088C250.666 137.3 250.651 137.489 250.651 137.655C250.651 138.109 250.742 138.441 250.923 138.653C251.105 138.85 251.377 138.948 251.74 138.948C252.178 138.948 252.571 138.766 252.919 138.404C253.266 138.041 253.539 137.527 253.735 136.862C253.932 136.181 254.03 135.403 254.03 134.526C254.03 133.135 253.743 131.956 253.168 130.989C252.609 130.021 251.8 129.288 250.742 128.789C249.699 128.275 248.437 128.018 246.955 128.018C245.322 128.018 243.894 128.358 242.669 129.039C241.445 129.704 240.5 130.656 239.835 131.896C239.17 133.12 238.837 134.571 238.837 136.249C238.837 137.837 239.147 139.212 239.767 140.376C240.402 141.54 241.294 142.432 242.443 143.052C243.607 143.672 244.967 143.982 246.524 143.982C247.628 143.982 248.633 143.831 249.54 143.528C250.462 143.241 251.279 142.818 251.989 142.259L252.964 144.027C252.238 144.647 251.316 145.131 250.198 145.478C249.094 145.826 247.87 146 246.524 146ZM245.844 138.812C246.373 138.812 246.834 138.661 247.227 138.358C247.635 138.041 247.953 137.595 248.18 137.02C248.406 136.431 248.52 135.758 248.52 135.002C248.52 134.337 248.376 133.838 248.089 133.506C247.802 133.158 247.356 132.984 246.751 132.984C246.222 132.984 245.746 133.135 245.322 133.438C244.914 133.725 244.589 134.141 244.347 134.685C244.121 135.214 244.007 135.841 244.007 136.567C244.007 137.293 244.166 137.852 244.483 138.245C244.801 138.623 245.254 138.812 245.844 138.812Z" fill="#1DCBEF"/>
<path d="M135.977 146C134.496 146 133.143 145.766 131.918 145.297C130.694 144.844 129.636 144.178 128.744 143.302C127.867 142.44 127.187 141.412 126.703 140.218C126.234 139.023 126 137.701 126 136.249C126 134.707 126.242 133.309 126.726 132.054C127.224 130.785 127.935 129.704 128.857 128.812C129.779 127.905 130.875 127.209 132.145 126.726C133.43 126.242 134.851 126 136.408 126C138.252 126 139.855 126.355 141.215 127.066C142.591 127.761 143.657 128.744 144.413 130.014C145.169 131.283 145.546 132.788 145.546 134.526C145.546 135.826 145.358 136.96 144.98 137.927C144.602 138.88 144.073 139.613 143.392 140.127C142.712 140.641 141.918 140.898 141.011 140.898C140.074 140.898 139.333 140.649 138.789 140.15C138.26 139.651 137.958 138.948 137.882 138.041L138.721 137.61C138.358 138.714 137.822 139.537 137.111 140.082C136.416 140.626 135.63 140.898 134.753 140.898C133.513 140.898 132.553 140.512 131.873 139.741C131.193 138.971 130.853 137.92 130.853 136.59C130.853 135.471 131.057 134.488 131.465 133.642C131.888 132.78 132.463 132.107 133.188 131.624C133.929 131.125 134.776 130.875 135.728 130.875C136.544 130.875 137.202 131.072 137.701 131.465C138.215 131.858 138.57 132.447 138.766 133.234H138.313L138.721 131.102H141.193L140.263 136.34C140.218 136.612 140.18 136.862 140.15 137.088C140.119 137.3 140.104 137.489 140.104 137.655C140.104 138.109 140.195 138.441 140.376 138.653C140.558 138.85 140.83 138.948 141.193 138.948C141.631 138.948 142.024 138.766 142.372 138.404C142.72 138.041 142.992 137.527 143.188 136.862C143.385 136.181 143.483 135.403 143.483 134.526C143.483 133.135 143.196 131.956 142.621 130.989C142.062 130.021 141.253 129.288 140.195 128.789C139.152 128.275 137.89 128.018 136.408 128.018C134.776 128.018 133.347 128.358 132.122 129.039C130.898 129.704 129.953 130.656 129.288 131.896C128.623 133.12 128.29 134.571 128.29 136.249C128.29 137.837 128.6 139.212 129.22 140.376C129.855 141.54 130.747 142.432 131.896 143.052C133.06 143.672 134.42 143.982 135.977 143.982C137.081 143.982 138.086 143.831 138.993 143.528C139.915 143.241 140.732 142.818 141.442 142.259L142.417 144.027C141.692 144.647 140.769 145.131 139.651 145.478C138.547 145.826 137.323 146 135.977 146ZM135.297 138.812C135.826 138.812 136.287 138.661 136.68 138.358C137.088 138.041 137.406 137.595 137.633 137.02C137.859 136.431 137.973 135.758 137.973 135.002C137.973 134.337 137.829 133.838 137.542 133.506C137.255 133.158 136.809 132.984 136.204 132.984C135.675 132.984 135.199 133.135 134.776 133.438C134.367 133.725 134.042 134.141 133.8 134.685C133.574 135.214 133.46 135.841 133.46 136.567C133.46 137.293 133.619 137.852 133.937 138.245C134.254 138.623 134.707 138.812 135.297 138.812Z" fill="#48D38A"/>
<path d="M104.807 146C104.952 146 105.076 145.951 105.177 145.853C105.279 145.762 105.342 145.643 105.367 145.496C105.5 144.567 105.646 143.779 105.804 143.131C105.963 142.489 106.169 141.964 106.422 141.555C106.682 141.139 107.021 140.809 107.439 140.565C107.863 140.314 108.402 140.119 109.054 139.978C109.707 139.837 110.508 139.715 111.458 139.611C111.617 139.593 111.747 139.535 111.848 139.437C111.949 139.333 112 139.205 112 139.052C112 138.912 111.949 138.789 111.848 138.686C111.747 138.582 111.62 138.521 111.468 138.502C110.518 138.392 109.716 138.267 109.064 138.126C108.411 137.986 107.876 137.793 107.458 137.549C107.04 137.299 106.701 136.969 106.441 136.559C106.188 136.144 105.979 135.618 105.814 134.983C105.655 134.341 105.507 133.55 105.367 132.609C105.342 132.468 105.279 132.352 105.177 132.26C105.076 132.163 104.952 132.114 104.807 132.114C104.655 132.114 104.528 132.163 104.426 132.26C104.325 132.352 104.262 132.468 104.236 132.609C104.103 133.55 103.958 134.341 103.799 134.983C103.641 135.624 103.432 136.153 103.172 136.568C102.919 136.978 102.58 137.308 102.155 137.558C101.737 137.803 101.202 137.995 100.549 138.136C99.897 138.276 99.0956 138.398 98.1453 138.502C97.9806 138.521 97.8476 138.582 97.7462 138.686C97.6512 138.783 97.6037 138.906 97.6037 139.052C97.6037 139.199 97.6512 139.324 97.7462 139.428C97.8476 139.532 97.9775 139.593 98.1358 139.611C99.0861 139.734 99.8843 139.871 100.53 140.024C101.183 140.17 101.718 140.366 102.136 140.61C102.555 140.855 102.89 141.179 103.144 141.582C103.403 141.985 103.612 142.505 103.771 143.14C103.936 143.782 104.091 144.567 104.236 145.496C104.262 145.643 104.325 145.762 104.426 145.853C104.528 145.951 104.655 146 104.807 146ZM98.5254 136.376C98.6205 136.376 98.6996 136.348 98.763 136.293C98.8327 136.232 98.8739 136.159 98.8865 136.073C98.9625 135.499 99.0417 135.053 99.1241 134.735C99.2064 134.411 99.3331 134.17 99.5042 134.011C99.6816 133.846 99.9445 133.718 100.293 133.626C100.641 133.534 101.126 133.434 101.747 133.324C101.956 133.287 102.06 133.171 102.06 132.975C102.06 132.884 102.029 132.807 101.965 132.746C101.908 132.685 101.835 132.648 101.747 132.636C101.126 132.557 100.638 132.477 100.283 132.398C99.935 132.312 99.6752 132.187 99.5042 132.022C99.3331 131.851 99.2064 131.6 99.1241 131.27C99.0417 130.94 98.9625 130.485 98.8865 129.905C98.8612 129.691 98.7408 129.584 98.5254 129.584C98.3164 129.584 98.1992 129.694 98.1738 129.914C98.1042 130.482 98.0281 130.925 97.9458 131.243C97.8698 131.561 97.7431 131.802 97.5657 131.967C97.3883 132.126 97.1222 132.251 96.7675 132.343C96.4127 132.428 95.9281 132.526 95.3136 132.636C95.1045 132.673 95 132.786 95 132.975C95 133.171 95.1204 133.287 95.3611 133.324C95.9629 133.415 96.438 133.504 96.7865 133.589C97.1349 133.675 97.3946 133.8 97.5657 133.965C97.7431 134.13 97.8698 134.378 97.9458 134.708C98.0281 135.031 98.1042 135.481 98.1738 136.055C98.1992 136.269 98.3164 136.376 98.5254 136.376ZM102.897 130.28C103.017 130.28 103.093 130.213 103.125 130.079C103.207 129.621 103.283 129.288 103.353 129.08C103.429 128.866 103.578 128.716 103.799 128.631C104.021 128.545 104.392 128.453 104.911 128.356C105.044 128.331 105.111 128.258 105.111 128.136C105.111 128.013 105.041 127.94 104.902 127.916C104.388 127.83 104.021 127.748 103.799 127.668C103.578 127.583 103.429 127.436 103.353 127.228C103.283 127.014 103.207 126.672 103.125 126.202C103.099 126.067 103.023 126 102.897 126C102.764 126 102.684 126.067 102.659 126.202C102.577 126.666 102.497 127.002 102.421 127.21C102.352 127.418 102.206 127.564 101.984 127.65C101.763 127.735 101.395 127.824 100.882 127.916C100.743 127.94 100.673 128.013 100.673 128.136C100.673 128.258 100.743 128.331 100.882 128.356C101.402 128.447 101.769 128.536 101.984 128.621C102.206 128.707 102.352 128.857 102.421 129.071C102.497 129.278 102.577 129.614 102.659 130.079C102.684 130.213 102.764 130.28 102.897 130.28Z" fill="#FFC83E"/>
<path d="M279.916 132.269L274.95 136.086L270.094 134.116L283.094 129.091L278.069 142.091L276.099 137.234L279.916 132.269Z" fill="#F7685B"/>
<rect x="60" y="298" width="257.5" height="42.2761" rx="3.07463" fill="#F9F9F9"/>
<path d="M262.543 324.093C261.895 324.093 261.334 323.966 260.86 323.713C260.392 323.459 260.029 323.101 259.769 322.639C259.516 322.176 259.389 321.635 259.389 321.015C259.389 320.395 259.516 319.857 259.769 319.4C260.029 318.938 260.392 318.58 260.86 318.327C261.334 318.073 261.895 317.946 262.543 317.946C262.954 317.946 263.329 318.002 263.667 318.115C264.005 318.222 264.29 318.377 264.521 318.58L264.056 319.806C263.797 319.62 263.557 319.491 263.338 319.417C263.123 319.338 262.878 319.299 262.602 319.299C262.095 319.299 261.703 319.448 261.427 319.747C261.156 320.04 261.021 320.463 261.021 321.015C261.021 321.573 261.156 322.002 261.427 322.3C261.703 322.594 262.095 322.74 262.602 322.74C262.878 322.74 263.123 322.704 263.338 322.63C263.557 322.551 263.797 322.419 264.056 322.233L264.521 323.459C264.29 323.662 264.005 323.82 263.667 323.932C263.329 324.039 262.954 324.093 262.543 324.093ZM264.979 321.015C264.979 320.395 265.1 319.857 265.343 319.4C265.585 318.938 265.932 318.58 266.383 318.327C266.833 318.073 267.366 317.946 267.981 317.946C268.601 317.946 269.136 318.073 269.587 318.327C270.038 318.58 270.385 318.938 270.627 319.4C270.875 319.857 270.999 320.395 270.999 321.015C270.999 321.63 270.875 322.168 270.627 322.63C270.385 323.092 270.038 323.453 269.587 323.713C269.136 323.966 268.601 324.093 267.981 324.093C267.366 324.093 266.833 323.966 266.383 323.713C265.937 323.453 265.591 323.092 265.343 322.63C265.1 322.168 264.979 321.63 264.979 321.015ZM266.611 321.015C266.611 321.573 266.724 322.01 266.949 322.326C267.175 322.636 267.518 322.791 267.981 322.791C268.443 322.791 268.789 322.636 269.021 322.326C269.252 322.01 269.367 321.573 269.367 321.015C269.367 320.457 269.252 320.023 269.021 319.713C268.789 319.403 268.443 319.248 267.981 319.248C267.518 319.248 267.175 319.403 266.949 319.713C266.724 320.018 266.611 320.452 266.611 321.015ZM271.935 324V318.039H274.861C275.548 318.039 276.067 318.208 276.416 318.546C276.766 318.879 276.941 319.333 276.941 319.908C276.941 320.477 276.766 320.931 276.416 321.269C276.067 321.607 275.548 321.776 274.861 321.776H273.499V324H271.935ZM273.499 320.576H274.658C274.923 320.576 275.12 320.519 275.25 320.407C275.379 320.288 275.444 320.122 275.444 319.908C275.444 319.693 275.379 319.527 275.25 319.409C275.12 319.29 274.923 319.231 274.658 319.231H273.499V320.576ZM279.153 324V321.151L279.466 322.013L276.794 318.039H278.595L280.108 320.432H279.804L281.317 318.039H283.059L280.404 322.013L280.717 321.151V324H279.153Z" fill="#48D38A"/>
<rect x="291.318" y="313.758" width="10.0341" height="9.22388" rx="2.6903" stroke="#48D38A" stroke-width="0.768657"/>
<rect x="288.826" y="316.064" width="10.0341" height="9.22388" rx="2.6903" fill="#48D38A" stroke="#48D38A" stroke-width="0.768657"/>
<path d="M81.0323 331.899C80.279 331.899 79.591 331.78 78.9684 331.542C78.3458 331.311 77.8077 330.973 77.3542 330.527C76.9084 330.089 76.5625 329.566 76.3165 328.959C76.0783 328.352 75.9591 327.679 75.9591 326.941C75.9591 326.157 76.0821 325.446 76.3281 324.808C76.5817 324.163 76.943 323.613 77.4119 323.16C77.8808 322.698 78.438 322.345 79.0837 322.099C79.7371 321.853 80.4596 321.73 81.2513 321.73C82.1891 321.73 83.0039 321.911 83.6956 322.272C84.3951 322.625 84.937 323.125 85.3214 323.771C85.7057 324.416 85.8978 325.181 85.8978 326.065C85.8978 326.726 85.8018 327.303 85.6096 327.795C85.4174 328.279 85.1484 328.652 84.8025 328.913C84.4566 329.174 84.0531 329.305 83.5919 329.305C83.1153 329.305 82.7387 329.178 82.462 328.925C82.1929 328.671 82.0392 328.314 82.0008 327.852L82.4274 327.633C82.2429 328.194 81.97 328.613 81.6087 328.89C81.2552 329.167 80.8555 329.305 80.4096 329.305C79.7793 329.305 79.2912 329.109 78.9453 328.717C78.5995 328.325 78.4265 327.791 78.4265 327.114C78.4265 326.546 78.5303 326.046 78.7378 325.616C78.953 325.177 79.2451 324.835 79.6141 324.589C79.9907 324.336 80.4212 324.209 80.9054 324.209C81.3205 324.209 81.6549 324.309 81.9085 324.509C82.1699 324.709 82.3505 325.008 82.4504 325.408H82.2198L82.4274 324.324H83.6841L83.2114 326.988C83.1883 327.126 83.1691 327.253 83.1537 327.368C83.1384 327.476 83.1307 327.572 83.1307 327.656C83.1307 327.887 83.1768 328.056 83.269 328.164C83.3613 328.264 83.4996 328.314 83.6841 328.314C83.907 328.314 84.1069 328.221 84.2837 328.037C84.4605 327.852 84.5988 327.591 84.6987 327.253C84.7987 326.907 84.8486 326.511 84.8486 326.065C84.8486 325.358 84.7026 324.758 84.4105 324.267C84.1261 323.775 83.7149 323.402 83.1768 323.148C82.6464 322.887 82.0046 322.756 81.2513 322.756C80.4212 322.756 79.6948 322.929 79.0722 323.275C78.4496 323.613 77.9692 324.097 77.6309 324.728C77.2927 325.35 77.1236 326.088 77.1236 326.941C77.1236 327.749 77.2812 328.448 77.5964 329.04C77.9192 329.632 78.3727 330.085 78.9569 330.4C79.5487 330.716 80.2405 330.873 81.0323 330.873C81.5934 330.873 82.1045 330.796 82.5657 330.643C83.0346 330.497 83.4497 330.281 83.8109 329.997L84.3067 330.896C83.9378 331.211 83.4689 331.457 82.9001 331.634C82.339 331.811 81.7164 331.899 81.0323 331.899ZM80.6864 328.244C80.9554 328.244 81.1898 328.167 81.3897 328.014C81.5972 327.852 81.7586 327.626 81.8739 327.333C81.9892 327.034 82.0469 326.692 82.0469 326.307C82.0469 325.969 81.9739 325.715 81.8278 325.546C81.6818 325.37 81.455 325.281 81.1475 325.281C80.8785 325.281 80.6364 325.358 80.4212 325.512C80.2136 325.658 80.0484 325.869 79.9254 326.146C79.8101 326.415 79.7524 326.734 79.7524 327.103C79.7524 327.472 79.8331 327.756 79.9946 327.956C80.156 328.148 80.3866 328.244 80.6864 328.244Z" fill="#CACACA"/>
<path d="M86.7039 332.557C86.5348 332.557 86.3619 332.545 86.1851 332.522C86.0006 332.499 85.8354 332.457 85.6893 332.395V331.046C85.7969 331.077 85.9084 331.104 86.0237 331.127C86.1313 331.15 86.2389 331.161 86.3465 331.161C86.5925 331.161 86.7923 331.085 86.9461 330.931C87.1075 330.785 87.1882 330.527 87.1882 330.158V324.14H88.9292V330.239C88.9292 331 88.7486 331.576 88.3873 331.968C88.0337 332.361 87.4726 332.557 86.7039 332.557ZM87.1075 323.183V321.557H88.9869V323.183H87.1075ZM92.612 330.112C92.1047 330.112 91.6589 329.989 91.2745 329.743C90.8902 329.497 90.5904 329.148 90.3752 328.694C90.16 328.241 90.0524 327.695 90.0524 327.057C90.0524 326.426 90.16 325.885 90.3752 325.431C90.5904 324.978 90.8902 324.632 91.2745 324.393C91.6589 324.147 92.1047 324.024 92.612 324.024C93.0809 324.024 93.4998 324.14 93.8688 324.37C94.2454 324.593 94.4914 324.897 94.6067 325.281H94.4798L94.6182 324.14H96.29C96.267 324.393 96.2439 324.651 96.2208 324.912C96.2055 325.166 96.1978 325.416 96.1978 325.662V329.985H94.4683L94.4568 328.89H94.5951C94.4722 329.259 94.2262 329.555 93.8572 329.778C93.4883 330.001 93.0732 330.112 92.612 330.112ZM93.1424 328.798C93.5421 328.798 93.8649 328.656 94.1109 328.371C94.3569 328.087 94.4798 327.649 94.4798 327.057C94.4798 326.465 94.3569 326.031 94.1109 325.754C93.8649 325.477 93.5421 325.339 93.1424 325.339C92.7427 325.339 92.4198 325.477 92.1739 325.754C91.9279 326.031 91.8049 326.465 91.8049 327.057C91.8049 327.649 91.9241 328.087 92.1623 328.371C92.4083 328.656 92.735 328.798 93.1424 328.798ZM97.6256 329.985V325.662C97.6256 325.416 97.6179 325.166 97.6025 324.912C97.5872 324.651 97.5641 324.393 97.5334 324.14H99.2052L99.332 325.224H99.1937C99.3858 324.839 99.6587 324.543 100.012 324.336C100.366 324.128 100.777 324.024 101.246 324.024C101.93 324.024 102.441 324.224 102.779 324.624C103.125 325.016 103.298 325.627 103.298 326.457V329.985H101.557V326.538C101.557 326.115 101.48 325.815 101.327 325.639C101.173 325.462 100.942 325.373 100.635 325.373C100.251 325.373 99.9431 325.496 99.7125 325.742C99.4819 325.981 99.3666 326.303 99.3666 326.711V329.985H97.6256ZM107.637 330.112C106.622 330.112 105.83 329.839 105.262 329.294C104.693 328.748 104.408 328.006 104.408 327.068C104.408 326.461 104.528 325.931 104.766 325.477C105.012 325.024 105.35 324.67 105.78 324.416C106.219 324.155 106.73 324.024 107.314 324.024C107.89 324.024 108.371 324.147 108.755 324.393C109.147 324.639 109.439 324.985 109.631 325.431C109.831 325.869 109.931 326.38 109.931 326.965V327.368H105.838V326.503H108.663L108.467 326.665C108.467 326.181 108.367 325.815 108.167 325.569C107.975 325.316 107.694 325.189 107.325 325.189C106.918 325.189 106.603 325.339 106.38 325.639C106.165 325.938 106.057 326.369 106.057 326.93V327.114C106.057 327.683 106.196 328.106 106.472 328.383C106.757 328.659 107.164 328.798 107.694 328.798C108.01 328.798 108.305 328.759 108.582 328.682C108.867 328.598 109.136 328.467 109.389 328.29L109.874 329.443C109.581 329.659 109.243 329.824 108.859 329.939C108.482 330.055 108.075 330.112 107.637 330.112Z" fill="#121212"/>
<path d="M77.5356 314.456V311.657L77.7301 312.215L75.2189 308.495H76.2335L78.1021 311.344H77.8908L79.7594 308.495H80.7402L78.2374 312.215L78.415 311.657V314.456H77.5356ZM82.3562 314.532C81.9335 314.532 81.5671 314.444 81.2571 314.27C80.947 314.089 80.7075 313.836 80.5384 313.509C80.3693 313.176 80.2847 312.781 80.2847 312.325C80.2847 311.868 80.3693 311.477 80.5384 311.15C80.7075 310.817 80.947 310.563 81.2571 310.389C81.5671 310.208 81.9335 310.118 82.3562 310.118C82.779 310.118 83.1454 310.208 83.4554 310.389C83.7711 310.563 84.0135 310.817 84.1826 311.15C84.3573 311.477 84.4447 311.868 84.4447 312.325C84.4447 312.781 84.3573 313.176 84.1826 313.509C84.0135 313.836 83.7711 314.089 83.4554 314.27C83.1454 314.444 82.779 314.532 82.3562 314.532ZM82.3562 313.864C82.7283 313.864 83.0242 313.734 83.244 313.475C83.4639 313.215 83.5738 312.832 83.5738 312.325C83.5738 311.818 83.4639 311.437 83.244 311.183C83.0242 310.924 82.7283 310.794 82.3562 310.794C81.9898 310.794 81.6967 310.924 81.4769 311.183C81.2571 311.437 81.1471 311.818 81.1471 312.325C81.1471 312.832 81.2542 313.215 81.4684 313.475C81.6883 313.734 81.9842 313.864 82.3562 313.864ZM86.9563 314.532C86.4434 314.532 86.0573 314.394 85.798 314.117C85.5443 313.836 85.4175 313.404 85.4175 312.824V310.194H86.2715V312.807C86.2715 313.162 86.3447 313.424 86.4913 313.593C86.6379 313.762 86.8605 313.847 87.1593 313.847C87.4975 313.847 87.7709 313.734 87.9794 313.509C88.188 313.283 88.2923 312.984 88.2923 312.612V310.194H89.1462V314.456H88.3176V313.542H88.4275C88.3092 313.858 88.1203 314.103 87.861 314.278C87.6018 314.447 87.3002 314.532 86.9563 314.532ZM90.3802 314.456V311.251C90.3802 311.076 90.3745 310.902 90.3633 310.727C90.3576 310.546 90.3464 310.369 90.3294 310.194H91.1581L91.2511 311.293H91.1158C91.1721 311.028 91.268 310.809 91.4033 310.634C91.5385 310.459 91.702 310.329 91.8937 310.245C92.0909 310.16 92.2967 310.118 92.5109 310.118C92.6011 310.118 92.6772 310.124 92.7392 310.135C92.8012 310.141 92.8632 310.152 92.9252 310.169L92.9167 310.93C92.8209 310.89 92.7364 310.868 92.6631 310.862C92.5954 310.851 92.5109 310.845 92.4094 310.845C92.1614 310.845 91.95 310.902 91.7753 311.014C91.6005 311.121 91.4681 311.268 91.3779 311.454C91.2877 311.64 91.2426 311.84 91.2426 312.054V314.456H90.3802ZM97.352 314.532C96.839 314.532 96.4529 314.394 96.1936 314.117C95.9399 313.836 95.8131 313.404 95.8131 312.824V310.194H96.6671V312.807C96.6671 313.162 96.7404 313.424 96.8869 313.593C97.0335 313.762 97.2561 313.847 97.5549 313.847C97.8931 313.847 98.1665 313.734 98.375 313.509C98.5836 313.283 98.6879 312.984 98.6879 312.612V310.194H99.5419V314.456H98.7133V313.542H98.8232C98.7048 313.858 98.516 314.103 98.2567 314.278C97.9974 314.447 97.6958 314.532 97.352 314.532ZM102.255 314.532C101.9 314.532 101.573 314.487 101.275 314.396C100.976 314.306 100.728 314.179 100.531 314.016L100.793 313.432C101.001 313.59 101.232 313.709 101.486 313.788C101.74 313.867 101.999 313.906 102.264 313.906C102.574 313.906 102.808 313.852 102.966 313.745C103.124 313.633 103.202 313.48 103.202 313.289C103.202 313.142 103.152 313.024 103.05 312.934C102.954 312.843 102.794 312.776 102.568 312.731L101.757 312.57C101.396 312.491 101.122 312.356 100.936 312.164C100.75 311.973 100.657 311.727 100.657 311.429C100.657 311.175 100.725 310.949 100.86 310.752C101.001 310.555 101.199 310.4 101.452 310.287C101.712 310.174 102.013 310.118 102.357 310.118C102.673 310.118 102.966 310.163 103.236 310.253C103.507 310.344 103.732 310.473 103.913 310.642L103.642 311.209C103.467 311.062 103.27 310.949 103.05 310.871C102.83 310.786 102.608 310.744 102.382 310.744C102.067 310.744 101.833 310.803 101.681 310.921C101.528 311.04 101.452 311.195 101.452 311.386C101.452 311.533 101.497 311.654 101.588 311.75C101.683 311.84 101.833 311.911 102.036 311.961L102.847 312.122C103.231 312.201 103.518 312.33 103.71 312.511C103.901 312.691 103.997 312.934 103.997 313.238C103.997 313.503 103.924 313.734 103.777 313.931C103.631 314.129 103.428 314.278 103.169 314.379C102.909 314.481 102.605 314.532 102.255 314.532ZM106.974 314.532C106.286 314.532 105.745 314.337 105.35 313.948C104.956 313.559 104.759 313.021 104.759 312.333C104.759 311.888 104.843 311.499 105.012 311.166C105.187 310.834 105.427 310.577 105.731 310.397C106.041 310.211 106.399 310.118 106.805 310.118C107.205 310.118 107.54 310.203 107.811 310.372C108.082 310.541 108.287 310.78 108.428 311.09C108.569 311.395 108.64 311.756 108.64 312.173V312.443H105.427V311.953H108.056L107.912 312.063C107.912 311.64 107.817 311.313 107.625 311.082C107.439 310.845 107.168 310.727 106.813 310.727C106.419 310.727 106.114 310.865 105.9 311.141C105.686 311.412 105.579 311.787 105.579 312.266V312.35C105.579 312.852 105.7 313.23 105.942 313.483C106.19 313.737 106.54 313.864 106.991 313.864C107.239 313.864 107.47 313.83 107.684 313.762C107.904 313.689 108.113 313.571 108.31 313.407L108.589 313.991C108.392 314.165 108.152 314.301 107.87 314.396C107.588 314.487 107.29 314.532 106.974 314.532ZM109.603 314.456V311.251C109.603 311.076 109.597 310.902 109.586 310.727C109.58 310.546 109.569 310.369 109.552 310.194H110.38L110.473 311.293H110.338C110.395 311.028 110.49 310.809 110.626 310.634C110.761 310.459 110.924 310.329 111.116 310.245C111.313 310.16 111.519 310.118 111.733 310.118C111.824 310.118 111.9 310.124 111.962 310.135C112.024 310.141 112.086 310.152 112.148 310.169L112.139 310.93C112.043 310.89 111.959 310.868 111.886 310.862C111.818 310.851 111.733 310.845 111.632 310.845C111.384 310.845 111.172 310.902 110.998 311.014C110.823 311.121 110.691 311.268 110.6 311.454C110.51 311.64 110.465 311.84 110.465 312.054V314.456H109.603ZM112.807 314.456V311.217C112.807 311.054 112.798 310.887 112.781 310.718C112.77 310.544 112.756 310.369 112.739 310.194H113.568L113.644 311.09H113.542C113.672 310.775 113.872 310.535 114.143 310.372C114.413 310.203 114.726 310.118 115.081 310.118C115.583 310.118 115.961 310.256 116.214 310.532C116.473 310.809 116.603 311.237 116.603 311.818V314.456H115.749V311.868C115.749 311.491 115.673 311.22 115.521 311.057C115.374 310.887 115.149 310.803 114.844 310.803C114.484 310.803 114.196 310.916 113.982 311.141C113.768 311.361 113.661 311.66 113.661 312.037V314.456H112.807ZM119.451 314.532C119.073 314.532 118.743 314.444 118.461 314.27C118.18 314.095 117.96 313.841 117.802 313.509C117.65 313.176 117.574 312.781 117.574 312.325C117.574 311.863 117.65 311.468 117.802 311.141C117.96 310.814 118.18 310.563 118.461 310.389C118.743 310.208 119.073 310.118 119.451 310.118C119.823 310.118 120.147 310.211 120.423 310.397C120.699 310.583 120.882 310.837 120.973 311.158H120.88L120.964 310.194H121.793C121.776 310.369 121.759 310.544 121.742 310.718C121.731 310.887 121.725 311.054 121.725 311.217V314.456H120.871V313.509H120.964C120.874 313.824 120.688 314.075 120.406 314.261C120.13 314.441 119.811 314.532 119.451 314.532ZM119.662 313.864C120.028 313.864 120.322 313.734 120.541 313.475C120.767 313.215 120.88 312.832 120.88 312.325C120.88 311.818 120.767 311.437 120.541 311.183C120.322 310.924 120.028 310.794 119.662 310.794C119.29 310.794 118.991 310.924 118.766 311.183C118.546 311.437 118.436 311.818 118.436 312.325C118.436 312.832 118.546 313.215 118.766 313.475C118.986 313.734 119.284 313.864 119.662 313.864ZM122.971 314.456V311.217C122.971 311.054 122.963 310.887 122.946 310.718C122.935 310.544 122.92 310.369 122.904 310.194H123.732L123.808 311.09H123.707C123.825 310.78 124.006 310.541 124.248 310.372C124.496 310.203 124.792 310.118 125.136 310.118C125.485 310.118 125.77 310.203 125.99 310.372C126.215 310.535 126.37 310.789 126.455 311.133H126.319C126.432 310.823 126.624 310.577 126.894 310.397C127.165 310.211 127.478 310.118 127.833 310.118C128.306 310.118 128.662 310.256 128.898 310.532C129.135 310.809 129.253 311.237 129.253 311.818V314.456H128.399V311.86C128.399 311.488 128.335 311.22 128.205 311.057C128.081 310.887 127.878 310.803 127.596 310.803C127.269 310.803 127.01 310.916 126.818 311.141C126.627 311.367 126.531 311.671 126.531 312.054V314.456H125.677V311.86C125.677 311.488 125.612 311.22 125.482 311.057C125.358 310.887 125.155 310.803 124.874 310.803C124.547 310.803 124.29 310.916 124.104 311.141C123.918 311.367 123.825 311.671 123.825 312.054V314.456H122.971ZM132.447 314.532C131.759 314.532 131.218 314.337 130.823 313.948C130.429 313.559 130.232 313.021 130.232 312.333C130.232 311.888 130.316 311.499 130.485 311.166C130.66 310.834 130.9 310.577 131.204 310.397C131.514 310.211 131.872 310.118 132.278 310.118C132.678 310.118 133.013 310.203 133.284 310.372C133.555 310.541 133.76 310.78 133.901 311.09C134.042 311.395 134.113 311.756 134.113 312.173V312.443H130.9V311.953H133.529L133.385 312.063C133.385 311.64 133.29 311.313 133.098 311.082C132.912 310.845 132.641 310.727 132.286 310.727C131.892 310.727 131.587 310.865 131.373 311.141C131.159 311.412 131.052 311.787 131.052 312.266V312.35C131.052 312.852 131.173 313.23 131.415 313.483C131.663 313.737 132.013 313.864 132.464 313.864C132.712 313.864 132.943 313.83 133.157 313.762C133.377 313.689 133.586 313.571 133.783 313.407L134.062 313.991C133.865 314.165 133.625 314.301 133.343 314.396C133.061 314.487 132.763 314.532 132.447 314.532Z" fill="#121212"/>
<defs>
<filter id="filter0_d_47080_11117" x="14" y="44" width="350" height="360.4" filterUnits="userSpaceOnUse" color-interpolation-filters="sRGB">
<feFlood flood-opacity="0" result="BackgroundImageFix"/>
<feColorMatrix in="SourceAlpha" type="matrix" values="0 0 0 0 0 0 0 0 0 0 0 0 0 0 0 0 0 0 127 0" result="hardAlpha"/>
<feOffset/>
<feGaussianBlur stdDeviation="12.5"/>
<feColorMatrix type="matrix" values="0 0 0 0 0 0 0 0 0 0 0 0 0 0 0 0 0 0 0.06 0"/>
<feBlend mode="normal" in2="BackgroundImageFix" result="effect1_dropShadow_47080_11117"/>
<feBlend mode="normal" in="SourceGraphic" in2="effect1_dropShadow_47080_11117" result="shape"/>
</filter>
<clipPath id="clip0_47080_11117">
<rect width="15.2" height="15.2" fill="white" transform="translate(202.898 106.9)"/>
</clipPath>
</defs>
</svg>
