<?xml version="1.0" encoding="UTF-8"?>
<svg xmlns="http://www.w3.org/2000/svg" xmlns:xlink="http://www.w3.org/1999/xlink" width="108px" height="107px" viewBox="0 0 108 107" version="1.1">
  <defs>
    <clipPath id="clip1">
      <path d="M 10.203125 11 L 97.300781 11 L 97.300781 95 L 10.203125 95 Z M 10.203125 11 "></path>
    </clipPath>
  </defs>
  <g id="surface1">
    <path style=" stroke:none;fill-rule:nonzero;fill:rgb(100%,85.09804%,100%);fill-opacity:1;" d="M 93.242188 53.527344 C 93.242188 75.234375 75.558594 92.832031 53.75 92.832031 C 31.941406 92.832031 14.261719 75.234375 14.261719 53.527344 C 14.261719 31.820312 31.941406 14.222656 53.75 14.222656 C 75.558594 14.222656 93.242188 31.820312 93.242188 53.527344 Z M 93.242188 53.527344 "></path>
    <path style=" stroke:none;fill-rule:nonzero;fill:rgb(96.078432%,96.078432%,94.117647%);fill-opacity:1;" d="M 53.753906 13.050781 L 66.742188 39.425781 L 95.792969 43.65625 L 74.773438 64.183594 L 79.734375 93.175781 L 53.753906 79.488281 L 27.769531 93.175781 L 32.730469 64.183594 L 11.710938 43.65625 L 40.761719 39.425781 Z M 53.753906 13.050781 "></path>
    <g clip-path="url(#clip1)" clip-rule="nonzero">
      <path style=" stroke:none;fill-rule:evenodd;fill:rgb(7.843138%,7.843138%,7.843138%);fill-opacity:1;" d="M 53.75 11.71875 L 67.132812 38.890625 L 97.050781 43.246094 L 75.402344 64.390625 L 80.515625 94.25 L 53.75 80.152344 L 26.984375 94.25 L 32.097656 64.390625 L 10.449219 43.246094 L 40.363281 38.890625 Z M 53.75 14.382812 L 41.148438 39.960938 L 12.96875 44.066406 L 33.363281 63.980469 L 28.546875 92.097656 L 53.75 78.824219 L 78.949219 92.097656 L 74.136719 63.980469 L 94.53125 44.066406 L 66.347656 39.960938 Z M 53.75 14.382812 "></path>
    </g>
    <path style=" stroke:none;fill-rule:nonzero;fill:rgb(56.862748%,1.960784%,56.470591%);fill-opacity:1;" d="M 53.75 21.851562 L 64.144531 42.984375 L 87.382812 46.375 L 70.566406 62.824219 L 74.535156 86.054688 L 53.75 75.085938 L 32.964844 86.054688 L 36.933594 62.824219 L 20.117188 46.375 L 43.355469 42.984375 Z M 53.75 21.851562 "></path>
    <path style=" stroke:none;fill-rule:nonzero;fill:rgb(96.078432%,96.078432%,94.117647%);fill-opacity:1;" d="M 53.75 21.851562 L 64.144531 42.984375 L 87.382812 46.375 L 70.566406 62.824219 L 74.535156 86.054688 L 53.75 75.085938 L 32.964844 86.054688 L 36.933594 62.824219 L 20.117188 46.375 L 43.355469 42.984375 Z M 53.75 21.851562 "></path>
    <path style=" stroke:none;fill-rule:evenodd;fill:rgb(7.843138%,7.843138%,7.843138%);fill-opacity:1;" d="M 53.75 21.183594 L 64.339844 42.71875 L 88.011719 46.167969 L 70.882812 62.925781 L 74.925781 86.59375 L 53.75 75.417969 L 32.574219 86.59375 L 36.617188 62.925781 L 19.488281 46.167969 L 43.160156 42.71875 Z M 53.75 22.515625 L 43.554688 43.253906 L 20.746094 46.578125 L 37.25 62.722656 L 33.355469 85.515625 L 53.75 74.753906 L 74.144531 85.515625 L 70.25 62.722656 L 86.753906 46.578125 L 63.945312 43.253906 Z M 53.75 22.515625 "></path>
    <path style=" stroke:none;fill-rule:nonzero;fill:rgb(7.843138%,7.843138%,7.843138%);fill-opacity:1;" d="M 58.507812 52.402344 L 54.046875 43.402344 L 49.585938 52.402344 L 39.605469 52.648438 L 39.605469 53.84375 L 46.828125 60.847656 L 45.121094 69.554688 L 45.121094 70.738281 L 54.046875 66.070312 L 62.96875 70.738281 L 62.96875 69.570312 L 61.265625 60.847656 L 68.484375 53.84375 L 68.484375 52.671875 Z M 58.507812 52.402344 "></path>
    <path style=" stroke:none;fill-rule:nonzero;fill:rgb(56.862748%,1.960784%,56.470591%);fill-opacity:1;" d="M 54.046875 43.554688 L 58.117188 51.765625 L 67.21875 53.082031 L 60.632812 59.46875 L 62.1875 68.492188 L 54.046875 64.234375 L 45.90625 68.492188 L 47.460938 59.46875 L 40.875 53.082031 L 49.976562 51.765625 Z M 54.046875 43.554688 "></path>
    <path style=" stroke:none;fill-rule:evenodd;fill:rgb(7.843138%,7.843138%,7.843138%);fill-opacity:1;" d="M 54.042969 42.230469 L 58.507812 51.226562 L 68.484375 52.671875 L 61.265625 59.675781 L 62.96875 69.566406 L 54.042969 64.898438 L 45.121094 69.566406 L 46.824219 59.675781 L 39.605469 52.671875 L 49.582031 51.226562 Z M 54.042969 44.878906 L 50.367188 52.300781 L 42.140625 53.492188 L 48.09375 59.265625 L 46.6875 67.421875 L 54.042969 63.570312 L 61.402344 67.421875 L 60 59.265625 L 65.949219 53.492188 L 57.722656 52.300781 Z M 54.042969 44.878906 "></path>
    <path style=" stroke:none;fill-rule:evenodd;fill:rgb(7.843138%,7.843138%,7.843138%);fill-opacity:1;" d="M 53.164062 94.59375 L 53.164062 86.378906 L 54.34375 86.378906 L 54.34375 94.59375 Z M 53.164062 94.59375 "></path>
    <path style=" stroke:none;fill-rule:evenodd;fill:rgb(7.843138%,7.843138%,7.843138%);fill-opacity:1;" d="M 89.652344 73.980469 L 82.503906 69.875 L 83.09375 68.859375 L 90.238281 72.964844 Z M 89.652344 73.980469 "></path>
    <path style=" stroke:none;fill-rule:evenodd;fill:rgb(7.843138%,7.843138%,7.843138%);fill-opacity:1;" d="M 30.902344 29.832031 L 25.066406 24.027344 L 25.902344 23.195312 L 31.734375 29.003906 Z M 30.902344 29.832031 "></path>
    <path style=" stroke:none;fill-rule:evenodd;fill:rgb(7.843138%,7.843138%,7.843138%);fill-opacity:1;" d="M 82.644531 24.082031 L 76.808594 29.890625 L 75.976562 29.0625 L 81.808594 23.253906 Z M 82.644531 24.082031 "></path>
    <path style=" stroke:none;fill-rule:evenodd;fill:rgb(7.843138%,7.843138%,7.843138%);fill-opacity:1;" d="M 24.667969 69.875 L 17.519531 73.980469 L 16.929688 72.964844 L 24.078125 68.859375 Z M 24.667969 69.875 "></path>
  </g>
</svg>
