<svg width="94" height="38" viewBox="0 0 94 38" fill="none" xmlns="http://www.w3.org/2000/svg">
<g id="Store=Google Play, Style=Black">
<rect x="0.5" y="0.5" width="92.3206" height="36.4688" rx="4.5" fill="black"/>
<rect x="0.5" y="0.5" width="92.3206" height="36.4688" rx="4.5" stroke="#A6A6A6"/>
<g id="Group 1000001621">
<g id="Vector">
<path d="M42.7909 21.1004C41.1705 21.1004 39.8498 22.3886 39.8498 24.1628C39.8498 25.9262 41.1705 27.2252 42.7909 27.2252C44.4119 27.2252 45.7326 25.9262 45.7326 24.1628C45.7319 22.3886 44.4112 21.1004 42.7909 21.1004ZM42.7909 26.0198C41.9028 26.0198 41.1374 25.2544 41.1374 24.1635C41.1374 23.0611 41.9035 22.3072 42.7909 22.3072C43.6789 22.3072 44.4443 23.0611 44.4443 24.1635C44.4443 25.2537 43.6789 26.0198 42.7909 26.0198ZM36.3742 21.1004C34.7538 21.1004 33.4331 22.3886 33.4331 24.1628C33.4331 25.9262 34.7538 27.2252 36.3742 27.2252C37.9952 27.2252 39.3159 25.9262 39.3159 24.1628C39.3159 22.3886 37.9952 21.1004 36.3742 21.1004ZM36.3742 26.0198C35.4861 26.0198 34.7207 25.2544 34.7207 24.1635C34.7207 23.0611 35.4868 22.3072 36.3742 22.3072C37.2622 22.3072 38.0276 23.0611 38.0276 24.1635C38.0283 25.2537 37.2622 26.0198 36.3742 26.0198ZM28.7422 23.3398H31.717C31.6281 24.0706 31.3953 24.6042 31.0398 24.975C30.6071 25.4272 29.9299 25.9262 28.7422 25.9262C26.911 25.9262 25.4794 24.3831 25.4794 22.4692C25.4794 20.5553 26.911 19.0123 28.7422 19.0123C29.7301 19.0123 30.4514 19.4184 30.984 19.9404L31.861 19.0238C31.117 18.2814 30.1297 17.7133 28.7422 17.7133C26.2338 17.7133 24.125 19.8475 24.125 22.4692C24.125 25.0909 26.2338 27.2252 28.7422 27.2252C30.096 27.2252 31.1176 26.7607 31.9161 25.8909C32.7373 25.0326 32.9929 23.8258 32.9929 22.8516C32.9929 22.5506 32.9709 22.2719 32.9261 22.0401H28.7422V23.3398ZM59.9562 23.0496C59.7124 22.3655 58.9683 21.1004 57.4479 21.1004C55.9384 21.1004 54.6839 22.3418 54.6839 24.1628C54.6839 25.8794 55.9274 27.2252 57.5918 27.2252C58.9346 27.2252 59.7117 26.3669 60.0341 25.8679L59.0351 25.1716C58.7024 25.6821 58.247 26.0184 57.5918 26.0184C56.9374 26.0184 56.471 25.7051 56.1713 25.0902L60.0892 23.3967L59.9562 23.0496ZM55.9605 24.0706C55.9274 22.8869 56.8375 22.2842 57.4926 22.2842C58.0031 22.2842 58.4358 22.5513 58.5805 22.9337L55.9605 24.0706ZM52.7755 27.0401H54.0625V18.0387H52.7755V27.0401ZM50.6219 21.7852C50.3333 21.4252 49.778 21.1004 49.0794 21.1004C47.6141 21.1004 46.2713 22.4462 46.2713 24.175C46.2713 25.8916 47.6141 27.2259 49.0794 27.2259C49.7787 27.2259 50.3333 26.9012 50.6219 26.5303H50.666V26.971C50.666 28.1425 50.0667 28.769 49.1015 28.769C48.3133 28.769 47.8249 28.1778 47.6251 27.6788L46.5042 28.1663C46.8259 28.9778 47.6802 29.9758 49.1015 29.9758C50.6109 29.9758 51.8875 29.0476 51.8875 26.7852V21.2869H50.6667V21.7852H50.6219ZM49.1903 26.0198C48.3023 26.0198 47.559 25.2422 47.559 24.175C47.559 23.0957 48.3023 22.3072 49.1903 22.3072C50.0667 22.3072 50.7549 23.0957 50.7549 24.175C50.7549 25.2422 50.0667 26.0198 49.1903 26.0198ZM65.9871 18.0387H62.9069V27.0401H64.1918V23.63H65.9865C67.4112 23.63 68.8124 22.552 68.8124 20.8347C68.8124 19.1174 67.4118 18.0387 65.9871 18.0387ZM66.0202 22.3771H64.1918V19.2916H66.0202C66.9813 19.2916 67.5269 20.1233 67.5269 20.8347C67.5269 21.5317 66.9813 22.3771 66.0202 22.3771ZM73.965 21.0846C73.0342 21.0846 72.0704 21.513 71.6715 22.4628L72.8124 22.9603C73.0563 22.4628 73.5109 22.3 73.987 22.3C74.6518 22.3 75.3277 22.7169 75.3387 23.4579V23.5507C75.1058 23.4118 74.607 23.2037 73.998 23.2037C72.7683 23.2037 71.5158 23.9101 71.5158 25.2299C71.5158 26.4346 72.5244 27.2101 73.6542 27.2101C74.5182 27.2101 74.9949 26.8047 75.2939 26.3294H75.338V27.0243H76.5794V23.5731C76.5801 21.976 75.4379 21.0846 73.965 21.0846ZM73.8093 26.0177C73.389 26.0177 72.8013 25.7973 72.8013 25.253C72.8013 24.5581 73.533 24.2917 74.1647 24.2917C74.729 24.2917 74.9956 24.4191 75.3387 24.5927C75.2388 25.4272 74.5519 26.0177 73.8093 26.0177ZM81.1002 21.2811L79.6266 25.1838H79.5825L78.0531 21.2811H76.6683L78.9618 26.7355L77.6542 29.7698H78.9948L82.5297 21.2811H81.1002ZM69.522 27.0401H70.8069V18.0387H69.522V27.0401Z" fill="white"/>
<path d="M28.2884 10.7453C28.2884 11.3828 28.1181 11.8902 27.777 12.269C27.3899 12.7193 26.8848 12.9445 26.2643 12.9445C25.67 12.9445 25.1641 12.7163 24.7489 12.2599C24.333 11.8027 24.125 11.2368 24.125 10.5613C24.125 9.88501 24.333 9.31906 24.7489 8.86265C25.1641 8.40547 25.67 8.17727 26.2643 8.17727C26.5595 8.17727 26.8416 8.24116 27.1092 8.3682C27.3776 8.496 27.5924 8.66563 27.753 8.87786L27.3913 9.2795C27.1188 8.91818 26.7434 8.73789 26.2636 8.73789C25.8299 8.73789 25.4551 8.90677 25.1387 9.24451C24.8223 9.58226 24.6645 10.0212 24.6645 10.5605C24.6645 11.0998 24.8223 11.5387 25.1387 11.8765C25.4551 12.2142 25.8299 12.3831 26.2636 12.3831C26.7235 12.3831 27.1072 12.2135 27.414 11.8734C27.613 11.6521 27.7283 11.344 27.7592 10.9492H26.2636V10.4008H28.2589C28.2794 10.5202 28.2884 10.635 28.2884 10.7453Z" fill="white"/>
<path d="M31.4525 8.83911H29.5774V10.2859H31.2685V10.8344H29.5774V12.2812H31.4525V12.8426H29.0482V8.27848H31.4525V8.83911Z" fill="white"/>
<path d="M33.6837 12.8426H33.1545V8.83911H32.0042V8.27848H34.834V8.83911H33.6837V12.8426Z" fill="white"/>
<path d="M36.8814 12.8426V8.27848H37.4105V12.8426H36.8814Z" fill="white"/>
<path d="M39.7572 12.8426H39.2281V8.83911H38.0778V8.27848H40.9076V8.83911H39.7572V12.8426Z" fill="white"/>
<path d="M46.2643 12.2531C45.8594 12.714 45.3563 12.9445 44.7544 12.9445C44.1524 12.9445 43.6493 12.714 43.2451 12.2531C42.8401 11.7921 42.6384 11.2277 42.6384 10.5605C42.6384 9.89341 42.8401 9.32898 43.2451 8.86801C43.6493 8.40703 44.1524 8.17578 44.7544 8.17578C45.3528 8.17578 45.8553 8.40779 46.2616 8.87105C46.6679 9.33431 46.871 9.89722 46.871 10.5605C46.871 11.2277 46.6686 11.7921 46.2643 12.2531ZM43.6356 11.8704C43.9404 12.2127 44.313 12.3831 44.7544 12.3831C45.1957 12.3831 45.5691 12.212 45.8731 11.8704C46.1778 11.5281 46.3309 11.0915 46.3309 10.5605C46.3309 10.0296 46.1778 9.59294 45.8731 9.25063C45.5691 8.90832 45.1957 8.73793 44.7544 8.73793C44.313 8.73793 43.9404 8.90908 43.6356 9.25063C43.3316 9.59294 43.1785 10.0296 43.1785 10.5605C43.1785 11.0915 43.3316 11.5281 43.6356 11.8704Z" fill="white"/>
<path d="M47.6137 12.8426V8.27848H48.2575L50.2589 11.8286H50.2815L50.2589 10.9493V8.27848H50.788V12.8426H50.2355L48.1415 9.1198H48.1188L48.1415 9.99916V12.8426H47.6137Z" fill="white"/>
<path d="M42.7909 21.1004C41.1705 21.1004 39.8498 22.3886 39.8498 24.1628C39.8498 25.9262 41.1705 27.2252 42.7909 27.2252C44.4119 27.2252 45.7326 25.9262 45.7326 24.1628C45.7319 22.3886 44.4112 21.1004 42.7909 21.1004ZM42.7909 26.0198C41.9028 26.0198 41.1374 25.2544 41.1374 24.1635C41.1374 23.0611 41.9035 22.3072 42.7909 22.3072C43.6789 22.3072 44.4443 23.0611 44.4443 24.1635C44.4443 25.2537 43.6789 26.0198 42.7909 26.0198ZM36.3742 21.1004C34.7538 21.1004 33.4331 22.3886 33.4331 24.1628C33.4331 25.9262 34.7538 27.2252 36.3742 27.2252C37.9952 27.2252 39.3159 25.9262 39.3159 24.1628C39.3159 22.3886 37.9952 21.1004 36.3742 21.1004ZM36.3742 26.0198C35.4861 26.0198 34.7207 25.2544 34.7207 24.1635C34.7207 23.0611 35.4868 22.3072 36.3742 22.3072C37.2622 22.3072 38.0276 23.0611 38.0276 24.1635C38.0283 25.2537 37.2622 26.0198 36.3742 26.0198ZM28.7422 23.3398H31.717C31.6281 24.0706 31.3953 24.6042 31.0398 24.975C30.6071 25.4272 29.9299 25.9262 28.7422 25.9262C26.911 25.9262 25.4794 24.3831 25.4794 22.4692C25.4794 20.5553 26.911 19.0123 28.7422 19.0123C29.7301 19.0123 30.4514 19.4184 30.984 19.9404L31.861 19.0238C31.117 18.2814 30.1297 17.7133 28.7422 17.7133C26.2338 17.7133 24.125 19.8475 24.125 22.4692C24.125 25.0909 26.2338 27.2252 28.7422 27.2252C30.096 27.2252 31.1176 26.7607 31.9161 25.8909C32.7373 25.0326 32.9929 23.8258 32.9929 22.8516C32.9929 22.5506 32.9709 22.2719 32.9261 22.0401H28.7422V23.3398ZM59.9562 23.0496C59.7124 22.3655 58.9683 21.1004 57.4479 21.1004C55.9384 21.1004 54.6839 22.3418 54.6839 24.1628C54.6839 25.8794 55.9274 27.2252 57.5918 27.2252C58.9346 27.2252 59.7117 26.3669 60.0341 25.8679L59.0351 25.1716C58.7024 25.6821 58.247 26.0184 57.5918 26.0184C56.9374 26.0184 56.471 25.7051 56.1713 25.0902L60.0892 23.3967L59.9562 23.0496ZM55.9605 24.0706C55.9274 22.8869 56.8375 22.2842 57.4926 22.2842C58.0031 22.2842 58.4358 22.5513 58.5805 22.9337L55.9605 24.0706ZM52.7755 27.0401H54.0625V18.0387H52.7755V27.0401ZM50.6219 21.7852C50.3333 21.4252 49.778 21.1004 49.0794 21.1004C47.6141 21.1004 46.2713 22.4462 46.2713 24.175C46.2713 25.8916 47.6141 27.2259 49.0794 27.2259C49.7787 27.2259 50.3333 26.9012 50.6219 26.5303H50.666V26.971C50.666 28.1425 50.0667 28.769 49.1015 28.769C48.3133 28.769 47.8249 28.1778 47.6251 27.6788L46.5042 28.1663C46.8259 28.9778 47.6802 29.9758 49.1015 29.9758C50.6109 29.9758 51.8875 29.0476 51.8875 26.7852V21.2869H50.6667V21.7852H50.6219ZM49.1903 26.0198C48.3023 26.0198 47.559 25.2422 47.559 24.175C47.559 23.0957 48.3023 22.3072 49.1903 22.3072C50.0667 22.3072 50.7549 23.0957 50.7549 24.175C50.7549 25.2422 50.0667 26.0198 49.1903 26.0198ZM65.9871 18.0387H62.9069V27.0401H64.1918V23.63H65.9865C67.4112 23.63 68.8124 22.552 68.8124 20.8347C68.8124 19.1174 67.4118 18.0387 65.9871 18.0387ZM66.0202 22.3771H64.1918V19.2916H66.0202C66.9813 19.2916 67.5269 20.1233 67.5269 20.8347C67.5269 21.5317 66.9813 22.3771 66.0202 22.3771ZM73.965 21.0846C73.0342 21.0846 72.0704 21.513 71.6715 22.4628L72.8124 22.9603C73.0563 22.4628 73.5109 22.3 73.987 22.3C74.6518 22.3 75.3277 22.7169 75.3387 23.4579V23.5507C75.1058 23.4118 74.607 23.2037 73.998 23.2037C72.7683 23.2037 71.5158 23.9101 71.5158 25.2299C71.5158 26.4346 72.5244 27.2101 73.6542 27.2101C74.5182 27.2101 74.9949 26.8047 75.2939 26.3294H75.338V27.0243H76.5794V23.5731C76.5801 21.976 75.4379 21.0846 73.965 21.0846ZM73.8093 26.0177C73.389 26.0177 72.8013 25.7973 72.8013 25.253C72.8013 24.5581 73.533 24.2917 74.1647 24.2917C74.729 24.2917 74.9956 24.4191 75.3387 24.5927C75.2388 25.4272 74.5519 26.0177 73.8093 26.0177ZM81.1002 21.2811L79.6266 25.1838H79.5825L78.0531 21.2811H76.6683L78.9618 26.7355L77.6542 29.7698H78.9948L82.5297 21.2811H81.1002ZM69.522 27.0401H70.8069V18.0387H69.522V27.0401Z" stroke="white" stroke-width="0.2" stroke-miterlimit="10"/>
<path d="M28.2884 10.7453C28.2884 11.3828 28.1181 11.8902 27.777 12.269C27.3899 12.7193 26.8848 12.9445 26.2643 12.9445C25.67 12.9445 25.1641 12.7163 24.7489 12.2599C24.333 11.8027 24.125 11.2368 24.125 10.5613C24.125 9.88501 24.333 9.31906 24.7489 8.86265C25.1641 8.40547 25.67 8.17727 26.2643 8.17727C26.5595 8.17727 26.8416 8.24116 27.1092 8.3682C27.3776 8.496 27.5924 8.66563 27.753 8.87786L27.3913 9.2795C27.1188 8.91818 26.7434 8.73789 26.2636 8.73789C25.8299 8.73789 25.4551 8.90677 25.1387 9.24451C24.8223 9.58226 24.6645 10.0212 24.6645 10.5605C24.6645 11.0998 24.8223 11.5387 25.1387 11.8765C25.4551 12.2142 25.8299 12.3831 26.2636 12.3831C26.7235 12.3831 27.1072 12.2135 27.414 11.8734C27.613 11.6521 27.7283 11.344 27.7592 10.9492H26.2636V10.4008H28.2589C28.2794 10.5202 28.2884 10.635 28.2884 10.7453Z" stroke="white" stroke-width="0.2" stroke-miterlimit="10"/>
<path d="M31.4525 8.83911H29.5774V10.2859H31.2685V10.8344H29.5774V12.2812H31.4525V12.8426H29.0482V8.27848H31.4525V8.83911Z" stroke="white" stroke-width="0.2" stroke-miterlimit="10"/>
<path d="M33.6837 12.8426H33.1545V8.83911H32.0042V8.27848H34.834V8.83911H33.6837V12.8426Z" stroke="white" stroke-width="0.2" stroke-miterlimit="10"/>
<path d="M36.8814 12.8426V8.27848H37.4105V12.8426H36.8814Z" stroke="white" stroke-width="0.2" stroke-miterlimit="10"/>
<path d="M39.7572 12.8426H39.2281V8.83911H38.0778V8.27848H40.9076V8.83911H39.7572V12.8426Z" stroke="white" stroke-width="0.2" stroke-miterlimit="10"/>
<path d="M46.2643 12.2531C45.8594 12.714 45.3563 12.9445 44.7544 12.9445C44.1524 12.9445 43.6493 12.714 43.2451 12.2531C42.8401 11.7921 42.6384 11.2277 42.6384 10.5605C42.6384 9.89341 42.8401 9.32898 43.2451 8.86801C43.6493 8.40703 44.1524 8.17578 44.7544 8.17578C45.3528 8.17578 45.8553 8.40779 46.2616 8.87105C46.6679 9.33431 46.871 9.89722 46.871 10.5605C46.871 11.2277 46.6686 11.7921 46.2643 12.2531ZM43.6356 11.8704C43.9404 12.2127 44.313 12.3831 44.7544 12.3831C45.1957 12.3831 45.5691 12.212 45.8731 11.8704C46.1778 11.5281 46.3309 11.0915 46.3309 10.5605C46.3309 10.0296 46.1778 9.59294 45.8731 9.25063C45.5691 8.90832 45.1957 8.73793 44.7544 8.73793C44.313 8.73793 43.9404 8.90908 43.6356 9.25063C43.3316 9.59294 43.1785 10.0296 43.1785 10.5605C43.1785 11.0915 43.3316 11.5281 43.6356 11.8704Z" stroke="white" stroke-width="0.2" stroke-miterlimit="10"/>
<path d="M47.6137 12.8426V8.27848H48.2575L50.2589 11.8286H50.2815L50.2589 10.9493V8.27848H50.788V12.8426H50.2355L48.1415 9.1198H48.1188L48.1415 9.99916V12.8426H47.6137Z" stroke="white" stroke-width="0.2" stroke-miterlimit="10"/>
</g>
<g id="Group 2275">
<g id="Google Play logo" filter="url(#filter0_ii_13471_12916)">
<path id="Vector_2" d="M7.13819 9.82564C6.98505 10.0459 6.89453 10.3877 6.89453 10.8303V26.6439C6.89453 27.0873 6.98505 27.4283 7.13819 27.6486L7.17713 27.7L13.6969 18.8415V18.7371V18.6327L7.17713 9.77344L7.13819 9.82564Z" fill="url(#paint0_linear_13471_12916)"/>
<path id="Vector_3" d="M15.8682 21.7954L13.6953 18.8416V18.7372V18.6328L15.8687 15.6797L15.9177 15.7176L18.4926 17.7054C19.2278 18.2731 19.2278 19.2019 18.4926 19.7704L15.9177 21.7582L15.8682 21.7954Z" fill="url(#paint1_linear_13471_12916)"/>
<g id="Vector_4" filter="url(#filter1_i_13471_12916)">
<path d="M15.9178 21.7566L13.6949 18.7363L7.13672 27.6478C7.37879 27.9967 7.77927 28.0396 8.23027 27.6921L15.9178 21.7566Z" fill="url(#paint2_linear_13471_12916)"/>
</g>
<path id="Vector_5" d="M15.9178 15.7161L8.23027 9.78132C7.77927 9.4331 7.37879 9.47672 7.13672 9.82565L13.6954 18.7371L15.9178 15.7161Z" fill="url(#paint3_linear_13471_12916)"/>
</g>
</g>
</g>
</g>
<defs>
<filter id="filter0_ii_13471_12916" x="6.89453" y="9.54102" width="12.1484" height="18.3906" filterUnits="userSpaceOnUse" color-interpolation-filters="sRGB">
<feFlood flood-opacity="0" result="BackgroundImageFix"/>
<feBlend mode="normal" in="SourceGraphic" in2="BackgroundImageFix" result="shape"/>
<feColorMatrix in="SourceAlpha" type="matrix" values="0 0 0 0 0 0 0 0 0 0 0 0 0 0 0 0 0 0 127 0" result="hardAlpha"/>
<feOffset dy="-0.15"/>
<feComposite in2="hardAlpha" operator="arithmetic" k2="-1" k3="1"/>
<feColorMatrix type="matrix" values="0 0 0 0 0 0 0 0 0 0 0 0 0 0 0 0 0 0 0.12 0"/>
<feBlend mode="normal" in2="shape" result="effect1_innerShadow_13471_12916"/>
<feColorMatrix in="SourceAlpha" type="matrix" values="0 0 0 0 0 0 0 0 0 0 0 0 0 0 0 0 0 0 127 0" result="hardAlpha"/>
<feOffset dy="0.15"/>
<feComposite in2="hardAlpha" operator="arithmetic" k2="-1" k3="1"/>
<feColorMatrix type="matrix" values="0 0 0 0 1 0 0 0 0 1 0 0 0 0 1 0 0 0 0.25 0"/>
<feBlend mode="normal" in2="effect1_innerShadow_13471_12916" result="effect2_innerShadow_13471_12916"/>
</filter>
<filter id="filter1_i_13471_12916" x="7.13672" y="18.7363" width="8.78125" height="9.19531" filterUnits="userSpaceOnUse" color-interpolation-filters="sRGB">
<feFlood flood-opacity="0" result="BackgroundImageFix"/>
<feBlend mode="normal" in="SourceGraphic" in2="BackgroundImageFix" result="shape"/>
<feColorMatrix in="SourceAlpha" type="matrix" values="0 0 0 0 0 0 0 0 0 0 0 0 0 0 0 0 0 0 127 0" result="hardAlpha"/>
<feOffset dy="-0.15"/>
<feComposite in2="hardAlpha" operator="arithmetic" k2="-1" k3="1"/>
<feColorMatrix type="matrix" values="0 0 0 0 0 0 0 0 0 0 0 0 0 0 0 0 0 0 0.08 0"/>
<feBlend mode="normal" in2="shape" result="effect1_innerShadow_13471_12916"/>
</filter>
<linearGradient id="paint0_linear_13471_12916" x1="13.1189" y1="10.6629" x2="1.66179" y2="19.0952" gradientUnits="userSpaceOnUse">
<stop stop-color="#00A0FF"/>
<stop offset="0.0066" stop-color="#00A1FF"/>
<stop offset="0.2601" stop-color="#00BEFF"/>
<stop offset="0.5122" stop-color="#00D2FF"/>
<stop offset="0.7604" stop-color="#00DFFF"/>
<stop offset="1" stop-color="#00E3FF"/>
</linearGradient>
<linearGradient id="paint1_linear_13471_12916" x1="19.4496" y1="18.7372" x2="6.71648" y2="18.7372" gradientUnits="userSpaceOnUse">
<stop stop-color="#FFE000"/>
<stop offset="0.4087" stop-color="#FFBD00"/>
<stop offset="0.7754" stop-color="#FFA500"/>
<stop offset="1" stop-color="#FF9C00"/>
</linearGradient>
<linearGradient id="paint2_linear_13471_12916" x1="14.7106" y1="20.3765" x2="-0.826734" y2="31.8117" gradientUnits="userSpaceOnUse">
<stop stop-color="#FF3A44"/>
<stop offset="1" stop-color="#C31162"/>
</linearGradient>
<linearGradient id="paint3_linear_13471_12916" x1="5.48503" y1="4.56143" x2="12.4229" y2="9.66755" gradientUnits="userSpaceOnUse">
<stop stop-color="#32A071"/>
<stop offset="0.0685" stop-color="#2DA771"/>
<stop offset="0.4762" stop-color="#15CF74"/>
<stop offset="0.8009" stop-color="#06E775"/>
<stop offset="1" stop-color="#00F076"/>
</linearGradient>
</defs>
</svg>
