<svg width="103" height="38" viewBox="0 0 103 38" fill="none" xmlns="http://www.w3.org/2000/svg">
<rect x="1.07422" y="0.5" width="100.573" height="36.4688" rx="6.5" fill="#0C0D10"/>
<rect x="1.07422" y="0.5" width="100.573" height="36.4688" rx="6.5" stroke="#A6A6A6"/>
<path d="M65.9156 19.5059V21.2929H64.8713V22.4649H65.9156V26.4468C65.9156 27.8065 66.489 28.3504 67.9317 28.3504C68.1852 28.3504 68.4267 28.318 68.638 28.2792V27.1202C68.4569 27.1396 68.3422 27.1526 68.143 27.1526C67.4971 27.1526 67.2134 26.8288 67.2134 26.0907V22.4649H68.638V21.2929H67.2134V19.5059H65.9156Z" fill="white"/>
<path d="M72.3131 28.4475C74.2327 28.4475 75.4098 27.0684 75.4098 24.7828C75.4098 22.5102 74.2267 21.1246 72.3131 21.1246C70.3936 21.1246 69.2105 22.5102 69.2105 24.7828C69.2105 27.0684 70.3876 28.4475 72.3131 28.4475ZM72.3131 27.2108C71.1843 27.2108 70.5505 26.3238 70.5505 24.7828C70.5505 23.2548 71.1843 22.3613 72.3131 22.3613C73.4359 22.3613 74.0758 23.2548 74.0758 24.7828C74.0758 26.3173 73.4359 27.2108 72.3131 27.2108Z" fill="white"/>
<path d="M76.4169 28.3115H77.7147V24.1483C77.7147 23.1577 78.4089 22.4908 79.3928 22.4908C79.6222 22.4908 80.0085 22.5361 80.1172 22.5749V21.2023C79.9783 21.1634 79.7308 21.144 79.5377 21.144C78.6805 21.144 77.9501 21.6491 77.763 22.3418H77.6664V21.2606H76.4169V28.3115Z" fill="white"/>
<path d="M83.3396 22.3095C84.2994 22.3095 84.9272 23.0282 84.9574 24.1353H81.6374C81.7098 23.0346 82.3798 22.3095 83.3396 22.3095ZM84.9513 26.408C84.7099 26.9583 84.1726 27.2626 83.3879 27.2626C82.3497 27.2626 81.6796 26.4792 81.6374 25.2425V25.1648H86.2793V24.6792C86.2793 22.4649 85.1747 21.1246 83.3457 21.1246C81.4925 21.1246 80.3154 22.5555 80.3154 24.8087C80.3154 27.0619 81.4683 28.4475 83.3517 28.4475C84.8547 28.4475 85.9051 27.6705 86.2008 26.408H84.9513Z" fill="white"/>
<path d="M57.4047 25.7077C57.5048 27.4391 58.85 28.5464 60.852 28.5464C62.9918 28.5464 64.3306 27.3854 64.3306 25.5332C64.3306 24.077 63.5674 23.2717 61.7154 22.8086L60.7206 22.5469C59.5444 22.2516 59.0689 21.8557 59.0689 21.1645C59.0689 20.2921 59.8072 19.7216 60.9146 19.7216C61.9657 19.7216 62.6914 20.2786 62.8228 21.1712H64.1868C64.1054 19.5404 62.7665 18.3929 60.9334 18.3929C58.9626 18.3929 57.6487 19.5404 57.6487 21.2651C57.6487 22.6878 58.3932 23.5334 60.0262 23.9428L61.1899 24.2448C62.3849 24.5467 62.9104 24.9897 62.9104 25.7279C62.9104 26.5869 62.0846 27.211 60.9584 27.211C59.7509 27.211 58.9125 26.6271 58.7936 25.7077H57.4047Z" fill="white"/>
<path d="M43.9607 21.144C43.0673 21.144 42.2946 21.6232 41.8962 22.426H41.7997V21.2606H40.5501V30.6554H41.848V27.2432H41.9506C42.2946 27.9878 43.0371 28.4281 43.9727 28.4281C45.6327 28.4281 46.6891 27.0231 46.6891 24.7828C46.6891 22.5426 45.6327 21.144 43.9607 21.144ZM43.5925 27.1785C42.5059 27.1785 41.8238 26.2591 41.8238 24.7893C41.8238 23.3131 42.5059 22.3936 43.5985 22.3936C44.6971 22.3936 45.3551 23.2936 45.3551 24.7828C45.3551 26.2785 44.6971 27.1785 43.5925 27.1785Z" fill="white"/>
<path d="M51.2304 21.144C50.337 21.144 49.5643 21.6232 49.1659 22.426H49.0694V21.2606H47.8198V30.6554H49.1176V27.2432H49.2203C49.5643 27.9878 50.3068 28.4281 51.2424 28.4281C52.9024 28.4281 53.9588 27.0231 53.9588 24.7828C53.9588 22.5426 52.9024 21.144 51.2304 21.144ZM50.8622 27.1785C49.7756 27.1785 49.0935 26.2591 49.0935 24.7893C49.0935 23.3131 49.7756 22.3936 50.8682 22.3936C51.9668 22.3936 52.6248 23.2936 52.6248 24.7828C52.6248 26.2785 51.9668 27.1785 50.8622 27.1785Z" fill="white"/>
<path d="M38.2216 28.3115H39.7107L36.451 18.6278H34.9432L31.6836 28.3115H33.1226L33.9547 25.7413H37.3958L38.2216 28.3115ZM35.6252 20.386H35.7315L37.0392 24.4796H34.3113L35.6252 20.386Z" fill="white"/>
<path d="M31.8851 8.15884V13.7689H33.7841C35.3513 13.7689 36.2589 12.7386 36.2589 10.9464C36.2589 9.18132 35.344 8.15884 33.7841 8.15884H31.8851ZM32.7015 8.95194H33.6929C34.7827 8.95194 35.4279 9.69062 35.4279 10.958C35.4279 12.2449 34.7937 12.9758 33.6929 12.9758H32.7015V8.95194Z" fill="white"/>
<path d="M39.0384 13.8505C40.1975 13.8505 40.9082 13.0224 40.9082 11.65C40.9082 10.2854 40.1938 9.45346 39.0384 9.45346C37.8794 9.45346 37.165 10.2854 37.165 11.65C37.165 13.0224 37.8757 13.8505 39.0384 13.8505ZM39.0384 13.1079C38.3568 13.1079 37.9741 12.5753 37.9741 11.65C37.9741 10.7325 38.3568 10.196 39.0384 10.196C39.7164 10.196 40.1027 10.7325 40.1027 11.65C40.1027 12.5714 39.7164 13.1079 39.0384 13.1079Z" fill="white"/>
<path d="M46.9608 9.5351H46.1772L45.4701 12.7658H45.4081L44.5917 9.5351H43.8408L43.0244 12.7658H42.9661L42.2553 9.5351H41.4608L42.5542 13.7689H43.3597L44.1762 10.6509H44.2381L45.0582 13.7689H45.871L46.9608 9.5351Z" fill="white"/>
<path d="M47.8633 13.7689H48.6469V11.2924C48.6469 10.6314 49.015 10.2193 49.5946 10.2193C50.1741 10.2193 50.4511 10.5576 50.4511 11.2379V13.7689H51.2347V11.028C51.2347 10.0211 50.7463 9.45346 49.8606 9.45346C49.2629 9.45346 48.8692 9.73727 48.6761 10.2077H48.6177V9.5351H47.8633V13.7689Z" fill="white"/>
<path d="M52.4689 13.7689H53.2525V7.88281H52.4689V13.7689Z" fill="white"/>
<path d="M56.1997 13.8505C57.3587 13.8505 58.0695 13.0224 58.0695 11.65C58.0695 10.2854 57.3551 9.45346 56.1997 9.45346C55.0406 9.45346 54.3263 10.2854 54.3263 11.65C54.3263 13.0224 55.037 13.8505 56.1997 13.8505ZM56.1997 13.1079C55.5181 13.1079 55.1354 12.5753 55.1354 11.65C55.1354 10.7325 55.5181 10.196 56.1997 10.196C56.8776 10.196 57.264 10.7325 57.264 11.65C57.264 12.5714 56.8776 13.1079 56.1997 13.1079Z" fill="white"/>
<path d="M60.4044 13.1352C59.9779 13.1352 59.6681 12.9136 59.6681 12.5326C59.6681 12.1593 59.916 11.9611 60.4627 11.9222L61.4322 11.8561V12.2099C61.4322 12.7347 60.9948 13.1352 60.4044 13.1352ZM60.2039 13.8388C60.7251 13.8388 61.1588 13.5978 61.3958 13.174H61.4577V13.7689H62.2122V10.8764C62.2122 9.9822 61.6509 9.45346 60.6558 9.45346C59.7556 9.45346 59.1141 9.91999 59.0339 10.647H59.792C59.8795 10.3476 60.182 10.1766 60.6194 10.1766C61.1552 10.1766 61.4322 10.4293 61.4322 10.8764V11.2418L60.357 11.3079C59.413 11.3701 58.8808 11.8094 58.8808 12.5714C58.8808 13.3451 59.4385 13.8388 60.2039 13.8388Z" fill="white"/>
<path d="M64.8714 13.8388C65.4182 13.8388 65.8811 13.5628 66.118 13.1002H66.1799V13.7689H66.9308V7.88281H66.1471V10.2077H66.0888C65.8738 9.74116 65.4145 9.46513 64.8714 9.46513C63.8691 9.46513 63.224 10.3127 63.224 11.65C63.224 12.9913 63.8618 13.8388 64.8714 13.8388ZM65.0938 10.2155C65.7499 10.2155 66.1617 10.7714 66.1617 11.6539C66.1617 12.5403 65.7535 13.0885 65.0938 13.0885C64.4304 13.0885 64.0331 12.5481 64.0331 11.65C64.0331 10.7597 64.4341 10.2155 65.0938 10.2155Z" fill="white"/>
<path d="M72.0124 13.8505C73.1714 13.8505 73.8822 13.0224 73.8822 11.65C73.8822 10.2854 73.1678 9.45346 72.0124 9.45346C70.8533 9.45346 70.1389 10.2854 70.1389 11.65C70.1389 13.0224 70.8497 13.8505 72.0124 13.8505ZM72.0124 13.1079C71.3308 13.1079 70.9481 12.5753 70.9481 11.65C70.9481 10.7325 71.3308 10.196 72.0124 10.196C72.6903 10.196 73.0767 10.7325 73.0767 11.65C73.0767 12.5714 72.6903 13.1079 72.0124 13.1079Z" fill="white"/>
<path d="M74.9195 13.7689H75.7031V11.2924C75.7031 10.6314 76.0713 10.2193 76.6508 10.2193C77.2303 10.2193 77.5073 10.5576 77.5073 11.2379V13.7689H78.2909V11.028C78.2909 10.0211 77.8025 9.45346 76.9168 9.45346C76.3191 9.45346 75.9255 9.73727 75.7323 10.2077H75.674V9.5351H74.9195V13.7689Z" fill="white"/>
<path d="M81.9 8.48153V9.55454H81.2695V10.2582H81.9V12.6492C81.9 13.4656 82.2463 13.7922 83.1174 13.7922C83.2705 13.7922 83.4163 13.7727 83.5439 13.7494V13.0535C83.4345 13.0652 83.3653 13.073 83.245 13.073C82.855 13.073 82.6837 12.8786 82.6837 12.4354V10.2582H83.5439V9.55454H82.6837V8.48153H81.9Z" fill="white"/>
<path d="M84.5958 13.7689H85.3794V11.2963C85.3794 10.6548 85.7366 10.2232 86.3781 10.2232C86.9321 10.2232 87.2273 10.5654 87.2273 11.2418V13.7689H88.0109V11.0358C88.0109 10.0288 87.4897 9.45735 86.6441 9.45735C86.0464 9.45735 85.6272 9.74116 85.4341 10.2155H85.3721V7.88281H84.5958V13.7689Z" fill="white"/>
<path d="M90.8379 10.1649C91.4174 10.1649 91.7965 10.5965 91.8147 11.2613H89.81C89.8538 10.6003 90.2583 10.1649 90.8379 10.1649ZM91.811 12.6259C91.6652 12.9563 91.3409 13.139 90.867 13.139C90.2401 13.139 89.8355 12.6686 89.81 11.9261V11.8794H92.6129V11.5878C92.6129 10.2582 91.9459 9.45346 90.8415 9.45346C89.7226 9.45346 89.0118 10.3127 89.0118 11.6656C89.0118 13.0185 89.708 13.8505 90.8452 13.8505C91.7527 13.8505 92.3869 13.384 92.5655 12.6259H91.811Z" fill="white"/>
<path d="M22.3268 19.0155C22.3459 17.4409 23.1387 15.9509 24.3963 15.1262C23.6029 13.9175 22.274 13.1512 20.8914 13.1051C19.4167 12.94 17.987 14.0463 17.2355 14.0463C16.4695 14.0463 15.3125 13.1214 14.0666 13.1488C12.4426 13.2048 10.9287 14.1896 10.1386 15.704C8.44014 18.8406 9.707 23.4502 11.3339 25.9855C12.1479 27.227 13.0993 28.6138 14.344 28.5646C15.5621 28.5107 16.0171 27.7361 17.4874 27.7361C18.9441 27.7361 19.3709 28.5646 20.641 28.5333C21.9481 28.5107 22.7716 27.2863 23.557 26.0331C24.1419 25.1485 24.5919 24.1708 24.8905 23.1363C23.3544 22.4433 22.3286 20.7945 22.3268 19.0155Z" fill="white"/>
<path d="M19.9279 11.4377C20.6406 10.5251 20.9917 9.3522 20.9067 8.16797C19.8179 8.28995 18.8121 8.84501 18.0898 9.72256C17.3835 10.58 17.0159 11.7323 17.0854 12.8712C18.1746 12.8832 19.2454 12.3432 19.9279 11.4377Z" fill="white"/>
</svg>
