<svg width="41" height="40" viewBox="0 0 41 40" fill="none" xmlns="http://www.w3.org/2000/svg">
<circle opacity="0.3" cx="20.5" cy="20" r="20" fill="#1DCBEF"/>
<path opacity="0.5" d="M12.6309 17.6751C12.6309 16.9193 13.2435 16.3066 13.9993 16.3066H29.7363C30.4921 16.3066 31.1047 16.9193 31.1047 17.6751V25.2015C31.1047 25.9572 30.4921 26.5699 29.7363 26.5699H13.9993C13.2435 26.5699 12.6309 25.9572 12.6309 25.2015V17.6751Z" fill="white"/>
<path d="M11.2637 16.3079C11.2637 15.5521 11.8763 14.9395 12.6321 14.9395H28.3691C29.1249 14.9395 29.7376 15.5521 29.7376 16.3079V23.8343C29.7376 24.5901 29.1249 25.2027 28.3691 25.2027H12.6321C11.8763 25.2027 11.2637 24.5901 11.2637 23.8343V16.3079Z" fill="#7EE1F6"/>
<path d="M9.89453 14.9387C9.89453 14.183 10.5072 13.5703 11.263 13.5703H27C27.7557 13.5703 28.3684 14.183 28.3684 14.9387V22.4651C28.3684 23.2209 27.7557 23.8336 27 23.8336H11.263C10.5072 23.8336 9.89453 23.2209 9.89453 22.4651V14.9387Z" fill="#1DCBEF"/>
<path fill-rule="evenodd" clip-rule="evenodd" d="M21.1755 18.7828H21.8905V18.0245H21.1755V16.1504H20.3119V19.6496L18.7495 16.1504H17.9712V18.0245H17.2637V18.7828H17.9712V19.176H17.2637V19.9343H17.9712V21.8234H18.8348V18.3683L20.3977 21.8234H21.1755V19.9343H21.8905V19.176H21.1755V18.7828ZM21.0184 16.3075V18.1816H21.7334V18.6256H21.7332V18.1821H21.0182V16.308H20.469V16.3075H21.0184ZM20.4688 20.3864L18.6476 16.3075H18.1283V16.308H18.6474L20.4688 20.3873V20.3864ZM18.1281 18.1816H17.4208V18.1821H18.1281V18.1816ZM18.1281 19.3331H17.4208V19.3336H18.1281V19.3331ZM18.6775 21.6663H18.6777V17.6406L18.6775 17.6402V21.6663ZM21.0182 21.6663H21.0184V19.7777H21.0182V21.6663ZM21.7332 19.7772H21.7334V19.3331H21.0184V18.6262H21.0182V19.3336H21.7332V19.7772Z" fill="white"/>
</svg>
