<svg width="25" height="26" viewBox="0 0 25 26" fill="none" xmlns="http://www.w3.org/2000/svg">
<circle cx="12.5" cy="13" r="12.5" fill="#DBF8FF"/>
<path d="M16.6577 19.7762H8.95854C8.81371 19.7762 8.7019 19.6598 8.7019 19.5206V6.25563C8.7019 6.11136 8.81879 6 8.95854 6H16.6577C16.8025 6 16.9143 6.11643 16.9143 6.25563V19.5282C16.9169 19.6649 16.8 19.7762 16.6577 19.7762Z" fill="black"/>
<path d="M12.7116 19.2035C13.0891 19.2035 13.3951 18.8987 13.3951 18.5226C13.3951 18.1466 13.0891 17.8418 12.7116 17.8418C12.3341 17.8418 12.0281 18.1466 12.0281 18.5226C12.0281 18.8987 12.3341 19.2035 12.7116 19.2035Z" fill="#1DCBEF"/>
<path d="M16.1392 6.94313C16.1392 6.80393 16.0274 6.6875 15.8826 6.6875H9.77409C9.63434 6.6875 9.51746 6.79886 9.51746 6.94313V17.0013L16.1392 7.03172V6.94313Z" fill="white"/>
<path d="M9.52014 16.9989V17.0217C9.52014 17.1609 9.63194 17.2773 9.77678 17.2773H15.8853C16.0301 17.2773 16.147 17.1609 16.1419 17.0166V7.0293L9.52014 16.9989Z" fill="white"/>
</svg>
