<svg width="37" height="38" viewBox="0 0 37 38" fill="none" xmlns="http://www.w3.org/2000/svg">
<circle cx="18.5" cy="18.7012" r="18.5" fill="#DFE3FF"/>
<path opacity="0.5" d="M10.7373 16.1052C10.7373 15.3495 11.35 14.7368 12.1057 14.7368H27.8426C28.5983 14.7368 29.211 15.3495 29.211 16.1052V23.6315C29.211 24.3873 28.5983 25 27.8426 25H12.1057C11.35 25 10.7373 24.3873 10.7373 23.6315V16.1052Z" fill="white"/>
<path d="M9.36816 14.7366C9.36816 13.9808 9.98083 13.3682 10.7366 13.3682H26.4734C27.2292 13.3682 27.8418 13.9808 27.8418 14.7366V22.2629C27.8418 23.0187 27.2292 23.6313 26.4734 23.6313H10.7366C9.98083 23.6313 9.36816 23.0187 9.36816 22.2629V14.7366Z" fill="#8369A0"/>
<path d="M8 13.3684C8 12.6127 8.61266 12 9.36842 12H25.1052C25.861 12 26.4737 12.6127 26.4737 13.3684V20.8947C26.4737 21.6505 25.861 22.2631 25.1052 22.2631H9.36842C8.61266 22.2631 8 21.6505 8 20.8947V13.3684Z" fill="#40196D"/>
<path fill-rule="evenodd" clip-rule="evenodd" d="M19.2809 17.2119H19.9959V16.4536H19.2809V14.5796H18.4173V18.0787L16.855 14.5796H16.0766V16.4536H15.3691V17.2119H16.0766V17.6052H15.3691V18.3634H16.0766V20.2526H16.9403V16.7974L18.5031 20.2526H19.2809V18.3634H19.9959V17.6052H19.2809V17.2119ZM19.124 16.6108V16.611H19.8388V16.6108H19.124ZM19.1238 14.737V14.7367H18.5744V18.8159L18.5746 18.8162V14.737H19.1238ZM16.753 14.7367L16.7532 14.737H16.2339V16.611H15.5264V17.0548H15.5263V16.6108H16.2337V14.7367H16.753ZM16.2337 17.0551V17.7623H15.5263V18.2063H15.5264V17.7625H16.2339V17.0551H16.2337ZM16.2337 18.2066V20.0954H16.2339V18.2066H16.2337ZM16.7833 16.0692L18.6045 20.0954H18.6046L16.7833 16.0691V16.0692ZM19.8388 17.7625V17.7623H19.124V17.7625H19.8388Z" fill="white"/>
</svg>
