<svg width="38" height="38" viewBox="0 0 38 38" fill="none" xmlns="http://www.w3.org/2000/svg">
<circle cx="19.4609" cy="18.7012" r="18.5" fill="#DFE3FF"/>
<path d="M13.8613 18.6749C13.8613 15.596 16.3572 13.1001 19.4361 13.1001V13.1001C22.515 13.1001 25.0109 15.596 25.0109 18.6749V18.6749C25.0109 21.7537 22.515 24.2497 19.4361 24.2497V24.2497C16.3572 24.2497 13.8613 21.7537 13.8613 18.6749V18.6749Z" fill="white"/>
<path d="M19.498 26.6997C23.8745 26.6997 27.498 23.0762 27.498 18.6997C27.498 14.3311 23.8667 10.6997 19.4902 10.6997C15.1216 10.6997 11.498 14.3311 11.498 18.6997C11.498 23.0762 15.1294 26.6997 19.498 26.6997ZM19.3804 22.5821C17.6549 22.5821 16.4941 21.0213 16.4941 18.6997C16.4941 16.3781 17.6549 14.8174 19.3804 14.8174C21.1137 14.8174 22.2667 16.3781 22.2667 18.6997C22.2667 21.0213 21.1137 22.5821 19.3804 22.5821ZM19.3804 21.5311C20.3529 21.5311 21.0039 20.4017 21.0039 18.6997C21.0039 16.9977 20.3529 15.8683 19.3804 15.8683C18.4079 15.8683 17.7569 16.9977 17.7569 18.6997C17.7569 20.4017 18.4079 21.5311 19.3804 21.5311Z" fill="#40196D"/>
</svg>
